<svg xmlns="http://www.w3.org/2000/svg"  viewBox="0 0 48 48" width="48px" height="48px"><path fill="#f48fb1" d="M32.865,9H16.088C14.382,9,13,10.382,13,12.088v31.824C13,45.618,14.382,47,16.088,47h23.824	C41.618,47,43,45.618,43,43.912V19.076c0-0.533-0.213-1.044-0.591-1.419l-8.135-8.076C33.9,9.209,33.393,9,32.865,9z"/><path fill="none" stroke="#18193f" stroke-linecap="round" stroke-linejoin="round" stroke-miterlimit="10" stroke-width="3" d="M38.5,14.5h-7c-1.105,0-2-0.895-2-2v-7"/><path fill="none" stroke="#18193f" stroke-linecap="round" stroke-linejoin="round" stroke-miterlimit="10" stroke-width="3" d="M32.543,42.5H35.5c1.657,0,3-1.343,3-3v-25"/><path fill="none" stroke="#18193f" stroke-linecap="round" stroke-linejoin="round" stroke-miterlimit="10" stroke-width="3" d="M22.447,5.5H12.5c-1.657,0-3,1.343-3,3v31c0,1.657,1.343,3,3,3h14.872"/><line x1="38.5" x2="29.5" y1="14.5" y2="5.5" fill="none" stroke="#18193f" stroke-linecap="round" stroke-linejoin="round" stroke-miterlimit="10" stroke-width="3"/><path fill="#18193f" d="M29.114,24.568l-3.132-1.259C25.034,22.927,24,23.625,24,24.648v7.768C23.41,32.158,22.732,32,22,32	c-2.209,0-4,1.343-4,3c0,1.657,1.791,3,4,3s4-1.343,4-3v-6.523l3.628,1.452c0.309,0.124,0.658,0.085,0.932-0.101	C30.835,29.642,31,29.332,31,29v-1.646C31,26.12,30.26,25.027,29.114,24.568z"/></svg>