<svg xmlns="http://www.w3.org/2000/svg"  viewBox="0 0 48 48" width="48px" height="48px"><path fill="#a5d6a7" d="M16.3,7c-1.4,0-2.5,1.1-2.5,2.5v35.8c0,1.4,1.1,2.5,2.5,2.5s2.5-1.1,2.5-2.5V9.5C18.8,8.1,17.7,7,16.3,7z"/><path fill="#a5d6a7" d="M22.1,16.7c-1.4,0-2.5,1.1-2.5,2.5v16.4c0,1.4,1.1,2.5,2.5,2.5s2.5-1.1,2.5-2.5V19.2 C24.6,17.8,23.5,16.7,22.1,16.7z"/><path fill="#a5d6a7" d="M10.5,19.6c-1.4,0-2.5,1.1-2.5,2.5v10.6c0,1.4,1.1,2.5,2.5,2.5s2.5-1.1,2.5-2.5V22.1 C13,20.7,11.9,19.6,10.5,19.6z"/><path fill="#a5d6a7" d="M27.9,21.5c-1.4,0-2.5,1.1-2.5,2.5v6.8c0,1.4,1.1,2.5,2.5,2.5s2.5-1.1,2.5-2.5V24 C30.4,22.6,29.3,21.5,27.9,21.5z"/><path fill="#a5d6a7" d="M45.3,19.6c-1.4,0-2.5,1.1-2.5,2.5v10.6c0,1.4,1.1,2.5,2.5,2.5s2.5-1.1,2.5-2.5V22.1 C47.8,20.7,46.7,19.6,45.3,19.6z"/><path fill="#a5d6a7" d="M39.5,7C38.1,7,37,8.1,37,9.5v35.8c0,1.4,1.1,2.5,2.5,2.5s2.5-1.1,2.5-2.5V9.5C42,8.1,40.9,7,39.5,7z"/><path fill="#a5d6a7" d="M33.7,16.7c-1.4,0-2.5,1.1-2.5,2.5v16.4c0,1.4,1.1,2.5,2.5,2.5s2.5-1.1,2.5-2.5V19.2 C36.2,17.8,35.1,16.7,33.7,16.7z"/><line x1="24.5" x2="24.5" y1="20.5" y2="27.5" fill="none" stroke="#18193f" stroke-linecap="round" stroke-miterlimit="10" stroke-width="3"/><line x1="30.5" x2="30.5" y1="15.5" y2="32.5" fill="none" stroke="#18193f" stroke-linecap="round" stroke-miterlimit="10" stroke-width="3"/><line x1="36.5" x2="36.5" y1="20.5" y2="42.5" fill="none" stroke="#18193f" stroke-linecap="round" stroke-miterlimit="10" stroke-width="3"/><line x1="36.5" x2="36.5" y1="5.5" y2="13.8" fill="none" stroke="#18193f" stroke-linecap="round" stroke-miterlimit="10" stroke-width="3"/><line x1="12.5" x2="12.5" y1="38.6" y2="42.5" fill="none" stroke="#18193f" stroke-linecap="round" stroke-miterlimit="10" stroke-width="3"/><line x1="12.5" x2="12.5" y1="5.5" y2="34" fill="none" stroke="#18193f" stroke-linecap="round" stroke-miterlimit="10" stroke-width="3"/><line x1="18.5" x2="18.5" y1="15.5" y2="32.5" fill="none" stroke="#18193f" stroke-linecap="round" stroke-miterlimit="10" stroke-width="3"/><line x1="42.5" x2="42.5" y1="18.5" y2="29.5" fill="none" stroke="#18193f" stroke-linecap="round" stroke-miterlimit="10" stroke-width="3"/><line x1="6.5" x2="6.5" y1="18.5" y2="29.5" fill="none" stroke="#18193f" stroke-linecap="round" stroke-miterlimit="10" stroke-width="3"/></svg>