<svg xmlns="http://www.w3.org/2000/svg"  viewBox="0 0 48 48" width="48px" height="48px"><path fill="#9fa8da" d="M40.892,9H16.189c-1.702,0-3.081,1.379-3.081,3.081v31.838c0,1.702,1.379,3.081,3.081,3.081h24.703	c1.105,0,2-0.895,2-2V11C42.892,9.895,41.996,9,40.892,9z"/><path fill="none" stroke="#18193f" stroke-linecap="round" stroke-linejoin="round" stroke-miterlimit="10" stroke-width="3" d="M16.404,42.5H12.5c-1.657,0-3-1.343-3-3v-31c0-1.657,1.343-3,3-3h25c0.552,0,1,0.448,1,1v20.713"/><path fill="none" stroke="#18193f" stroke-linecap="round" stroke-linejoin="round" stroke-miterlimit="10" stroke-width="3" d="M9.5,39.5c0-1.7,1.3-3,3-3h26v5c0,0.552-0.448,1-1,1H23.617"/><path fill="none" stroke="#18193f" stroke-linecap="round" stroke-linejoin="round" stroke-width="3" d="M31,25.5	c0.953-1.062,1.537-2.461,1.537-4s-0.584-2.938-1.537-4"/><path fill="none" stroke="#18193f" stroke-linecap="round" stroke-linejoin="round" stroke-width="3" d="M20,17.5h-3.5	c-0.552,0-1,0.448-1,1v6c0,0.552,0.448,1,1,1H20l3.848,3.305c0.648,0.557,1.652,0.096,1.652-0.759V14.953	c0-0.855-1.003-1.316-1.652-0.759"/></svg>