<svg xmlns="http://www.w3.org/2000/svg"  viewBox="0 0 48 48" width="48px" height="48px"><path fill="#ffab91" d="M11,20v18.8c0,4.5,7.6,8.1,17,8.1s17-3.6,17-8.1V20"/><ellipse cx="28" cy="19.3" fill="#ffab91" rx="17" ry="8.2"/><path fill="none" stroke="#18193f" stroke-linecap="round" stroke-linejoin="round" stroke-width="3" d="M40.5,24v-8"/><path fill="none" stroke="#18193f" stroke-linecap="round" stroke-linejoin="round" stroke-width="3" d="M7.5,16v18.5c0,4.4,7.4,8,16.5,8s16.5-3.6,16.5-8v-3.3"/><line x1="24" x2="24" y1="28.5" y2="42" fill="none" stroke="#18193f" stroke-linecap="round" stroke-linejoin="round" stroke-width="3"/><line x1="14.5" x2="14.5" y1="27.5" y2="40.5" fill="none" stroke="#18193f" stroke-linecap="round" stroke-linejoin="round" stroke-width="3"/><line x1="33.5" x2="33.5" y1="27.5" y2="40.5" fill="none" stroke="#18193f" stroke-linecap="round" stroke-linejoin="round" stroke-width="3"/><polyline fill="none" stroke="#18193f" stroke-linecap="round" stroke-linejoin="round" stroke-width="3" points="40.5,7 37.4,8.7 34,10.5 28.5,13.5"/><circle cx="28.5" cy="13.5" r="2.5" fill="#18193f"/><path fill="none" stroke="#18193f" stroke-linecap="round" stroke-linejoin="round" stroke-miterlimit="10" stroke-width="3" d="M35.4,9.7c3.1,1.5,5.1,3.5,5.1,5.8c0,4.4-7.4,8-16.5,8c-1.8,0-3.6-0.1-5.2-0.4"/><path fill="none" stroke="#18193f" stroke-linecap="round" stroke-linejoin="round" stroke-miterlimit="10" stroke-width="3" d="M11.3,20.6c-2.4-1.4-3.8-3.2-3.8-5.1c0-4.4,7.4-8,16.5-8c1.6,0,3.1,0.1,4.5,0.3"/></svg>