<svg xmlns="http://www.w3.org/2000/svg"  viewBox="0 0 48 48" width="48px" height="48px" fill="#90caf9"><path fill="#90caf9" d="M45.5,26c0-9.7-7.8-17.5-17.5-17.5S10.5,16.3,10.5,26c0,8.9,6.6,16.2,15.2,17.3l0.9,3.4h0	c0.1,0.7,0.7,1.2,1.5,1.2s1.3-0.5,1.5-1.2h0l0.9-3.4C38.9,42.2,45.5,34.9,45.5,26z"/><path fill="none" stroke="#18193f" stroke-linejoin="round" stroke-width="3" d="M27.5,34.1c0-2-1.6-3.6-3.5-3.6s-3.5,1.6-3.5,3.6c0,0.3,0,0.5,0.1,0.7h0l2,7.9h0c0.1,0.7,0.7,1.2,1.5,1.2	s1.3-0.5,1.5-1.2h0l2-7.9h0C27.5,34.6,27.5,34.4,27.5,34.1z"/><circle cx="24" cy="22" r="3.5" fill="none" stroke="#18193f" stroke-linecap="round" stroke-width="3"/><path fill="none" stroke="#18193f" stroke-linecap="round" stroke-width="3" d="M7.1,26.4C6.7,25,6.5,23.5,6.5,22c0-9.7,7.8-17.5,17.5-17.5S41.5,12.3,41.5,22c0,5.8-2.8,10.9-7.1,14	c-0.5,0.4-1.1,0.8-1.6,1.1"/><path fill="none" stroke="#18193f" stroke-linecap="round" stroke-width="3" d="M15.1,37.1c-0.6-0.3-1.1-0.7-1.6-1.1c-1.2-0.9-2.4-2-3.3-3.3"/><path fill="none" stroke="#18193f" stroke-linecap="round" stroke-width="3" d="M34.6,26.4c-0.6,1.4-1.4,2.7-2.5,3.8"/><path fill="none" stroke="#18193f" stroke-linecap="round" stroke-width="3" d="M15.9,30.1c-2.1-2.1-3.4-5-3.4-8.1c0-6.4,5.1-11.5,11.5-11.5c6,0,10.8,4.5,11.4,10.3"/></svg>