<svg xmlns="http://www.w3.org/2000/svg"  viewBox="0 0 48 48" width="48px" height="48px" fill="#90caf9"><path fill="#90caf9" d="M41,46H16.9c-1.6,0-2.9-1.3-2.9-2.9V23.2v-6.1v-4.1c0-1.6,1.3-2.9,2.9-2.9H41c0.5,0,1,0.4,1,1V45	C42,45.6,41.6,46,41,46z"/><path fill="none" stroke="#18193f" stroke-linecap="round" stroke-linejoin="round" stroke-miterlimit="10" stroke-width="3" d="M9.5,19v-6.3V8.5c0-1.7,1.3-3,3-3h25c0.6,0,1,0.4,1,1v24.4"/><path fill="none" stroke="#18193f" stroke-linecap="round" stroke-linejoin="round" stroke-miterlimit="10" stroke-width="3" d="M38.5,42.5h-26c-1.7,0-3-1.3-3-3V24.8"/><path fill="none" stroke="#18193f" stroke-linecap="round" stroke-linejoin="round" stroke-miterlimit="10" stroke-width="3" d="M27.5,42.5h-15c-1.7,0-3-1.3-3-3v0c0-1.7,1.3-3,3-3h26"/><path fill="none" stroke="#18193f" stroke-miterlimit="10" stroke-width="3" d="M24,12.5c-1.9,0-3.5,1.6-3.5,3.5s1.6,3.5,3.5,3.5s3.5-1.6,3.5-3.5S25.9,12.5,24,12.5z"/><path fill="none" stroke="#18193f" stroke-linecap="round" stroke-linejoin="round" stroke-miterlimit="10" stroke-width="3" d="M18.6,26v-0.6c0-3,2.4-5.4,5.4-5.4h0c3,0,5.4,2.4,5.4,5.4V26"/></svg>