<svg xmlns="http://www.w3.org/2000/svg"  viewBox="0 0 48 48" width="48px" height="48px"><path fill="#ffe082" d="M43,24.7c-2.8,0-5,2.2-5,5c0,0,0,0,0,0.1c-0.7-3.1-2-9.4-2.5-11.7c-0.7-3.2-2.8-5-4.2-5	c-1.3,0-2.5,1.7-3.3,1.7S26,13,24.7,13c-1.3,0-3.5,2-4.2,5c-0.6,2.2-1.8,8.1-2.5,11.5c-0.1-2.7-2.2-4.8-5-4.8c-2.8,0-5,2.2-5,5	C8,36.2,11,43,28,43s20-7,20-13.3C48,26.8,45.8,24.7,43,24.7z"/><path fill="none" stroke="#18193f" stroke-linecap="round" stroke-linejoin="round" stroke-miterlimit="10" stroke-width="3" d="M13.3,37.7C16,38.5,19.5,39,24,39c17,0,20-7,20-13.3c0-2.8-2.2-5-5-5s-5,2.2-5,5c0,6.3-5.8,6.7-10,6.7	s-10,0-10-6.7c0-2.8-2.2-5-5-5s-5,2.2-5,5c0,3.2,0.7,6.6,3.6,9.1"/><path fill="none" stroke="#18193f" stroke-linecap="round" stroke-linejoin="round" stroke-miterlimit="10" stroke-width="3" d="M14,22.3c0,0,1.5,3.3,10,3.3c1.8,0,3.3-0.2,4.6-0.4"/><path fill="none" stroke="#18193f" stroke-linecap="round" stroke-linejoin="round" stroke-miterlimit="10" stroke-width="3" d="M14,25.7c0,0,1.7-8.5,2.5-11.7c0.7-3,2.8-5,4.2-5s2.5,1.7,3.3,1.7S26,9,27.3,9s3.5,1.8,4.2,5	c0.2,1,0.5,2.4,0.8,4"/></svg>