<svg xmlns="http://www.w3.org/2000/svg"  viewBox="0 0 48 48" width="48px" height="48px"><path fill="#8ce7f2" d="M46.158,16.686c-0.087-1.574-0.964-3.013-2.221-3.964c-3.702-2.801-7.573,0.112-10.214,3.126	c-2.411-1.592-7.177-6.55-9.043-8.796c-0.537-0.647-1.555-0.453-1.855,0.332c-1.832,4.791-0.27,9.143,0.845,11.342	c-4.763-3.052-10.083-8.745-12.513-11.483c-0.619-0.698-1.778-0.334-1.889,0.592c-0.326,2.707,0.825,4.793,1.196,7.259	c-1.004,0.981-1.63,2.349-1.63,3.864c0,2.486,1.68,4.573,3.964,5.204c-0.021,0.228-0.034,0.458-0.034,0.691	c0,4.069,1.334,6.386,5.404,6.386c0.92,0,1.796-0.176,2.607-0.483c0.521,0.319,0.831,1.466,0.831,1.466s-14.737,9.825-8.842,14.737	c1.684,1.404,3.249,0.982,4.912,0.982c4.912,0,7.86-3.256,7.86-7.613v-0.247c20.632,0,14.839-17.657,14.839-17.657l-0.027-0.049	c0.138,0.011,0.276,0.022,0.417,0.022C43.849,22.397,46.331,19.81,46.158,16.686z"/><path fill="#18193f" d="M41.646,17.593l4.287-0.4c0.459-0.043,0.825-0.404,0.873-0.863l0,0	c0.032-0.303-0.078-0.601-0.302-0.808c-1.214-1.12-5.122-4.996-5.122-4.996L41.646,17.593z"/><path fill="none" stroke="#18193f" stroke-linecap="round" stroke-linejoin="round" stroke-miterlimit="10" stroke-width="3" d="M3.507,16.279c0.12,2.406,1.789,4.4,4.028,5.018C7.514,21.529,7.5,21.763,7.5,22c0,4.142,1.358,6.5,5.5,6.5	c0.936,0,1.828-0.179,2.654-0.492C16.184,28.333,16.5,29.5,16.5,29.5s-15,10-9,15c1.714,1.429,3.307,1,5,1c5,0,8-3.314,8-7.749V37.5"/><path fill="none" stroke="#18193f" stroke-linecap="round" stroke-linejoin="round" stroke-miterlimit="10" stroke-width="3" d="M27.739,36.569c12.248-3.684,7.865-17.041,7.865-17.041l-0.028-0.05C35.716,19.489,35.857,19.5,36,19.5	c3.141,0,5.667-2.633,5.491-5.813c-0.089-1.602-0.981-3.067-2.26-4.035C32.632,4.661,25.5,17.5,25.5,17.5	C20.6,19.95,9.698,8.395,5.865,4.075c-0.63-0.71-1.81-0.34-1.923,0.603c-0.332,2.755,0.84,4.878,1.217,7.389"/><path fill="none" stroke="#18193f" stroke-linecap="round" stroke-linejoin="round" stroke-miterlimit="10" stroke-width="3" d="M16.735,8.864c0.061-1.369,0.349-2.926,1.007-4.646c0.306-0.799,1.342-0.996,1.888-0.338c2.278,2.743,7.337,8.62,8.87,8.62"/></svg>