<svg xmlns="http://www.w3.org/2000/svg"  viewBox="0 0 48 48" width="48px" height="48px"><path fill="#8ce7f2" d="M39.3,14.5c-1.9-0.8-4-1.1-6-1.3c-2.6-0.3-5.2-0.3-7.7-0.2c-2.3,0.1-4.7,0.3-6.9,0.9c-0.6,0.2-1.3,0.3-1.9,0.6	c-6.9,2.8-11,23-6.5,28s12-9,13.5-9h8.6c1.5,0,9,14,13.5,9S46.2,17.3,39.3,14.5z"/><line x1="15.5" x2="15.5" y1="18.5" y2="24.5" fill="none" stroke="#18193f" stroke-linecap="round" stroke-linejoin="round" stroke-width="3"/><line x1="18.5" x2="12.5" y1="21.5" y2="21.5" fill="none" stroke="#18193f" stroke-linecap="round" stroke-linejoin="round" stroke-width="3"/><circle cx="32.5" cy="17.5" r="1.5" fill="#18193f"/><circle cx="28.5" cy="21.5" r="1.5" fill="#18193f"/><circle cx="36.5" cy="21.5" r="1.5" fill="#18193f"/><circle cx="32.5" cy="25.5" r="1.5" fill="#18193f"/><path fill="none" stroke="#18193f" stroke-linecap="round" stroke-linejoin="round" stroke-width="3" d="M43,24.8C41.8,18.4,39,12,35.3,10.5c-1.9-0.8-4-1.1-6-1.3c-2.6-0.3-5.2-0.3-7.7-0.2c-2.3,0.1-4.7,0.3-6.9,0.9	c-0.6,0.2-1.3,0.3-1.9,0.6C11,11.2,9.4,13,8.1,15.4"/><path fill="none" stroke="#18193f" stroke-linecap="round" stroke-linejoin="round" stroke-width="3" d="M5.5,22.2c-1.7,6.4-1.8,13.6,0.7,16.3c4.5,5,12-9,13.5-9h8.6c1.5,0,9,14,13.5,9c1.2-1.4,1.8-3.8,1.9-6.7"/></svg>