<svg xmlns="http://www.w3.org/2000/svg"  viewBox="0 0 48 48" width="48px" height="48px"><circle cx="28" cy="28" r="18" fill="#f48fb1"/><path fill="#18193f" d="M19.664,13.946C18.703,14.11,18,14.943,18,15.918V26.89c0,0.42-0.25,0.79-0.66,0.9l-2,0.75	c-1.22,0.37-2.14,1.42-2.31,2.72c-0.136,1.022,0.192,2.16,1.379,3.019c0.613,0.444,1.367,0.661,2.124,0.661h0.077	c2.64,0,4.39-2.14,4.39-4.79l-0.008-9.734c0-0.49,0.354-0.908,0.838-0.988l7.008-1.154c0.609-0.1,1.162,0.37,1.162,0.987v4.678	c0,0.43-0.25,0.8-0.66,0.9l-2,0.76c-1.22,0.36-2.14,1.42-2.31,2.71c-0.081,0.63,0.003,1.261,0.336,1.891	c0.605,1.144,1.855,1.8,3.148,1.8h0.096c2.425,0,4.39-1.965,4.39-4.39V14.04c0-1.239-1.115-2.18-2.336-1.971L19.664,13.946z"/><path fill="none" stroke="#18193f" stroke-linecap="round" stroke-linejoin="round" stroke-width="3" d="M31.289,41.009	C29.053,41.968,26.588,42.5,24,42.5C13.783,42.5,5.5,34.217,5.5,24c0-2.87,0.653-5.586,1.819-8.01"/><path fill="none" stroke="#18193f" stroke-linecap="round" stroke-linejoin="round" stroke-width="3" d="M13.525,8.749	C16.503,6.7,20.112,5.5,24,5.5c10.217,0,18.5,8.283,18.5,18.5c0,4.689-1.745,8.971-4.62,12.232"/></svg>