<svg xmlns="http://www.w3.org/2000/svg"  viewBox="0 0 48 48" width="48px" height="48px" fill="#90caf9"><path fill="#90caf9" d="M44.075,31.582c-0.494,2.539-4.421,5.319-8.932,5.857c-2.352,0.281-4.668,0.539-7.137,0.425	c-4.039-0.185-7.225-0.964-7.225-0.964c0,0.393,0.024,0.767,0.073,1.118c0.525,3.986,3.952,4.224,7.198,4.336	c2.014,0.069,3.892-0.252,5.041-0.51c0.605-0.136,1.181,0.313,1.209,0.932l0.048,1.05c0.019,0.427-0.228,0.816-0.625,0.974	c-0.951,0.379-2.911,1.009-5.718,1.165c-2.251,0.124-5.047-0.057-8.302-0.918c-7.061-1.869-8.276-9.396-8.461-17.033	c-0.057-2.268-0.022-4.406-0.022-6.194c0-7.809,5.117-10.099,5.117-10.099c2.58-1.185,7.007-1.683,11.61-1.721h0.113	c4.602,0.038,9.032,0.536,11.612,1.721c0,0,5.117,2.289,5.117,10.099C44.789,21.819,44.853,27.581,44.075,31.582"/><path fill="none" stroke="#18193f" stroke-linecap="round" stroke-linejoin="round" stroke-miterlimit="10" stroke-width="3" d="M7.242,24.013c-0.057-2.268-0.022-4.406-0.022-6.194c0-7.809,5.117-10.099,5.117-10.099c2.58-1.185,7.007-1.683,11.61-1.721h0.113	c4.602,0.038,9.032,0.536,11.612,1.721c0,0,5.117,2.289,5.117,10.099c0,0,0.064,5.762-0.714,9.762"/><path fill="none" stroke="#18193f" stroke-linecap="round" stroke-linejoin="round" stroke-miterlimit="10" stroke-width="3" d="M35.069,32.373c-1.197,0.52-2.533,0.9-3.925,1.066c-2.352,0.281-4.668,0.539-7.137,0.425c-4.039-0.185-7.225-0.964-7.225-0.964	c0,0.393,0.024,0.767,0.073,1.118c0.525,3.986,3.952,4.224,7.198,4.336c2.014,0.069,3.892-0.252,5.041-0.51	c0.605-0.136,1.181,0.313,1.209,0.932l0.048,1.05c0.019,0.427-0.228,0.816-0.625,0.974c-0.951,0.379-2.911,1.009-5.718,1.165	c-2.251,0.124-5.047-0.057-8.302-0.918c-5.567-1.474-7.5-6.464-8.16-12.253"/><path fill="#18193f" d="M34.753,18.425v9.456h-3.746v-9.178c0-1.935-0.814-2.917-2.442-2.917c-1.8,0-2.703,1.165-2.703,3.468	v5.024h-3.724v-5.024c0-2.303-0.902-3.468-2.703-3.468c-1.628,0-2.442,0.982-2.442,2.917v9.178h-3.746v-9.456	c0-1.933,0.492-3.468,1.48-4.605c1.019-1.136,2.354-1.719,4.011-1.719c1.917,0,3.369,0.737,4.329,2.211L24,15.877l0.933-1.564	c0.96-1.474,2.411-2.211,4.329-2.211c1.657,0,2.992,0.582,4.011,1.719C34.261,14.957,34.753,16.493,34.753,18.425"/></svg>