<svg xmlns="http://www.w3.org/2000/svg"  viewBox="0 0 48 48" width="48px" height="48px"><path fill="#9fa8da" d="M28,35.5L28,35.5c-3.9,0-7-3.1-7-7V15.5c0-3.9,3.1-7,7-7l0,0c3.9,0,7,3.1,7,7v13.1C35,32.4,31.9,35.5,28,35.5z"/><line x1="24" x2="24" y1="38.5" y2="44.5" fill="none" stroke="#18193f" stroke-linecap="round" stroke-linejoin="round" stroke-width="3"/><path fill="none" stroke="#18193f" stroke-linecap="round" stroke-linejoin="round" stroke-width="3" d="M31.5,16v9c0,4.1-3.4,7.5-7.5,7.5l0,0c-4.1,0-7.5-3.4-7.5-7.5v-1.7"/><path fill="none" stroke="#18193f" stroke-linecap="round" stroke-linejoin="round" stroke-width="3" d="M16.5,17.4V11c0-4.1,3.4-7.5,7.5-7.5l0,0c4.1,0,7.5,3.4,7.5,7.5"/><path fill="none" stroke="#18193f" stroke-linecap="round" stroke-linejoin="round" stroke-width="3" d="M37.1,28.1c-1.4,6-6.8,10.4-13.1,10.4c-7.5,0-13.5-6-13.5-13.5c0-2.5,0-4.5,0-4.5"/><path fill="none" stroke="#18193f" stroke-linecap="round" stroke-linejoin="round" stroke-width="3" d="M37.5,20.5c0,0,0,1.2,0,2.8"/><line x1="18" x2="30" y1="45" y2="45" fill="none" stroke="#18193f" stroke-linecap="round" stroke-linejoin="round" stroke-width="3"/></svg>