<svg xmlns="http://www.w3.org/2000/svg"  viewBox="0 0 48 48" width="48px" height="48px"><path fill="#f48fb1" d="M32.865,9H16.088C14.382,9,13,10.382,13,12.088v31.824C13,45.618,14.382,47,16.088,47h23.824	C41.618,47,43,45.618,43,43.912V19.076c0-0.533-0.213-1.044-0.591-1.419l-8.135-8.076C33.9,9.209,33.393,9,32.865,9z"/><path fill="#18193f" d="M19,33c-0.552,0-1-0.448-1-1v-3.238l-0.732,0.878c-0.38,0.456-1.156,0.456-1.536,0L15,28.762V32	c0,0.552-0.448,1-1,1s-1-0.448-1-1v-6c0-0.421,0.264-0.797,0.66-0.94s0.838-0.023,1.108,0.3l1.732,2.078l1.732-2.078	c0.27-0.324,0.714-0.443,1.108-0.3C19.736,25.203,20,25.579,20,26v6C20,32.552,19.552,33,19,33z"/><path fill="#18193f" d="M25,25h-2c-0.552,0-1,0.448-1,1v6c0,0.552,0.448,1,1,1s1-0.448,1-1v-1h1c1.654,0,3-1.346,3-3	S26.654,25,25,25z M25,29h-1v-2h1c0.551,0,1,0.449,1,1S25.551,29,25,29z"/><path fill="#18193f" d="M32,33c-1.509,0-2.452-0.6-2.555-0.668c-0.459-0.306-0.583-0.927-0.277-1.387	c0.304-0.456,0.917-0.582,1.376-0.285C30.583,30.685,31.115,31,32,31c0.167,0,1-0.024,1-0.5S32.167,30,32,30c-0.552,0-1-0.448-1-1	s0.448-1,1-1c0.75,0,0.75-0.301,0.75-0.5c0-0.435-0.548-0.5-0.875-0.5c-0.702,0-1.138,0.427-1.156,0.445	c-0.387,0.385-1.017,0.396-1.409,0.016s-0.413-0.997-0.04-1.396C29.373,25.957,30.315,25,31.875,25c1.693,0,2.875,1.028,2.875,2.5	c0,0.524-0.136,0.988-0.383,1.37C34.772,29.292,35,29.85,35,30.5C35,31.995,33.794,33,32,33z"/><path fill="none" stroke="#18193f" stroke-linecap="round" stroke-linejoin="round" stroke-miterlimit="10" stroke-width="3" d="M26.66,35.5H8.5c-0.552,0-1-0.448-1-1v-11c0-0.552,0.448-1,1-1h7.117"/><path fill="none" stroke="#18193f" stroke-linecap="round" stroke-linejoin="round" stroke-miterlimit="10" stroke-width="3" d="M21.404,22.5h2.362H39.5c0.552,0,1,0.448,1,1v11c0,0.552-0.448,1-1,1H34h-1.117"/><path fill="none" stroke="#18193f" stroke-linecap="round" stroke-linejoin="round" stroke-miterlimit="10" stroke-width="3" d="M38.5,14.5h-7c-1.105,0-2-0.895-2-2v-7"/><line x1="38.5" x2="38.5" y1="21.596" y2="14.5" fill="none" stroke="#18193f" stroke-linecap="round" stroke-linejoin="round" stroke-miterlimit="10" stroke-width="3"/><path fill="none" stroke="#18193f" stroke-linecap="round" stroke-linejoin="round" stroke-miterlimit="10" stroke-width="3" d="M9.5,35.979V39.5c0,1.657,1.343,3,3,3h23"/><path fill="none" stroke="#18193f" stroke-linecap="round" stroke-linejoin="round" stroke-miterlimit="10" stroke-width="3" d="M22.787,5.5H12.5c-1.657,0-3,1.343-3,3v13.096"/><line x1="38.5" x2="29.5" y1="14.5" y2="5.5" fill="none" stroke="#18193f" stroke-linecap="round" stroke-linejoin="round" stroke-miterlimit="10" stroke-width="3"/></svg>