<svg xmlns="http://www.w3.org/2000/svg"  viewBox="0 0 48 48" width="48px" height="48px" fill="#f48fb1"><path fill="#f48fb1" d="M43.3,11.8L24.8,16c-1.4,0.3-2.3,1.5-2.3,2.9v4.4c0,0.6,0.6,1.1,1.2,1l20-4.5c0.5-0.1,0.8-0.5,0.8-1v-5.9	C44.5,12.1,43.9,11.6,43.3,11.8z"/><ellipse cx="16.5" cy="40.5" fill="#f48fb1" rx="6" ry="5"/><ellipse cx="38.5" cy="36.5" fill="#f48fb1" rx="6" ry="5"/><path fill="none" stroke="#18193f" stroke-linecap="round" stroke-linejoin="round" stroke-miterlimit="10" stroke-width="3" d="M40.5,15.5v-8L20.8,12c-1.4,0.3-2.3,1.5-2.3,2.9v5.6l15-3.4"/><line x1="18.5" x2="18.5" y1="15.5" y2="36.5" fill="none" stroke="#18193f" stroke-linecap="round" stroke-linejoin="round" stroke-miterlimit="10" stroke-width="3"/><line x1="40.5" x2="40.5" y1="12.5" y2="32.5" fill="none" stroke="#18193f" stroke-linecap="round" stroke-linejoin="round" stroke-miterlimit="10" stroke-width="3"/><path fill="none" stroke="#18193f" stroke-linecap="round" stroke-linejoin="round" stroke-miterlimit="10" stroke-width="3" d="M14.1,31.6c2.6,0.6,4.4,2.5,4.4,4.9c0,2.8-2.7,5-6,5s-6-2.2-6-5c0-0.9,0.3-1.7,0.7-2.4"/><ellipse cx="34.5" cy="32.5" fill="none" stroke="#18193f" stroke-linecap="round" stroke-linejoin="round" stroke-miterlimit="10" stroke-width="3" rx="6" ry="5"/></svg>