<svg xmlns="http://www.w3.org/2000/svg"  viewBox="0 0 48 48" width="48px" height="48px"><path fill="#9fa8da" d="M35.273,42H20.727C15.907,42,12,38.154,12,33.409v-8.591C12,22.71,13.737,21,15.879,21h24.242	C42.263,21,44,22.71,44,24.818v8.591C44,38.154,40.093,42,35.273,42z"/><path fill="none" stroke="#18193f" stroke-linecap="round" stroke-linejoin="round" stroke-miterlimit="10" stroke-width="3" d="M33.894,16.5H36.5c2.209,0,4,1.791,4,4v9c0,4.971-4.029,9-9,9h-9.819"/><path fill="none" stroke="#18193f" stroke-linecap="round" stroke-linejoin="round" stroke-miterlimit="10" stroke-width="3" d="M15.764,38.47C11.137,38.096,7.5,34.223,7.5,29.5v-9c0-2.209,1.791-4,4-4h17.798"/><line x1="24" x2="24" y1="16.5" y2="7.5" fill="none" stroke="#18193f" stroke-linecap="round" stroke-linejoin="round" stroke-miterlimit="10" stroke-width="3"/><path fill="none" stroke="#18193f" stroke-linecap="round" stroke-linejoin="round" stroke-miterlimit="10" stroke-width="3" d="M2.5,23.5c0-1.657,1.343-3,3-3h2"/><path fill="none" stroke="#18193f" stroke-linecap="round" stroke-linejoin="round" stroke-miterlimit="10" stroke-width="3" d="M7.5,33.5h-2c-1.657,0-3-1.343-3-3"/><path fill="none" stroke="#18193f" stroke-linecap="round" stroke-linejoin="round" stroke-miterlimit="10" stroke-width="3" d="M45.5,30.5c0,1.657-1.343,3-3,3h-2"/><path fill="none" stroke="#18193f" stroke-linecap="round" stroke-linejoin="round" stroke-miterlimit="10" stroke-width="3" d="M40.5,20.5h2c1.657,0,3,1.343,3,3"/><line x1="21.5" x2="26.5" y1="21.5" y2="21.5" fill="none" stroke="#18193f" stroke-linecap="round" stroke-linejoin="round" stroke-miterlimit="10" stroke-width="3"/><circle cx="14.5" cy="31.5" r="1.5" fill="#18193f"/><circle cx="33.5" cy="31.5" r="1.5" fill="#18193f"/></svg>