<svg xmlns="http://www.w3.org/2000/svg"  viewBox="0 0 48 48" width="48px" height="48px"><path fill="#ffe082" d="M27.848,9.249c-9.85,0-18.205,7.882-18.727,17.73C8.547,37.798,17.15,46.751,27.844,46.751	c5.185,0,9.869-2.11,13.26-5.514c1.171-1.176,1.031-3.114-0.323-4.073l-11.491-8.14c-0.698-0.494-0.683-1.534,0.028-2.007	l11.008-7.339c1.887-1.258,2.141-3.623,0.506-5.195c-3.343-3.216-7.875-5.202-12.872-5.233C27.924,9.249,27.885,9.249,27.848,9.249	L27.848,9.249z"/><circle cx="34" cy="24" r="3" fill="#18193f"/><circle cx="42" cy="24" r="3" fill="#18193f"/><path fill="#18193f" d="M37.8,33.775l-12.257-8.682c-0.744-0.527-0.728-1.635,0.03-2.141l3.858-2.572 c0.675-0.45,0.87-1.354,0.441-2.042v0c-0.448-0.719-1.401-0.924-2.105-0.455l-3.736,2.491c-0.819,0.546-1.489,1.319-1.803,2.252 c-0.631,1.872,0.063,3.838,1.582,4.914l12.1,8.571C32.709,39.265,28.487,41,24,41c-3.787,0-7.355-1.224-10.295-3.478 c-0.567-0.435-1.366-0.387-1.895,0.093h0c-0.689,0.625-0.658,1.733,0.082,2.297C15.252,42.475,19.447,44,24,44 c5.53,0,10.527-2.251,14.144-5.881C39.393,36.865,39.244,34.798,37.8,33.775z"/><path fill="#18193f" d="M8.98,34.321c0.512-0.465,0.655-1.229,0.308-1.827c-1.642-2.822-2.441-6.058-2.263-9.424 C7.495,14.209,15.112,7,24.004,7h0.102c4.372,0.027,8.516,1.711,11.669,4.744c0.094,0.09,0.249,0.266,0.234,0.431 c-0.013,0.142-0.147,0.311-0.358,0.452l-1.773,1.182c-0.675,0.45-0.87,1.354-0.441,2.042v0c0.448,0.719,1.401,0.924,2.105,0.455 l1.796-1.197c1.973-1.315,2.274-3.822,0.572-5.472c-3.571-3.461-8.428-5.602-13.785-5.636C24.085,4,24.044,4,24.004,4 C13.498,4,4.586,12.407,4.029,22.911c-0.214,4.044,0.774,7.844,2.639,11.074c0.475,0.823,1.601,0.982,2.304,0.344L8.98,34.321z"/></svg>