<svg xmlns="http://www.w3.org/2000/svg"  viewBox="0 0 48 48" width="48px" height="48px"><path fill="#ffab91" d="M38.375,29.882v-8.649C41.352,20.348,42,17.5,42,17.5c-7.276,0-15.5-9-15.5-9s-7.588,9-15.5,9	c0,0,0.648,2.848,3.625,3.734v8.649c-0.929,0.849-3.727,2.832-9.625,2.832c0,0,0.894,4.286,5.5,4.286v8.807	c0,1.142,0.924,2.068,2.065,2.068h27.871c1.14,0,2.065-0.926,2.065-2.068V37c4.606,0,5.5-4.286,5.5-4.286	C42.102,32.714,39.304,30.731,38.375,29.882z"/><line x1="27.5" x2="27.5" y1="21.5" y2="24.5" fill="none" stroke="#18193f" stroke-linecap="round" stroke-linejoin="round" stroke-miterlimit="10" stroke-width="3"/><line x1="20.5" x2="20.5" y1="21.5" y2="24.5" fill="none" stroke="#18193f" stroke-linecap="round" stroke-linejoin="round" stroke-miterlimit="10" stroke-width="3"/><path fill="none" stroke="#18193f" stroke-linecap="round" stroke-linejoin="round" stroke-miterlimit="10" stroke-width="3" d="M32.5,31.5H40c4.606,0,5.5-4,5.5-4l0,0c-7.5,0-10-3-10-3h-23c0,0-2.5,3-10,3l0,0c0,0,0.894,4,5.5,4h19.5"/><path fill="none" stroke="#18193f" stroke-linecap="round" stroke-linejoin="round" stroke-miterlimit="10" stroke-width="3" d="M19.352,7.894C22.162,5.68,24,3.5,24,3.5l0,0c0,0,8.224,9,15.5,9l0,0c0,0-0.894,4-5.5,4H14c-4.606,0-5.5-4-5.5-4l0,0	c2.472,0,4.913-0.879,7.101-2.087"/><path fill="none" stroke="#18193f" stroke-linecap="round" stroke-linejoin="round" stroke-miterlimit="10" stroke-width="3" d="M8.5,37v3.5c0,1.105,0.895,2,2,2h9v-4c0-1.105,0.895-2,2-2h5c1.105,0,2,0.895,2,2v4h9c1.105,0,2-0.895,2-2v-9"/><line x1="12.5" x2="12.5" y1="16.341" y2="24.5" fill="none" stroke="#18193f" stroke-linecap="round" stroke-linejoin="round" stroke-miterlimit="10" stroke-width="3"/><line x1="35.5" x2="35.5" y1="16.341" y2="24.5" fill="none" stroke="#18193f" stroke-linecap="round" stroke-linejoin="round" stroke-miterlimit="10" stroke-width="3"/><line x1="18.5" x2="32.5" y1="42.5" y2="42.5" fill="none" stroke="#18193f" stroke-linecap="round" stroke-linejoin="round" stroke-miterlimit="10" stroke-width="3"/></svg>