<svg xmlns="http://www.w3.org/2000/svg"  viewBox="0 0 48 48" width="48px" height="48px" fill="#90caf9"><path fill="#90caf9" d="M42.1,13H13.9c-2.1,0-3.9,1.7-3.9,3.9v23.2c0,2.1,1.7,3.9,3.9,3.9h28.2c2.1,0,3.9-1.7,3.9-3.9V16.9	C46,14.7,44.3,13,42.1,13z"/><path fill="none" stroke="#18193f" stroke-linecap="round" stroke-linejoin="round" stroke-width="3" d="M42.5,20.9V36c0,2.2-1.8,4-4,4h-29c-2.2,0-4-1.8-4-4v-3.7"/><path fill="none" stroke="#18193f" stroke-linecap="round" stroke-linejoin="round" stroke-width="3" d="M5.5,26.5v-14c0-2.2,1.8-4,4-4h29c2.2,0,4,1.8,4,4v3"/><line x1="11.5" x2="11.5" y1="26.5" y2="34.5" fill="none" stroke="#18193f" stroke-linecap="round" stroke-width="3"/><line x1="16.5" x2="16.5" y1="26.5" y2="34.5" fill="none" stroke="#18193f" stroke-linecap="round" stroke-width="3"/><line x1="21.5" x2="21.5" y1="26.5" y2="34.5" fill="none" stroke="#18193f" stroke-linecap="round" stroke-width="3"/><line x1="31.5" x2="31.5" y1="26.5" y2="34.5" fill="none" stroke="#18193f" stroke-linecap="round" stroke-width="3"/><line x1="36.5" x2="36.5" y1="26.5" y2="34.5" fill="none" stroke="#18193f" stroke-linecap="round" stroke-width="3"/><path fill="none" stroke="#18193f" stroke-linecap="round" stroke-linejoin="round" stroke-width="3" d="M5.5,33.3V36c0,2.2,1.8,4,4,4h29c2.2,0,4-1.8,4-4v-9.5h-37"/></svg>