<svg xmlns="http://www.w3.org/2000/svg"  viewBox="0 0 48 48" width="48px" height="48px"><path fill="#ffe082" d="M27.073,46.783c-3.552-1.691-16.128-9.068-16.982-29.064c-0.05-1.167,0.826-2.155,1.986-2.276	c5.832-0.608,10.881-3.673,13.655-5.699c1.358-0.992,3.182-0.992,4.541,0c2.773,2.026,7.823,5.091,13.655,5.699	c1.159,0.121,2.035,1.109,1.986,2.276c-0.854,19.995-13.431,27.373-16.982,29.064C28.338,47.064,27.664,47.064,27.073,46.783z"/><path fill="none" stroke="#18193f" stroke-linecap="round" stroke-linejoin="round" stroke-miterlimit="10" stroke-width="3" d="M36.233,10.73c1.183,0.331,2.419,0.581,3.692,0.713c1.159,0.121,2.035,1.109,1.986,2.276c-0.854,19.995-13.431,27.373-16.982,29.064	c-0.592,0.281-1.265,0.281-1.857,0c-1.896-0.902-6.362-3.425-10.246-8.622"/><path fill="none" stroke="#18193f" stroke-linecap="round" stroke-linejoin="round" stroke-miterlimit="10" stroke-width="3" d="M8.999,27.439c-1.564-3.723-2.675-8.249-2.908-13.719c-0.05-1.167,0.826-2.155,1.986-2.276c5.832-0.608,10.881-3.673,13.655-5.699	c1.358-0.992,3.182-0.992,4.541,0c0.941,0.688,2.145,1.495,3.553,2.286"/><path fill="none" stroke="#18193f" stroke-linecap="round" stroke-linejoin="round" stroke-miterlimit="10" stroke-width="3" d="M24.001,11.481c2.965,2.006,6.976,4.172,11.64,5.296c-1.502,11.875-7.993,17.452-11.64,19.687	c-3.645-2.234-10.136-7.809-11.639-19.687c2.14-0.516,4.143-1.251,5.97-2.09"/></svg>