<svg xmlns="http://www.w3.org/2000/svg"  viewBox="0 0 48 48" width="48px" height="48px"><path fill="#9fa8da" d="M41,12.9v31.3c0,2.1-1.7,3.9-3.9,3.9H18.9c-2.1,0-3.9-1.7-3.9-3.9V12.9c0-2.1,1.7-3.9,3.9-3.9h18.3	C39.3,9,41,10.7,41,12.9z"/><path fill="none" stroke="#18193f" stroke-linecap="round" stroke-linejoin="round" stroke-width="3" d="M37.5,37.6v2.9c0,2.2-1.8,4-4,4h-19c-2.2,0-4-1.8-4-4V18.3"/><path fill="none" stroke="#18193f" stroke-linecap="round" stroke-linejoin="round" stroke-width="3" d="M10.5,11.6V8.5c0-2.2,1.8-4,4-4h19c2.2,0,4,1.8,4,4v22.9"/><path fill="none" stroke="#18193f" stroke-linecap="round" stroke-linejoin="round" stroke-width="3" d="M30.3,25.2c1.4,1.5,2.2,3.5,2.2,5.8c0,4.7-3.8,8.5-8.5,8.5s-8.5-3.8-8.5-8.5s3.8-8.5,8.5-8.5"/><circle cx="24" cy="13" r="3.5" fill="none" stroke="#18193f" stroke-width="3"/><circle cx="24" cy="31" r="2.5" fill="#18193f"/></svg>