<svg xmlns="http://www.w3.org/2000/svg"  viewBox="0 0 48 48" width="48px" height="48px" fill="#9fa8da"><path fill="#9fa8da" d="M32.8,9H16.2c-1.7,0-3.1,1.4-3.1,3.1V44c0,1.7,1.4,3.1,3.1,3.1h23.7c1.7,0,3.1-1.4,3.1-3.1V19.1	c0-0.5-0.2-1-0.6-1.4l-8.1-8.1C33.9,9.2,33.4,9,32.8,9z"/><path fill="none" stroke="#18193f" stroke-linecap="round" stroke-linejoin="round" stroke-miterlimit="10" stroke-width="3" d="M38.5,27.9V14.5h-7c-1.1,0-2-0.9-2-2v-7"/><path fill="none" stroke="#18193f" stroke-linecap="round" stroke-linejoin="round" stroke-miterlimit="10" stroke-width="3" d="M9.5,22.9v16.6c0,1.7,1.3,3,3,3h23c1.7,0,3-1.3,3-3v-5.4"/><path fill="none" stroke="#18193f" stroke-linecap="round" stroke-linejoin="round" stroke-miterlimit="10" stroke-width="3" d="M29.5,5.5h-17c-1.7,0-3,1.3-3,3v5.8"/><line x1="38.5" x2="29.5" y1="14.5" y2="5.5" fill="none" stroke="#18193f" stroke-linecap="round" stroke-linejoin="round" stroke-miterlimit="10" stroke-width="3"/><path fill="none" stroke="#18193f" stroke-linecap="round" stroke-linejoin="round" stroke-miterlimit="10" stroke-width="3" d="M23.2,23.1l-1.7-1c-1.3-0.8-3,0.2-3,1.7v9.5c0,1.5,1.7,2.5,3,1.7l8.2-4.8c1.3-0.8,1.3-2.7,0-3.5l-2.4-1.4"/></svg>