<svg xmlns="http://www.w3.org/2000/svg"  viewBox="0 0 48 48" width="48px" height="48px" fill="#ffab91"><path fill="#ffab91" d="M40.9,26H15.1c-2.3,0-4.1,1.9-4.1,4.1v12.7c0,2.3,1.9,4.1,4.1,4.1h25.7c2.3,0,4.1-1.9,4.1-4.1V30.1	C45,27.9,43.1,26,40.9,26z"/><path fill="none" stroke="#18193f" stroke-linecap="round" stroke-linejoin="round" stroke-width="3" d="M33.7,42.5h2.8c2.2,0,4-1.8,4-4v-12c0-2.2-1.8-4-4-4H19.4"/><path fill="none" stroke="#18193f" stroke-linecap="round" stroke-linejoin="round" stroke-width="3" d="M13.6,22.5h-2.1c-2.2,0-4,1.8-4,4v12c0,2.2,1.8,4,4,4h15.9"/><path fill="#18193f" d="M25.8,9.8c-0.2-0.7-0.6-1.2-1.1-1.5c-0.5-0.3-1.1-0.5-1.9-0.5c-0.8,0-1.5,0.2-2,0.5c-0.5,0.3-0.9,0.8-1.1,1.5	c-0.2,0.7-0.4,1.6-0.4,2.8v1.6c0,1.2,0.1,2.1,0.3,2.8c0.2,0.7,0.6,1.2,1,1.5c0.5,0.3,1.2,0.5,2,0.5c0.8,0,1.5-0.2,2-0.5	s0.8-0.8,1.1-1.5c0.2-0.7,0.3-1.6,0.3-2.8v-1.6C26.1,11.5,26,10.5,25.8,9.8z M23.7,15.1c0,0.8-0.1,1.4-0.2,1.7	c-0.1,0.4-0.4,0.5-0.7,0.5c-0.3,0-0.6-0.2-0.7-0.5c-0.1-0.4-0.2-0.9-0.2-1.7v-3.4c0-0.8,0.1-1.3,0.2-1.7c0.1-0.4,0.4-0.5,0.7-0.5	c0.3,0,0.6,0.2,0.7,0.5c0.1,0.4,0.2,0.9,0.2,1.7L23.7,15.1L23.7,15.1z"/><path fill="#18193f" d="M14.7,14L12,4.4C12,4.2,12.1,4,12.3,4h1.6c0.2,0,0.4,0.2,0.5,0.4c0.3,1.4,1.3,6.3,1.4,7h0.1	c0.1-0.5,1.2-5.6,1.5-7c0-0.2,0.3-0.4,0.5-0.4h1.6c0.2,0,0.3,0.2,0.3,0.4L17.1,14v4.3c0,0.3-0.2,0.5-0.5,0.5h-1.4	c-0.3,0-0.5-0.2-0.5-0.5L14.7,14z"/><path fill="#18193f" d="M34,8.5v9.8c0,0.3-0.2,0.5-0.5,0.5h-1c-0.2,0-0.5-0.2-0.5-0.4l-0.1-0.9h-0.1c-0.5,1-1.3,1.5-2.3,1.5	c-0.7,0-1.3-0.2-1.6-0.7c-0.3-0.5-0.5-1.2-0.5-2.2V8.5c0-0.3,0.2-0.5,0.5-0.5h1.4c0.3,0,0.5,0.2,0.5,0.5v7.4c0,0.5,0.1,0.8,0.2,1	s0.3,0.3,0.5,0.3c0.2,0,0.4-0.1,0.6-0.2c0.2-0.1,0.3-0.3,0.4-0.5V8.5c0-0.3,0.2-0.5,0.5-0.5h1.4C33.8,8,34,8.2,34,8.5z"/><path fill="#18193f" d="M15.5,38.5h-1c-0.3,0-0.5-0.2-0.5-0.5V28h-1.5c-0.3,0-0.5-0.2-0.5-0.5v-1c0-0.3,0.2-0.5,0.5-0.5h5	c0.3,0,0.5,0.2,0.5,0.5v1c0,0.3-0.2,0.5-0.5,0.5H16v10C16,38.3,15.8,38.5,15.5,38.5z"/><path fill="#18193f" d="M23,38c0,0.3-0.2,0.5-0.5,0.5h-0.6c-0.2,0-0.5-0.2-0.5-0.4l-0.1-0.7h0c-0.4,0.8-1.1,1.2-1.9,1.2	c-0.6,0-1-0.2-1.3-0.6c-0.3-0.4-0.4-1-0.4-1.8v-6.1c0-0.3,0.2-0.5,0.5-0.5h1c0.3,0,0.5,0.2,0.5,0.5v6c0,0.4,0,0.7,0.1,0.8	c0.1,0.2,0.2,0.3,0.4,0.3c0.2,0,0.3-0.1,0.5-0.2c0.2-0.1,0.3-0.2,0.4-0.4v-6.5c0-0.3,0.2-0.5,0.5-0.5h1c0.3,0,0.5,0.2,0.5,0.5V38z"/><path fill="#18193f" d="M29.6,33.4c0-1-0.1-1.8-0.2-2.3c-0.1-0.6-0.3-1-0.6-1.2s-0.6-0.4-1.1-0.4c-0.4,0-0.7,0.1-1,0.3	c-0.3,0.2-0.6,0.5-0.7,0.8h0v-4.1c0-0.3-0.2-0.5-0.5-0.5h-1c-0.3,0-0.5,0.2-0.5,0.5V38c0,0.3,0.2,0.5,0.5,0.5h0.8	c0.2,0,0.4-0.2,0.5-0.4l0.1-0.5h0c0.2,0.3,0.4,0.5,0.7,0.7c0.3,0.2,0.6,0.3,1,0.3c0.7,0,1.2-0.3,1.5-0.9s0.5-1.6,0.5-2.9h0V33.4z M27.6,34.7c0,0.6,0,1.1-0.1,1.5c-0.1,0.4-0.1,0.6-0.3,0.8s-0.3,0.2-0.5,0.2c-0.2,0-0.3,0-0.5-0.1c-0.1-0.1-0.3-0.2-0.3-0.3v-5	c0.1-0.2,0.2-0.4,0.3-0.6c0.2-0.2,0.3-0.2,0.5-0.2c0.2,0,0.4,0.1,0.5,0.2c0.1,0.2,0.2,0.4,0.2,0.8c0,0.4,0.1,0.9,0.1,1.6L27.6,34.7	L27.6,34.7z"/><path fill="#18193f" d="M35.3,34.7c0.3,0,0.5-0.2,0.5-0.5v-1c0-0.9-0.1-1.7-0.2-2.2c-0.1-0.5-0.4-0.9-0.8-1.2	c-0.4-0.2-0.9-0.4-1.6-0.4c-1,0-1.7,0.3-2.1,0.9s-0.6,1.6-0.6,2.9v1.5c0,1.3,0.2,2.2,0.6,2.8s1.1,0.9,2.1,0.9c0.8,0,1.4-0.2,1.9-0.6	c0.4-0.4,0.6-0.9,0.7-1.6c0-0.3-0.2-0.5-0.5-0.5c-0.2,0-0.6,0-0.8,0c-0.3,0-0.5,0.2-0.5,0.5c0,0.2,0,0.4-0.1,0.5	c-0.1,0.2-0.4,0.3-0.6,0.3c-0.2,0-0.4-0.1-0.5-0.2c-0.1-0.1-0.2-0.3-0.2-0.6s-0.1-0.7-0.1-1.3v-0.4L35.3,34.7L35.3,34.7z M32.5,33.6	v-0.6c0-0.6,0-1,0.1-1.3c0-0.3,0.1-0.5,0.2-0.6c0.1-0.1,0.3-0.2,0.5-0.2c0.2,0,0.4,0.1,0.5,0.2c0.1,0.1,0.2,0.3,0.2,0.6	c0,0.3,0.1,0.7,0.1,1.3v0.6L32.5,33.6L32.5,33.6z"/></svg>