<svg xmlns="http://www.w3.org/2000/svg"  viewBox="0 0 48 48" width="48px" height="48px"><path fill="#ffab91" d="M40.162,44H15.838C13.719,44,12,42.281,12,40.162V15.838C12,13.719,13.719,12,15.838,12h24.323	C42.281,12,44,13.719,44,15.838v24.323C44,42.281,42.281,44,40.162,44z"/><path fill="#18193f" d="M26.253,14.557h1.561v5.088c0,0.309,0.034,0.529,0.103,0.661s0.181,0.198,0.34,0.198	c0.135,0,0.265-0.04,0.39-0.124c0.124-0.082,0.217-0.189,0.277-0.317v-5.507h1.559v6.931h-1.222l-0.135-0.848h-0.034	C28.761,21.28,28.263,21.6,27.6,21.6c-0.459,0-0.799-0.151-1.018-0.452s-0.328-0.772-0.328-1.413v-5.179L26.253,14.557	L26.253,14.557z"/><path fill="#18193f" d="M23.285,20.539c0.217-0.001,0.371-0.113,0.458-0.34c0.086-0.225,0.13-0.595,0.13-1.107v-2.16	c0-0.498-0.043-0.861-0.13-1.091c-0.086-0.231-0.24-0.344-0.459-0.344c-0.211,0-0.36,0.115-0.447,0.344	c-0.086,0.231-0.13,0.594-0.13,1.091v2.16c0,0.513,0.04,0.882,0.124,1.107S23.066,20.539,23.285,20.539z M22.056,14.731	c0.32-0.208,0.74-0.31,1.261-0.31c0.513,0,0.923,0.105,1.233,0.317c0.309,0.211,0.535,0.541,0.678,0.988	c0.143,0.448,0.215,1.046,0.215,1.791v1.007c0,0.74-0.07,1.332-0.209,1.781s-0.366,0.776-0.678,0.984	c-0.312,0.208-0.737,0.31-1.272,0.31c-0.549,0-0.981-0.105-1.295-0.317c-0.313-0.211-0.535-0.539-0.667-0.984	s-0.198-1.037-0.198-1.775v-1.007c0-0.747,0.076-1.345,0.225-1.798C21.5,15.268,21.736,14.938,22.056,14.731z"/><path fill="#18193f" d="M17.964,12l0.621,2.907c0.158,0.715,0.275,1.326,0.351,1.831h0.046	c0.053-0.362,0.169-0.968,0.351-1.82L19.977,12h1.55l-1.798,6.411v3.075H18.19v-3.075L16.414,12H17.964z"/><path fill="#18193f" d="M27.742,30.126c0-0.655-0.039-1.168-0.119-1.538c-0.08-0.369-0.209-0.636-0.386-0.802	s-0.423-0.248-0.734-0.248c-0.243,0-0.468,0.069-0.678,0.205c-0.211,0.136-0.373,0.316-0.487,0.539h-0.009V25.2H24.06v8.304h1.088	l0.134-0.553h0.028c0.103,0.198,0.254,0.354,0.459,0.468c0.204,0.113,0.429,0.171,0.678,0.171c0.445,0,0.772-0.205,0.983-0.616	c0.211-0.41,0.316-1.052,0.316-1.924h-0.001v-0.925L27.742,30.126L27.742,30.126z M26.416,30.975c0,0.427-0.018,0.761-0.053,1.002	c-0.035,0.243-0.093,0.414-0.177,0.516c-0.084,0.101-0.193,0.153-0.333,0.153c-0.109,0-0.209-0.027-0.301-0.077	c-0.092-0.051-0.167-0.127-0.224-0.229v-3.321c0.045-0.158,0.122-0.289,0.229-0.391c0.108-0.103,0.225-0.153,0.352-0.153	c0.135,0,0.238,0.053,0.31,0.157c0.072,0.104,0.124,0.282,0.153,0.531c0.028,0.248,0.043,0.601,0.043,1.06v0.752H26.416z M21.948,32.301c-0.051,0.108-0.128,0.198-0.234,0.267c-0.104,0.07-0.215,0.105-0.329,0.105c-0.135,0-0.229-0.055-0.286-0.167	c-0.058-0.111-0.086-0.297-0.086-0.558v-4.296h-1.319v4.371c0,0.54,0.092,0.938,0.277,1.193c0.185,0.254,0.47,0.382,0.859,0.382	c0.56,0,0.98-0.27,1.261-0.813h0.028l0.113,0.717h1.031h0.001v-5.851h-1.316V32.301z M20.086,25.497h-3.903v1.058h1.308v6.948h1.287	v-6.948h1.308L20.086,25.497z M35,33.6c0,1.32-1.08,2.4-2.4,2.4H15.4c-1.32,0-2.4-1.08-2.4-2.4v-8.2c0-1.32,1.08-2.4,2.4-2.4h17.2	c1.32,0,2.4,1.08,2.4,2.4V33.6z M31.815,31.017v-1.003c0-0.617-0.049-1.1-0.147-1.451c-0.1-0.35-0.27-0.607-0.512-0.772	c-0.243-0.166-0.589-0.248-1.041-0.248c-0.655,0-1.118,0.201-1.388,0.606s-0.405,1.045-0.405,1.924v1.022	c0,0.853,0.13,1.484,0.391,1.89c0.262,0.406,0.717,0.61,1.366,0.61c0.541,0,0.958-0.134,1.255-0.401	c0.297-0.266,0.444-0.671,0.444-1.212c0-0.089-0.004-0.159-0.009-0.211l-1.137-0.067c-0.005,0.356-0.046,0.61-0.119,0.763	s-0.209,0.229-0.405,0.229c-0.146,0-0.254-0.042-0.324-0.128c-0.07-0.085-0.115-0.223-0.138-0.41	c-0.023-0.188-0.034-0.47-0.034-0.845v-0.297h2.2v0.001H31.815z M29.611,30.236v-0.42c0-0.382,0.011-0.667,0.034-0.855	c0.022-0.188,0.066-0.323,0.134-0.405c0.067-0.081,0.17-0.124,0.31-0.124s0.243,0.039,0.31,0.119s0.113,0.216,0.136,0.41	c0.026,0.194,0.038,0.479,0.038,0.855v0.42L29.611,30.236z"/><path fill="none" stroke="#18193f" stroke-linecap="round" stroke-linejoin="round" stroke-width="3" d="M40.5,30.277V36.5	c0,2.209-1.791,4-4,4h-25c-2.209,0-4-1.791-4-4V21.106"/><path fill="none" stroke="#18193f" stroke-linecap="round" stroke-linejoin="round" stroke-width="3" d="M7.5,14.915V11.5	c0-2.209,1.791-4,4-4h25c2.209,0,4,1.791,4,4v12.096"/></svg>