<svg width="46" height="34" viewBox="0 0 46 34" fill="none" xmlns="http://www.w3.org/2000/svg">
<path d="M6.93945 5.75171C6.93945 4.09486 8.2826 2.75171 9.93945 2.75171H42.7465C44.4034 2.75171 45.7465 4.09485 45.7465 5.75171V31.1207C45.7465 31.5633 45.5762 31.9878 45.2729 32.3007C44.9697 32.6137 44.5584 32.7895 44.1296 32.7895H8.55642C8.12757 32.7895 7.71629 32.6137 7.41305 32.3007C7.10981 31.9878 6.93945 31.5633 6.93945 31.1207V5.75171Z" fill="#FFC224"/>
<path d="M42.2125 2.104L22.1873 20.4604L2.16211 2.104" stroke="#0B0B0B" stroke-width="3" stroke-linecap="round" stroke-linejoin="round"/>
<path d="M2.16211 2.104H42.2125V30.473C42.2125 30.9156 42.0367 31.3401 41.7237 31.653C41.4108 31.966 40.9863 32.1418 40.5437 32.1418H3.83088C3.38829 32.1418 2.96383 31.966 2.65088 31.653C2.33793 31.3401 2.16211 30.9156 2.16211 30.473V2.104Z" stroke="#0B0B0B" stroke-width="3" stroke-linecap="round" stroke-linejoin="round"/>
<path d="M18.5369 17.1228L2.68359 31.6619" stroke="#0B0B0B" stroke-width="3" stroke-linecap="round" stroke-linejoin="round"/>
<path d="M41.6912 31.6619L25.8379 17.1228" stroke="#0B0B0B" stroke-width="3" stroke-linecap="round" stroke-linejoin="round"/>
</svg>
