<svg width="24" height="25" viewBox="0 0 24 25" fill="none" xmlns="http://www.w3.org/2000/svg">
<path d="M17.4998 3.81543H7.4165C4.37894 3.81543 1.9165 6.27786 1.9165 9.31543V19.3988C1.9165 22.4363 4.37894 24.8988 7.4165 24.8988H17.4998C20.5374 24.8988 22.9998 22.4363 22.9998 19.3988V9.31543C22.9998 6.27786 20.5374 3.81543 17.4998 3.81543Z" fill="url(#paint0_linear_2639_54108)"/>
<path d="M11.5416 17.1071C14.0729 17.1071 16.1249 15.0551 16.1249 12.5238C16.1249 9.99246 14.0729 7.94043 11.5416 7.94043C9.01028 7.94043 6.95825 9.99246 6.95825 12.5238C6.95825 15.0551 9.01028 17.1071 11.5416 17.1071Z" stroke="#0B0B0B" stroke-width="2" stroke-miterlimit="10"/>
<path d="M16.5833 1.98242H6.5C3.46243 1.98242 1 4.44486 1 7.48242V17.5658C1 20.6033 3.46243 23.0658 6.5 23.0658H16.5833C19.6209 23.0658 22.0833 20.6033 22.0833 17.5658V7.48242C22.0833 4.44486 19.6209 1.98242 16.5833 1.98242Z" stroke="#0B0B0B" stroke-width="2" stroke-linecap="round" stroke-linejoin="round"/>
<path d="M17.5 7.94043C18.2594 7.94043 18.875 7.32482 18.875 6.56543C18.875 5.80604 18.2594 5.19043 17.5 5.19043C16.7406 5.19043 16.125 5.80604 16.125 6.56543C16.125 7.32482 16.7406 7.94043 17.5 7.94043Z" fill="#0B0B0B"/>
<defs>
<linearGradient id="paint0_linear_2639_54108" x1="8.67421" y1="2.76671" x2="12.4582" y2="24.8988" gradientUnits="userSpaceOnUse">
<stop stop-color="#5C42FB"/>
<stop offset="0.487216" stop-color="#FD2E47"/>
<stop offset="1" stop-color="#FFCC19"/>
</linearGradient>
</defs>
</svg>
