<svg width="325" height="288" viewBox="0 0 325 288" fill="none" xmlns="http://www.w3.org/2000/svg">
<path d="M141.335 15.3208L6.52609 248.172C4.37845 251.892 3.246 256.111 3.2422 260.406C3.23839 264.701 4.36336 268.922 6.50441 272.646C8.64545 276.369 11.7274 279.465 15.4415 281.622C19.1556 283.78 23.3714 284.923 27.6666 284.938H297.284C301.579 284.923 305.795 283.78 309.509 281.622C313.223 279.465 316.305 276.369 318.446 272.646C320.587 268.922 321.712 264.701 321.709 260.406C321.705 256.111 320.572 251.892 318.425 248.172L183.616 15.3208C181.484 11.5962 178.407 8.50082 174.694 6.34806C170.982 4.19529 166.767 3.06152 162.475 3.06152C158.184 3.06152 153.969 4.19529 150.256 6.34806C146.544 8.50082 143.466 11.5962 141.335 15.3208Z" fill="#FFC431" stroke="#0B0B0B" stroke-width="5.21" stroke-linecap="round" stroke-linejoin="round"/>
<path d="M162.475 91.927V191.031" stroke="black" stroke-width="15" stroke-linecap="round" stroke-linejoin="round"/>
<path d="M162.475 232.141C168.722 232.141 173.785 227.077 173.785 220.831C173.785 214.585 168.722 209.522 162.475 209.522C156.229 209.522 151.166 214.585 151.166 220.831C151.166 227.077 156.229 232.141 162.475 232.141Z" fill="black"/>
</svg>
