<svg width="642" height="605" viewBox="0 0 642 605" fill="none" xmlns="http://www.w3.org/2000/svg">
<path d="M0 0H641.752V604.326H0V0Z" fill="#137AFD"/>
<path fill-rule="evenodd" clip-rule="evenodd" d="M112.637 130.516C100.486 130.516 90.6367 140.366 90.6367 152.516V388.678C90.6367 400.828 100.486 410.678 112.637 410.678H262.953V493.21C262.953 499.285 267.878 504.21 273.953 504.21H388.519C394.595 504.21 399.519 499.285 399.519 493.21V410.678H549.838C561.989 410.678 571.838 400.828 571.838 388.678V152.516C571.838 140.366 561.989 130.516 549.838 130.516H112.637Z" fill="#0B0B0B"/>
<mask id="path-3-inside-1_98453_41535" fill="white">
<path fill-rule="evenodd" clip-rule="evenodd" d="M292.122 390.786H242.229V477.114C242.229 483.189 247.153 488.114 253.229 488.114H367.795C373.87 488.114 378.795 483.189 378.795 477.114V390.786H328.849C328.456 400.589 320.385 408.415 310.486 408.415C300.586 408.415 292.515 400.589 292.122 390.786Z"/>
</mask>
<path fill-rule="evenodd" clip-rule="evenodd" d="M292.122 390.786H242.229V477.114C242.229 483.189 247.153 488.114 253.229 488.114H367.795C373.87 488.114 378.795 483.189 378.795 477.114V390.786H328.849C328.456 400.589 320.385 408.415 310.486 408.415C300.586 408.415 292.515 400.589 292.122 390.786Z" fill="white"/>
<path d="M242.229 390.786V387.786H239.229V390.786H242.229ZM292.122 390.786L295.12 390.666L295.005 387.786H292.122V390.786ZM378.795 390.786H381.795V387.786H378.795V390.786ZM328.849 390.786V387.786H325.966L325.851 390.666L328.849 390.786ZM242.229 393.786H292.122V387.786H242.229V393.786ZM245.229 477.114V390.786H239.229V477.114H245.229ZM253.229 485.114C248.81 485.114 245.229 481.533 245.229 477.114H239.229C239.229 484.846 245.497 491.114 253.229 491.114V485.114ZM367.795 485.114H253.229V491.114H367.795V485.114ZM375.795 477.114C375.795 481.533 372.213 485.114 367.795 485.114V491.114C375.527 491.114 381.795 484.846 381.795 477.114H375.795ZM375.795 390.786V477.114H381.795V390.786H375.795ZM328.849 393.786H378.795V387.786H328.849V393.786ZM325.851 390.666C325.522 398.867 318.768 405.415 310.486 405.415V411.415C322.001 411.415 331.389 402.311 331.846 390.907L325.851 390.666ZM310.486 405.415C302.203 405.415 295.449 398.867 295.12 390.666L289.125 390.907C289.582 402.311 298.97 411.415 310.486 411.415V405.415Z" fill="#0B0B0B" mask="url(#path-3-inside-1_98453_41535)"/>
<rect x="71.4121" y="115.92" width="478.202" height="277.162" rx="20.5" fill="white" stroke="#0B0B0B" stroke-width="3"/>
<mask id="path-6-inside-2_98453_41535" fill="white">
<path d="M88.6426 151.15C88.6426 141.209 96.7015 133.15 106.643 133.15H514.385C524.326 133.15 532.385 141.209 532.385 151.15V357.852C532.385 367.793 524.326 375.852 514.385 375.852H106.643C96.7015 375.852 88.6426 367.793 88.6426 357.852V151.15Z"/>
</mask>
<path d="M88.6426 151.15C88.6426 141.209 96.7015 133.15 106.643 133.15H514.385C524.326 133.15 532.385 141.209 532.385 151.15V357.852C532.385 367.793 524.326 375.852 514.385 375.852H106.643C96.7015 375.852 88.6426 367.793 88.6426 357.852V151.15Z" fill="#F9FAFC"/>
<path d="M106.643 136.15H514.385V130.15H106.643V136.15ZM529.385 151.15V357.852H535.385V151.15H529.385ZM514.385 372.852H106.643V378.852H514.385V372.852ZM91.6426 357.852V151.15H85.6426V357.852H91.6426ZM106.643 372.852C98.3583 372.852 91.6426 366.136 91.6426 357.852H85.6426C85.6426 369.45 95.0446 378.852 106.643 378.852V372.852ZM529.385 357.852C529.385 366.136 522.669 372.852 514.385 372.852V378.852C525.983 378.852 535.385 369.45 535.385 357.852H529.385ZM514.385 136.15C522.669 136.15 529.385 142.866 529.385 151.15H535.385C535.385 139.552 525.983 130.15 514.385 130.15V136.15ZM106.643 130.15C95.0446 130.15 85.6426 139.552 85.6426 151.15H91.6426C91.6426 142.866 98.3583 136.15 106.643 136.15V130.15Z" fill="#0B0B0B" mask="url(#path-6-inside-2_98453_41535)"/>
<path d="M93.166 151.733C93.166 144.001 99.434 137.733 107.166 137.733H200.812V371.314H107.166C99.434 371.314 93.166 365.046 93.166 357.314V151.733Z" fill="white"/>
<line x1="105.846" y1="218.565" x2="175.467" y2="218.565" stroke="#0B0B0B" stroke-width="3" stroke-linecap="round"/>
<line x1="105.846" y1="166.208" x2="139.156" y2="166.208" stroke="#016BFF" stroke-width="3" stroke-linecap="round"/>
<path d="M415.385 137.733H513.699C521.431 137.733 527.699 144.001 527.699 151.733V357.314C527.699 365.046 521.431 371.314 513.699 371.314H415.385V137.733Z" fill="white"/>
<line x1="202.311" y1="133.15" x2="202.311" y2="374.526" stroke="#0B0B0B" stroke-width="3"/>
<line x1="413.186" y1="133.15" x2="413.186" y2="374.526" stroke="#0B0B0B" stroke-width="3"/>
<rect x="225.182" y="157.822" width="164.219" height="25.5923" rx="12.7962" fill="white" stroke="#0B0B0B" stroke-width="3"/>
<circle cx="445.398" cy="198.545" r="9.31394" fill="#016BFF" stroke="#0B0B0B" stroke-width="3"/>
<line x1="464.045" y1="198.524" x2="509.356" y2="198.524" stroke="#0B0B0B" stroke-width="3" stroke-linecap="round"/>
<circle cx="445.398" cy="229.329" r="9.31394" fill="#6B2EFF" stroke="#0B0B0B" stroke-width="3"/>
<line x1="464.045" y1="229.308" x2="489.407" y2="229.308" stroke="#0B0B0B" stroke-width="3" stroke-linecap="round"/>
<circle cx="445.398" cy="321.676" r="9.31394" fill="#016BFF" stroke="#0B0B0B" stroke-width="3"/>
<line x1="464.045" y1="321.655" x2="509.356" y2="321.655" stroke="#0B0B0B" stroke-width="3" stroke-linecap="round"/>
<circle cx="445.398" cy="260.112" r="9.31394" fill="#016BFF" stroke="#0B0B0B" stroke-width="3"/>
<line x1="464.045" y1="260.09" x2="509.356" y2="260.09" stroke="#0B0B0B" stroke-width="3" stroke-linecap="round"/>
<circle cx="445.398" cy="290.895" r="9.31394" fill="#6B2EFF" stroke="#0B0B0B" stroke-width="3"/>
<line x1="464.045" y1="290.874" x2="501.547" y2="290.874" stroke="#0B0B0B" stroke-width="3" stroke-linecap="round"/>
<line x1="435.271" y1="165.237" x2="478.537" y2="165.237" stroke="#0B0B0B" stroke-width="3" stroke-linecap="round"/>
<rect x="225.182" y="200.046" width="166.679" height="156.202" rx="11.5" fill="white" stroke="#0B0B0B" stroke-width="3"/>
<line x1="238.436" y1="317.92" x2="379.076" y2="317.92" stroke="#0B0B0B" stroke-width="3" stroke-linecap="round"/>
<line x1="238.436" y1="331.493" x2="343.503" y2="331.493" stroke="#0B0B0B" stroke-width="3" stroke-linecap="round"/>
<rect x="248.191" y="220.774" width="143.17" height="91.6461" rx="13" fill="#137AFD"/>
<rect x="238.436" y="214.172" width="140.17" height="88.6461" rx="11.5" stroke="#0B0B0B" stroke-width="3"/>
<line x1="105.846" y1="190.219" x2="175.466" y2="190.219" stroke="#0B0B0B" stroke-width="3" stroke-linecap="round"/>
<line x1="105.846" y1="204.241" x2="148.443" y2="204.241" stroke="#0B0B0B" stroke-width="3" stroke-linecap="round"/>
<line x1="105.846" y1="233.703" x2="161.665" y2="233.703" stroke="#0B0B0B" stroke-width="3" stroke-linecap="round"/>
</svg>
