<svg width="642" height="605" viewBox="0 0 642 605" fill="none" xmlns="http://www.w3.org/2000/svg">
<path d="M0 0H642V605H0V0Z" fill="#1C92FF"/>
<rect x="119.941" y="160.487" width="448.809" height="337.587" rx="22" fill="#0B0B0B"/>
<rect x="95.4707" y="132.369" width="450.809" height="339.587" rx="35" fill="white" stroke="#0B0B0B" stroke-width="2"/>
<rect x="213.812" y="358.874" width="101.702" height="31.2575" rx="15.6287" fill="#F1F0EE"/>
<rect x="210.842" y="353.848" width="98.7021" height="28.2575" rx="14.1287" stroke="#0B0B0B" stroke-width="3"/>
<rect x="334.812" y="358.874" width="101.702" height="31.2575" rx="15.6287" fill="#F1F0EE"/>
<rect x="331.842" y="353.848" width="98.7021" height="28.2575" rx="14.1287" stroke="#0B0B0B" stroke-width="3"/>
<path d="M263.057 212.166H264.421C269.158 212.27 273.817 214.195 277.164 217.603C275.928 218.878 274.667 220.101 273.457 221.376C271.578 219.659 269.312 218.332 266.841 217.863C263.186 217.083 259.247 217.785 256.184 219.893C252.838 222.104 250.573 225.851 250.083 229.857C249.543 233.812 250.65 237.974 253.198 241.044C255.644 244.036 259.376 245.909 263.237 246.039C266.841 246.248 270.599 245.129 273.225 242.579C275.284 240.784 276.237 238.052 276.546 235.399C272.273 235.399 268 235.425 263.726 235.399V230.039H281.72C282.646 235.789 281.308 242.267 276.983 246.378C274.1 249.292 270.11 251.009 266.043 251.347C262.105 251.737 258.038 250.983 254.537 249.057C250.341 246.794 246.994 242.97 245.347 238.469C243.802 234.332 243.777 229.649 245.218 225.486C246.531 221.688 249.054 218.332 252.297 215.99C255.412 213.675 259.196 212.4 263.057 212.166Z" fill="#4285F4"/>
<path d="M366.287 213.519H371.796V250.671C369.968 250.671 368.115 250.697 366.287 250.645C366.313 238.287 366.287 225.903 366.287 213.519V213.519Z" fill="#34A853"/>
<path d="M293.972 226.397C297.37 225.747 301.051 226.475 303.857 228.53C306.405 230.352 308.181 233.213 308.722 236.335C309.417 239.952 308.542 243.906 306.225 246.768C303.728 249.968 299.635 251.685 295.645 251.425C291.99 251.217 288.437 249.37 286.275 246.352C283.83 243.022 283.238 238.443 284.576 234.54C285.915 230.352 289.699 227.152 293.972 226.397V226.397ZM294.744 231.34C293.354 231.704 292.067 232.511 291.14 233.656C288.643 236.674 288.798 241.591 291.552 244.4C293.122 246.013 295.491 246.768 297.679 246.326C299.712 245.961 301.488 244.583 302.467 242.761C304.166 239.665 303.677 235.399 301.077 232.979C299.403 231.418 296.958 230.768 294.744 231.34Z" fill="#EA4335"/>
<path d="M321.257 226.397C325.144 225.643 329.391 226.735 332.3 229.493C337.036 233.786 337.551 241.825 333.51 246.768C331.064 249.89 327.1 251.607 323.187 251.425C319.455 251.321 315.774 249.448 313.56 246.352C311.063 242.944 310.523 238.261 311.938 234.28C313.354 230.221 317.061 227.125 321.257 226.397V226.397ZM322.029 231.34C320.639 231.704 319.352 232.511 318.425 233.63C315.954 236.596 316.057 241.435 318.708 244.27C320.279 245.962 322.724 246.794 324.989 246.326C326.997 245.936 328.799 244.583 329.777 242.762C331.45 239.64 330.961 235.373 328.336 232.953C326.663 231.392 324.217 230.768 322.029 231.34Z" fill="#FBBC05"/>
<path d="M344.403 227.906C347.363 226.033 351.301 225.512 354.493 227.125C355.497 227.568 356.321 228.322 357.119 229.077C357.145 228.374 357.119 227.646 357.145 226.917C358.869 226.943 360.594 226.917 362.345 226.943V249.89C362.319 253.35 361.444 257.018 358.972 259.542C356.27 262.326 352.125 263.184 348.393 262.612C344.403 262.014 340.928 259.074 339.383 255.353C340.928 254.599 342.549 254 344.145 253.298C345.046 255.431 346.874 257.253 349.165 257.669C351.456 258.085 354.107 257.513 355.6 255.587C357.196 253.61 357.196 250.904 357.119 248.485C355.935 249.656 354.571 250.696 352.923 251.087C349.345 252.101 345.407 250.852 342.652 248.407C339.872 245.961 338.225 242.189 338.379 238.443C338.456 234.202 340.825 230.117 344.403 227.906ZM349.731 231.236C348.161 231.496 346.694 232.381 345.69 233.603C343.27 236.517 343.27 241.174 345.715 244.036C347.106 245.727 349.345 246.664 351.507 246.43C353.541 246.221 355.42 244.921 356.424 243.126C358.123 240.082 357.84 235.945 355.549 233.291C354.133 231.652 351.868 230.846 349.731 231.236Z" fill="#4285F4"/>
<path d="M378.401 229.233C381.49 226.319 386.252 225.331 390.216 226.866C393.975 228.296 396.369 231.913 397.578 235.633C391.993 237.975 386.432 240.29 380.846 242.632C381.619 244.115 382.803 245.467 384.399 246.014C386.638 246.82 389.315 246.534 391.195 245.025C391.941 244.453 392.533 243.698 393.099 242.97C394.515 243.932 395.931 244.869 397.347 245.832C395.339 248.876 391.967 251.009 388.337 251.347C384.322 251.841 380.048 250.28 377.449 247.106C373.175 242.111 373.587 233.734 378.401 229.233V229.233ZM381.155 234.046C380.28 235.321 379.92 236.882 379.945 238.417C383.678 236.856 387.411 235.295 391.143 233.708C390.525 232.251 389.032 231.366 387.514 231.132C385.068 230.69 382.52 232.017 381.155 234.046V234.046Z" fill="#EA4335"/>
<rect x="169.576" y="285.5" width="302.598" height="46.9696" rx="23.4848" fill="white" stroke="#0B0B0B" stroke-width="3"/>
<path d="M193.581 318.213C199.378 318.213 204.077 313.513 204.077 307.716C204.077 301.919 199.378 297.22 193.581 297.22C187.783 297.22 183.084 301.919 183.084 307.716C183.084 313.513 187.783 318.213 193.581 318.213Z" fill="white" stroke="#0B0B0B" stroke-width="3" stroke-linecap="round"/>
<path d="M202.35 316.171L206.831 320.37Z" fill="white"/>
<path d="M202.35 316.171L206.831 320.37" stroke="#0B0B0B" stroke-width="3" stroke-linecap="round"/>
<circle cx="125.293" cy="160.487" r="5.91196" fill="#FF4A60"/>
<circle cx="147.336" cy="160.487" r="5.91196" fill="#FFC431"/>
<circle cx="169.371" cy="160.487" r="5.91196" fill="#81E644"/>
<circle cx="123.961" cy="158.888" r="6.91196" stroke="#0B0B0B" stroke-width="2"/>
<circle cx="146.004" cy="158.888" r="6.91196" stroke="#0B0B0B" stroke-width="2"/>
<circle cx="168.039" cy="158.888" r="6.91196" stroke="#0B0B0B" stroke-width="2"/>
<path d="M225.5 309H300.772" stroke="#0B0B0B" stroke-width="3" stroke-linecap="round"/>
</svg>
