<svg width="102" height="34" viewBox="0 0 102 34" fill="none" xmlns="http://www.w3.org/2000/svg">
<path d="M95.8416 5.3095H89.5087V0.133789H78.5723L73.3966 5.3095H67.6359L64.7619 8.18348V5.3095H59.5862V0.133789H40.0151V5.3095H16.4129L11.2372 0.133789H0.300781V23.1511L5.47649 28.3268L14.1112 33.5025H21.5886V32.3453L24.4626 33.5025H38.4128L40.8799 30.6285L41.1978 33.5025H50.3284L50.5192 30.6285L53.8128 33.5025H61.8752L62.4474 30.6285L65.3214 33.5025H74.5283L77.4023 30.6285V33.5025H82.578L86.6092 30.6285V33.5025H92.3699L101.005 27.7418V10.4979L95.8416 5.3095ZM14.1112 13.9442H8.93544V19.7048H14.1112V26.0378H6.63371L2.60251 22.0066V2.43552H8.93544V7.61123H14.1112V13.9442ZM40.0151 22.0066L35.9839 26.0378H16.4129V7.61123H22.7458V19.6921H25.0475V7.61123H31.3805V19.6921H33.6822V7.61123H40.0151V22.0066ZM48.6498 26.0378H42.3169V7.61123H48.6498V26.0378ZM48.6498 5.3095H42.3169V2.43552H48.6498V5.3095ZM62.4602 13.9442H57.2717V19.7048H62.4474V26.0378H54.97L50.9515 22.0066V2.43552H57.2717V7.61123H62.4474V13.9442H62.4602ZM78.5723 13.9442H71.0948V19.7048H78.5723V26.0378H68.7931L64.7619 22.0066V11.6424L68.7931 7.61123H78.5723V13.9442ZM98.7156 26.0378H92.3826V13.9569H87.2069V26.0378H80.874V2.43552H87.2069V7.61123H94.6844L98.7156 11.6424V26.0378Z" fill="#9147FF"/>
</svg>
