<svg width="118" height="26" viewBox="0 0 118 26" fill="none" xmlns="http://www.w3.org/2000/svg">
<path d="M35.5242 4.00915C35.1122 2.46402 33.8932 1.24507 32.3424 0.827315C29.5382 0.077637 18.2873 0.0776367 18.2873 0.0776367C18.2873 0.0776367 7.04216 0.077637 4.2323 0.827315C2.68716 1.23935 1.46822 2.45829 1.05046 4.00915C0.300781 6.81329 0.300781 12.6676 0.300781 12.6676C0.300781 12.6676 0.300781 18.522 1.05046 21.3261C1.4625 22.8713 2.68144 24.0902 4.2323 24.508C7.04216 25.2577 18.2873 25.2577 18.2873 25.2577C18.2873 25.2577 29.5382 25.2577 32.3424 24.508C33.8875 24.0959 35.1064 22.877 35.5242 21.3261C36.2739 18.522 36.2739 12.6676 36.2739 12.6676C36.2739 12.6676 36.2739 6.81329 35.5242 4.00915Z" fill="#FF414D"/>
<path d="M14.6914 18.0638L24.0366 12.6673L14.6914 7.27075V18.0638Z" fill="white"/>
<path d="M57.3241 22.9855C56.6145 22.5048 56.1051 21.7608 55.8076 20.7479C55.51 19.735 55.3555 18.3901 55.3555 16.7077V14.4186C55.3555 12.7189 55.5272 11.3569 55.8705 10.3268C56.2139 9.29673 56.7518 8.54705 57.4786 8.07778C58.2054 7.60852 59.1611 7.36816 60.3457 7.36816C61.5131 7.36816 62.4459 7.60852 63.1498 8.08923C63.8537 8.56994 64.3688 9.31962 64.695 10.3383C65.0212 11.3569 65.1814 12.7189 65.1814 14.4128V16.7019C65.1814 18.3844 65.0212 19.735 64.7064 20.7536C64.3917 21.7723 63.8766 22.522 63.1613 22.9912C62.4517 23.4605 61.4845 23.7008 60.2656 23.7008C59.018 23.7066 58.0337 23.4662 57.3241 22.9855ZM61.3128 20.5133C61.5074 19.9982 61.6104 19.157 61.6104 17.9953V13.0795C61.6104 11.9463 61.5131 11.1223 61.3128 10.5958C61.1183 10.075 60.7692 9.81177 60.2713 9.81177C59.7906 9.81177 59.4529 10.075 59.2526 10.5958C59.0581 11.1166 58.9551 11.9463 58.9551 13.0795V17.9953C58.9551 19.1627 59.0466 20.004 59.2355 20.5133C59.4243 21.0283 59.7677 21.2859 60.2656 21.2859C60.7692 21.2859 61.1125 21.0283 61.3128 20.5133Z" fill="#0B0B0B"/>
<path d="M111.954 16.748V17.5435C111.954 18.5564 111.983 19.3118 112.046 19.8211C112.103 20.3247 112.229 20.6967 112.418 20.9256C112.607 21.1545 112.898 21.2747 113.293 21.2747C113.826 21.2747 114.192 21.0687 114.386 20.6566C114.581 20.2446 114.69 19.5579 114.707 18.5964L117.768 18.7738C117.786 18.9112 117.791 19.1 117.791 19.3404C117.791 20.7997 117.391 21.887 116.595 22.6081C115.8 23.3291 114.672 23.6897 113.213 23.6897C111.462 23.6897 110.237 23.1403 109.533 22.0415C108.83 20.9428 108.48 19.2488 108.48 16.9483V14.1957C108.48 11.8264 108.847 10.1039 109.574 9.01086C110.3 7.92354 111.548 7.37988 113.316 7.37988C114.535 7.37988 115.468 7.60307 116.12 8.04944C116.773 8.49582 117.231 9.18827 117.5 10.1325C117.763 11.0768 117.9 12.3816 117.9 14.0411V16.7423H111.954V16.748ZM112.406 10.1096C112.229 10.3328 112.109 10.6991 112.046 11.2027C111.983 11.7063 111.954 12.4788 111.954 13.5032V14.6363H114.552V13.5032C114.552 12.4903 114.518 11.7234 114.449 11.2027C114.381 10.6819 114.255 10.3099 114.077 10.0982C113.9 9.88644 113.619 9.77771 113.242 9.77771C112.864 9.77199 112.584 9.88644 112.406 10.1096Z" fill="#0B0B0B"/>
<path d="M48.6789 16.4506L44.6387 1.86339H48.1639L49.5774 8.47314C49.9379 10.1041 50.2012 11.489 50.3729 12.6393H50.4759C50.596 11.8152 50.8593 10.436 51.2713 8.49603L52.7363 1.85767H56.2615L52.1755 16.4506V23.4495H48.6789V16.4506Z" fill="#0B0B0B"/>
<path d="M76.6415 7.67725V23.4434H73.866L73.557 21.5148H73.4826C72.7272 22.9741 71.5941 23.7009 70.089 23.7009C69.0417 23.7009 68.2692 23.3575 67.7713 22.6708C67.2734 21.9841 67.0273 20.9139 67.0273 19.4546V7.67725H70.5754V19.2543C70.5754 19.9582 70.6498 20.4618 70.8043 20.7594C70.9589 21.057 71.2164 21.2115 71.5769 21.2115C71.8859 21.2115 72.1835 21.1199 72.4639 20.9311C72.7444 20.7422 72.9561 20.5019 73.0934 20.21V7.67725H76.6415Z" fill="#0B0B0B"/>
<path d="M94.8505 7.67725V23.4434H92.075L91.766 21.5148H91.6916C90.9362 22.9741 89.8031 23.7009 88.298 23.7009C87.2507 23.7009 86.4782 23.3575 85.9803 22.6708C85.4824 21.9841 85.2363 20.9139 85.2363 19.4546V7.67725H88.7844V19.2543C88.7844 19.9582 88.8588 20.4618 89.0133 20.7594C89.1678 21.057 89.4254 21.2115 89.7859 21.2115C90.0949 21.2115 90.3925 21.1199 90.6729 20.9311C90.9533 20.7422 91.1651 20.5019 91.3024 20.21V7.67725H94.8505Z" fill="#0B0B0B"/>
<path d="M86.2917 4.71917H82.7665V23.4439H79.2928V4.71917H75.7676V1.86353H86.286V4.71917H86.2917Z" fill="#0B0B0B"/>
<path d="M106.603 10.2014C106.385 9.2056 106.042 8.48453 105.561 8.03816C105.08 7.59179 104.422 7.3686 103.581 7.3686C102.929 7.3686 102.322 7.55173 101.755 7.9237C101.189 8.28996 100.754 8.77639 100.445 9.37728H100.416V1.06787H96.9941V23.4495H99.9242L100.285 21.9558H100.359C100.634 22.4881 101.046 22.9058 101.595 23.2148C102.145 23.5239 102.751 23.6784 103.421 23.6784C104.623 23.6784 105.504 23.1233 106.07 22.0188C106.637 20.9143 106.917 19.186 106.917 16.834V14.3389C106.923 12.5763 106.814 11.1971 106.603 10.2014ZM103.346 16.6337C103.346 17.784 103.301 18.6824 103.203 19.3348C103.112 19.9872 102.952 20.4508 102.728 20.7255C102.505 21.0001 102.208 21.1375 101.83 21.1375C101.538 21.1375 101.269 21.0688 101.017 20.9315C100.771 20.7941 100.565 20.5881 100.411 20.3134V11.3573C100.531 10.9281 100.737 10.5791 101.029 10.3044C101.321 10.0297 101.635 9.89232 101.979 9.89232C102.339 9.89232 102.62 10.0354 102.814 10.3158C103.009 10.5962 103.146 11.0769 103.226 11.7408C103.301 12.4103 103.341 13.3603 103.341 14.5964V16.6337H103.346Z" fill="#0B0B0B"/>
</svg>
