<svg width="224" height="40" viewBox="0 0 224 40" fill="none" xmlns="http://www.w3.org/2000/svg">
<circle cx="19.8096" cy="19.5032" r="19.5032" fill="white"/>
<path d="M30.4581 20.4482C31.614 20.4482 32.5686 21.3915 32.3796 22.5318C31.9475 25.1384 30.7118 27.5651 28.8192 29.4577C26.4297 31.8472 23.1889 33.1896 19.8097 33.1896C16.4305 33.1896 13.1897 31.8472 10.8002 29.4577C8.9076 27.5651 7.67189 25.1384 7.23983 22.5318C7.05081 21.3915 8.00538 20.4482 9.16126 20.4482L19.8097 20.4482H30.4581Z" fill="#0B0B0B"/>
<circle cx="24.9443" cy="13.8289" r="3.98218" fill="#0B0B0B"/>
<path d="M58.9127 8.46176C60.1807 8.46176 61.3298 8.60045 62.3601 8.87782C63.3903 9.13539 64.2621 9.56136 64.9754 10.1557C65.7084 10.7303 66.2632 11.4931 66.6396 12.4441C67.0359 13.3753 67.2241 14.5245 67.2043 15.8915C67.1845 17.0803 66.9765 18.1403 66.5802 19.0715C66.1839 19.9829 65.6292 20.7556 64.9159 21.3896C64.2225 22.0038 63.3804 22.4793 62.3898 22.8161C61.419 23.1331 60.359 23.2916 59.2098 23.2916H55.1383V29.5029H50.829V8.46176H58.9127ZM58.9721 19.4876C59.507 19.4876 60.0123 19.4182 60.4878 19.2795C60.9831 19.1408 61.4091 18.9229 61.7657 18.6257C62.1223 18.3285 62.4096 17.962 62.6275 17.5261C62.8455 17.0902 62.9644 16.5751 62.9842 15.9807C63.0238 14.6334 62.6573 13.6824 61.8846 13.1277C61.1317 12.5729 60.1509 12.2955 58.9424 12.2955H55.1383V19.4876H58.9721ZM79.2564 27.5712C78.662 28.3637 77.9388 28.9284 77.0869 29.2652C76.2349 29.602 75.2443 29.7605 74.1149 29.7407C72.6686 29.7011 71.46 29.2949 70.4892 28.5222C69.9741 28.0863 69.5679 27.5712 69.2707 26.9768C68.9933 26.3626 68.8546 25.6394 68.8546 24.8073C68.8745 23.9554 69.0627 23.2025 69.4193 22.5486C69.7957 21.875 70.3604 21.3203 71.1133 20.8844C71.7473 20.5476 72.4606 20.3098 73.2531 20.1711C74.0654 20.0324 74.9471 19.9631 75.8981 19.9631H79.1078C79.1672 18.9922 78.9393 18.2691 78.4242 17.7936C77.9289 17.2983 77.2255 17.0407 76.3142 17.0209C76.017 17.0209 75.7099 17.0407 75.3929 17.0803C75.0759 17.1199 74.7787 17.1992 74.5013 17.3181C74.2437 17.4369 74.0159 17.6054 73.8177 17.8233C73.6394 18.0214 73.5206 18.2691 73.4611 18.5663H69.1518C69.2509 17.6153 69.5085 16.8227 69.9245 16.1887C70.3604 15.5349 70.9053 15.0099 71.5591 14.6136C72.2129 14.2174 72.9361 13.94 73.7286 13.7815C74.5409 13.6032 75.373 13.514 76.225 13.514C76.7005 13.514 77.1859 13.5437 77.6812 13.6032C78.1766 13.6428 78.662 13.7419 79.1375 13.9004C79.613 14.0391 80.0588 14.2372 80.4748 14.4947C80.9107 14.7325 81.3169 15.0495 81.6933 15.4458C82.367 16.2185 82.783 17.11 82.9415 18.1205C83.1198 19.1111 83.1991 20.082 83.1793 21.033V29.5029H79.3455L79.2564 27.5712ZM79.1078 22.5784H76.0467C75.7495 22.5784 75.4127 22.6081 75.0362 22.6675C74.6598 22.727 74.3329 22.8359 74.0555 22.9944C73.7781 23.1529 73.5404 23.361 73.3422 23.6185C73.1639 23.8761 73.0748 24.1931 73.0748 24.5695C73.0748 24.8866 73.1342 25.1639 73.2531 25.4017C73.3918 25.6394 73.5602 25.8376 73.7583 25.9961C73.9762 26.1546 74.2338 26.2834 74.531 26.3824C74.8282 26.4617 75.1254 26.5013 75.4226 26.5013C75.9971 26.5211 76.5321 26.422 77.0274 26.2041C77.5425 25.9862 77.9883 25.6791 78.3648 25.2828C78.6025 24.9658 78.7808 24.6092 78.8997 24.2129C79.0384 23.7968 79.1078 23.252 79.1078 22.5784ZM90.6757 15.951C91.2899 15.1981 92.0527 14.6136 92.9641 14.1976C93.8953 13.7617 94.8265 13.5338 95.7577 13.514C96.8672 13.4942 97.8975 13.6923 98.8485 14.1084C99.7995 14.5047 100.592 15.1783 101.226 16.1293C101.741 16.8227 102.118 17.6351 102.355 18.5663C102.593 19.4975 102.712 20.4782 102.712 21.5085C102.712 22.7963 102.553 23.9653 102.236 25.0153C101.939 26.0456 101.424 26.9372 100.691 27.6901C100.077 28.3637 99.324 28.8788 98.4324 29.2355C97.5408 29.5723 96.6493 29.7407 95.7577 29.7407C95.3218 29.7407 94.8859 29.711 94.45 29.6515C94.0142 29.6119 93.5783 29.5227 93.1424 29.3841C92.7065 29.2454 92.2706 29.0472 91.8348 28.7897C91.4187 28.5321 91.0224 28.1854 90.646 27.7495V36.0411H86.4556V13.8409H90.438L90.6757 15.951ZM94.5986 17.2586C93.9844 17.2586 93.4297 17.3775 92.9344 17.6153C92.4589 17.8332 92.0527 18.1403 91.7159 18.5366C91.3791 18.9328 91.1116 19.3885 90.9135 19.9036C90.7351 20.4188 90.646 20.9735 90.646 21.5679C90.6262 22.8954 90.9729 23.9653 91.6862 24.7776C92.4192 25.5701 93.4099 25.9862 94.6581 26.0258C95.3317 26.0258 95.9063 25.9168 96.3818 25.6989C96.8573 25.4809 97.2436 25.1738 97.5408 24.7776C97.8578 24.3813 98.0956 23.9157 98.2541 23.3808C98.4324 22.8458 98.5216 22.2614 98.5216 21.6273C98.5216 21.0132 98.4324 20.4386 98.2541 19.9036C98.0956 19.3687 97.8479 18.9031 97.5111 18.5068C97.1941 18.1106 96.7979 17.8035 96.3224 17.5855C95.8468 17.3676 95.2723 17.2586 94.5986 17.2586ZM112.54 26.323C113.134 26.323 113.64 26.2338 114.056 26.0555C114.492 25.8574 114.848 25.5404 115.126 25.1045H119.524C119.306 25.9168 118.969 26.6202 118.514 27.2146C118.078 27.8089 117.543 28.2943 116.909 28.6708C116.294 29.0472 115.611 29.3246 114.858 29.5029C114.105 29.6614 113.313 29.7407 112.481 29.7407C109.944 29.7407 108.023 29.0274 106.715 27.6009C105.427 26.1744 104.783 24.1733 104.783 21.5976C104.783 20.4287 104.952 19.3489 105.288 18.3582C105.645 17.3676 106.14 16.5157 106.774 15.8024C107.408 15.0693 108.191 14.5047 109.122 14.1084C110.073 13.7121 111.153 13.514 112.362 13.514C113.768 13.514 114.987 13.7617 116.017 14.257C117.047 14.7523 117.86 15.4359 118.454 16.3076C119.068 17.1596 119.474 18.1601 119.673 19.3093C119.891 20.4584 119.891 21.6868 119.673 22.9944H108.974C109.053 23.9256 109.38 24.7181 109.954 25.372C110.529 26.006 111.391 26.323 112.54 26.323ZM115.779 20.1117C115.779 19.6164 115.69 19.1805 115.512 18.804C115.334 18.4078 115.096 18.0908 114.799 17.853C114.501 17.5954 114.145 17.4072 113.729 17.2883C113.332 17.1695 112.916 17.11 112.481 17.11C111.43 17.1298 110.608 17.4171 110.014 17.9719C109.439 18.5068 109.102 19.2201 109.003 20.1117H115.779ZM126.661 15.8024C127.295 15.0495 127.969 14.4848 128.682 14.1084C129.415 13.732 130.287 13.5437 131.297 13.5437C131.555 13.5437 131.802 13.5536 132.04 13.5735C132.278 13.5933 132.496 13.623 132.694 13.6626V17.5261C132.238 17.5261 131.773 17.536 131.297 17.5558C130.841 17.5558 130.406 17.5954 129.99 17.6747C129.573 17.7539 129.167 17.8827 128.771 18.061C128.395 18.2196 128.058 18.4573 127.761 18.7743C127.305 19.2894 127.018 19.8442 126.899 20.4386C126.8 21.033 126.75 21.7066 126.75 22.4595V29.5029H122.56V13.8409H126.423L126.661 15.8024ZM144.139 13.8409V17.4964H140.305V29.5029H136.115V17.4964H133.737V13.8409H136.115V11.82C136.115 10.0567 136.571 8.75895 137.482 7.92681C138.413 7.09467 139.8 6.67861 141.643 6.67861H144.139V10.3341H142.237C140.949 10.3341 140.305 10.9879 140.305 12.2955V13.8409H144.139ZM153.204 29.7407C150.668 29.7407 148.717 29.0274 147.349 27.6009C145.982 26.1546 145.299 24.1535 145.299 21.5976C145.299 20.3692 145.477 19.2597 145.834 18.2691C146.21 17.2586 146.725 16.3968 147.379 15.6835C148.053 14.9703 148.875 14.4353 149.846 14.0787C150.837 13.7022 151.956 13.514 153.204 13.514C154.433 13.514 155.532 13.7022 156.503 14.0787C157.494 14.4353 158.326 14.9703 158.999 15.6835C159.693 16.3968 160.218 17.2586 160.575 18.2691C160.951 19.2597 161.139 20.3692 161.139 21.5976C161.139 24.1733 160.446 26.1744 159.059 27.6009C157.692 29.0274 155.74 29.7407 153.204 29.7407ZM153.204 17.2586C151.916 17.2586 150.965 17.6747 150.351 18.5068C149.737 19.339 149.43 20.3791 149.43 21.6273C149.43 22.8954 149.737 23.9454 150.351 24.7776C150.965 25.6097 151.916 26.0258 153.204 26.0258C154.492 26.0258 155.433 25.6097 156.027 24.7776C156.622 23.9454 156.919 22.8954 156.919 21.6273C156.919 20.3791 156.622 19.339 156.027 18.5068C155.433 17.6747 154.492 17.2586 153.204 17.2586ZM168.02 29.5029H163.83V8.46176H168.02V29.5029ZM173.665 6.55973C174.438 6.55973 175.062 6.78758 175.537 7.24327C176.013 7.69896 176.25 8.30325 176.25 9.05614C176.25 9.84865 176.013 10.4728 175.537 10.9284C175.062 11.3643 174.438 11.5823 173.665 11.5823C172.912 11.5823 172.288 11.3643 171.793 10.9284C171.317 10.4728 171.079 9.84865 171.079 9.05614C171.079 8.30325 171.317 7.69896 171.793 7.24327C172.288 6.78758 172.912 6.55973 173.665 6.55973ZM175.775 29.5029H171.585V13.8409H175.775V29.5029ZM186.609 29.7407C184.073 29.7407 182.122 29.0274 180.755 27.6009C179.387 26.1546 178.704 24.1535 178.704 21.5976C178.704 20.3692 178.882 19.2597 179.239 18.2691C179.615 17.2586 180.13 16.3968 180.784 15.6835C181.458 14.9703 182.28 14.4353 183.251 14.0787C184.242 13.7022 185.361 13.514 186.609 13.514C187.838 13.514 188.937 13.7022 189.908 14.0787C190.899 14.4353 191.731 14.9703 192.404 15.6835C193.098 16.3968 193.623 17.2586 193.98 18.2691C194.356 19.2597 194.544 20.3692 194.544 21.5976C194.544 24.1733 193.851 26.1744 192.464 27.6009C191.097 29.0274 189.145 29.7407 186.609 29.7407ZM186.609 17.2586C185.321 17.2586 184.37 17.6747 183.756 18.5068C183.142 19.339 182.835 20.3791 182.835 21.6273C182.835 22.8954 183.142 23.9454 183.756 24.7776C184.37 25.6097 185.321 26.0258 186.609 26.0258C187.897 26.0258 188.838 25.6097 189.433 24.7776C190.027 23.9454 190.324 22.8954 190.324 21.6273C190.324 20.3791 190.027 19.339 189.433 18.5068C188.838 17.6747 187.897 17.2586 186.609 17.2586ZM218.024 8.46176H223.017L216.063 18.9823L223.196 29.5029H218.173L213.418 22.2812L208.485 29.5029H203.64L210.862 18.9526L203.878 8.46176H208.901L213.507 15.743L218.024 8.46176Z" fill="white"/>
</svg>
