<svg width="26" height="24" viewBox="0 0 26 24" fill="none" xmlns="http://www.w3.org/2000/svg">
<path d="M11.1846 8.23779C11.1846 5.76382 13.265 3.70593 15.739 3.73967C16.6054 3.74967 17.4505 4.00969 18.1726 4.48846C18.8948 4.96724 19.4633 5.6444 19.8098 6.43854H23.7794L20.1472 10.0708C19.9127 13.7194 18.2976 17.1418 15.6301 19.6422C12.9626 22.1426 9.44304 23.5332 5.78689 23.5314C2.18839 23.5314 1.28877 22.182 1.28877 22.182C1.28877 22.182 4.88727 20.8325 6.68652 18.1337C6.68652 18.1337 -0.510481 14.5352 1.28877 4.63929C1.28877 4.63929 5.78689 9.13742 11.1846 10.037V8.23779Z" fill="#41DDFF"/>
<path d="M12.0843 6.43896C12.0843 3.96499 14.1647 1.9071 16.6387 1.94084C17.505 1.95084 18.3501 2.21086 19.0723 2.68964C19.7944 3.16841 20.3629 3.84557 20.7095 4.63971H24.679L21.0468 8.27195C20.8124 11.9206 19.1973 15.343 16.5298 17.8434C13.8623 20.3437 10.3427 21.7344 6.68655 21.7326C3.08805 21.7326 2.18843 20.3831 2.18843 20.3831C2.18843 20.3831 5.78693 19.0337 7.58618 16.3348C7.58618 16.3348 0.389177 12.7363 2.18843 2.84046C2.18843 2.84046 6.68655 7.33859 12.0843 8.23821V6.43896Z" stroke="#0B0B0B" stroke-width="2" stroke-linecap="round" stroke-linejoin="round"/>
</svg>
