<svg width="25" height="19" viewBox="0 0 25 19" fill="none" xmlns="http://www.w3.org/2000/svg">
<path d="M3.49927 3.6893C3.49927 2.39766 4.54635 1.35059 5.83798 1.35059H22.2001C23.4917 1.35059 24.5388 2.39766 24.5388 3.6893V16.731C24.5388 16.971 24.4464 17.2011 24.282 17.3708C24.1176 17.5405 23.8946 17.6358 23.6621 17.6358H4.37591C4.14341 17.6358 3.92043 17.5405 3.75603 17.3708C3.59163 17.2011 3.49927 16.971 3.49927 16.731V3.6893Z" fill="#FFC224"/>
<path d="M22.6225 1L11.7657 10.9521L0.908936 1" stroke="#0B0B0B" stroke-width="1.8" stroke-linecap="round" stroke-linejoin="round"/>
<path d="M0.908936 1H22.6225V16.3805C22.6225 16.6204 22.5272 16.8505 22.3575 17.0202C22.1879 17.1899 21.9577 17.2852 21.7178 17.2852H1.81367C1.57372 17.2852 1.3436 17.1899 1.17393 17.0202C1.00426 16.8505 0.908936 16.6204 0.908936 16.3805V1Z" stroke="#0B0B0B" stroke-width="1.8" stroke-linecap="round" stroke-linejoin="round"/>
<path d="M9.78661 9.14258L1.19165 17.0251" stroke="#0B0B0B" stroke-width="1.8" stroke-linecap="round" stroke-linejoin="round"/>
<path d="M22.3396 17.0251L13.7446 9.14258" stroke="#0B0B0B" stroke-width="1.8" stroke-linecap="round" stroke-linejoin="round"/>
</svg>
