<svg width="44" height="44" viewBox="0 0 44 44" fill="none" xmlns="http://www.w3.org/2000/svg">
<path d="M15.8805 20.4238C17.6285 24.0337 20.5475 26.9452 24.1619 28.684C24.4285 28.8102 24.7234 28.8648 25.0175 28.8425C25.3117 28.8202 25.5949 28.7216 25.8394 28.5566L31.148 25.0104C31.3825 24.8513 31.6536 24.7543 31.9358 24.7283C32.218 24.7023 32.5022 24.7482 32.7618 24.8618L42.6995 29.1299C43.0391 29.2713 43.3229 29.5203 43.5071 29.8388C43.6912 30.1573 43.7656 30.5275 43.7188 30.8923C43.4038 33.3507 42.2038 35.6101 40.3434 37.2477C38.483 38.8854 36.0897 39.789 33.6112 39.7896C25.9521 39.7896 18.6066 36.747 13.1908 31.3312C7.775 25.9153 4.73242 18.5699 4.73242 10.9108C4.73298 8.43231 5.63661 6.03895 7.27423 4.17855C8.91185 2.31815 11.1712 1.1182 13.6296 0.803224C13.9945 0.756353 14.3647 0.83073 14.6832 1.0149C15.0016 1.19908 15.2507 1.48283 15.3921 1.82247L19.6602 11.7814C19.7712 12.037 19.8176 12.3159 19.7954 12.5936C19.7732 12.8713 19.683 13.1393 19.5328 13.374L15.9866 18.7675C15.8288 19.0115 15.7361 19.2918 15.7175 19.5818C15.6989 19.8718 15.755 20.1617 15.8805 20.4238Z" fill="#81E644"/>
<path d="M13.3102 22.1657C15.0582 25.7756 17.9772 28.6871 21.5916 30.4259C21.8582 30.5522 22.1531 30.6068 22.4472 30.5845C22.7413 30.5621 23.0246 30.4636 23.2691 30.2985L28.5777 26.7524C28.8122 26.5933 29.0832 26.4962 29.3654 26.4702C29.6477 26.4442 29.9318 26.4902 30.1915 26.6037L40.1292 30.8718C40.4688 31.0132 40.7526 31.2623 40.9368 31.5808C41.1209 31.8992 41.1953 32.2694 41.1484 32.6343C40.8335 35.0927 39.6335 37.3521 37.7731 38.9897C35.9127 40.6273 33.5194 41.5309 31.0409 41.5315C23.3817 41.5315 16.0363 38.4889 10.6205 33.0731C5.20468 27.6573 2.16211 20.3119 2.16211 12.6527C2.16267 10.1743 3.0663 7.78089 4.70392 5.92049C6.34154 4.06009 8.60093 2.86014 11.0593 2.54517C11.4242 2.4983 11.7944 2.57267 12.1128 2.75685C12.4313 2.94102 12.6804 3.22477 12.8218 3.56442L17.0899 13.5233C17.2009 13.7789 17.2473 14.0578 17.2251 14.3355C17.2029 14.6133 17.1127 14.8813 16.9625 15.1159L13.4163 20.5095C13.2585 20.7534 13.1658 21.0338 13.1472 21.3237C13.1286 21.6137 13.1847 21.9036 13.3102 22.1657V22.1657Z" stroke="#0B0B0B" stroke-width="3" stroke-linecap="round" stroke-linejoin="round"/>
</svg>
