<?xml version="1.0" encoding="UTF-8"?>
<svg width="107px" height="60px" viewBox="0 0 107 60" version="1.1" xmlns="http://www.w3.org/2000/svg" xmlns:xlink="http://www.w3.org/1999/xlink">
    <title>icon-soundcloud</title>
    <g id="Page-1" stroke="none" stroke-width="1" fill="none" fill-rule="evenodd">
        <g id="icon-soundcloud" transform="translate(0.500000, 0.600000)" fill-rule="nonzero">
            <path d="M89.3,27.6 L85.6,27.6 C85.8,26.4 85.9,25.3 85.9,24.1 C85.9,12.4 76.7,2.9 65.4,2.9 C59.3,2.9 53.8,5.7 50,10.2 L50,55.9 L89.3,55.9 C96.8,55.9 103,49.6 103,41.8 C103,34 96.9,27.6 89.3,27.6 Z" id="Path"></path>
            <path d="M82.2701525,39.4 L78.5620915,39.4 C78.7625272,38.2 78.8627451,37.1 78.8627451,35.9 C78.8627451,24.2 69.6427015,14.7 58.3180828,14.7 C55.3115468,14.7 52.5054466,15.4 50,16.6 L50,55.9 L89.3856209,55.9 C91.7908497,55.9 93.9956427,55.3 96,54.2 C96,54 96,53.8 96,53.6 C95.8997821,45.7 89.7864924,39.4 82.2701525,39.4 Z" id="Path" fill="#FF5500"></path>
            <path d="M89.3,58.9 L50.1,58.9 C48.4,58.9 47.1,57.6 47.1,55.9 C47.1,54.2 48.4,52.9 50.1,52.9 L89.4,52.9 C95.3,52.9 100.1,47.9 100.1,41.8 C100.1,35.7 95.3,30.7 89.4,30.7 L85.7,30.7 C84.8,30.7 84,30.3 83.4,29.6 C82.8,28.9 82.6,28 82.7,27.2 C82.9,26.1 83,25.1 83,24.2 C83,14.2 75.2,6 65.5,6 C60.5,6 55.8,8.3 52.4,12.2 C51.3,13.5 49.4,13.6 48.2,12.5 C46.9,11.4 46.8,9.5 47.9,8.3 C52.4,3 58.8,0 65.6,0 C78.6,0 89.1,10.8 89.1,24.2 C89.1,24.4 89.1,24.6 89.1,24.7 L89.5,24.7 C98.7,24.7 106.2,32.4 106.2,41.8 C106,51.2 98.5,58.9 89.3,58.9 Z M38.3,58.9 C36.6,58.9 35.3,57.6 35.3,55.9 L35.3,13.7 C35.3,12 36.6,10.7 38.3,10.7 C40,10.7 41.3,12 41.3,13.7 L41.3,55.9 C41.3,57.5 40,58.9 38.3,58.9 Z M26.5,58.9 C24.8,58.9 23.5,57.6 23.5,55.9 L23.5,16.1 C23.5,14.4 24.8,13.1 26.5,13.1 C28.2,13.1 29.5,14.4 29.5,16.1 L29.5,55.9 C29.5,57.5 28.2,58.9 26.5,58.9 Z M14.8,58.9 C13.1,58.9 11.8,57.6 11.8,55.9 L11.8,27.9 C11.8,26.2 13.1,24.9 14.8,24.9 C16.5,24.9 17.8,26.2 17.8,27.9 L17.8,55.9 C17.8,57.5 16.4,58.9 14.8,58.9 Z M3,47.1 C1.3,47.1 8.8817842e-15,45.8 8.8817842e-15,44.1 L8.8817842e-15,39.6 C8.8817842e-15,37.9 1.3,36.6 3,36.6 C4.7,36.6 6,37.9 6,39.6 L6,44.1 C6,45.8 4.7,47.1 3,47.1 Z M3,58.9 C2.2,58.9 1.4,58.6 0.9,58 C0.3,57.4 7.10542736e-15,56.7 7.10542736e-15,55.9 C7.10542736e-15,55.1 0.3,54.3 0.9,53.8 C1,53.7 1.2,53.5 1.4,53.4 C1.6,53.3 1.7,53.2 1.9,53.1 C2.1,53 2.3,53 2.5,52.9 C3.5,52.7 4.5,53 5.2,53.7 C5.3,53.8 5.5,54 5.6,54.2 C5.7,54.4 5.8,54.5 5.9,54.7 C6,54.9 6,55.1 6.1,55.3 C6.1,55.5 6.2,55.7 6.2,55.9 C6.2,56.7 5.9,57.5 5.3,58 C4.6,58.5 3.8,58.9 3,58.9 Z" id="Shape" fill="#0B0B0B"></path>
        </g>
    </g>
</svg>