<svg width="27" height="23" viewBox="0 0 27 23" fill="none" xmlns="http://www.w3.org/2000/svg">
<path d="M0 12.8194C0 16.2784 0.359821 18.298 0.626786 19.3426C0.700398 19.6261 0.839594 19.8883 1.03315 20.108C1.2267 20.3278 1.4692 20.499 1.74107 20.6078C5.62946 22.0935 12.0714 22.0587 12.0714 22.0587C12.0714 22.0587 18.5134 22.0935 22.4018 20.6078C22.6737 20.499 22.9162 20.3278 23.1097 20.108C23.3033 19.8883 23.4425 19.6261 23.5161 19.3426C23.783 18.298 24.1429 16.2784 24.1429 12.8194C24.1429 9.36051 23.783 7.34086 23.5161 6.29622C23.4425 6.01277 23.3033 5.7506 23.1097 5.53083C22.9162 5.31107 22.6737 5.13987 22.4018 5.03104C18.5134 3.54533 12.0714 3.58015 12.0714 3.58015C12.0714 3.58015 5.62946 3.54533 1.74107 5.03104C1.4692 5.13987 1.2267 5.31107 1.03315 5.53083C0.839594 5.7506 0.700398 6.01277 0.626786 6.29622C0.359821 7.34086 0 9.36051 0 12.8194Z" fill="#FF4A60"/>
<path d="M17.643 10.9623L12.0715 7.24805V14.6766L17.643 10.9623Z" stroke="#0B0B0B" stroke-width="2" stroke-linecap="round" stroke-linejoin="round"/>
<path d="M1.85718 10.962C1.85718 14.4209 2.217 16.4406 2.48396 17.4852C2.55758 17.7687 2.69677 18.0308 2.89033 18.2506C3.08388 18.4704 3.32637 18.6416 3.59825 18.7504C7.48664 20.2361 13.9286 20.2013 13.9286 20.2013C13.9286 20.2013 20.3706 20.2361 24.259 18.7504C24.5308 18.6416 24.7733 18.4704 24.9669 18.2506C25.1604 18.0308 25.2996 17.7687 25.3732 17.4852C25.6402 16.4406 26 14.4209 26 10.962C26 7.50308 25.6402 5.48344 25.3732 4.4388C25.2996 4.15535 25.1604 3.89318 24.9669 3.67341C24.7733 3.45365 24.5308 3.28245 24.259 3.17362C20.3706 1.6879 13.9286 1.72273 13.9286 1.72273C13.9286 1.72273 7.48664 1.6879 3.59825 3.17362C3.32637 3.28245 3.08388 3.45365 2.89033 3.67341C2.69677 3.89318 2.55758 4.15535 2.48396 4.4388C2.217 5.48344 1.85718 7.50308 1.85718 10.962Z" stroke="#0B0B0B" stroke-width="2" stroke-linecap="round" stroke-linejoin="round"/>
</svg>
