<svg width="177" height="42" viewBox="0 0 177 42" fill="none" xmlns="http://www.w3.org/2000/svg">
<path d="M18.988 0.045298C16.71 0.29971 13.2931 1.3565 11.349 2.41329C6.12551 5.21183 2.59079 9.57598 0.823432 15.3883C0.46996 16.5234 0.0575761 19.6155 0.0772134 21.0637C0.0772134 22.3357 0.46996 25.4474 0.705608 26.1911C0.823432 26.5433 1.07872 27.3848 1.29473 28.0307C1.6482 29.1266 3.35665 32.5709 3.65121 32.8058C3.71012 32.8645 4.02432 33.2559 4.31888 33.706C5.04546 34.7824 6.95028 36.7002 8.38381 37.7962C9.4835 38.6377 12.5862 40.4186 12.9789 40.4382C13.0771 40.4382 13.0968 39.6945 13.0379 38.716C12.9004 36.5437 13.3128 33.5886 14.1965 30.5748C14.3536 30.066 14.4714 29.4006 14.4714 29.107C14.4714 28.8135 14.5499 28.5003 14.6481 28.4025C14.7463 28.2851 14.923 27.7175 15.0212 27.1304C15.1391 26.5433 15.3354 25.6431 15.4729 25.1343C15.6693 24.371 15.6496 24.0775 15.3747 23.2555C14.982 22.003 14.9623 19.9677 15.3551 18.9892C16.278 16.6604 17.2992 15.7797 19.0272 15.7797C21.1088 15.7797 22.1103 17.3453 21.7176 19.9677C21.5408 21.1615 21.0499 23.0403 20.7357 23.6274C20.6571 23.8035 20.5197 24.2928 20.4608 24.7037C20.3822 25.1343 20.2251 25.7409 20.1269 26.0736C19.852 26.8369 20.3822 28.3242 21.0892 28.8917C21.7568 29.4201 23.1511 29.5767 24.4275 29.2831C25.3308 29.0874 25.7039 28.8526 26.6465 27.9524C27.7659 26.8564 28.6103 25.5844 28.6103 24.9777C28.6103 24.8016 28.7085 24.5667 28.8263 24.4493C29.3761 23.9014 29.6707 19.635 29.2583 17.8346C28.8066 15.858 27.4124 13.9206 25.6058 12.7855C23.7991 11.6308 20.068 11.2982 17.7705 12.081C16.1602 12.6289 14.7267 13.5487 13.8037 14.6251C12.9789 15.584 12.1149 17.1496 12.1149 17.6976C12.1149 17.8933 12.0167 18.1477 11.8989 18.2651C11.7811 18.3826 11.6436 19.1262 11.5847 19.9286C11.4865 21.1224 11.5651 21.6703 11.9185 22.8446C12.1542 23.6469 12.5862 24.5863 12.8415 24.9386C13.3717 25.6431 13.3717 25.9171 12.8808 27.7958C12.7433 28.3046 12.5076 28.7743 12.3702 28.833C11.133 29.3027 8.61946 26.3476 7.77505 23.4121C7.46085 22.2966 7.44122 18.3238 7.75541 17.1496C7.89287 16.6604 8.12852 15.995 8.28562 15.6427C8.44272 15.31 8.58018 14.9773 8.58018 14.8991C8.58018 14.8208 8.97293 14.1554 9.46386 13.4313C12.0167 9.59555 16.1602 7.56025 21.4034 7.56025C22.6012 7.56025 23.8384 7.63853 24.1722 7.73638C26.8822 8.5779 27.6088 8.85188 28.6692 9.47813C30.7311 10.711 32.2235 12.3941 33.716 15.2122C33.8142 15.3883 33.9516 15.858 34.0105 16.2494C34.0891 16.6408 34.2265 17.0126 34.3247 17.0714C34.4229 17.1301 34.5015 18.4021 34.5015 19.909C34.5015 22.6293 34.3051 23.7252 33.4803 25.9562C32.5574 28.4025 30.1813 31.1032 28.0211 32.16C26.784 32.7471 24.4668 33.3929 23.5438 33.3929C22.3067 33.3929 19.8716 32.3752 19.204 31.5533C18.8898 31.1815 18.5952 31.3185 18.5952 31.8468C18.5952 32.0425 18.5167 32.3752 18.3988 32.5709C18.3007 32.7471 18.1239 33.295 18.0257 33.7843C17.4563 36.3676 16.6511 38.4616 15.414 40.4186C15.0409 41.0253 15.3551 41.3775 16.3762 41.5145C16.8868 41.5928 17.5741 41.7298 17.8883 41.8276C18.6738 42.0821 22.9351 42.0429 24.3686 41.7885C25.6647 41.5536 27.7659 40.9665 28.7085 40.5751C34.6389 38.1484 39.1359 33.2168 41.08 26.9347C42.1208 23.5882 42.1797 19.6938 41.2371 15.7797C40.9229 14.5077 40.8247 14.2141 39.9803 12.2571C38.7628 9.39984 36.0135 6.05334 33.225 3.99847C30.8293 2.23716 28.4728 1.21951 24.8006 0.338851C23.7795 0.104009 20.1466 -0.0916933 18.988 0.045298ZM71.3608 7.11013C70.5949 7.22755 69.3774 8.48005 69.0632 9.45856C68.7293 10.5349 69.0632 11.6896 70.0058 12.5898C72.0873 14.6055 75.7006 12.7072 75.2489 9.81082C74.974 7.97122 73.2852 6.79701 71.3608 7.11013ZM49.9561 8.26477C49.7793 8.46048 49.7793 32.0621 49.9757 32.3361C50.0739 32.4927 50.9183 32.5514 52.5678 32.5318L55.0225 32.5122L55.1207 28.5395C55.1992 25.3104 55.2778 24.5276 55.5134 24.3906C55.6705 24.2928 57.0059 24.1949 58.4787 24.1949C61.6992 24.1949 63.0542 23.9601 64.527 23.1773C66.4514 22.14 67.5707 20.6527 68.1795 18.2847C68.5526 16.7974 68.5526 15.721 68.1599 14.1945C67.8064 12.8246 67.6493 12.4919 66.8049 11.3764C65.7641 9.98695 64.7037 9.22371 62.9756 8.61704C62.0134 8.30392 61.2082 8.2452 56.0044 8.18649C52.7642 8.14735 50.0346 8.18649 49.9561 8.26477ZM60.737 13.1377C62.0527 13.5487 62.7007 14.1358 62.9952 15.1926C63.3684 16.5821 63.0934 17.8737 62.2687 18.6565C61.3653 19.4981 60.5602 19.6938 57.9288 19.6938C56.2007 19.6938 55.6705 19.635 55.4349 19.3806C55.1796 19.1458 55.1207 18.5783 55.1207 16.3473C55.1207 12.8246 55.101 12.8442 57.8306 12.8442C59.0089 12.8442 60.1478 12.9616 60.737 13.1377ZM95.1808 11.9831C95.1808 13.3335 95.0827 14.6055 94.9845 14.8208C94.847 15.0752 94.5721 15.1926 94.1008 15.1926C93.7473 15.1926 93.4135 15.2709 93.3742 15.3883C93.3546 15.4862 93.3546 16.1711 93.4135 16.8952C93.5117 18.1869 93.5313 18.2064 94.1204 18.3434C94.4543 18.4021 94.8274 18.5195 94.9452 18.5978C95.1219 18.6957 95.1808 20.2417 95.1808 24.1558C95.1808 29.4201 95.2005 29.6158 95.6325 30.3987C96.5358 32.0621 97.9497 32.6492 100.817 32.5709L102.741 32.5122L102.8 30.6139L102.859 28.696H102.368C101.622 28.696 100.522 28.1089 100.404 27.6393C100.345 27.4044 100.287 25.33 100.287 23.0011C100.287 19.7916 100.345 18.7153 100.542 18.5587C100.679 18.4413 101.229 18.3238 101.759 18.2847L102.741 18.226V15.2905L101.661 15.2318C101.072 15.1926 100.522 15.0556 100.444 14.9382C100.365 14.8012 100.287 13.5292 100.287 12.1005V9.51727H95.1808V11.9831ZM168.173 9.63469C168.094 9.71297 168.035 10.9459 168.035 12.3745C168.035 15.1535 168.016 15.1926 166.936 15.1926C166.445 15.1926 166.445 15.2122 166.504 16.6995C166.563 18.1869 166.582 18.226 167.093 18.2847C167.368 18.3238 167.702 18.4608 167.8 18.5783C167.918 18.7153 168.035 21.0832 168.094 24.097C168.153 26.9934 168.251 29.6354 168.33 29.9485C168.566 30.8096 169.783 31.9056 170.942 32.2774C172.238 32.7079 175.537 32.7471 175.871 32.3361C176.028 32.16 176.087 31.4554 176.047 30.4378L175.988 28.7939L175.301 28.6765C174.555 28.5591 173.711 28.1677 173.495 27.835C173.416 27.7175 173.337 25.5844 173.337 23.099C173.337 17.9912 173.22 18.3238 174.928 18.3238C176.047 18.3238 176.146 18.1281 176.047 16.3473L175.988 15.2905L174.712 15.1926L173.436 15.0948L173.337 12.3549L173.239 9.61512L170.765 9.55641C169.41 9.53684 168.251 9.57598 168.173 9.63469ZM85.4604 14.7229C84.4981 14.9773 83.3788 15.6232 82.6326 16.3864C81.7293 17.3258 81.4936 17.2671 81.3954 16.0733L81.3365 15.2905H76.4272V32.5122L78.9015 32.5514C81.3365 32.6101 81.3954 32.5905 81.5133 32.16C81.5722 31.9251 81.6311 29.4397 81.6311 26.6216C81.6311 21.0441 81.6507 20.8875 82.8093 19.7916C83.3199 19.3024 83.5948 19.2045 84.6945 19.1458L85.9709 19.0675L86.7368 19.8699C87.6401 20.8093 87.5419 19.909 87.6205 28.0111C87.6401 30.1638 87.6597 32.0621 87.6794 32.2578C87.7187 32.5318 88.0329 32.5709 90.2322 32.5318L92.7262 32.5122V18.774L92.1567 17.6585C91.1748 15.721 89.6628 14.8012 87.3455 14.6838C86.5208 14.6642 85.6764 14.6642 85.4604 14.7229ZM110.007 14.7229C107.886 15.2905 106.865 15.858 105.549 17.1496C103.782 18.9305 102.977 21.005 102.977 23.8035C102.997 28.7156 106.08 32.3557 110.635 32.7862C114.524 33.158 117.528 32.023 119.453 29.4593C119.728 29.0874 120.317 27.8937 120.317 27.6784C120.317 27.6001 119.178 27.5218 117.803 27.5218H115.289L114.7 28.1285C114.013 28.833 113.051 29.2831 112.167 29.2831C111.283 29.2831 109.928 28.6569 109.3 27.9915C108.829 27.4631 108.141 25.9366 108.141 25.4083C108.141 25.2321 109.575 25.1734 114.19 25.1734C117.508 25.1734 120.317 25.0951 120.454 25.0168C120.749 24.8211 120.474 21.7095 120.042 20.5744C119.158 18.2064 117.489 16.2103 115.8 15.5057C115.309 15.31 114.74 15.0556 114.543 14.9578C114.131 14.7425 110.635 14.5664 110.007 14.7229ZM113.836 19.0088C114.602 19.5372 115.27 20.7897 115.172 21.4942C115.113 21.9443 115.073 21.9443 111.755 22.003C107.925 22.0618 107.906 22.0422 108.515 20.6331C108.947 19.6546 109.811 18.774 110.616 18.5195C111.539 18.226 113.031 18.4608 113.836 19.0088ZM139.07 14.7229C136.792 15.3296 135.202 16.3277 133.965 17.8737C133.474 18.5 133.081 19.0871 133.081 19.2045C133.081 19.3024 132.943 19.6546 132.767 19.9873C132.59 20.3004 132.335 21.2789 132.197 22.1596C131.51 26.3476 133.395 30.2617 136.93 32.023L138.285 32.7079H141.132C144.078 32.7079 144.333 32.6492 146.14 31.6903C147.455 30.9858 149.616 28.2459 149.282 27.698C149.203 27.6001 148.084 27.5218 146.768 27.5218H144.353L143.862 28.0894C141.898 30.3008 138.226 29.1657 137.44 26.0932C137.323 25.6822 137.323 25.33 137.421 25.2517C137.519 25.193 140.327 25.1538 143.685 25.1734C148.477 25.1734 149.773 25.1343 149.792 24.9386C149.969 22.4923 148.791 18.8718 147.318 17.3062C146.493 16.4255 145.06 15.447 144.353 15.2709C144.039 15.1926 143.685 15.0556 143.548 14.9578C143.273 14.7425 139.679 14.5664 139.07 14.7229ZM142.134 18.5391C143.017 18.8522 144.039 19.9482 144.196 20.7897C144.431 22.0618 144.451 22.0618 140.798 22.003C137.519 21.9443 137.499 21.9443 137.44 21.4942C137.362 20.9463 138.049 19.5959 138.638 19.0871C139.483 18.3826 140.955 18.1477 142.134 18.5391ZM156.155 14.7229C152.129 15.6819 150.676 17.1105 150.656 20.0852C150.656 23.2947 152.267 24.645 157.038 25.4865C160.318 26.0541 161.26 26.5629 161.221 27.7958C161.202 28.6765 160.593 29.244 159.375 29.4984C157.844 29.8311 156.646 29.4593 155.683 28.3829L154.918 27.5218H152.542C150.617 27.5218 150.165 27.5805 150.165 27.7958C150.165 28.3634 150.951 29.8507 151.599 30.5944C152.208 31.2402 152.679 31.5533 154.525 32.434C154.702 32.5318 155.664 32.6884 156.626 32.8058C158.413 33.0211 161.516 32.8254 162.301 32.434C162.478 32.3557 162.989 32.1013 163.421 31.9056C164.54 31.3772 165.6 30.1834 165.993 29.0483C166.425 27.7567 166.307 25.9562 165.699 24.7037C164.972 23.236 163.047 22.1792 160.18 21.6703C156.489 21.0245 156.43 21.005 155.841 20.4374C155.134 19.7133 155.134 19.4589 155.841 18.6761C156.41 18.0499 156.449 18.0303 158.02 18.0303C159.591 18.0303 159.631 18.0499 160.2 18.6761C160.514 19.0284 160.77 19.4393 160.77 19.5959C160.77 19.8307 161.182 19.8895 163.224 19.8895C165.934 19.8895 165.856 19.9482 165.384 18.5587C164.52 16.0928 162.301 14.8404 158.609 14.7034C157.47 14.6642 156.371 14.6642 156.155 14.7229ZM130.037 15.1339C129.173 15.4275 127.975 16.406 127.602 17.1105C127.229 17.815 126.895 17.5215 126.797 16.3473L126.699 15.2905H121.789L121.731 23.5099C121.711 28.0307 121.731 31.9251 121.789 32.1795C121.888 32.6101 121.947 32.6101 124.303 32.5709C125.658 32.5514 126.758 32.4339 126.836 32.3165C126.915 32.2187 126.993 30.1442 126.993 27.7175C126.993 23.8818 127.033 23.1968 127.366 22.3357C128.054 20.5548 129.527 19.4981 131.372 19.4981C131.883 19.4981 132.099 19.4002 132.158 19.1458C132.295 18.5783 132.315 15.9363 132.197 15.3492C132.079 14.8795 131.981 14.8012 131.451 14.8208C131.098 14.8404 130.469 14.9773 130.037 15.1339ZM69.5541 15.4275C69.4952 15.5645 69.4756 19.4198 69.4952 23.9992L69.5541 32.3165L71.891 32.4144C73.3048 32.4731 74.326 32.4339 74.4831 32.3165C74.6991 32.16 74.758 30.4965 74.758 23.8426C74.7776 19.3024 74.7187 15.4862 74.6598 15.3883C74.4634 15.0948 69.6523 15.1339 69.5541 15.4275Z" fill="#D71818"/>
</svg>
