<svg width="93" height="31" viewBox="0 0 93 31" fill="none" xmlns="http://www.w3.org/2000/svg">
<path d="M11.6188 0.584473H12.436C15.2731 0.646808 18.0639 1.80001 20.0684 3.84149C19.3283 4.60509 18.5728 5.33753 17.8481 6.10114C16.7225 5.07261 15.3656 4.27783 13.8854 3.99732C11.6959 3.52981 9.33677 3.95057 7.50191 5.21286C5.49744 6.53748 4.14056 8.78155 3.8476 11.1815C3.5238 13.5502 4.18682 16.0436 5.7133 17.8825C7.17811 19.6746 9.41386 20.7967 11.7267 20.8746C13.8854 20.9992 16.1366 20.3291 17.7093 18.8019C18.9428 17.7266 19.5133 16.0903 19.6983 14.5008C17.1388 14.5008 14.5792 14.5164 12.0197 14.5008V11.2905H22.7976C23.3526 14.7346 22.5509 18.6149 19.9605 21.0772C18.2335 22.8225 15.8436 23.8511 13.4074 24.0537C11.0483 24.2874 8.61208 23.8355 6.51509 22.6823C4.00179 21.3265 1.99732 19.0357 1.0105 16.3397C0.0853638 13.8619 0.0699448 11.0568 0.933409 8.56337C1.71978 6.28814 3.23084 4.27783 5.17364 2.87529C7.03934 1.48833 9.30593 0.724727 11.6188 0.584473Z" fill="#4285F4"/>
<path d="M73.4512 1.39502H76.7508V23.6486C75.6561 23.6486 74.5459 23.6642 73.4512 23.6331C73.4666 16.2308 73.4512 8.81289 73.4512 1.39502Z" fill="#34A853"/>
<path d="M30.1347 9.10894C32.17 8.71935 34.3749 9.15569 36.0556 10.3868C37.5821 11.4777 38.646 13.1919 38.9698 15.0619C39.3861 17.228 38.8619 19.5968 37.4742 21.311C35.9785 23.2278 33.5269 24.2563 31.137 24.1004C28.9474 23.9758 26.8196 22.8693 25.5244 21.0616C24.0596 19.0669 23.705 16.3242 24.5068 13.9866C25.3086 11.4777 27.5752 9.56087 30.1347 9.10894ZM30.5973 12.0698C29.7647 12.288 28.9937 12.7711 28.4386 13.4568C26.943 15.2645 27.0355 18.2098 28.6853 19.8928C29.6259 20.859 31.0444 21.311 32.3551 21.046C33.5732 20.8279 34.6371 20.0019 35.223 18.9111C36.2406 17.0566 35.9477 14.5009 34.3904 13.0516C33.3881 12.1166 31.9233 11.727 30.5973 12.0698Z" fill="#EA4335"/>
<path d="M46.4814 9.10887C48.8097 8.65694 51.3538 9.31146 53.0962 10.9633C55.9333 13.5347 56.2417 18.3501 53.8209 21.311C52.3561 23.1811 49.9815 24.2096 47.6379 24.1005C45.4021 24.0382 43.1972 22.9161 41.8711 21.0617C40.3755 19.0202 40.0517 16.2151 40.8997 13.8308C41.7478 11.3997 43.9681 9.54522 46.4814 9.10887ZM46.944 12.0698C46.1114 12.288 45.3404 12.7711 44.7853 13.4412C43.3051 15.2177 43.3668 18.1163 44.9549 19.815C45.8955 20.8279 47.3603 21.3266 48.7172 21.0461C49.9199 20.8123 50.9992 20.002 51.5851 18.9111C52.5874 17.041 52.2944 14.4853 50.7217 13.036C49.7194 12.101 48.2546 11.727 46.944 12.0698Z" fill="#FBBC05"/>
<path d="M60.3425 10.0127C62.1157 8.89069 64.4749 8.57902 66.3868 9.54521C66.9882 9.81013 67.4816 10.2621 67.9595 10.714C67.975 10.2932 67.9595 9.85689 67.975 9.42054C69.008 9.43612 70.0411 9.42054 71.0896 9.43612V23.181C71.0742 25.2536 70.5499 27.451 69.0697 28.9626C67.4507 30.63 64.9683 31.1443 62.7325 30.8015C60.3425 30.443 58.261 28.6821 57.3358 26.4536C58.261 26.0017 59.2324 25.6432 60.1884 25.2225C60.728 26.5003 61.8228 27.5912 63.1951 27.8405C64.5674 28.0899 66.1555 27.747 67.0498 26.5938C68.0058 25.4095 68.0058 23.7888 67.9595 22.3395C67.2503 23.0408 66.4331 23.6641 65.4462 23.8979C63.303 24.5056 60.9439 23.7576 59.2941 22.2927C57.6288 20.8279 56.642 18.5682 56.7345 16.3241C56.7808 13.784 58.1993 11.3373 60.3425 10.0127ZM63.5343 12.0074C62.5937 12.1633 61.7148 12.6931 61.1135 13.4256C59.6641 15.1709 59.6641 17.9604 61.1289 19.6747C61.9615 20.6876 63.303 21.2486 64.5982 21.1084C65.8163 20.9837 66.9419 20.2045 67.5432 19.1292C68.5609 17.3059 68.3913 14.8281 67.019 13.2386C66.1709 12.2568 64.8141 11.7737 63.5343 12.0074Z" fill="#4285F4"/>
<path d="M80.7089 10.8075C82.5592 9.06208 85.4117 8.46989 87.7863 9.38934C90.0374 10.2464 91.4714 12.4126 92.1961 14.6411C88.8502 16.0436 85.5197 17.4306 82.1737 18.8331C82.6363 19.7214 83.3456 20.5317 84.3016 20.859C85.643 21.3421 87.2466 21.1707 88.3722 20.2668C88.8193 19.924 89.174 19.472 89.5132 19.0357C90.3612 19.6123 91.2093 20.1733 92.0573 20.7499C90.8546 22.5732 88.8348 23.8511 86.6607 24.0537C84.2553 24.3498 81.6957 23.4147 80.1384 21.5135C77.5789 18.5214 77.8256 13.5035 80.7089 10.8075ZM82.3588 13.6905C81.8345 14.4541 81.6187 15.3891 81.6341 16.3085C83.8698 15.3735 86.1056 14.4385 88.3414 13.4879C87.9713 12.6152 87.077 12.0853 86.1673 11.9451C84.7025 11.6802 83.176 12.4749 82.3588 13.6905Z" fill="#EA4335"/>
</svg>
