<svg width="163" height="33" viewBox="0 0 163 33" fill="none" xmlns="http://www.w3.org/2000/svg">
<path d="M10.5807 31.9737H4.46613V16.568H0.300781L0.300781 11.5522H4.46596V7.98312C4.46596 3.75374 6.30823 0.720459 12.4062 0.720459C13.696 0.720459 15.7208 0.983196 15.7208 0.983196V5.64063H13.5941C11.4271 5.64063 10.581 6.30682 10.581 8.1486V11.5522H15.6396L15.1892 16.568H10.5808L10.5807 31.9737ZM24.6107 11.1514C24.5216 11.1514 24.4299 11.1547 24.3392 11.157C18.6694 11.157 16.0753 15.4674 16.0753 21.5861C16.0753 29.294 19.4402 32.379 24.3835 32.379C27.2117 32.379 29.0699 31.1758 30.1993 28.9306V31.9758H36.0151V11.5543H30.1993V14.6949C29.2771 12.6743 27.367 11.1753 24.6107 11.1514ZM26.0894 15.9769C28.4708 15.9769 29.9001 17.6557 29.9001 20.5112L29.9056 23.4277C29.9056 25.3523 28.7251 27.6039 26.0894 27.6039C22.0375 27.6039 22.1458 23.182 22.1458 21.7092C22.1458 16.7551 24.3046 15.9769 26.0894 15.9769ZM38.3638 21.7661C38.3638 19.2846 38.2463 11.1647 48.7135 11.1647C52.9152 11.1647 54.6697 12.5149 54.6697 12.5149L53.2595 16.9354C53.2595 16.9354 51.5073 15.9602 49.2241 15.9602C46.2999 15.9602 44.4339 17.6736 44.4339 20.6881L44.4371 22.8497C44.4371 25.7464 46.2375 27.68 49.2302 27.68C51.3101 27.68 53.2272 26.6957 53.2272 26.6957L54.6338 31.0238C54.6338 31.0238 53.0296 32.3826 48.7428 32.3826C38.7765 32.3826 38.364 25.0974 38.364 21.7661H38.3638ZM88.7699 11.157C94.4398 11.157 97.0747 15.4674 97.0747 21.5861C97.0747 29.294 93.7097 32.379 88.7664 32.379C85.9382 32.379 83.8475 31.176 82.7181 28.9306V31.9758L76.9755 31.9735V1.34138L83.0727 0.803938V14.4182C83.9527 12.0364 86.8447 11.157 88.77 11.157H88.7699ZM87.0605 15.9769C84.6792 15.9769 83.0727 17.6557 83.0727 20.5112L83.067 23.4277C83.0634 25.3523 84.1795 27.6039 87.0605 27.6039C91.1124 27.6039 91.0042 23.182 91.0042 21.7092C91.0042 16.7551 88.8455 15.9769 87.0605 15.9769ZM65.2488 11.1738C58.818 11.1738 55.4229 14.7175 55.4229 21.015V22.185C55.4229 30.3586 60.1906 32.4629 65.8747 32.4629C71.3995 32.4629 73.9003 30.9011 73.9003 30.9011L72.7593 26.7419C72.7593 26.7419 69.8177 28.0069 66.6057 28.0069C63.2759 28.0069 61.8438 27.1491 61.4768 23.915H74.3877V20.5783C74.3877 13.7471 70.5774 11.1737 65.2486 11.1737L65.2488 11.1738ZM65.4037 15.3386C67.6298 15.3386 69.0722 16.7182 68.993 19.9178H61.488C61.6181 16.5503 63.1736 15.3388 65.4037 15.3388V15.3386ZM109.232 11.1458C102.628 11.1458 99.1516 14.9071 99.1516 21.6476C99.1516 30.8959 105.145 32.3845 109.243 32.3845C115.243 32.3845 119.235 29.1197 119.235 21.7315C119.235 14.0418 114.747 11.1458 109.232 11.1458ZM109.149 15.9936C112.053 15.9936 113.204 18.1902 113.204 20.6904V22.8401C113.204 25.8689 111.594 27.6208 109.138 27.6208C106.842 27.6208 105.228 25.9821 105.228 22.8401V20.6904C105.228 17.3395 107.148 15.9936 109.149 15.9936ZM131.382 11.1458C124.778 11.1458 121.301 14.9071 121.301 21.6476C121.301 30.8959 127.294 32.3845 131.393 32.3845C137.393 32.3845 141.385 29.1197 141.385 21.7315C141.385 14.0418 136.896 11.1458 131.382 11.1458ZM131.299 15.9936C134.203 15.9936 135.353 18.1902 135.353 20.6904V22.8401C135.353 25.8689 133.743 27.6208 131.288 27.6208C128.991 27.6208 127.377 25.9821 127.377 22.8401V20.6904C127.377 17.3395 129.298 15.9936 131.299 15.9936ZM143.689 31.9737V1.34138L149.804 0.803938V21.3356L155.871 11.5522H162.328L156 21.685L162.572 31.9737H156.096L149.804 21.9835V31.9737H143.689Z" fill="#137AFD"/>
</svg>
