<svg width="25" height="26" viewBox="0 0 25 26" fill="none" xmlns="http://www.w3.org/2000/svg">
<path d="M12.9599 25.8603C19.0571 25.8603 23.9999 20.9175 23.9999 14.8203C23.9999 8.72305 19.0571 3.78027 12.9599 3.78027C6.8627 3.78027 1.91992 8.72305 1.91992 14.8203C1.91992 20.9175 6.8627 25.8603 12.9599 25.8603Z" fill="#41A4FF"/>
<path d="M12.04 23.1005C18.1372 23.1005 23.08 18.1577 23.08 12.0605C23.08 5.96328 18.1372 1.02051 12.04 1.02051C5.94278 1.02051 1 5.96328 1 12.0605C1 18.1577 5.94278 23.1005 12.04 23.1005Z" stroke="#0B0B0B" stroke-width="2" stroke-linecap="round" stroke-linejoin="round"/>
<path d="M16.6401 7.46096H14.8001C14.4372 7.45944 14.0776 7.52979 13.7421 7.66795C13.4065 7.80612 13.1016 8.00936 12.8451 8.26595C12.5885 8.52255 12.3852 8.82741 12.2471 9.16296C12.1089 9.4985 12.0385 9.85809 12.0401 10.221V23.101" stroke="#0B0B0B" stroke-width="2" stroke-linecap="round" stroke-linejoin="round"/>
<path d="M8.36011 13.9004H15.7201" stroke="#0B0B0B" stroke-width="2" stroke-linecap="round" stroke-linejoin="round"/>
</svg>
