<svg width="22" height="23" viewBox="0 0 22 23" fill="none" xmlns="http://www.w3.org/2000/svg">
<path d="M21.1599 3.54004H3.51993C3.05601 3.54004 2.67993 3.91612 2.67993 4.38004V22.02C2.67993 22.484 3.05601 22.86 3.51993 22.86H21.1599C21.6238 22.86 21.9999 22.484 21.9999 22.02V4.38004C21.9999 3.91612 21.6238 3.54004 21.1599 3.54004Z" fill="#4690FF"/>
<path d="M19.48 1.02051H1.84C1.37608 1.02051 1 1.39659 1 1.86051V19.5005C1 19.9644 1.37608 20.3405 1.84 20.3405H19.48C19.9439 20.3405 20.32 19.9644 20.32 19.5005V1.86051C20.32 1.39659 19.9439 1.02051 19.48 1.02051Z" stroke="#0B0B0B" stroke-width="2" stroke-linecap="round" stroke-linejoin="round"/>
<path d="M9.82007 9.00098V15.721" stroke="#0B0B0B" stroke-width="2" stroke-linecap="round" stroke-linejoin="round"/>
<path d="M6.45996 9.00098V15.721" stroke="#0B0B0B" stroke-width="2" stroke-linecap="round" stroke-linejoin="round"/>
<path d="M9.82007 11.941C9.82007 11.1612 10.1298 10.4134 10.6812 9.86208C11.2325 9.31073 11.9803 9.00098 12.7601 9.00098C13.5398 9.00098 14.2876 9.31073 14.839 9.86208C15.3903 10.4134 15.7001 11.1612 15.7001 11.941V15.721" stroke="#0B0B0B" stroke-width="2" stroke-linecap="round" stroke-linejoin="round"/>
<path d="M6.45995 6.90086C7.15583 6.90086 7.71995 6.33674 7.71995 5.64086C7.71995 4.94498 7.15583 4.38086 6.45995 4.38086C5.76407 4.38086 5.19995 4.94498 5.19995 5.64086C5.19995 6.33674 5.76407 6.90086 6.45995 6.90086Z" fill="#0B0B0B"/>
</svg>
