<svg xmlns="http://www.w3.org/2000/svg" viewBox="0 0 16 16"><g fill="none" fill-rule="evenodd"><rect width="16" height="16" fill="#000" rx="5"/><path fill="#FFF" d="M5.007 4H4v7.769c0 .127.1.231.225.231h.94a.228.228 0 0 0 .224-.231V7.855h-.382V4Zm1.652.98h-.624v2.875h-.382v.975c0 .127.1.23.224.23h.94a.228.228 0 0 0 .225-.23v-.975H6.66V4.98Zm1.653.98h-.624v1.895h-.383v1.954c0 .128.1.232.225.232h.94a.228.228 0 0 0 .225-.232V7.855h-.383V5.959Zm1.653.98H9.34v.915h-.383v2.934c0 .128.1.231.225.231h.94a.228.228 0 0 0 .224-.231V7.855h-.382v-.916ZM10.993 4v3.855h-.382v3.914c0 .127.1.231.224.231h.94a.228.228 0 0 0 .225-.231V4h-1.007Z"/></g></svg>