<svg width="154" height="40" viewBox="0 0 154 40" fill="none" xmlns="http://www.w3.org/2000/svg">
<circle cx="19.8096" cy="19.5032" r="19.5032" fill="white"/>
<path d="M30.4581 20.4482C31.614 20.4482 32.5686 21.3915 32.3796 22.5318C31.9475 25.1384 30.7118 27.5651 28.8192 29.4577C26.4297 31.8472 23.1889 33.1896 19.8097 33.1896C16.4305 33.1896 13.1897 31.8472 10.8002 29.4577C8.9076 27.5651 7.67189 25.1384 7.23983 22.5318C7.05081 21.3915 8.00538 20.4482 9.16126 20.4482L19.8097 20.4482H30.4581Z" fill="#0B0B0B"/>
<circle cx="24.9443" cy="13.8289" r="3.98218" fill="#0B0B0B"/>
<path d="M54.96 8.46176L64.9456 22.5486V8.46176H69.1658V29.5029H65.0348L55.0492 15.4755V29.5029H50.829V8.46176H54.96ZM82.7356 22.5784C82.2403 22.5784 81.735 22.5784 81.2199 22.5784C80.7048 22.5784 80.1896 22.5784 79.6745 22.5784C79.3773 22.5784 79.0405 22.6081 78.6641 22.6675C78.2876 22.727 77.9607 22.8359 77.6833 22.9944C77.4059 23.1529 77.1682 23.361 76.9701 23.6185C76.7917 23.8761 76.7026 24.1931 76.7026 24.5695C76.7026 24.8866 76.762 25.1639 76.8809 25.4017C77.0196 25.6394 77.188 25.8376 77.3861 25.9961C77.6041 26.1546 77.8616 26.2834 78.1588 26.3824C78.456 26.4617 78.7532 26.5013 79.0504 26.5013C79.625 26.5211 80.1599 26.422 80.6552 26.2041C81.1704 25.9862 81.6162 25.6791 81.9926 25.2828C82.2304 24.9658 82.4087 24.6092 82.5276 24.2129C82.6662 23.7968 82.7356 23.252 82.7356 22.5784ZM82.8842 27.5712C82.2898 28.3637 81.5666 28.9284 80.7147 29.2652C79.8627 29.602 78.8721 29.7605 77.7428 29.7407C76.2964 29.7011 75.0879 29.2949 74.117 28.5222C73.6019 28.0863 73.1957 27.5712 72.8985 26.9768C72.6212 26.3626 72.4825 25.6394 72.4825 24.8073C72.5023 23.9554 72.6905 23.2025 73.0471 22.5486C73.4236 21.875 73.9882 21.3203 74.7411 20.8844C75.3751 20.5476 76.0884 20.3098 76.8809 20.1711C77.6932 20.0324 78.5749 19.9631 79.5259 19.9631H82.7356C82.795 18.9922 82.5672 18.2691 82.052 17.7936C81.5567 17.2983 80.8534 17.0407 79.942 17.0209C79.6448 17.0209 79.3377 17.0407 79.0207 17.0803C78.7037 17.1199 78.4065 17.1992 78.1291 17.3181C77.8715 17.4369 77.6437 17.6054 77.4456 17.8233C77.2673 18.0214 77.1484 18.2691 77.0889 18.5663H72.7797C72.8787 17.6153 73.1363 16.8227 73.5524 16.1887C73.9882 15.5349 74.5331 15.0099 75.1869 14.6136C75.8407 14.2174 76.5639 13.94 77.3564 13.7815C78.1687 13.6032 79.0009 13.514 79.8528 13.514C80.3283 13.514 80.8137 13.5437 81.3091 13.6032C81.8044 13.6428 82.2898 13.7419 82.7653 13.9004C83.2408 14.0391 83.6866 14.2372 84.1027 14.4947C84.5385 14.7325 84.9447 15.0495 85.3212 15.4458C85.9948 16.2185 86.4109 17.11 86.5694 18.1205C86.7477 19.1111 86.8269 20.082 86.8071 21.033V29.5029H82.9733L82.8842 27.5712ZM95.4923 17.4964V23.8266C95.4923 25.1738 96.1758 25.8475 97.5429 25.8475H99.0883V29.5029H97.1269C95.0465 29.5822 93.5507 29.1859 92.6393 28.3142C91.7477 27.4424 91.3019 26.1249 91.3019 24.3615V17.4964H88.9244V13.8409H91.3019V9.59108H95.4923V13.8409H99.2369V17.4964H95.4923ZM105.68 15.5944C105.957 15.2575 106.244 14.9802 106.542 14.7622C106.839 14.5245 107.195 14.2966 107.611 14.0787C108.047 13.8806 108.483 13.7419 108.919 13.6626C109.375 13.5635 109.86 13.514 110.375 13.514C111.386 13.514 112.267 13.6923 113.02 14.049C113.773 14.3858 114.397 14.8316 114.893 15.3863C115.467 16.0798 115.873 16.8921 116.111 17.8233C116.349 18.7545 116.468 19.7848 116.468 20.9141V29.5029H112.248V21.241C112.248 20.6862 112.188 20.1612 112.069 19.6659C111.97 19.1508 111.792 18.7149 111.534 18.3582C111.277 17.9818 110.94 17.7044 110.524 17.5261C110.128 17.3478 109.632 17.2586 109.038 17.2586C108.444 17.2784 107.909 17.4171 107.433 17.6747C106.977 17.9125 106.621 18.2295 106.363 18.6257C106.125 19.022 105.947 19.4678 105.828 19.9631C105.729 20.4386 105.68 20.9339 105.68 21.449V29.5029H101.489V8.46176H105.68V15.5944ZM129.375 22.5784C128.88 22.5784 128.374 22.5784 127.859 22.5784C127.344 22.5784 126.829 22.5784 126.314 22.5784C126.017 22.5784 125.68 22.6081 125.303 22.6675C124.927 22.727 124.6 22.8359 124.323 22.9944C124.045 23.1529 123.808 23.361 123.609 23.6185C123.431 23.8761 123.342 24.1931 123.342 24.5695C123.342 24.8866 123.401 25.1639 123.52 25.4017C123.659 25.6394 123.827 25.8376 124.025 25.9961C124.243 26.1546 124.501 26.2834 124.798 26.3824C125.095 26.4617 125.393 26.5013 125.69 26.5013C126.264 26.5211 126.799 26.422 127.295 26.2041C127.81 25.9862 128.256 25.6791 128.632 25.2828C128.87 24.9658 129.048 24.6092 129.167 24.2129C129.306 23.7968 129.375 23.252 129.375 22.5784ZM129.524 27.5712C128.929 28.3637 128.206 28.9284 127.354 29.2652C126.502 29.602 125.511 29.7605 124.382 29.7407C122.936 29.7011 121.727 29.2949 120.756 28.5222C120.241 28.0863 119.835 27.5712 119.538 26.9768C119.261 26.3626 119.122 25.6394 119.122 24.8073C119.142 23.9554 119.33 23.2025 119.686 22.5486C120.063 21.875 120.628 21.3203 121.38 20.8844C122.015 20.5476 122.728 20.3098 123.52 20.1711C124.333 20.0324 125.214 19.9631 126.165 19.9631H129.375C129.434 18.9922 129.207 18.2691 128.691 17.7936C128.196 17.2983 127.493 17.0407 126.581 17.0209C126.284 17.0209 125.977 17.0407 125.66 17.0803C125.343 17.1199 125.046 17.1992 124.768 17.3181C124.511 17.4369 124.283 17.6054 124.085 17.8233C123.907 18.0214 123.788 18.2691 123.728 18.5663H119.419C119.518 17.6153 119.776 16.8227 120.192 16.1887C120.628 15.5349 121.172 15.0099 121.826 14.6136C122.48 14.2174 123.203 13.94 123.996 13.7815C124.808 13.6032 125.64 13.514 126.492 13.514C126.968 13.514 127.453 13.5437 127.948 13.6032C128.444 13.6428 128.929 13.7419 129.405 13.9004C129.88 14.0391 130.326 14.2372 130.742 14.4947C131.178 14.7325 131.584 15.0495 131.961 15.4458C132.634 16.2185 133.05 17.11 133.209 18.1205C133.387 19.1111 133.466 20.082 133.446 21.033V29.5029H129.613L129.524 27.5712ZM140.943 15.8321C142.211 14.2867 143.776 13.514 145.639 13.514C146.649 13.514 147.541 13.6824 148.313 14.0192C149.086 14.3561 149.71 14.8217 150.186 15.416C150.76 16.1095 151.156 16.9218 151.374 17.853C151.592 18.7644 151.701 19.7848 151.701 20.9141V29.5029H147.481V21.241C147.481 20.6862 147.422 20.1612 147.303 19.6659C147.204 19.1508 147.025 18.7149 146.768 18.3582C146.51 17.9818 146.164 17.7044 145.728 17.5261C145.312 17.3478 144.836 17.2586 144.301 17.2586C143.647 17.2586 143.093 17.3973 142.637 17.6747C142.181 17.9521 141.825 18.3087 141.567 18.7446C141.309 19.1805 141.131 19.6659 141.032 20.2008C140.953 20.716 140.913 21.241 140.913 21.7759V29.5029H136.723V13.8409H140.735L140.943 15.8321Z" fill="white"/>
</svg>
