<svg xmlns="http://www.w3.org/2000/svg" viewBox="0 0 24 24"><path fill="#FFF" fill-rule="evenodd" d="M2.898 0H0v23.306c0 .383.29.694.647.694h2.706c.357 0 .647-.31.647-.694V11.564H2.898V0Zm5 3H6.102v8.453H5v2.867c0 .376.29.68.647.68h2.706c.357 0 .647-.304.647-.68v-2.867H7.898V3Zm5 3h-1.796v5.572H10v5.748c0 .376.29.68.647.68h2.706c.357 0 .647-.304.647-.68v-5.748h-1.101V6Zm5 3h-1.796v2.692H15v8.628c0 .376.29.68.647.68h2.706c.357 0 .647-.304.647-.68v-8.628h-1.102V9Zm3.204-9v11.564H20v11.742c0 .383.29.694.647.694h2.706c.357 0 .647-.31.647-.694V0h-2.898Z"/></svg>