<svg xmlns="http://www.w3.org/2000/svg" viewBox="0 0 16 16"><path fill="#FFF" fill-rule="evenodd" d="M2.441.932H.537v14.273c0 .235.19.425.425.425H2.74c.235 0 .425-.19.425-.425V8.014h-.724V.932Zm3.126 1.8h-1.18v5.282h-.724v1.791c0 .235.19.425.425.425h1.778c.235 0 .425-.19.425-.425V8.014h-.724V2.732Zm3.126 1.8h-1.18v3.482h-.724v3.591c0 .235.19.425.425.425h1.778c.235 0 .425-.19.425-.425V8.014h-.724V4.532Zm3.126 1.8h-1.18v1.682h-.724v5.391c0 .235.19.425.425.425h1.778c.234 0 .425-.19.425-.425V8.014h-.724V6.332Zm1.945-5.4v7.082h-.724v7.191c0 .235.19.425.426.425h1.777c.235 0 .426-.19.426-.425V.932h-1.905Z"/></svg>