<?xml version="1.0" encoding="UTF-8"?>
<svg width="24px" height="24px" viewBox="0 0 24 24" version="1.1" xmlns="http://www.w3.org/2000/svg" xmlns:xlink="http://www.w3.org/1999/xlink">
    <title>N</title>
    <g id="Page-1" stroke="none" stroke-width="1" fill="none" fill-rule="evenodd">
        <g id="Resized-Logo" transform="translate(-8, -8)" fill="#FFFFFF">
            <g id="N" transform="translate(8, 8)">
                <path d="M2.89843161,0 L0,0 L0,23.3057961 C0,23.6893423 0.289843161,24 0.647078967,24 C1.39195945,24 2.60804055,24 3.35292103,24 C3.71043079,24 4,23.6893423 4,23.3057961 C4,20.687983 4,11.5636978 4,11.5636978 L2.89843161,11.5636978 L2.89843161,0 Z M7.89823312,3 L6.10176688,3 L6.10176688,11.4529153 L5,11.4529153 L5,14.3196188 C5,14.695528 5.28982331,15 5.64703465,15 C6.39186413,15 7.60813587,15 8.35269141,15 C8.71017669,15 9,14.695528 9,14.3196188 C9,11.7539307 9,11.4529153 9,11.4529153 L7.89823312,11.4529153 L7.89823312,3 Z M12.8985071,6 L11.1017669,6 L11.1017669,11.5723853 L10,11.5723853 L10,17.3196188 C10,17.695528 10.2898233,18 10.6473086,18 C11.3921381,18 12.6081359,18 13.3529653,18 C13.7101767,18 14,17.695528 14,17.3196188 C14,14.7539307 14,11.5723853 14,11.5723853 L12.8985071,11.5723853 L12.8985071,6 Z M17.8984316,9 L16.1015684,9 L16.1015684,11.6918553 L15,11.6918553 L15,20.3196188 C15,20.695528 15.2895692,21 15.647079,21 C16.3919595,21 17.6080405,21 18.352921,21 C18.7104308,21 19,20.695528 19,20.3196188 C19,17.7539307 19,11.6918553 19,11.6918553 L17.8984316,11.6918553 L17.8984316,9 Z M21.1015684,0 L21.1015684,11.5636978 L20,11.5636978 L20,23.3057961 C20,23.6893423 20.2898432,24 20.647079,24 C21.3919595,24 22.6080405,24 23.352921,24 C23.7104308,24 24,23.6893423 24,23.3057961 L24,0 L21.1015684,0 Z" id="Shape"></path>
            </g>
        </g>
    </g>
</svg>