<?xml version="1.0" encoding="UTF-8" standalone="no"?>
<!DOCTYPE svg PUBLIC "-//W3C//DTD SVG 1.1//EN" "http://www.w3.org/Graphics/SVG/1.1/DTD/svg11.dtd">
<svg width="100%" height="100%" viewBox="0 0 20834 10150" version="1.1" xmlns="http://www.w3.org/2000/svg" xmlns:xlink="http://www.w3.org/1999/xlink" xml:space="preserve" xmlns:serif="http://www.serif.com/" style="fill-rule:evenodd;clip-rule:evenodd;stroke-linejoin:round;stroke-miterlimit:2;">
    <g transform="matrix(4.16667,0,0,4.16667,0,0)">
        <g transform="matrix(1476.39,-1.0524e-13,1.2494e-13,-2435.9,1761.81,1217.95)">
            <rect x="-1.193" y="-0.5" width="3.387" height="1" style="fill:url(#_Linear1);"/>
        </g>
        <g transform="matrix(3.20923e-17,-0.998996,-1.5231,3.20923e-17,1298.27,1557.15)">
            <path d="M-725.615,-725.612C-725.615,-725.612 -752.845,-400.744 -752.845,0.002C-752.845,400.746 -725.615,725.615 -725.615,725.615C-725.615,725.615 -698.382,400.746 -698.382,0.002C-698.382,-400.744 -725.615,-725.612 -725.615,-725.612" style="fill:rgb(153,153,153);fill-rule:nonzero;"/>
        </g>
        <g transform="matrix(3.20923e-17,-0.998996,-1.5231,3.20923e-17,3701.73,1557.15)">
            <path d="M-725.615,-725.612C-725.615,-725.612 -752.845,-400.744 -752.845,0.002C-752.845,400.746 -725.615,725.615 -725.615,725.615C-725.615,725.615 -698.382,400.746 -698.382,0.002C-698.382,-400.744 -725.615,-725.612 -725.615,-725.612" style="fill:rgb(153,153,153);fill-rule:nonzero;"/>
        </g>
        <g transform="matrix(1.31946,0,0,1.2704,-5122.29,-815.711)">
            <rect x="5850" y="763.201" width="1675.21" height="1675.21" style="fill:white;"/>
        </g>
        <g transform="matrix(1.31946,0,0,1.2704,-7525.75,-815.711)">
            <rect x="5850" y="763.201" width="1675.21" height="1675.21"/>
        </g>
        <g transform="matrix(9,0,0,9,-16197,-12025.4)">
            <g transform="matrix(1.02738,0,0,0.973346,1306.24,39.221)">
                <path d="M924.577,1426.33L836.668,1426.33L836.668,1516.64L924.577,1516.64L924.577,1426.33Z"/>
            </g>
            <g transform="matrix(1,0,0,1,1597.09,1265.63)">
                <path d="M582.429,165.024L571.849,165.024L571.849,244.321C571.849,245.626 572.907,246.683 574.211,246.683C576.93,246.683 581.369,246.683 584.088,246.683C585.393,246.683 586.45,245.626 586.45,244.321C586.45,235.414 586.45,204.369 586.45,204.369L582.429,204.369L582.429,165.024ZM599.795,175.024L593.237,175.024L593.237,204.369L589.215,204.369L589.215,214.321C589.215,215.626 590.273,216.683 591.577,216.683C594.296,216.683 598.736,216.683 601.454,216.683C602.759,216.683 603.817,215.626 603.817,214.321C603.817,205.414 603.817,204.369 603.817,204.369L599.795,204.369L599.795,175.024ZM617.162,185.024L610.603,185.024L610.603,204.369L606.581,204.369L606.581,224.321C606.581,225.626 607.639,226.683 608.944,226.683C611.663,226.683 616.102,226.683 618.821,226.683C620.125,226.683 621.183,225.626 621.183,224.321C621.183,215.414 621.183,204.369 621.183,204.369L617.162,204.369L617.162,185.024ZM634.528,195.024L627.969,195.024L627.969,204.369L623.948,204.369L623.948,234.321C623.948,235.626 625.005,236.683 626.31,236.683C629.029,236.683 633.468,236.683 636.187,236.683C637.492,236.683 638.549,235.626 638.549,234.321C638.549,225.414 638.549,204.369 638.549,204.369L634.528,204.369L634.528,195.024ZM645.335,165.024L645.335,204.369L641.314,204.369L641.314,244.321C641.314,245.626 642.372,246.683 643.676,246.683C646.395,246.683 650.834,246.683 653.553,246.683C654.858,246.683 655.915,245.626 655.915,244.321L655.915,165.024L645.335,165.024Z" style="fill:white;"/>
            </g>
        </g>
        <g transform="matrix(9,0,0,9,-4226.67,-634.734)">
            <path d="M582.429,165.024L571.849,165.024L571.849,244.321C571.849,245.626 572.907,246.683 574.211,246.683C576.93,246.683 581.369,246.683 584.088,246.683C585.393,246.683 586.45,245.626 586.45,244.321C586.45,235.414 586.45,204.369 586.45,204.369L582.429,204.369L582.429,165.024ZM599.795,175.024L593.237,175.024L593.237,204.369L589.215,204.369L589.215,214.321C589.215,215.626 590.273,216.683 591.577,216.683C594.296,216.683 598.736,216.683 601.454,216.683C602.759,216.683 603.817,215.626 603.817,214.321C603.817,205.414 603.817,204.369 603.817,204.369L599.795,204.369L599.795,175.024ZM617.162,185.024L610.603,185.024L610.603,204.369L606.581,204.369L606.581,224.321C606.581,225.626 607.639,226.683 608.944,226.683C611.663,226.683 616.102,226.683 618.821,226.683C620.125,226.683 621.183,225.626 621.183,224.321C621.183,215.414 621.183,204.369 621.183,204.369L617.162,204.369L617.162,185.024ZM634.528,195.024L627.969,195.024L627.969,204.369L623.948,204.369L623.948,234.321C623.948,235.626 625.005,236.683 626.31,236.683C629.029,236.683 633.468,236.683 636.187,236.683C637.492,236.683 638.549,235.626 638.549,234.321C638.549,225.414 638.549,204.369 638.549,204.369L634.528,204.369L634.528,195.024ZM645.335,165.024L645.335,204.369L641.314,204.369L641.314,244.321C641.314,245.626 642.372,246.683 643.676,246.683C646.395,246.683 650.834,246.683 653.553,246.683C654.858,246.683 655.915,245.626 655.915,244.321L655.915,165.024L645.335,165.024Z" style="fill:white;"/>
        </g>
    </g>
    <defs>
        <linearGradient id="_Linear1" x1="0" y1="0" x2="1" y2="2.14904e-06" gradientUnits="userSpaceOnUse" gradientTransform="matrix(1.24786e-06,0.999999,0.999999,-1.24786e-06,0.5,-0.5)"><stop offset="0" style="stop-color:rgb(217,218,219);stop-opacity:1"/><stop offset="1" style="stop-color:white;stop-opacity:1"/></linearGradient>
    </defs>
</svg>
