<?xml version="1.0" encoding="UTF-8"?>
<svg width="348px" height="435px" viewBox="0 0 348 435" version="1.1" xmlns="http://www.w3.org/2000/svg" xmlns:xlink="http://www.w3.org/1999/xlink">
    <title>Linktree</title>
    <g id="Page-1" stroke="none" stroke-width="1" fill="none" fill-rule="evenodd">
        <g id="Artboard" transform="translate(-1.000000, 0.000000)">
            <g id="Linktree" transform="translate(1.000000, 0.000000)">
                <rect id="Rectangle" fill="#44E760" x="114" y="305" width="54" height="130" rx="20"></rect>
                <rect id="Rectangle" stroke="#0B0B0B" stroke-width="25" fill="#44E760" x="153.5" y="300.5" width="39" height="112" rx="19.5"></rect>
                <rect id="Rectangle" stroke="#0B0B0B" stroke-width="25" transform="translate(251.516504, 101.483496) rotate(45.000000) translate(-251.516504, -101.483496) " x="232.016504" y="45.4834957" width="39" height="112" rx="19.5"></rect>
                <rect id="Rectangle" stroke="#0B0B0B" stroke-width="25" fill="#44E760" transform="translate(279.500000, 175.000000) rotate(90.000000) translate(-279.500000, -175.000000) " x="260" y="119" width="39" height="112" rx="19.5"></rect>
                <rect id="Rectangle" stroke="#0B0B0B" stroke-width="25" fill="#44E760" transform="translate(228.909903, 237.909903) rotate(135.000000) translate(-228.909903, -237.909903) " x="209.409903" y="166.909903" width="39" height="142" rx="19.5"></rect>
                <path d="M124.504311,163.495689 C126.575379,163.495689 128.450379,164.335155 129.807612,165.692388 C131.164845,167.049621 132.004311,168.924621 132.004311,170.995689 L132.004311,301.995689 C132.004311,304.066757 131.164845,305.941757 129.807612,307.29899 C128.450379,308.656223 126.575379,309.495689 124.504311,309.495689 L100.504311,309.495689 C98.4332432,309.495689 96.5582432,308.656223 95.2010101,307.29899 C93.8437771,305.941757 93.004311,304.066757 93.004311,301.995689 L93.004311,170.995689 C93.004311,168.924621 93.8437771,167.049621 95.2010101,165.692388 C96.5582432,164.335155 98.4332432,163.495689 100.504311,163.495689 Z" id="Rectangle" stroke="#0B0B0B" stroke-width="25" fill="#44E760" transform="translate(112.504311, 236.495689) rotate(225.000000) translate(-112.504311, -236.495689) "></path>
                <rect id="Rectangle" stroke="#0B0B0B" stroke-width="25" fill="#44E760" transform="translate(68.500000, 175.000000) rotate(270.000000) translate(-68.500000, -175.000000) " x="49" y="119" width="39" height="112" rx="19.5"></rect>
                <rect id="Rectangle" stroke="#0B0B0B" stroke-width="25" fill="#44E760" transform="translate(95.213665, 100.226408) rotate(316.000000) translate(-95.213665, -100.226408) " x="75.7136652" y="46.726408" width="39" height="107" rx="19.5"></rect>
                <rect id="Rectangle" stroke="#0B0B0B" stroke-width="25" x="153.5" y="12.5" width="39" height="112" rx="19.5"></rect>
                <path d="M237.112698,55.2598846 L245.112698,55.2598846 L245.112698,55.2598846 L245.112698,147.259885 L235.112698,147.259885 L235.112698,57.2598846 C235.112698,56.1553151 236.008129,55.2598846 237.112698,55.2598846 Z" id="Rectangle" fill="#44E760" transform="translate(240.112698, 101.259885) rotate(45.000000) translate(-240.112698, -101.259885) "></path>
                <path d="M160.974874,30.1906025 L169.974874,30.1906025 L169.974874,30.1906025 L169.974874,125.190602 L158.974874,125.190602 L158.974874,32.1906025 C158.974874,31.086033 159.870304,30.1906025 160.974874,30.1906025 Z" id="Rectangle" fill="#44E760"></path>
                <ellipse id="Oval" fill="#44E760" cx="173" cy="156.5" rx="73" ry="49.5"></ellipse>
            </g>
        </g>
    </g>
</svg>