<?xml version="1.0" encoding="UTF-8"?>
<svg xmlns="http://www.w3.org/2000/svg" xmlns:xlink="http://www.w3.org/1999/xlink" width="36pt" height="36pt" viewBox="0 0 36 36" version="1.1">
<g id="surface6301">
<path style=" stroke:none;fill-rule:nonzero;fill:rgb(100%,100%,100%);fill-opacity:1;" d="M 29.476562 18.617188 L 28.433594 18.617188 C 28.492188 18.28125 28.519531 17.972656 28.519531 17.632812 C 28.519531 14.34375 25.929688 11.671875 22.753906 11.671875 C 21.039062 11.671875 19.492188 12.460938 18.421875 13.726562 L 18.421875 26.578125 L 29.476562 26.578125 C 31.585938 26.578125 33.328125 24.804688 33.328125 22.613281 C 33.328125 20.417969 31.613281 18.617188 29.476562 18.617188 Z M 29.476562 18.617188 "/>
<path style=" stroke:none;fill-rule:nonzero;fill:rgb(100%,85.882354%,67.058825%);fill-opacity:1;" d="M 27.507812 21.9375 L 26.464844 21.9375 C 26.523438 21.601562 26.550781 21.289062 26.550781 20.953125 C 26.550781 17.664062 23.960938 14.992188 20.785156 14.992188 C 19.941406 14.992188 19.152344 15.1875 18.449219 15.523438 L 18.449219 26.578125 L 29.503906 26.578125 C 30.179688 26.578125 30.796875 26.410156 31.359375 26.101562 C 31.359375 26.042969 31.359375 25.988281 31.359375 25.929688 C 31.332031 23.710938 29.617188 21.9375 27.507812 21.9375 Z M 27.507812 21.9375 "/>
<path style=" stroke:none;fill-rule:nonzero;fill:rgb(26.666668%,29.411766%,32.941177%);fill-opacity:1;" d="M 29.476562 27.421875 L 18.449219 27.421875 C 17.972656 27.421875 17.605469 27.054688 17.605469 26.578125 C 17.605469 26.101562 17.972656 25.734375 18.449219 25.734375 L 29.503906 25.734375 C 31.164062 25.734375 32.511719 24.328125 32.511719 22.613281 C 32.511719 20.898438 31.164062 19.492188 29.503906 19.492188 L 28.460938 19.492188 C 28.210938 19.492188 27.984375 19.378906 27.816406 19.179688 C 27.648438 18.984375 27.589844 18.730469 27.617188 18.507812 C 27.675781 18.195312 27.703125 17.914062 27.703125 17.664062 C 27.703125 14.851562 25.507812 12.542969 22.78125 12.542969 C 21.375 12.542969 20.054688 13.191406 19.097656 14.289062 C 18.789062 14.652344 18.253906 14.679688 17.914062 14.371094 C 17.550781 14.0625 17.523438 13.527344 17.832031 13.191406 C 19.097656 11.699219 20.898438 10.855469 22.808594 10.855469 C 26.464844 10.855469 29.417969 13.894531 29.417969 17.664062 C 29.417969 17.71875 29.417969 17.773438 29.417969 17.804688 L 29.53125 17.804688 C 32.117188 17.804688 34.226562 19.96875 34.226562 22.613281 C 34.171875 25.257812 32.0625 27.421875 29.476562 27.421875 Z M 29.476562 27.421875 "/>
<path style=" stroke:none;fill-rule:nonzero;fill:rgb(26.666668%,29.411766%,32.941177%);fill-opacity:1;" d="M 15.132812 27.421875 C 14.652344 27.421875 14.289062 27.054688 14.289062 26.578125 L 14.289062 14.710938 C 14.289062 14.230469 14.652344 13.867188 15.132812 13.867188 C 15.609375 13.867188 15.976562 14.230469 15.976562 14.710938 L 15.976562 26.578125 C 15.976562 27.027344 15.609375 27.421875 15.132812 27.421875 Z M 15.132812 27.421875 "/>
<path style=" stroke:none;fill-rule:nonzero;fill:rgb(26.666668%,29.411766%,32.941177%);fill-opacity:1;" d="M 11.8125 27.421875 C 11.335938 27.421875 10.96875 27.054688 10.96875 26.578125 L 10.96875 15.382812 C 10.96875 14.90625 11.335938 14.539062 11.8125 14.539062 C 12.289062 14.539062 12.65625 14.90625 12.65625 15.382812 L 12.65625 26.578125 C 12.65625 27.027344 12.289062 27.421875 11.8125 27.421875 Z M 11.8125 27.421875 "/>
<path style=" stroke:none;fill-rule:nonzero;fill:rgb(26.666668%,29.411766%,32.941177%);fill-opacity:1;" d="M 8.523438 27.421875 C 8.042969 27.421875 7.679688 27.054688 7.679688 26.578125 L 7.679688 18.703125 C 7.679688 18.226562 8.042969 17.859375 8.523438 17.859375 C 9 17.859375 9.367188 18.226562 9.367188 18.703125 L 9.367188 26.578125 C 9.367188 27.027344 8.972656 27.421875 8.523438 27.421875 Z M 8.523438 27.421875 "/>
<path style=" stroke:none;fill-rule:nonzero;fill:rgb(26.666668%,29.411766%,32.941177%);fill-opacity:1;" d="M 5.203125 24.101562 C 4.726562 24.101562 4.359375 23.738281 4.359375 23.257812 L 4.359375 21.992188 C 4.359375 21.515625 4.726562 21.148438 5.203125 21.148438 C 5.679688 21.148438 6.046875 21.515625 6.046875 21.992188 L 6.046875 23.257812 C 6.046875 23.738281 5.679688 24.101562 5.203125 24.101562 Z M 5.203125 24.101562 "/>
<path style=" stroke:none;fill-rule:nonzero;fill:rgb(26.666668%,29.411766%,32.941177%);fill-opacity:1;" d="M 5.203125 27.421875 C 4.976562 27.421875 4.753906 27.335938 4.613281 27.167969 C 4.445312 27 4.359375 26.804688 4.359375 26.578125 C 4.359375 26.351562 4.445312 26.128906 4.613281 25.988281 C 4.640625 25.960938 4.695312 25.902344 4.753906 25.875 C 4.808594 25.847656 4.835938 25.820312 4.894531 25.789062 C 4.949219 25.761719 5.007812 25.761719 5.0625 25.734375 C 5.34375 25.679688 5.625 25.761719 5.820312 25.960938 C 5.851562 25.988281 5.90625 26.042969 5.933594 26.101562 C 5.960938 26.15625 5.992188 26.183594 6.019531 26.242188 C 6.046875 26.296875 6.046875 26.351562 6.074219 26.410156 C 6.074219 26.464844 6.101562 26.523438 6.101562 26.578125 C 6.101562 26.804688 6.019531 27.027344 5.851562 27.167969 C 5.652344 27.308594 5.429688 27.421875 5.203125 27.421875 Z M 5.203125 27.421875 "/>
</g>
</svg>
