<svg xmlns="http://www.w3.org/2000/svg" fill="none" viewBox="0 0 286 242"><rect width="282.769" height="191.415" x="1.615" y="4.901" fill="#0B0B0B" stroke="#0B0B0B" stroke-width="3" rx="14.5"/><rect width="277.52" height="189.689" x="1.615" y="1.901" fill="#fff" stroke="#0B0B0B" stroke-width="3" rx="14.5"/><path stroke="#0B0B0B" stroke-width="3" d="M.115 163.157h280.52"/><path fill="#0B0B0B" stroke="#0B0B0B" stroke-width="3" d="M108.29 192.566h69.216v41.033a6.5 6.5 0 0 1-6.5 6.5H114.79a6.5 6.5 0 0 1-6.5-6.5z"/><path fill="#fff" stroke="#0B0B0B" stroke-width="3" d="M108.291 192.566h64.168v37.211a6.5 6.5 0 0 1-6.5 6.5h-51.168a6.5 6.5 0 0 1-6.5-6.5z"/><path stroke="#0B0B0B" stroke-linecap="round" stroke-width="3" d="M185.983 35.934h36.129"/><circle cx="175.431" cy="36.208" r="5.099" fill="#FF4A60" stroke="#0B0B0B" stroke-width="3"/><rect width="58.04" height="11.086" x="170.332" y="125.017" stroke="#0B0B0B" stroke-width="3" rx="2.5"/><rect width="79.125" height="28.975" x="174.51" y="85.088" fill="#FFC224" rx="6"/><path stroke="#0B0B0B" stroke-linecap="round" stroke-width="3" d="M180.505 93.062h31.433"/><path stroke="#0B0B0B" stroke-linecap="round" stroke-linejoin="round" stroke-width="3" d="m228.307 91.431 5.478 5.478 5.478-5.478"/><rect width="78.387" height="28.303" x="170.332" y="79.628" stroke="#0B0B0B" stroke-width="3" rx="6.5"/><path stroke="#0B0B0B" stroke-linecap="round" stroke-width="3" d="M170.332 52.368h58.041M170.332 63.324h47.867"/><path stroke="#0B0B0B" stroke-width="3" d="M39.912 32.388h100.915v100.915H39.912z"/><rect width="13.591" height="13.591" x="135.052" y="24.422" fill="#1C92FF" stroke="#0B0B0B" stroke-width="3" rx="1.5"/><rect width="13.591" height="13.591" x="31.136" y="24.422" fill="#1C92FF" stroke="#0B0B0B" stroke-width="3" rx="1.5"/><rect width="13.591" height="13.591" x="31.136" y="128.337" fill="#1C92FF" stroke="#0B0B0B" stroke-width="3" rx="1.5"/><rect width="13.591" height="13.591" x="135.052" y="128.337" fill="#1C92FF" stroke="#0B0B0B" stroke-width="3" rx="1.5"/><path fill="#FFAB91" d="M74.7 62.9c-.9-.2-1.8-.3-2.8-.2v-4.2c3.2-1.5 5.9-3.4 5.9-7.1 0-3.4-2.2-5.1-4.4-5.1S69 48 69 51.4v5.2l-.6.3c-4.5 2-10.2 4.4-10.2 11.2 0 6 5.2 9.8 10.8 10.5v2.2c0 2.6-1.9 3-2.4 3-1.4.2-3.1-.6-3.5-2.4-.2-.8-1-1.3-1.8-1.1s-1.3 1-1.1 1.8c.7 3.1 3.5 4.7 6 4.7h.7c2.5-.3 5.1-2.2 5.1-6v-2.2c5.3-.4 8.8-3.8 8.8-8.6 0-3.5-2.4-6.3-6.1-7.1"/><path stroke="#18193F" stroke-linecap="round" stroke-linejoin="round" stroke-width="3" d="M72.2 73c2.5-1.1 4.3-3.2 4.3-6.5 0-7-10.9-8.3-14-2M58.5 59c-1.2 1.4-2 3.1-2 5.5 0 5.9 5.7 9.2 11 9.3"/><path stroke="#18193F" stroke-linecap="round" stroke-linejoin="round" stroke-width="3" d="M58.5 78.5c1.1 5 9 5 9-1v-30c0-5 6-5 6 0s-6.6 6.1-11.5 8.9"/><path fill="#18193F" d="M59.5 81a2.5 2.5 0 1 0 0-5 2.5 2.5 0 0 0 0 5"/><path fill="#90CAF9" d="M126.1 87H97.9c-2.1 0-3.9 1.7-3.9 3.9v23.2c0 2.1 1.7 3.9 3.9 3.9h28.2c2.1 0 3.9-1.7 3.9-3.9V90.9c0-2.2-1.7-3.9-3.9-3.9"/><path stroke="#18193F" stroke-linecap="round" stroke-linejoin="round" stroke-width="3" d="M126.5 94.9V110c0 2.2-1.8 4-4 4h-29c-2.2 0-4-1.8-4-4v-3.7M89.5 100.5v-14c0-2.2 1.8-4 4-4h29c2.2 0 4 1.8 4 4v3"/><path stroke="#18193F" stroke-linecap="round" stroke-width="3" d="M95.5 100.5v8M100.5 100.5v8M105.5 100.5v8M115.5 100.5v8M120.5 100.5v8"/><path stroke="#18193F" stroke-linecap="round" stroke-linejoin="round" stroke-width="3" d="M89.5 107.3v2.7c0 2.2 1.8 4 4 4h29c2.2 0 4-1.8 4-4v-9.5h-37"/></svg>