<svg xmlns="http://www.w3.org/2000/svg" viewBox="0 0 546 688"><g fill="none" fill-rule="nonzero"><path fill="#000" d="M1.886 182.525v444.7c12.4 6.2 26 12.4 40.9 18.3 20.4 8.1 39.6 14.1 57.1 18.8.5-151.3 1.1-302.5 1.6-453.8 132.4-63.6 264.7-127.3 397.1-191-26.1-5.8-52.2-11.5-78.2-17.3z"/><path fill="#53ABF8" d="M1.886 182.525v444.7c12.4 6.2 26 12.4 40.9 18.3 20.4 8.1 39.6 14.1 57.1 18.8.5-151.3 1.1-302.5 1.6-453.8 132.4-63.6 264.7-127.3 397.1-191-26.1-5.8-52.2-11.5-78.2-17.3z"/><path fill="#FFF" d="M230.186 119.925c10.3 39.2 20.6 78.3 31 117.5 31-16.2 61.9-32.3 92.9-48.5-11.9-36.8-23.8-73.6-35.6-110.4-13.9 4.4-29.5 10.2-46.2 18.1-16.1 7.5-30.2 15.6-42.1 23.3M110.386 334.925c57-31 115.6-62 175.9-92.9 67.3-34.5 133.6-67.2 198.7-98.2 10.3 5.1 22.6 12.5 35.1 23.4 5.9 5.1 10.9 10.3 15.2 15.2-51.5 43.5-115.1 90.4-191.7 134.4-45.6 26.2-89.5 47.7-130.3 65.5z"/><path fill="#FFF" d="M99.286 212.225c.2 150.3.5 300.5.7 450.8 32.6-20.7 65.1-41.5 97.6-62.4 100-64.4 199.4-129.8 298.2-196.1-.5-31.5-.8-63.2-.9-95.2-.3-98.7 1.3-195.1 4.7-289.2-133.4 63.9-266.9 128-400.3 192.1"/><path fill="#161616" d="M210.586 373.425c.4 9.5.8 18.9 1.3 28.4.1 1.9 3.1 1.9 3 0-.4-9.5-.8-18.9-1.3-28.4-.1-1.9-3.1-1.9-3 0M.786 184.225v443.6c0 1.9 3 1.9 3 0v-443.6c0-2-3-2-3 0M99.186 209.725c-.7 117.8-1.5 235.5-2.2 353.3l-.6 99.8c0 1.9 3 1.9 3 0 .7-117.8 1.5-235.5 2.2-353.3l.6-99.8c0-1.9-3-1.9-3 0"/><path fill="#161616" d="M3.186 629.625c29.7 15 61 26.6 93.3 34.6 1.9.5 2.7-2.4.8-2.9-32.1-8-63.1-19.4-92.6-34.3-1.7-.9-3.2 1.7-1.5 2.6M103.686 663.825c104.3-66.2 207.3-134.3 308.9-204.5 28.9-19.9 57.7-40 86.3-60.3 1.6-1.1.1-3.7-1.5-2.6-100.8 71.2-203.1 140.6-306.6 207.9-29.4 19.1-59 38.1-88.6 56.9-1.6 1-.1 3.6 1.5 2.6"/><path fill="#161616" d="M497.586 397.025c1-98.5 2-197 2.9-295.5.3-28 .6-55.9.8-83.9 0-1.9-3-1.9-3 0-1 98.5-2 197-2.9 295.5-.3 28-.6 55.9-.8 83.9 0 2 3 2 3 0M2.686 184.025c109.6-45.6 218.7-92.4 327.2-140.3 30.5-13.5 61-27 91.4-40.7 1.8-.8.2-3.4-1.5-2.6-107.4 48.1-215.2 95.2-323.5 141-31.4 13.3-62.9 26.5-94.4 39.6-1.8.8-1 3.7.8 3"/><path fill="#161616" d="M326.386 104.025c58.3-28.1 116.3-57.1 175.2-84.1 1.8-.8.2-3.4-1.5-2.6-58.9 27-116.8 55.9-175.2 84.1-1.7.8-.2 3.4 1.5 2.6M102.786 211.425c43.8-22.8 90.1-40.6 133.6-64.1 1.7-.9.2-3.5-1.5-2.6-43.5 23.5-89.7 41.3-133.6 64.1-1.8.9-.2 3.4 1.5 2.6"/><path fill="#161616" d="M420.086 3.125c26.6 5.5 53.1 10.9 79.7 16.4 1.9.4 2.7-2.5.8-2.9-26.6-5.5-53.1-10.9-79.7-16.4-1.9-.4-2.7 2.5-.8 2.9M108.086 335.625v22.1c0 1.9 3 1.9 3 0v-22.1c0-1.9-3-1.9-3 0"/><path fill="#161616" d="M107.986 359.925c33.3 17.3 67.8 32.2 103.2 44.8 1.8.6 2.6-2.2.8-2.9-35.1-12.5-69.4-27.4-102.5-44.5-1.7-.9-3.2 1.7-1.5 2.6M110.886 336.725c32.4 14.5 65.7 26.9 99.6 37.3 1.9.6 2.6-2.3.8-2.9-33.7-10.3-66.7-22.6-98.9-37-1.8-.7-3.3 1.8-1.5 2.6"/><path fill="#161616" d="M213.186 405.125c91.4-38.6 179.2-85.3 262.2-139.6 23.5-15.4 46.6-31.4 69.3-47.9 1.5-1.1 0-3.7-1.5-2.6-79.7 58.1-164.6 109.1-253.3 152.2-25.5 12.4-51.4 24.1-77.5 35.1-1.7.6-.9 3.5.8 2.8M213.286 373.525c89.9-40.2 176.2-88.3 257.6-143.7 21.8-14.8 43.2-30.2 64.3-46 1.5-1.1 0-3.8-1.5-2.6-79.4 59.8-164.2 112.4-253 157-22.7 11.4-45.7 22.3-68.9 32.7-1.7.8-.2 3.4 1.5 2.6"/><path fill="#161616" d="M534.186 183.425c4.1 10.9 5.9 22.3 5.5 33.9-.1 1.9 2.9 1.9 3 0 .4-11.9-1.4-23.5-5.6-34.7-.7-1.8-3.6-1-2.9.8M112.086 335.725c19.9-11.5 40.2-22.3 60.9-32.3 1.7-.8.2-3.4-1.5-2.6-20.7 10-41 20.8-60.9 32.3-1.7 1-.2 3.5 1.5 2.6M208.986 286.825q106.35-56.7 214.5-109.8c20.5-10.1 41.1-20 61.7-29.9 1.7-.8.2-3.4-1.5-2.6-72.4 34.7-144.3 70.6-215.5 107.7-20.3 10.6-40.5 21.2-60.7 32-1.7.9-.2 3.5 1.5 2.6"/><path fill="#161616" d="M484.486 145.025c18.1 10.3 34.6 23.1 48.9 38.3 1.3 1.4 3.5-.7 2.1-2.1-14.5-15.3-31.2-28.3-49.6-38.7-1.6-1.1-3.1 1.5-1.4 2.5M172.486 303.125q24.15 13.35 48 27.3c1.7 1 3.2-1.6 1.5-2.6q-23.85-13.95-48-27.3c-1.7-.9-3.2 1.7-1.5 2.6"/><path fill="#161616" d="M174.686 300.825c.2-4.2 4.1-6.6 7.7-7.4 3.4-.7 5.2.3 8 1.9 4.5 2.6 9.1 5.2 13.6 7.8 9.1 5.2 18.1 10.4 27.2 15.7 1.7 1 3.2-1.6 1.5-2.6-13.6-7.8-27.2-15.7-40.8-23.5-5.2-3-7.5-3.7-13.2-1.2-4.1 1.8-6.8 4.7-7.1 9.3 0 2 3 1.9 3.1 0"/><path fill="#161616" d="M222.586 330.225c2.7-2.6 6.9-2.9 9.3-5.9 1.8-2.3 2.4-5.5.2-7.7-1.4-1.4-3.5.7-2.1 2.1 2.2 2.3-1.6 5-3.4 5.8-2.2 1-4.3 1.8-6.1 3.6-1.4 1.3.8 3.4 2.1 2.1"/><path fill="#161616" d="M178.086 297.325c0-.1-.1-.3-.1-.4-.8.2-1.7.4-2.5.7.2.9.4 1.8.5 2.7.7-.3 1.5-.6 2.2-.9-.1-.6-.2-1.3-.3-1.9-.7-.2-1.4-.4-2.1-.5.3.4.7.9 1 1.3.7 3.5 2.4 4.9 5.1 4.1 1.5-.7 2.3-.3 2.4 1.1.6 1.3.9 2.6.9 4.1.8-.4 1.5-.9 2.3-1.3-1-.5-4.2-2.1-4.4-3.3-.4-1.7 2.5.7 3.1 1.3.5.4.9.9 1.3 1.5 1.1 1.1 1.1 1.3-.1.5-1.9-.3-3.8-2.4-5.2-3.6-.4.9-.7 1.7-1.1 2.6 5.2.1 9.3 2.4 12 6.7.6-.7 1.1-1.5 1.7-2.2-3.7-.9-6.5-2.7-9-5.5-.5.8-1 1.7-1.5 2.5 3.9 1.2 7.3 3 10.5 5.6l1.8-2.4c-4.1-2.2-8.2-4.7-12.1-7.3l-1.2 2.7c4.7 1.3 8.7 3.4 12.4 6.5l1.8-2.4c-3.8-2.4-7.6-5-11.2-7.6-1.2-.9-8.4-5.8-2-3.7 2.1.7 4.1 3.6 5.3 5.2.6-.7 1.1-1.5 1.7-2.2-2.4-.4-4.6-1.1-6.7-2.5-3-1.7-2.8-2.2.5-1.5-1.9-.6-3.6-1.6-5.1-2.9l-.3 2.4c1.8-1.4 4.7-.9 5.7 1.3.4-.8.9-1.5 1.3-2.3-1.3-.8-2.7-1.7-4-2.5-.4.8-.9 1.5-1.3 2.3 6 .5 10.7 4.6 12.1 10.4.7-.6 1.5-1.1 2.2-1.7-4.3-2-7.5-4.9-10.1-8.9-.6.7-1.1 1.5-1.7 2.2 6 1.2 10.8 4.9 13.2 10.6.7-.6 1.5-1.1 2.2-1.7q-6.75-4.8-12.6-10.8c-.5.8-1 1.7-1.5 2.5 6.4 1.1 11.6 4.6 14.9 10.3.6-.7 1.1-1.5 1.7-2.2-5.6-2-10.1-5.7-13.2-10.8-.4.8-.9 1.5-1.3 2.3 5.6.3 11.4 1.7 14.3 7 .6-.7 1.1-1.5 1.7-2.2-4.6-1.7-8.6-4-12.5-6.9-.5.9-1 1.7-1.5 2.6 5.8 2.5 10.5 6.2 14.4 11.2l1.8-2.4c-4.9-2.9-9.6-6.1-14-9.6-1.2-.9-3.5.3-2.4 1.8 4 5.4 8.4 10.4 13.2 15.1l1.8-2.4c-5-2.5-9.7-5.4-14.2-8.6-1.6-1.1-3 1.5-1.5 2.6 5.5 4.1 11.4 7.5 17.6 10.3 1.7.8 3.2-1.6 1.5-2.6-3.5-1.9-7-3.9-10.5-5.8-1.4-.8-3.2 1.2-1.8 2.4 4.8 4 10.1 7.1 16 9.3 1.6.6 2.7-2 1.2-2.7-4.1-2.1-8-4.4-11.8-7.2-1.4-1-2.9 1.2-1.8 2.4 4.2 4.4 8.9 7.9 14.3 10.6 1.7.9 3.2-1.6 1.5-2.6-6-3.5-12.1-6.7-18.4-9.6-1.4-.7-3.2 1.2-1.8 2.4 5.3 4.6 11.1 8.3 17.5 11.2 1.7.8 3.1-1.5 1.5-2.6-6.2-4.1-12.4-8.3-18.6-12.4-.5.9-1 1.7-1.5 2.6 7.4 3.8 14.5 8 21.3 12.7 1.4 1 3.1-1.2 1.8-2.4-5.5-5.1-11.3-9.7-17.5-13.9l-1.2 2.7c6.9 2.3 13 5.9 18.5 10.7l2.1-2.1c-5.2-4.1-10.3-8.1-15.5-12.2l-1.8 2.4c6.7 3.3 12.9 7.3 18.7 12l1.8-2.4c-7.2-3.9-13.7-8.7-19.6-14.3l-1.8 2.4c7.1 3 13.6 7 19.4 12l1.8-2.4c-7.1-4.1-13.7-8.8-19.9-14.2-.5.8-1 1.7-1.5 2.5 7 2.7 13.3 6.7 19.6 10.7 1.6 1 3.1-1.5 1.5-2.6-6.1-4-12.2-8.1-18.3-12.1l-1.2 2.7c7.9 2.7 14.5 7.3 19.8 13.7.4-.9.7-1.7 1.1-2.6-1.4.2-2.8.3-4.2.5-1 .1-2 1.2-1.3 2.3 1.7 2.3 3.2 4.7 4.6 7.2.6-.7 1.1-1.5 1.7-2.2-.8-.8-1.6-1.5-2.4-2.3-.9.5-1.7 1-2.6 1.5 1.2 1.5 1.8 3.3 1.9 5.2.6-.5 1.3-1 1.9-1.4-2.2-.6-3.7-1.9-4.6-4-.6.7-1.1 1.5-1.7 2.2 1 .8 2 1.7 3 2.5.5-.6 1-1.3 1.4-1.9-.4.6-.7 1.2-1.1 1.8.8-.2 1.7-.4 2.5-.7-.1-.3-.2-.7-.3-1 .8-.2 1.7-.4 2.5-.7-1.1-.7-1.8-1.7-1.9-3-.8-2.8-.4-2 1.3 2.4.7-.3 1.5-.6 2.2-.9-1-2.8-1.2-2.5-.4.9l1.5-1.5c-1-.5-1.4-1.2-1.4-2.1-.2-1.8-.3-1.2-.2 1.8l2.4-.3c-.7-1.7-.8-1.3-.3 1.3.8-.4 1.5-.9 2.3-1.3-3.4-1.9-5.9-4.3-7.9-7.7-.3.7-.6 1.5-.9 2.2 3.5-.8 8.5 1.8 5.7 5.6-1.4 1.9-4.3 3.7-6.1 5.2-1.2 1 .1 2.8 1.5 2.5 6.1-1.4 11.2-6 10.2-12.6-.3-1.9-3.2-1.1-2.9.8.7 4.9-4 7.9-8.1 8.9.5.8 1 1.7 1.5 2.5 3.3-2.9 10.1-6.2 7.7-11.4-1.8-3.9-6.2-5.4-10.2-4.4-.9.2-1.4 1.4-.9 2.2 2.2 3.8 5.1 6.6 9 8.7 1 .5 2.3-.1 2.3-1.3 0-2.6-1.1-8.5-5.1-6.8-3.7 1.5-1.5 5.7.3 7.6.7.7 1.9.5 2.4-.3 1.2-2.1 2.4-4.8.5-6.9-1.1-1.2-3.2-1.6-4.6-.7-3.4 2.4-1 9.4 3.1 9.4.8 0 1.5-.7 1.5-1.5-.1-2.7-1.8-10.7-6.2-8.3-4.1 2.3-.4 8.2 2.1 10 .8.5 2 0 2.2-.9.6-3.2-.1-10.7-5.5-8.3-4.3 2-1.3 8.1 1 10.2.8.7 2.3.5 2.5-.7.6-3 .2-9-4.6-7.7-4.7 1.3-2 7.7-.1 10 .8 1 2.2.3 2.5-.7 1-3-2.8-8.7-6.2-6-3.9 3.2 1.7 6.1 4.4 6.4 1 .1 1.7-1 1.4-1.9-.8-2.6-2.4-4.1-5.1-4.6-1.3-.2-2.2 1-1.7 2.2 1.3 2.9 3.4 4.6 6.4 5.4.9.2 2-.4 1.9-1.4-.3-2.6-.9-4.5-2.3-6.8-1.1-1.6-3.5-.2-2.6 1.5 1 1.9 2.2 2.9 4.2 3.7 1.3.5 2.3-1.2 1.7-2.2-1.4-2.5-2.9-4.9-4.6-7.2-.4.8-.9 1.5-1.3 2.3 1.4-.2 2.8-.3 4.2-.5 1.3-.1 1.9-1.5 1.1-2.6-5.6-6.8-12.8-11.7-21.1-14.5-1.7-.6-2.5 1.8-1.2 2.7 6.1 4 12.2 8.1 18.3 12.1.5-.9 1-1.7 1.5-2.6-6.5-4.2-13.1-8.2-20.4-11-1.4-.5-2.6 1.6-1.5 2.5 6.4 5.5 13.2 10.4 20.5 14.7 1.4.8 3.1-1.2 1.8-2.4-6-5.2-12.7-9.4-20-12.5-1.4-.6-3.2 1.1-1.8 2.4 6.1 5.8 12.8 10.7 20.2 14.8 1.4.8 3.2-1.2 1.8-2.4-6-4.9-12.4-9-19.3-12.5-1.4-.7-3.2 1.2-1.8 2.4 5.2 4.1 10.3 8.1 15.5 12.2 1.5 1.2 3.6-.8 2.1-2.1-5.8-5.2-12.4-9-19.8-11.5-1.7-.6-2.5 1.8-1.2 2.7 6 4 11.6 8.5 16.9 13.4l1.8-2.4c-6.8-4.7-13.9-8.9-21.3-12.7-1.7-.9-3.1 1.5-1.5 2.6 6.2 4.1 12.4 8.3 18.6 12.4.5-.9 1-1.7 1.5-2.6-6.2-2.8-11.8-6.4-16.9-10.8l-1.8 2.4c6.3 2.9 12.4 6.1 18.4 9.6.5-.9 1-1.7 1.5-2.6-5.2-2.6-9.7-5.9-13.7-10.1l-1.8 2.4c3.7 2.8 7.6 5.1 11.8 7.2l1.2-2.7c-5.4-2.1-10.2-4.9-14.6-8.6l-1.8 2.4c3.5 1.9 7 3.9 10.5 5.8.5-.9 1-1.7 1.5-2.6-6.3-2.8-12.1-6.2-17.6-10.3-.5.9-1 1.7-1.5 2.6 4.5 3.2 9.3 6.1 14.2 8.6 1.5.8 3.1-1.1 1.8-2.4-4.6-4.5-8.9-9.3-12.7-14.5l-2.4 1.8c4.7 3.7 9.5 7 14.7 10.1 1.6.9 2.8-1.1 1.8-2.4-4-5.2-9-9-15-11.6-1.8-.8-3.1 1.4-1.5 2.6 4.1 3.1 8.4 5.4 13.2 7.2 1.3.5 2.3-1.1 1.7-2.2-3.4-6.2-10.2-8.1-16.9-8.5-1.1-.1-1.9 1.3-1.3 2.3 3.6 5.8 8.6 9.8 15 12.2 1.3.5 2.3-1.1 1.7-2.2-3.6-6.3-9.5-10.4-16.7-11.7-1.4-.3-2.6 1.4-1.5 2.5 4 4.2 8.4 7.9 13.2 11.3 1 .7 2.7-.5 2.2-1.7-2.7-6.7-8.1-11.4-15.3-12.7-1.2-.2-2.4 1-1.7 2.2 2.8 4.4 6.4 7.7 11.1 9.9 1.2.6 2.5-.4 2.2-1.7-1.8-7.2-7.7-12-15-12.6-1.2-.1-1.8 1.3-1.3 2.3 1.5 2.7 3.6 3.9 6.6 4 1.2 0 1.8-1.3 1.3-2.3-1.8-3.7-6.5-4.9-9.8-2.3-.7.5-1.1 1.7-.3 2.4 2 1.7 7.6 6.1 10 2.9 2.4-3.1-2.6-6.2-5-6.7-3-.6-5.5.7-4.6 3.9 1.3 4.4 8.3 6.8 12.2 7.5 1.1.2 2.6-1.1 1.7-2.2-2.1-2.7-4.4-5.7-7.8-6.9-2-.7-5.5-.9-6.4 1.6-.9 2.4 1.6 3.9 3.2 5.1 4.8 3.7 9.7 7.1 14.8 10.4 1.4.9 3.1-1.3 1.8-2.4-4.1-3.4-8.6-5.8-13.8-7.2-1.7-.5-2.5 1.8-1.2 2.7 3.9 2.6 7.9 5 12.1 7.3 1.4.8 3.2-1.2 1.8-2.4-3.6-2.9-7.5-5-11.9-6.3-1.5-.5-2.4 1.4-1.5 2.5 2.8 3.2 6.1 5.3 10.3 6.3 1.2.3 2.4-1.1 1.7-2.2-3.3-5.2-8.4-8.1-14.6-8.2-1.3 0-2 1.7-1.1 2.6 1.9 1.8 7.8 7.2 10.7 4.6 2.9-2.7-2.5-7.3-4.2-8.7-1.9-1.4-6-3.3-7.3.1-1.3 3.5 4.4 7 6.7 8.3.9.5 2.4-.1 2.3-1.3-.5-3.8-1.3-8.2-5.2-9.9-2.6-1.1-5.6-.2-6.7 2.5-2.4 5.7 7.1 8.4 6.7 1.7-.2-2.7-1.7-5.2-4.5-5.6-2.4-.3-4.8 1.2-4.6 3.8.2 2.2 2.6 4.2 4.8 3.1 3.3-1.8 1.2-5.7-.3-7.7-.5-.6-1.3-1-2.1-.5-2.8 1.7-2.8 5.7.3 7.1.9.4 1.9.1 2.2-.9.6-2.3.2-3.8-1.3-5.6-.7-.9-2.2-.3-2.5.7-.4 1.3-.4 1.6.4 2.7 1.8 1.5 4.5 0 3.3-1.5M260.986 258.125q24.15 13.35 48 27.3c1.7 1 3.2-1.6 1.5-2.6q-23.85-13.95-48-27.3c-1.7-.9-3.2 1.6-1.5 2.6"/><path fill="#161616" d="M263.186 255.825c.2-4.2 4.1-6.6 7.7-7.4 3.4-.7 5.2.3 8 1.9 4.5 2.6 9.1 5.2 13.6 7.8 9.1 5.2 18.1 10.4 27.2 15.7 1.7 1 3.2-1.6 1.5-2.6-13.6-7.8-27.2-15.7-40.8-23.5-5.2-3-7.5-3.7-13.2-1.2-4.1 1.8-6.8 4.7-7.1 9.3 0 1.9 3 1.9 3.1 0"/><path fill="#161616" d="M311.086 285.125c2.7-2.6 6.9-2.9 9.3-5.9 1.8-2.3 2.4-5.5.2-7.7-1.4-1.4-3.5.7-2.1 2.1 2.2 2.3-1.6 5-3.4 5.8-2.2 1-4.3 1.8-6.1 3.6-1.4 1.4.8 3.5 2.1 2.1"/><path fill="#161616" d="M266.586 252.225c0-.1-.1-.3-.1-.4-.8.2-1.7.4-2.5.7.2.9.4 1.8.5 2.7.7-.3 1.5-.6 2.2-.9-.1-.6-.2-1.3-.3-1.9-.6-.1-1.2-.2-1.8-.2.3 1 .6 2 1 2.9 1.2 2.3 2.8 3.1 4.9 2.3 1.5-.8 2.3-.5 2.4 1 .6 1.3.9 2.6.9 4.1.8-.4 1.5-.9 2.3-1.3-1.4-.8-3.6-1.9-4.4-3.3-1.5-2.5 1.8.1 2.7.9.6.5 1.1 1 1.5 1.7 1.2 1.2 1.3 1.4 0 .6-1.9-.2-3.9-2.5-5.2-3.6-.4.9-.7 1.7-1.1 2.6 5.2.1 9.3 2.4 12 6.7.6-.7 1.1-1.5 1.7-2.2-3.7-.9-6.5-2.7-9-5.5-.5.8-1 1.7-1.5 2.5 3.9 1.2 7.3 3 10.5 5.6l1.8-2.4c-4.1-2.2-8.2-4.7-12.1-7.3l-1.2 2.7c4.7 1.3 8.7 3.4 12.4 6.5l1.8-2.4c-3.8-2.4-7.6-5-11.2-7.6-1.2-.9-8.4-5.8-2-3.7 2.1.7 4.1 3.6 5.3 5.2.6-.7 1.1-1.5 1.7-2.2-2.4-.4-4.6-1.1-6.7-2.5-3-1.7-2.8-2.2.5-1.5-1.9-.6-3.6-1.6-5.1-2.9l-.3 2.4c1.8-1.4 4.7-.9 5.7 1.3.4-.8.9-1.5 1.3-2.3-1.3-.8-2.7-1.7-4-2.5-.4.8-.9 1.5-1.3 2.3 6 .5 10.7 4.6 12.1 10.4.7-.6 1.5-1.1 2.2-1.7-4.3-2-7.5-4.9-10.1-8.9-.6.7-1.1 1.5-1.7 2.2 6 1.2 10.8 4.9 13.2 10.6.7-.6 1.5-1.1 2.2-1.7q-6.75-4.8-12.6-10.8c-.5.8-1 1.7-1.5 2.5 6.4 1.1 11.6 4.6 14.9 10.3.6-.7 1.1-1.5 1.7-2.2-5.6-2-10.1-5.7-13.2-10.8-.4.8-.9 1.5-1.3 2.3 5.6.3 11.4 1.7 14.3 7 .6-.7 1.1-1.5 1.7-2.2-4.6-1.7-8.6-4-12.5-6.9-.5.9-1 1.7-1.5 2.6 5.8 2.5 10.5 6.2 14.4 11.2l1.8-2.4c-4.9-2.9-9.6-6.1-14-9.6-1.2-.9-3.5.3-2.4 1.8 4 5.4 8.4 10.4 13.2 15.1l1.8-2.4c-5-2.5-9.7-5.4-14.2-8.6-1.6-1.1-3 1.5-1.5 2.6 5.5 4.1 11.4 7.5 17.6 10.3 1.7.8 3.2-1.6 1.5-2.6-3.5-1.9-7-3.9-10.5-5.8-1.4-.8-3.2 1.2-1.8 2.4 4.8 4 10.1 7.1 16 9.3 1.6.6 2.7-2 1.2-2.7-4.1-2.1-8-4.4-11.8-7.2-1.4-1-2.9 1.2-1.8 2.4 4.2 4.4 8.9 7.9 14.3 10.6 1.7.9 3.2-1.6 1.5-2.6-6-3.5-12.1-6.7-18.4-9.6-1.4-.7-3.2 1.2-1.8 2.4 5.3 4.6 11.1 8.3 17.5 11.2 1.7.8 3.1-1.5 1.5-2.6-6.2-4.1-12.4-8.3-18.6-12.4-.5.9-1 1.7-1.5 2.6 7.4 3.8 14.5 8 21.3 12.7 1.4 1 3.1-1.2 1.8-2.4-5.5-5.1-11.3-9.7-17.5-13.9l-1.2 2.7c6.9 2.3 13 5.9 18.5 10.7l2.1-2.1c-5.2-4.1-10.3-8.1-15.5-12.2l-1.8 2.4c6.7 3.3 12.9 7.3 18.7 12l1.8-2.4c-7.2-3.9-13.7-8.7-19.6-14.3l-1.8 2.4c7.1 3 13.6 7 19.4 12l1.8-2.4c-7.1-4.1-13.7-8.8-19.9-14.2-.5.8-1 1.7-1.5 2.5 7 2.7 13.3 6.7 19.6 10.7 1.6 1 3.1-1.5 1.5-2.6-6.1-4-12.2-8.1-18.3-12.1l-1.2 2.7c7.9 2.7 14.5 7.3 19.8 13.7.4-.9.7-1.7 1.1-2.6-1.4.2-2.8.3-4.2.5-1 .1-2 1.2-1.3 2.3 1.7 2.3 3.2 4.7 4.6 7.2.6-.7 1.1-1.5 1.7-2.2-.8-.8-1.6-1.5-2.4-2.3-.9.5-1.7 1-2.6 1.5 1.2 1.5 1.8 3.3 1.9 5.2.6-.5 1.3-1 1.9-1.4-2.2-.6-3.7-1.9-4.6-4-.6.7-1.1 1.5-1.7 2.2 1 .8 2 1.7 3 2.5.5-.6 1-1.3 1.4-1.9-.4.6-.7 1.2-1.1 1.8.8-.2 1.7-.4 2.5-.7-4.1-5.2.5-5-.3-1 .8-.2 1.7-.4 2.5-.7-1.5-1.1-2.2-2.6-2.3-4.5 1.8 1 2.3 2.3 1.7 3.9.7-.3 1.5-.6 2.2-.9-1-2.8-1.2-2.5-.4.9l1.5-1.5c-1.2-.7-1.7-1.7-1.5-3.1.8 1 .8 1.9-.1 2.7l2.4-.3c-.7-1.7-.8-1.3-.3 1.3.8-.4 1.5-.9 2.3-1.3-3.4-1.9-5.9-4.3-7.9-7.7-.3.7-.6 1.5-.9 2.2 3.5-.8 8.5 1.8 5.7 5.6-1.4 1.9-4.3 3.7-6.1 5.2-1.2 1 .1 2.8 1.5 2.5 6.1-1.4 11.2-6 10.2-12.6-.3-1.9-3.2-1.1-2.9.8.7 4.9-4 7.9-8.1 8.9.5.8 1 1.7 1.5 2.5 3.3-2.9 10.1-6.2 7.7-11.4-1.8-3.9-6.2-5.4-10.2-4.4-.9.2-1.4 1.4-.9 2.2 2.2 3.8 5.1 6.6 9 8.7 1 .5 2.3-.1 2.3-1.3 0-2.7-.8-7.6-4.5-7.1-4.5.6-2.1 5.9-.2 7.9.7.7 1.9.5 2.4-.3 1.3-2.1 2.2-4.4.7-6.7-1.2-1.9-3.4-2.3-5.1-.7-3 2.7-.6 9.2 3.4 9.2.8 0 1.5-.7 1.5-1.5-.1-2.7-1.8-10.7-6.2-8.3-4.1 2.3-.4 8.2 2.1 10 .8.6 2 0 2.2-.9.7-3.2.2-10.3-5-8.5-4.8 1.7-2 8.1.6 10.4.8.7 2.3.5 2.5-.7.6-3.1-.3-10.1-5.2-7.5-3.8 2-1.5 7.3.5 9.8.8 1 2.2.3 2.5-.7 1.5-4.3-3.7-8.4-7.1-5.1-.4.4-.5 1-.4 1.5.9 2.9 2.7 3.8 5.7 4 1 .1 1.7-1 1.4-1.9-.8-2.6-2.4-4.1-5.1-4.6-1.3-.2-2.2 1-1.7 2.2 1.3 2.9 3.4 4.6 6.4 5.4.9.2 2-.4 1.9-1.4-.3-2.6-.9-4.5-2.3-6.8-1.1-1.6-3.5-.2-2.6 1.5 1 1.9 2.2 2.9 4.2 3.7 1.3.5 2.3-1.2 1.7-2.2-1.4-2.5-2.9-4.9-4.6-7.2-.4.8-.9 1.5-1.3 2.3 1.4-.2 2.8-.3 4.2-.5 1.3-.1 1.9-1.5 1.1-2.6-5.6-6.8-12.8-11.7-21.1-14.5-1.7-.6-2.5 1.8-1.2 2.7 6.1 4 12.2 8.1 18.3 12.1.5-.9 1-1.7 1.5-2.6-6.5-4.2-13.1-8.2-20.4-11-1.4-.5-2.6 1.6-1.5 2.5 6.4 5.5 13.2 10.4 20.5 14.7 1.4.8 3.1-1.2 1.8-2.4-6-5.2-12.7-9.4-20-12.5-1.4-.6-3.2 1.1-1.8 2.4 6.1 5.8 12.8 10.7 20.2 14.8 1.4.8 3.2-1.2 1.8-2.4-6-4.9-12.4-9-19.3-12.5-1.4-.7-3.2 1.2-1.8 2.4 5.2 4.1 10.3 8.1 15.5 12.2 1.5 1.2 3.6-.8 2.1-2.1-5.8-5.2-12.4-9-19.8-11.5-1.7-.6-2.5 1.8-1.2 2.7 6 4 11.6 8.5 16.9 13.4l1.8-2.4c-6.8-4.7-13.9-8.9-21.3-12.7-1.7-.9-3.1 1.5-1.5 2.6 6.2 4.1 12.4 8.3 18.6 12.4.5-.9 1-1.7 1.5-2.6-6.2-2.8-11.8-6.4-16.9-10.8l-1.8 2.4c6.3 2.9 12.4 6.1 18.4 9.6.5-.9 1-1.7 1.5-2.6-5.2-2.6-9.7-5.9-13.7-10.1l-1.8 2.4c3.7 2.8 7.6 5.1 11.8 7.2l1.2-2.7c-5.4-2.1-10.2-4.9-14.6-8.6l-1.8 2.4c3.5 1.9 7 3.9 10.5 5.8.5-.9 1-1.7 1.5-2.6-6.3-2.8-12.1-6.2-17.6-10.3-.5.9-1 1.7-1.5 2.6 4.5 3.2 9.3 6.1 14.2 8.6 1.5.8 3.1-1.1 1.8-2.4-4.6-4.5-8.9-9.3-12.7-14.5l-2.4 1.8c4.7 3.7 9.5 7 14.7 10.1 1.6.9 2.8-1.1 1.8-2.4-4-5.2-9-9-15-11.6-1.8-.8-3.1 1.4-1.5 2.6 4.1 3.1 8.4 5.4 13.2 7.2 1.3.5 2.3-1.1 1.7-2.2-3.4-6.2-10.2-8.1-16.9-8.5-1.1-.1-1.9 1.3-1.3 2.3 3.6 5.8 8.6 9.8 15 12.2 1.3.5 2.3-1.1 1.7-2.2-3.6-6.3-9.5-10.4-16.7-11.7-1.4-.3-2.6 1.4-1.5 2.5 4 4.2 8.4 7.9 13.2 11.3 1 .7 2.7-.5 2.2-1.7-2.7-6.7-8.1-11.4-15.3-12.7-1.2-.2-2.4 1-1.7 2.2 2.8 4.4 6.4 7.7 11.1 9.9 1.2.6 2.5-.4 2.2-1.7-1.8-7.2-7.7-12-15-12.6-1.2-.1-1.8 1.3-1.3 2.3 1.5 2.7 3.6 3.9 6.6 4 1.2 0 1.8-1.3 1.3-2.3-1.8-3.7-6.5-4.9-9.8-2.3-.7.5-1.1 1.7-.3 2.4 2 1.7 7.6 6.1 10 2.9 2.4-3.1-2.6-6.2-5-6.7-3-.6-5.5.7-4.6 3.9 1.3 4.4 8.3 6.8 12.2 7.5 1.1.2 2.6-1.1 1.7-2.2-2.1-2.7-4.4-5.7-7.8-6.9-2-.7-5.5-.9-6.4 1.6-.9 2.4 1.6 3.9 3.2 5.1 4.8 3.7 9.7 7.1 14.8 10.4 1.4.9 3.1-1.3 1.8-2.4-4.1-3.4-8.6-5.8-13.8-7.2-1.7-.5-2.5 1.8-1.2 2.7 3.9 2.6 7.9 5 12.1 7.3 1.4.8 3.2-1.2 1.8-2.4-3.6-2.9-7.5-5-11.9-6.3-1.5-.5-2.4 1.4-1.5 2.5 2.8 3.2 6.1 5.3 10.3 6.3 1.2.3 2.4-1.1 1.7-2.2-3.3-5.2-8.4-8.1-14.6-8.2-1.3 0-2 1.7-1.1 2.6 1.8 1.7 8.3 7.5 10.9 4.3 3.1-3.8-5.7-9.3-8-10.6-.4-.2-1.1-.3-1.5 0-5.3 3.8.6 8.4 4.6 10.5.9.5 2.4-.1 2.3-1.3-.5-4.1-1.6-9.3-6.4-10.2-3-.6-5.8 1.1-5.9 4.3-.3 5.9 9.5 5.4 6.7-2-2.2-5.6-11.2-3.2-8.1 2 1 1.7 3 2.3 4.6 1.2 3-2 .7-5.7-.9-7.8-.4-.5-1.3-.5-1.8-.2-2.8 1.7-2.8 5.7.3 7.1.9.4 1.9.1 2.2-.9.6-2.3.2-3.8-1.3-5.6-.7-.9-2.2-.3-2.5.7-.4 1.3-.4 1.6.4 2.7 1.4 2 4.1.5 2.9-1.1M354.086 210.325q24.15 13.35 48 27.3c1.7 1 3.2-1.6 1.5-2.6q-23.85-13.95-48-27.3c-1.7-.9-3.2 1.7-1.5 2.6"/><path fill="#161616" d="M356.286 208.025c.2-4.2 4.1-6.6 7.7-7.4 3.4-.7 5.2.3 8 1.9 4.5 2.6 9.1 5.2 13.6 7.8 9.1 5.2 18.1 10.4 27.2 15.7 1.7 1 3.2-1.6 1.5-2.6-13.6-7.8-27.2-15.7-40.8-23.5-5.2-3-7.5-3.7-13.2-1.2-4.1 1.8-6.8 4.7-7.1 9.3 0 1.9 3 1.9 3.1 0"/><path fill="#161616" d="M404.286 237.425c2.7-2.6 6.9-2.9 9.3-5.9 1.8-2.3 2.4-5.5.2-7.7-1.4-1.4-3.5.7-2.1 2.1 2.2 2.3-1.6 5-3.4 5.8-2.2 1-4.3 1.8-6.1 3.6-1.4 1.3.7 3.4 2.1 2.1"/><path fill="#161616" d="M359.686 204.525c0-.1-.1-.3-.1-.4-.8.2-1.7.4-2.5.7.2.9.4 1.8.5 2.7.7-.3 1.5-.6 2.2-.9.7 3.5 2.4 4.1 5 1.9.2 2.2 1.2 3.6 3.1 4.2-.5-.2-4.5-3.1-2.4-3.3.3 0 4.7 3.9 4.4 4.4-.4.7-4.9-4.5-5.7-2.6-.5.4-1 .7-1.4 1.1 2.5.1 4.7.5 6.9 1.7.2.1 4.8 4 5.1 3.5.6-.2 1.1-.5 1.7-.7-3.7-.9-6.5-2.7-9-5.5.1.6.2 1.2.2 1.8-.6.2-1.1.5-1.7.7 3.9 1.2 7.3 3 10.5 5.6l1.8-2.4c-4.1-2.2-8.2-4.7-12.1-7.3l-1.2 2.7c4.7 1.3 8.7 3.4 12.4 6.5l1.8-2.4c-3.8-2.4-7.6-5-11.2-7.6-1.2-.9-8.4-5.8-2-3.7.4.1 4.9 4.4 5.3 3.7.6-.2 1.1-.5 1.7-.7-.8-.1-9.4-2.6-8.8-4.2.3-.7 4.8.9-.1-1-2.4-.1-2.5-.1-.1 0 1.6-.4 2.6.2 3.2 1.8.4-.8.9-1.5 1.3-2.3-1 0-2 .1-3 .1.4.1.9.3 1.3.4 1.4.8 2.8 1.3 4 2.3s4.7 4.6 4 6.3c-1.1 2.6-6.1 0-7.1-1.2-1.6-1.9-1.7-4.7-.3-6.8-.6.2-1.1.5-1.7.7 6 1.2 10.8 4.9 13.2 10.6.2-.6.5-1.1.7-1.7-6.1 4.7-14.4-2.1-10.8-9-.6.2-1.1.5-1.7.7 6.4 1.1 11.6 4.6 14.9 10.3.1-.6.2-1.2.2-1.8-4.4 5.2-13.9 2.4-13.6-4.9 0-.7.6-3.8 1.5-4.3.2-.1 3 .6 3.9.8 3.9.9 7.4 2.7 9.4 6.4.1-.6.2-1.2.2-1.8.9-1-4.7-3.1-5.6-3.6-1.9-1.1-3.7-2.3-5.4-3.7-.5.9-1 1.7-1.5 2.6 5.8 2.5 10.5 6.2 14.4 11.2v-2.1c.6-.1 1.2-.2 1.8-.2-4.9-2.9-9.6-6.1-14-9.6-.6-.5-1.5-.6-2.1 0-.4.4-.6 1.3-.2 1.8 4 5.4 8.4 10.4 13.2 15.1-.1-.6-.2-1.2-.2-1.8.7-.2 1.4-.4 2.1-.5-5-2.5-9.7-5.4-14.2-8.6-1.6-1.1-3 1.5-1.5 2.6 5.5 4.1 11.4 7.5 17.6 10.3 1.7.8 3.2-1.6 1.5-2.6-3.5-1.9-7-3.9-10.5-5.8-1.4-.8-3.2 1.2-1.8 2.4 4.8 4 10.1 7.1 16 9.3 1.6.6 2.7-2 1.2-2.7-4.1-2.1-8-4.4-11.8-7.2-1.4-1-2.9 1.2-1.8 2.4 4.2 4.4 8.9 7.9 14.3 10.6 1.7.9 3.2-1.6 1.5-2.6-6-3.5-12.1-6.7-18.4-9.6-.8-.4-1.6-.2-2.1.5-.3.5-.2 1.4.2 1.8 5.3 4.6 11.1 8.3 17.5 11.2 1.7.8 3.1-1.5 1.5-2.6-6.2-4.1-12.4-8.3-18.6-12.4-.5.9-1 1.7-1.5 2.6 7.4 3.8 14.5 8 21.3 12.7.5.3 1.4.3 1.8-.2.5-.6.6-1.5 0-2.1-5.5-5.1-11.3-9.7-17.5-13.9.2.7.4 1.4.5 2.1-.6.2-1.1.5-1.7.7 6.9 2.3 13 5.9 18.5 10.7l2.1-2.1c-5.2-4.1-10.3-8.1-15.5-12.2l-1.8 2.4c6.7 3.3 12.9 7.3 18.7 12l1.8-2.4c-7.2-3.9-13.7-8.7-19.6-14.3.1.6.2 1.2.2 1.8-.7.2-1.4.4-2.1.5 7.1 3 13.6 7 19.4 12l1.8-2.4c-7.1-4.1-13.7-8.8-19.9-14.2.1.6.2 1.2.2 1.8-.6.2-1.1.5-1.7.7 7 2.7 13.3 6.7 19.6 10.7 1.6 1 3.1-1.5 1.5-2.6-6.1-4-12.2-8.1-18.3-12.1l-1.2 2.7c3.9 1.3 7.5 3.1 10.9 5.4 1.6 1.1 3.2 2.4 4.6 3.7.4.4 3.5 4.1 3.9 3.2.5-.4 1-.7 1.4-1.1-1.4.2-4.4-.1-5.4 1.1-1.4 1.7 3.7 7.5 4.5 8.9.6-.7 1.1-1.5 1.7-2.2-.8-.8-1.6-1.5-2.4-2.3-.9.5-1.7 1-2.6 1.5.7 1 1.3 2 1.8 3.1-1.3-.8-2.2-1.9-2.6-3.3-.6.7-1.1 1.5-1.7 2.2 1.1.8 2.3 1.6 3.4 2.4.8-.2 1.7-.4 2.5-.7.9-1.6 1-3.2.3-4.7-.9-2-.4-2.1 1.7-.1.3 0 1.3-.2 1.6-.2-.7-2-.5-2.4.6-1.1.7.5 1.3 1.1 1.8 1.7h-4.5c-1.9-1.1-2.6-2.5-2.1-4.3.7-2.8-.7-1.3 1.3-1.4 2.2-.2 4.8 1.9 4.5 4.1-.3 2.6-4.9 5.4-6.9 7.1-1.2 1 .1 2.8 1.5 2.5 6.1-1.4 11.2-6 10.2-12.6-.3-1.9-3.2-1.1-2.9.8.7 4.9-4 7.9-8.1 8.9.5.8 1 1.7 1.5 2.5 3.5-3 10.6-6.5 7.4-12-1.6-2.7-7-6.1-10.2-3.8-2.6 1.9-1.8 6.5-.1 8.8 2.3 3.1 6.6 4 9.9 2.1.5-.3.7-.8.7-1.3 0-2.6-1.5-9.1-5.6-6.6-2.7 1.6-1.5 7.2 1.5 7.9s3.7-5.5 2.5-7.2c-1.8-2.7-5.4-1.9-6.2 1-.7 2.4 1.1 8.7 4.8 7.2 3-1.2-.1-8.2-1.8-9.5-3.2-2.4-5.3 1.5-4.8 4.4.3 1.9 3.4 7.5 5.8 4.8 2.7-3.1-.6-10.4-5-8.8-4.7 1.7-1.6 8.2.8 10.4.4.3.9.6 1.5.4 3.4-1.2 1.2-8.1-1.8-8.8-6.3-1.4-3.9 7.5-1.9 10.1.8 1 2.2.3 2.5-.7.9-2.7-1.1-6.4-4.2-6.6-2.7-.2-3.9 2.9-2.5 5 1 1.5 4.9 3.2 6.2 1.3 1.8-2.6-3.2-5.4-5-5.8-1.3-.2-2.2 1-1.7 2.2.9 2 4.6 6.7 7.4 5.3 2.6-1.4-.4-6.6-1.4-8.1-1.1-1.6-3.5-.2-2.6 1.5 1 1.9 2.2 2.9 4.2 3.7 1.3.5 2.3-1.2 1.7-2.2-.7-1.3-1.6-3.4-2.6-4.4-.3-.5-.6-1-1-1.4-2.2.7-2.8.9-1.7.8.9.3 2.8-.3 3.7-.4.7-.1 1.2-.4 1.4-1.1.2-.5-.1-1.1-.4-1.5-5.6-6.8-12.8-11.7-21.1-14.5-1.7-.6-2.5 1.8-1.2 2.7 6.1 4 12.2 8.1 18.3 12.1.5-.9 1-1.7 1.5-2.6-6.5-4.2-13.1-8.2-20.4-11-.6-.2-1.4.2-1.7.7s-.3 1.4.2 1.8c6.4 5.5 13.2 10.4 20.5 14.7 1.4.8 3.1-1.2 1.8-2.4-6-5.2-12.7-9.4-20-12.5-.8-.3-1.6-.2-2.1.5-.4.5-.2 1.4.2 1.8 6.1 5.8 12.8 10.7 20.2 14.8 1.4.8 3.2-1.2 1.8-2.4-6-4.9-12.4-9-19.3-12.5-1.4-.7-3.2 1.2-1.8 2.4 5.2 4.1 10.3 8.1 15.5 12.2 1.5 1.2 3.6-.8 2.1-2.1-5.8-5.2-12.4-9-19.8-11.5-.6-.2-1.4.1-1.7.7-.4.8-.2 1.6.5 2.1 6 4 11.6 8.5 16.9 13.4v-2.1c.6-.1 1.2-.2 1.8-.2-6.8-4.7-13.9-8.9-21.3-12.7-1.7-.9-3.1 1.5-1.5 2.6 6.2 4.1 12.4 8.3 18.6 12.4.5-.9 1-1.7 1.5-2.6-6.2-2.8-11.8-6.4-16.9-10.8.1.6.2 1.2.2 1.8-.7.2-1.4.4-2.1.5 6.3 2.9 12.4 6.1 18.4 9.6.5-.9 1-1.7 1.5-2.6-5.2-2.6-9.7-5.9-13.7-10.1l-1.8 2.4c3.7 2.8 7.6 5.1 11.8 7.2l1.2-2.7c-5.4-2.1-10.2-4.9-14.6-8.6l-1.8 2.4c3.5 1.9 7 3.9 10.5 5.8.5-.9 1-1.7 1.5-2.6-6.3-2.8-12.1-6.2-17.6-10.3-.5.9-1 1.7-1.5 2.6 4.5 3.2 9.3 6.1 14.2 8.6.8.4 1.6.2 2.1-.5.4-.5.2-1.4-.2-1.8-4.6-4.5-8.9-9.3-12.7-14.5-.1.6-.2 1.2-.2 1.8h-2.1c4.7 3.7 9.5 7 14.7 10.1.5.3 1.4.3 1.8-.2.6-.7.5-1.4 0-2.1-4-5.2-9-9-15-11.6-1.8-.8-3.1 1.4-1.5 2.6 4.1 3.1 8.4 5.4 13.2 7.2.5.2 1.1 0 1.5-.4.5-.5.6-1.2.2-1.8-3.4-6.2-10.2-8.1-16.9-8.5-.5 0-1 .3-1.3.7-3 5-3 10.8 1.9 14.7 4.5 3.5 10.9 3 14.6-1.4.4-.5.6-1.2.2-1.8-3.6-6.3-9.5-10.4-16.7-11.7-.6-.1-1.4.1-1.7.7-4.8 9.3 6.2 19.8 14.9 13.1.5-.4 1-1 .7-1.7-2.7-6.7-8.1-11.4-15.3-12.7-.7-.1-1.3.1-1.7.7-5.7 8.4 5.5 17.3 13 11.2.4-.3.5-1 .4-1.5-1.1-4.4-3.8-8.2-7.8-10.5-1.7-1-7-3.6-8.5-1.4-.3.4-.2 1.1 0 1.5 1.5 2.7 3.6 3.9 6.6 4 1.2 0 1.8-1.3 1.3-2.3-1-2.1-2.9-3.5-5.2-3.7-1.6-.2-4.8.4-5.3 2.3-.8 3.1 8.6 7.5 10.6 4 2.4-4.2-6.7-8.7-9.5-5.5-4.3 5 8.9 10.1 11.8 10.6.7.1 1.3-.1 1.7-.7.3-.4.3-1.1 0-1.5-2.1-2.7-4.4-5.7-7.8-6.9-2-.7-5.5-.9-6.4 1.6-.9 2.4 1.6 3.9 3.2 5.1 4.8 3.7 9.7 7.1 14.8 10.4 1.4.9 3.1-1.3 1.8-2.4-4.1-3.4-8.6-5.8-13.8-7.2-1.7-.5-2.5 1.8-1.2 2.7 3.9 2.6 7.9 5 12.1 7.3 1.4.8 3.2-1.2 1.8-2.4-3.6-2.9-7.5-5-11.9-6.3-.7-.2-1.3.1-1.7.7s-.2 1.3.2 1.8c2.8 3.2 6.1 5.3 10.3 6.3.7.2 1.3-.1 1.7-.7.3-.4.3-1.1 0-1.5-3.3-5.2-8.4-8.1-14.6-8.2-.7 0-1.2.5-1.4 1.1-.2.5 0 1.1.4 1.5 2 1.8 7.6 7 10.5 4.7 3.2-2.5-2.1-7.2-3.8-8.6-1.9-1.5-5.4-3.8-7.2-.8-2.2 3.7 4 7.6 6.5 8.9.4.2 1.1.3 1.5 0s.8-.8.7-1.3c-.5-4.2-2.2-11.1-8-10.4-3.3.4-5.7 4.5-3.5 7.3 1.5 1.9 4.9 1.9 6.1-.2 2-3.6-2-8.6-5.8-7.9-8 1.5 1.3 11.8 3.3 4.5.6-2.3-1.5-7.2-4.4-5.8s-1.9 5.8.6 6.9c.9.4 1.9.1 2.2-.9.6-2.3.2-3.8-1.3-5.6-.7-.9-2.2-.3-2.5.7-.4 1.3-.4 1.6.4 2.7 1.8 1.5 4.4 0 3.2-1.5M443.086 165.925q24.15 13.35 48 27.3c1.7 1 3.2-1.6 1.5-2.6q-23.85-13.95-48-27.3c-1.6-.9-3.2 1.7-1.5 2.6"/><path fill="#161616" d="M445.386 163.625c.2-4.2 4.1-6.6 7.7-7.4 3.4-.7 5.2.3 8 1.9 4.5 2.6 9.1 5.2 13.6 7.8 9.1 5.2 18.1 10.4 27.2 15.7 1.7 1 3.2-1.6 1.5-2.6-13.6-7.8-27.2-15.7-40.8-23.5-5.2-3-7.5-3.7-13.2-1.2-4.1 1.8-6.8 4.7-7.1 9.3 0 2 3 1.9 3.1 0"/><path fill="#161616" d="M493.286 193.025c2.7-2.6 6.9-2.9 9.3-5.9 1.8-2.3 2.4-5.5.2-7.7-1.4-1.4-3.5.7-2.1 2.1 2.2 2.3-1.6 5-3.4 5.8-2.2 1-4.3 1.8-6.1 3.6-1.4 1.3.7 3.4 2.1 2.1"/><path fill="#161616" d="M448.786 160.125c0-.1-.1-.3-.1-.4-.8.2-1.7.4-2.5.7.2.9.4 1.8.5 2.7.7-.3 1.5-.6 2.2-.9-.1-.6-.2-1.3-.3-1.9-.7-.2-1.4-.4-2.1-.5.3.4.7.9 1 1.3.7 3.5 2.4 4.9 5.1 4.1 1.5-.7 2.3-.3 2.4 1.1.6 1.3.9 2.6.9 4.1.8-.4 1.5-.9 2.3-1.3-1-.5-4.2-2.1-4.4-3.3-.4-1.7 2.5.7 3.1 1.3.5.4.9.9 1.3 1.5 1.1 1.1 1.1 1.3-.1.5-1.9-.3-3.8-2.4-5.2-3.6-.4.9-.7 1.7-1.1 2.6 5.2.1 9.3 2.4 12 6.7.6-.7 1.1-1.5 1.7-2.2-3.7-.9-6.5-2.7-9-5.5-.5.8-1 1.7-1.5 2.5 3.9 1.2 7.3 3 10.5 5.6l1.8-2.4c-4.1-2.2-8.2-4.7-12.1-7.3l-1.2 2.7c4.7 1.3 8.7 3.4 12.4 6.5l1.8-2.4c-3.8-2.4-7.6-5-11.2-7.6-1.2-.9-8.4-5.8-2-3.7 2.1.7 4.1 3.6 5.3 5.2.6-.7 1.1-1.5 1.7-2.2-2.4-.4-4.6-1.1-6.7-2.5-3-1.7-2.8-2.2.5-1.5-1.9-.6-3.6-1.6-5.1-2.9l-.3 2.4c1.8-1.4 4.7-.9 5.7 1.3.4-.8.9-1.5 1.3-2.3-1.3-.8-2.7-1.7-4-2.5-.4.8-.9 1.5-1.3 2.3 6 .5 10.7 4.6 12.1 10.4.7-.6 1.5-1.1 2.2-1.7-4.3-2-7.5-4.9-10.1-8.9-.6.7-1.1 1.5-1.7 2.2 6 1.2 10.8 4.9 13.2 10.6.7-.6 1.5-1.1 2.2-1.7q-6.75-4.8-12.6-10.8c-.5.8-1 1.7-1.5 2.5 6.4 1.1 11.6 4.6 14.9 10.3.6-.7 1.1-1.5 1.7-2.2-5.6-2-10.1-5.7-13.2-10.8-.4.8-.9 1.5-1.3 2.3 5.6.3 11.4 1.7 14.3 7 .6-.7 1.1-1.5 1.7-2.2-4.6-1.7-8.6-4-12.5-6.9-.5.9-1 1.7-1.5 2.6 5.8 2.5 10.5 6.2 14.4 11.2l1.8-2.4c-4.9-2.9-9.6-6.1-14-9.6-1.2-.9-3.5.3-2.4 1.8 4 5.4 8.4 10.4 13.2 15.1l1.8-2.4c-5-2.5-9.7-5.4-14.2-8.6-1.6-1.1-3 1.5-1.5 2.6 5.5 4.1 11.4 7.5 17.6 10.3 1.7.8 3.2-1.6 1.5-2.6-3.5-1.9-7-3.9-10.5-5.8-1.4-.8-3.2 1.2-1.8 2.4 4.8 4 10.1 7.1 16 9.3 1.6.6 2.7-2 1.2-2.7-4.1-2.1-8-4.4-11.8-7.2-1.4-1-2.9 1.2-1.8 2.4 4.2 4.4 8.9 7.9 14.3 10.6 1.7.9 3.2-1.6 1.5-2.6-6-3.5-12.1-6.7-18.4-9.6-1.4-.7-3.2 1.2-1.8 2.4 5.3 4.6 11.1 8.3 17.5 11.2 1.7.8 3.1-1.5 1.5-2.6-6.2-4.1-12.4-8.3-18.6-12.4-.5.9-1 1.7-1.5 2.6 7.4 3.8 14.5 8 21.3 12.7 1.4 1 3.1-1.2 1.8-2.4-5.5-5.1-11.3-9.7-17.5-13.9l-1.2 2.7c6.9 2.3 13 5.9 18.5 10.7l2.1-2.1c-5.2-4.1-10.3-8.1-15.5-12.2l-1.8 2.4c6.7 3.3 12.9 7.3 18.7 12l1.8-2.4c-7.2-3.9-13.7-8.7-19.6-14.3l-1.8 2.4c7.1 3 13.6 7 19.4 12l1.8-2.4c-7.1-4.1-13.7-8.8-19.9-14.2-.5.8-1 1.7-1.5 2.5 7 2.7 13.3 6.7 19.6 10.7 1.6 1 3.1-1.5 1.5-2.6-6.1-4-12.2-8.1-18.3-12.1l-1.2 2.7c7.9 2.7 14.5 7.3 19.8 13.7.4-.9.7-1.7 1.1-2.6-1.4.2-2.8.3-4.2.5-1 .1-2 1.2-1.3 2.3 1.7 2.3 3.2 4.7 4.6 7.2.6-.7 1.1-1.5 1.7-2.2-.8-.8-1.6-1.5-2.4-2.3-.9.5-1.7 1-2.6 1.5 1.2 1.5 1.8 3.3 1.9 5.2.6-.5 1.3-1 1.9-1.4-2.2-.6-3.7-1.9-4.6-4-.6.7-1.1 1.5-1.7 2.2 1 .8 2 1.7 3 2.5.5-.6 1-1.3 1.4-1.9-.4.6-.7 1.2-1.1 1.8.8-.2 1.7-.4 2.5-.7-.1-.3-.2-.7-.3-1 .8-.2 1.7-.4 2.5-.7-1.1-.7-1.8-1.7-1.9-3-.8-2.8-.4-2 1.3 2.4.7-.3 1.5-.6 2.2-.9-1-2.8-1.2-2.5-.4.9l1.5-1.5c-1-.5-1.4-1.2-1.4-2.1-.2-1.8-.3-1.2-.2 1.8l2.4-.3c-.7-1.7-.8-1.3-.3 1.3.8-.4 1.5-.9 2.3-1.3-3.4-1.9-5.9-4.3-7.9-7.7-.3.7-.6 1.5-.9 2.2 3.5-.8 8.5 1.8 5.7 5.6-1.4 1.9-4.3 3.7-6.1 5.2-1.2 1 .1 2.8 1.5 2.5 6.1-1.4 11.2-6 10.2-12.6-.3-1.9-3.2-1.1-2.9.8.7 4.9-4 7.9-8.1 8.9.5.8 1 1.7 1.5 2.5 3.3-2.9 10.1-6.2 7.7-11.4-1.8-3.9-6.2-5.4-10.2-4.4-.9.2-1.4 1.4-.9 2.2 2.2 3.8 5.1 6.6 9 8.7 1 .5 2.3-.1 2.3-1.3 0-2.6-1.1-8.5-5.1-6.8-3.7 1.6-1.5 5.7.3 7.6.7.7 1.9.5 2.4-.3 1.2-2.1 2.4-4.8.5-6.9-1.1-1.2-3.2-1.6-4.6-.7-3.4 2.4-1 9.4 3.1 9.4.8 0 1.5-.7 1.5-1.5-.1-2.7-1.8-10.7-6.2-8.3-4.1 2.3-.4 8.2 2.1 10 .8.5 2 0 2.2-.9.6-3.2-.1-10.7-5.5-8.3-4.3 2-1.3 8.1 1 10.2.8.7 2.3.5 2.5-.7.6-3 .2-9-4.6-7.7-4.7 1.3-2 7.7-.1 10 .8 1 2.2.3 2.5-.7 1-3-2.8-8.7-6.2-6-3.9 3.2 1.7 6.1 4.4 6.4 1 .1 1.7-1 1.4-1.9-.8-2.6-2.4-4.1-5.1-4.6-1.3-.2-2.2 1-1.7 2.2 1.3 2.9 3.4 4.6 6.4 5.4.9.2 2-.4 1.9-1.4-.3-2.6-.9-4.5-2.3-6.8-1.1-1.6-3.5-.2-2.6 1.5 1 1.9 2.2 2.9 4.2 3.7 1.3.5 2.3-1.2 1.7-2.2-1.4-2.5-2.9-4.9-4.6-7.2-.4.8-.9 1.5-1.3 2.3 1.4-.2 2.8-.3 4.2-.5 1.3-.1 1.9-1.5 1.1-2.6-5.6-6.8-12.8-11.7-21.1-14.5-1.7-.6-2.5 1.8-1.2 2.7 6.1 4 12.2 8.1 18.3 12.1.5-.9 1-1.7 1.5-2.6-6.5-4.2-13.1-8.2-20.4-11-1.4-.5-2.6 1.6-1.5 2.5 6.4 5.5 13.2 10.4 20.5 14.7 1.4.8 3.1-1.2 1.8-2.4-6-5.2-12.7-9.4-20-12.5-1.4-.6-3.2 1.1-1.8 2.4 6.1 5.8 12.8 10.7 20.2 14.8 1.4.8 3.2-1.2 1.8-2.4-6-4.9-12.4-9-19.3-12.5-1.4-.7-3.2 1.2-1.8 2.4 5.2 4.1 10.3 8.1 15.5 12.2 1.5 1.2 3.6-.8 2.1-2.1-5.8-5.2-12.4-9-19.8-11.5-1.7-.6-2.5 1.8-1.2 2.7 6 4 11.6 8.5 16.9 13.4l1.8-2.4c-6.8-4.7-13.9-8.9-21.3-12.7-1.7-.9-3.1 1.5-1.5 2.6 6.2 4.1 12.4 8.3 18.6 12.4.5-.9 1-1.7 1.5-2.6-6.2-2.8-11.8-6.4-16.9-10.8l-1.8 2.4c6.3 2.9 12.4 6.1 18.4 9.6.5-.9 1-1.7 1.5-2.6-5.2-2.6-9.7-5.9-13.7-10.1l-1.8 2.4c3.7 2.8 7.6 5.1 11.8 7.2l1.2-2.7c-5.4-2.1-10.2-4.9-14.6-8.6l-1.8 2.4c3.5 1.9 7 3.9 10.5 5.8.5-.9 1-1.7 1.5-2.6-6.3-2.8-12.1-6.2-17.6-10.3-.5.9-1 1.7-1.5 2.6 4.5 3.2 9.3 6.1 14.2 8.6 1.5.8 3.1-1.1 1.8-2.4-4.6-4.5-8.9-9.3-12.7-14.5l-2.4 1.8c4.7 3.7 9.5 7 14.7 10.1 1.6.9 2.8-1.1 1.8-2.4-4-5.2-9-9-15-11.6-1.8-.8-3.1 1.4-1.5 2.6 4.1 3.1 8.4 5.4 13.2 7.2 1.3.5 2.3-1.1 1.7-2.2-3.4-6.2-10.2-8.1-16.9-8.5-1.1-.1-1.9 1.3-1.3 2.3 3.6 5.8 8.6 9.8 15 12.2 1.3.5 2.3-1.1 1.7-2.2-3.6-6.3-9.5-10.4-16.7-11.7-1.4-.3-2.6 1.4-1.5 2.5 4 4.2 8.4 7.9 13.2 11.3 1 .7 2.7-.5 2.2-1.7-2.7-6.7-8.1-11.4-15.3-12.7-1.2-.2-2.4 1-1.7 2.2 2.8 4.4 6.4 7.7 11.1 9.9 1.2.6 2.5-.4 2.2-1.7-1.8-7.2-7.7-12-15-12.6-1.2-.1-1.8 1.3-1.3 2.3 1.5 2.7 3.6 3.9 6.6 4 1.2 0 1.8-1.3 1.3-2.3-1.8-3.7-6.5-4.9-9.8-2.3-.7.5-1.1 1.7-.3 2.4 2 1.7 7.6 6.1 10 2.9 2.4-3.1-2.6-6.2-5-6.7-3-.6-5.5.7-4.6 3.9 1.3 4.4 8.3 6.8 12.2 7.5 1.1.2 2.6-1.1 1.7-2.2-2.1-2.7-4.4-5.7-7.8-6.9-2-.7-5.5-.9-6.4 1.6-.9 2.4 1.6 3.9 3.2 5.1 4.8 3.7 9.7 7.1 14.8 10.4 1.4.9 3.1-1.3 1.8-2.4-4.1-3.4-8.6-5.8-13.8-7.2-1.7-.5-2.5 1.8-1.2 2.7 3.9 2.6 7.9 5 12.1 7.3 1.4.8 3.2-1.2 1.8-2.4-3.6-2.9-7.5-5-11.9-6.3-1.5-.5-2.4 1.4-1.5 2.5 2.8 3.2 6.1 5.3 10.3 6.3 1.2.3 2.4-1.1 1.7-2.2-3.3-5.2-8.4-8.1-14.6-8.2-1.3 0-2 1.7-1.1 2.6 1.9 1.8 7.8 7.2 10.7 4.6 2.9-2.7-2.5-7.3-4.2-8.7-1.9-1.4-6-3.3-7.3.1-1.3 3.5 4.4 7 6.7 8.3.9.5 2.4-.1 2.3-1.3-.5-3.8-1.3-8.2-5.2-9.9-2.6-1.1-5.6-.2-6.7 2.5-2.4 5.7 7.1 8.4 6.7 1.7-.2-2.7-1.7-5.2-4.5-5.6-2.4-.3-4.8 1.2-4.6 3.8.2 2.2 2.6 4.2 4.8 3.1 3.3-1.8 1.2-5.7-.3-7.7-.5-.6-1.3-1-2.1-.5-2.8 1.7-2.8 5.7.3 7.1.9.4 1.9.1 2.2-.9.6-2.3.2-3.8-1.3-5.6-.7-.9-2.2-.3-2.5.7-.4 1.3-.4 1.6.4 2.7 1.8 1.5 4.4 0 3.3-1.5M145.986 317.225c28.8 16.7 58.5 31.7 89 45 1.8.8 3.3-1.8 1.5-2.6-30.5-13.3-60.2-28.3-89-45-1.6-.9-3.1 1.7-1.5 2.6M230.286 324.425c13.3 7.4 27.1 14 41.2 19.8 1.8.7 2.6-2.2.8-2.9q-20.85-8.55-40.5-19.5c-1.6-.9-3.1 1.7-1.5 2.6M209.986 287.025c26.1 17.8 53.7 33.4 82.3 46.7 1.7.8 3.3-1.8 1.5-2.6-28.7-13.3-56.2-28.9-82.3-46.7-1.5-1.1-3 1.5-1.5 2.6M235.786 273.625c24.8 19 51.8 34.6 80.6 46.7 1.8.7 2.6-2.2.8-2.9-28.5-12-55.3-27.6-79.9-46.4-1.5-1.2-3 1.4-1.5 2.6M299.586 279.625c13.9 11.6 29.3 20.9 46 27.7 1.8.7 2.6-2.2.8-2.9-16.2-6.6-31.2-15.7-44.7-26.9-1.5-1.3-3.6.9-2.1 2.1M294.886 242.425c24.3 18.4 49.8 35.1 76.3 50.1 1.7 1 3.2-1.6 1.5-2.6-26.5-15-52-31.8-76.3-50.1-1.6-1.1-3.1 1.5-1.5 2.6M320.186 228.125c21.1 21 45.4 38.6 72 52 1.7.9 3.2-1.7 1.5-2.6-26.4-13.3-50.5-30.6-71.4-51.5-1.3-1.4-3.4.7-2.1 2.1M343.886 217.825c20 19.9 43.5 35.8 69.4 46.9 1.8.8 3.3-1.8 1.5-2.6-25.7-11.1-49-26.8-68.8-46.5-1.3-1.3-3.4.8-2.1 2.2M401.086 237.525c10.2 6.7 20.8 12.6 31.9 17.8 1.7.8 3.3-1.8 1.5-2.6-11-5.2-21.7-11.1-31.9-17.8-1.6-1-3.2 1.5-1.5 2.6M401.986 227.925c-11-7.2-21.9-14.5-32.7-22-1.6-1.1-3.1 1.5-1.5 2.6 10.8 7.5 21.7 14.8 32.7 22 1.6 1.1 3.1-1.5 1.5-2.6M389.186 194.025c20.5 18 43.4 32.9 68.2 44.3 1.7.8 3.3-1.8 1.5-2.6-24.6-11.3-47.3-26-67.6-43.8-1.4-1.3-3.5.8-2.1 2.1M414.886 182.425c18.8 16 39.3 29.8 61.2 41.1 1.7.9 3.2-1.7 1.5-2.6-21.7-11.2-42-24.8-60.6-40.7-1.4-1.2-3.6 1-2.1 2.2M435.986 171.825c17.6 15 36.5 28.3 56.7 39.7 1.7.9 3.2-1.6 1.5-2.6-19.9-11.2-38.7-24.4-56.1-39.2-1.4-1.3-3.5.8-2.1 2.1M503.486 188.125c5 2.8 10.1 5.2 15.5 7.1 1.8.7 2.6-2.2.8-2.9-5.1-1.9-10-4.1-14.8-6.8-1.6-1-3.2 1.6-1.5 2.6M475.886 153.525c9.8 6.4 19.5 12.7 29.3 19.1l13.8 9c2.8 1.8 6.7 5.8 10.3 5.2.7-.1 1-.8 1.1-1.4.1-.9-.1-1.3-.8-1.9-.5-.4-1.2-.6-1.8-.2-.1.1-.2.1-.3.2-1.6 1-.1 3.6 1.5 2.6.1-.1.2-.1.3-.2-.6-.1-1.2-.2-1.8-.2 0-.1-.1-.1-.1-.2.4-.5.7-1 1.1-1.4-1.3.2-4.4-2.6-5.5-3.3-2.2-1.4-4.3-2.8-6.5-4.2-4.3-2.8-8.7-5.7-13-8.5-8.7-5.7-17.4-11.3-26.1-17-1.6-1.2-3.1 1.4-1.5 2.4M235.386 147.325c7.8 30.6 15.6 61.3 23.4 91.9.5 1.9 3.4 1.1 2.9-.8-7.8-30.6-15.6-61.3-23.4-91.9-.5-1.8-3.4-1.1-2.9.8"/><path fill="#161616" d="M229.386 120.825c2.2 8.9 4.5 17.8 6.7 26.8.2.9 1.7.5 1.4-.4-2.2-8.9-4.5-17.8-6.7-26.8-.2-1-1.6-.6-1.4.4"/><path fill="#161616" d="M231.186 119.725c27.7-15.6 56.6-28.9 86.4-40 1.8-.7 1-3.6-.8-2.9-30 11.2-59.1 24.6-87.1 40.3-1.7.9-.2 3.5 1.5 2.6M261.786 240.125c31.6-14.1 62.2-30.3 91.7-48.4 1.6-1 .1-3.6-1.5-2.6-29.5 18.1-60.1 34.2-91.7 48.4-1.8.8-.3 3.4 1.5 2.6"/><path fill="#161616" d="M316.686 78.225c10.8 37.4 22.5 74.5 35.2 111.3.6 1.8 3.5 1 2.9-.8-12.7-36.8-24.5-73.9-35.2-111.3-.6-1.9-3.5-1.1-2.9.8M271.086 227.025c2 6.6 4.3 13.2 6.9 19.6.7 1.8 3.6 1 2.9-.8-2.6-6.4-4.9-13-6.9-19.6-.5-1.8-3.4-1.1-2.9.8"/><path fill="#161616" d="M274.086 226.725c2-1.4 4-2.7 6.1-3.8 2.3-1.2 6.1-3.8 7.7-1.2 1.3 2 1.7 5.3 2.5 7.6.9 2.8 1.8 5.6 2.7 8.3.6 1.8 3.5 1 2.9-.8-1.3-4-2.6-8.1-3.9-12.1-.6-1.9-1.1-6.4-3-7.6-1.9-1.1-5.6 1.1-7.4 1.8-3.2 1.4-6.2 3.1-9.1 5.1-1.6 1.2-.1 3.8 1.5 2.7M314.686 207.725q4.5 7.35 6.6 15.6c.5 1.9 3.4 1.1 2.9-.8-1.5-5.8-3.8-11.2-6.9-16.3-1-1.6-3.6-.1-2.6 1.5"/><path fill="#161616" d="M317.086 206.725c2.3-1.3 4.6-2.7 6.9-3.9 1.1-.6 2.3-1.6 3.5-1.8 2-.4 2.3.1 3.2 1.8 2.3 4.4 3.5 10 5.2 14.6.6 1.8 3.5 1 2.9-.8-1.4-3.9-2.7-7.8-4.1-11.7-.7-2.1-1.2-6.1-3.2-7.6-1.5-1.2-3.3 0-4.8.7-3.8 1.9-7.5 3.9-11.2 6.1-1.5 1 0 3.6 1.6 2.6M275.986 234.425c5.4-1.9 10.7-4.3 15.7-7.2 1.5-.9.5-3.1-1.2-2.7-5 1.2-9.7 3.2-14 6 .5.9 1 1.7 1.5 2.6 4.1-3.2 8.6-5.9 13.3-8.1 1.7-.8.2-3.4-1.5-2.6-4.7 2.2-9.2 4.9-13.3 8.1-1.5 1.1-.2 3.7 1.5 2.6 4.1-2.6 8.5-4.5 13.3-5.7l-1.2-2.7q-7.2 4.05-15 6.9c-1.7.6-1 3.5.9 2.8"/><path fill="#161616" d="M321.786 212.325c3.5-2.1 7.1-4.2 10.6-6.3 1.7-1 .2-3.5-1.5-2.6-3.4 1.7-6.8 3.4-10.2 5.2.5.9 1 1.7 1.5 2.6 2.8-1.8 5.6-3.6 8.4-5.3 1.6-1 .1-3.6-1.5-2.6-2.8 1.8-5.6 3.6-8.4 5.3-1.6 1-.2 3.5 1.5 2.6 3.4-1.7 6.8-3.4 10.2-5.2-.5-.9-1-1.7-1.5-2.6-3.5 2.1-7.1 4.2-10.6 6.3-1.7 1-.2 3.6 1.5 2.6M245.786 131.025c-3.5 2.3-4.6 1.9-3.4-1.4-.2-2 .5-3.7 2.2-4.9.3-.5.8-.9 1.1-1.4.7-1.3 1.4-2.7 1.1-4.3-.3-1.5-1.7-3.6-3.6-2.9-2.4.8-.8 4.3-.4 5.7l3.3 10.2c.5 1.5.9 3.1 1.4 4.7.1.5 1.3 6.7 0 5.8-.8-.6-1.5.7-.8 1.3 1.2.8 2.4.6 3.2-.7.7-1.1 0-3-.2-4-.7-2.8-1.6-5.6-2.4-8.4-.9-3.1-1.8-6.2-3-9.2l-.6-1.8c1.3 1.7 1.2 3.1-.2 4.2-.1.2-1.9 2.5-2 2.6-1.6 2.9-1.4 5.7.2 8.6 2.8 4.9 8.6 3.6 8.7-2.2.1-4.8-6.5-6.8-6-1.7 0 .8 1.5.8 1.4-.2M263.486 125.325c.5-1.5-1.1-2.4-2.3-1.6s-1.9 3.4-.2 4.1c2.3 1 2.9-2.4 2.7-3.8-.3-2.3-.8-4 1.3-5.7 1-.8 2.2-1.4 3.1-2.3.7-.6-.3-1.7-1.1-1.1-1.6 1.4-3.9 2.3-4.9 4.2-.4.8-.5 1.7-.5 2.6 0 .6.2 1.1.3 1.7.1.4.1.8.2 1.3-.6.9-.7 1-.2.2-.2.9 1.3 1.3 1.6.4M277.886 119.025c1.8-.4 2.2-3 0-3.1-2-.1-1.9 2.2-.6 3 .4.3 1 0 1.1-.4.5-1.5.6-3.1 1-4.6.5-2.2 1.5-2.2 3.3-3.1 2.9-1.5 5.7-3.2 8.5-5-.4-.2-.8-.4-1.1-.6-.2 1.7 0 5.1-1.1 6.5-.4.5-1.1.4-1.2 1.3-.2 1.5 1.4 2 2.4 1.1.7-.7-.4-1.7-1.1-1.1.3-.3 1 .1 1.5-.3.3-.3.3-.5.4-.9.6-2 .4-4.4.7-6.5.1-.6-.7-.9-1.1-.6-3.3 2.2-6.7 4.1-10.2 5.9-1.3.7-1.8.8-2.1 2.2-.4 1.9-.5 3.7-1.1 5.6.4-.1.7-.3 1.1-.4-.2 0-.4-.1-.6-.1-1.1-.1-.7 1.3.2 1.1"/><path fill="#161616" d="M283.486 110.025c-.1.8-.2 1.5-.3 2.3-.1.7 0 1.5-.5 2.1s-1.6.8-1.4 1.8c.1.6.8 1.1 1.4 1.1.9 0 1.5-.7 1.8-1.4.5-.8-.8-1.6-1.3-.8l-.3.6c-.2.3-.2.4.1.3.2 0 .4-.2.6-.3.4-.3.6-.7.8-1.2.4-1.4.4-3.1.6-4.5.1-1-1.4-1-1.5 0M265.686 129.925c16.1-6.3 31.6-13.7 46.4-22.4.8-.5.1-1.8-.8-1.3-14.8 8.6-30.1 16.1-46.1 22.3-.8.3-.4 1.7.5 1.4M243.286 153.225q3.75 13.65 6.6 27.6c.2.9 1.6.5 1.4-.4-1.9-9.3-4.1-18.4-6.6-27.6-.2-.9-1.7-.5-1.4.4"/><path fill="#161616" d="M243.686 152.425c3.3 9.4 5.7 19 7.4 28.8.2.9 1.6.5 1.4-.4-1.7-9.8-4.1-19.4-7.4-28.8-.2-.9-1.7-.5-1.4.4"/><path fill="#161616" d="M244.286 153.025c21.2-9.9 42.4-19.8 63.7-29.6.9-.4.1-1.7-.8-1.3-21.2 9.9-42.4 19.8-63.7 29.6-.9.4-.1 1.7.8 1.3M251.786 181.225c23.1-12 46.2-24.1 69.3-36.1.9-.4.1-1.7-.8-1.3-23.1 12-46.2 24.1-69.3 36.1-.9.4-.1 1.7.8 1.3M252.086 158.725c1.1.1 2-1.2 1.3-2.1-.7-1-2.2-.6-2.7.4-.5 1.1.2 2.8 1.5 2.7s2-2 1.6-3.1c-1.3-2.9-5.3 1.6-2.6 3.4 1.2.8 2.7-.1 3.1-1.4.3-1 0-2 0-3-.1-1.8.1-3.5.6-5.2.3-.9-1.2-1.3-1.4-.4-.4 1.4-.7 2.8-.7 4.3 0 .7 0 1.4.1 2.1.1 1 .4 1-.6.9-1.2-.1-1.2 1.4-.2 1.4M269.186 142.425q.45 3.45 0 6.9c.4-.2.8-.4 1.1-.6-2.2-1-5.4 0-5.8 2.7-.2 1.1.5 2 1.6 2.2 1.8.3 3.3-1.1 4.3-2.4.6-.7-.4-1.8-1.1-1.1-.3.3-.6.7-.9 1-.7 1-1.5.9-2.2-.3.3-1.2 2.5-1.2 3.2-.9.6.3 1.1-.1 1.1-.6.3-2.4.3-4.8-.1-7.3.1-.9-1.4-.5-1.2.4"/><path fill="#161616" d="M269.886 144.925c.8 1.8 3 2.7 4.8 1.9.9-.4.5-1.8-.4-1.4-1.2.5-2.6 0-3.1-1.3-.4-.8-1.6 0-1.3.8M269.886 143.125c1.3.7 2.9.9 4.3.4.9-.3.5-1.8-.4-1.4-1.1.4-2.2.3-3.2-.2-.8-.5-1.6.8-.7 1.2M289.286 134.825c-.1 1.7 0 3.5.1 5.2.4-.2.9-.4 1.3-.5-2-2.4-5.7.8-5.4 3.3.1 1.1 1.3 1.6 2.3 1.3 1.2-.3 2.4-1.9 2.5-3.1.1-2.7-4-1.7-3.8.7.3 2.8 4.3 1.1 2.5-.9-.7-.7-1.7.4-1.1 1.1.8-.4.8-.2.1.4-.6-.1-.7-.4-.5-.7 0-1 1.6-1.9 2.4-1 .4.5 1.3.1 1.3-.5-.1-1.7-.1-3.5-.1-5.2 0-1.1-1.5-1.1-1.6-.1"/><path fill="#161616" d="M287.586 138.725c.1-.3.2-.7.4-1l.4-.4s.1 0 .1-.1c-.2-.5-.4-.6-.5-.3-.3.2-.4.5-.7.7-.1 0-.5.3-.6.1-.1.2-.1.5-.2.7.2-.3.6-.7 1-.8.1 0 .2 0 .3.1.1 0 0 .1 0 0 0 .1-.2.3-.3.3-.2.1-.8.7-1 .5 0 0 0-.1-.1-.1v-.1q0-.15 0 0c0 .1-.1.1-.2.1 1-.1 1-1.6 0-1.5-1.1.1-1.6 1.3-1.1 2.2.6 1.2 2.1.9 3 .3.5-.4 1-.8 1.1-1.4s-.2-1.2-.7-1.5c-1.2-.8-2.4.1-3.2.9-.2.2-.3.5-.2.7.4.9 1.3 1.3 2.2 1.1.8-.2 1.8-1.1 2.1-2 .4-1.1-.7-1.8-1.7-1.3-.9.4-1.5 1.4-1.7 2.4-.1.9 1.4 1.3 1.6.4M298.886 134.225c-.6-1.2 2-3.9 3.1-2.9 1.1 1.1-2 3.6-3 2.5-.7-.7-1.8.4-1.1 1.1 2.3 2.3 7.4-1.8 5.3-4.5-1.1-1.4-3-.7-4.1.2-1.3 1-2.3 2.7-1.5 4.3.4.9 1.7.1 1.3-.7M251.686 163.025c20.5-9.6 40.9-19.7 61-30.2.9-.4.1-1.7-.8-1.3-20.1 10.5-40.4 20.6-61 30.2-.8.5-.1 1.8.8 1.3M254.986 168.325c-.1-.1-.1-.3 0-.3s.1.1.1.1c0 .1-.1.1-.2.1.1 0 .3.1.4.1-.5-.3 0-.8.2-.5 0 .1.1.2 0 .3 0 0-.1-.1-.2-.1-.1-.1-.1-.2-.1-.1.2-.9-1.3-1.3-1.4-.4-.1.7.2 1.4.8 1.8s1.4.4 2-.2c1.1-1 .2-3-1.2-3-1.8 0-2.4 2.4-.9 3.3.7.4 1.6 0 2-.7s.2-1.6-.5-2c-.7-.5-1.7-.4-2.2.3s-.4 1.7.2 2.3c.7.7 1.7-.4 1-1M264.386 160.925c.1 1.7 0 3.4-.2 5.1-.1.6.5 1.2 1.1.8 1.5-.8 2.9-1.6 4.4-2.3.9-.5 2.1-.9 2.9-1.7.5-.5.5-1.1.7-1.8.1-.6 1.2-3.7.9-4.2-.5-.8-1.8-.1-1.3.8.6 1 2.1 1.4 2.9.4.9-1 0-2.6-1.3-2.7-1.9-.1-2.1 2.7-2.4 4-.1.6-.1 1.5-.4 2-.4.9-1.2 1.1-2 1.5l-5.1 2.7c.4.3.7.6 1.1.8.3-1.8.4-3.6.3-5.5-.2-.9-1.7-.9-1.6.1"/><path fill="#161616" d="M265.486 161.725c.2-1.1.9-2 1.9-2.5-.4-.2-.8-.4-1.1-.6.1.9-.4 1.6-1.3 1.9-.9.2-.5 1.7.4 1.4 1.5-.4 2.5-1.8 2.4-3.3 0-.6-.6-.9-1.1-.6-1.3.6-2.3 1.9-2.6 3.3-.2.9 1.3 1.3 1.4.4M284.086 152.125c.2 2 .2 4 .1 6-.1 1 1.4 1 1.5 0 .1-2 .1-4-.1-6-.1-.9-1.6-1-1.5 0"/><path fill="#161616" d="M285.486 152.525c-.1-.9.8-1.7 1.6-1.1.7.5.3 1.8-.7 1.6-.3-.1-.5-.4-.5-.7 0-.2.3-.9.5-.5.1.3-.3.5-.4.2v-.2c.1 0 .1 0 .2.1.2.2.4.1.7-.1.1.2.1.4.2.5v-.1c-.1-.9-1.6-1-1.5 0 .2 1.4 2.1 1.1 2.2-.2.1-1.1-1.2-2-2.2-1.6-1.1.4-1.2 1.7-.6 2.6.8 1.1 2.4.7 2.9-.4.6-1.2-.3-2.6-1.6-2.4-1.2.2-1.9 1.4-1.6 2.6.3 1.1 1.3 1.9 2.5 1.7 1.1-.2 2.1-1.3 2-2.5-.1-1.4-1.6-2.5-3-2.2-1.5.3-2.2 1.8-2 3.2 0 .8 1.4.4 1.3-.5M303.286 139.125c-.1 3.3-.3 6.6-.7 9.9-.1 1 1.4.9 1.5 0 .4-3.3.7-6.6.7-9.9 0-1-1.5-1-1.5 0"/><path fill="#161616" d="M303.586 148.025c-1-.3-2.1-.3-3.1.1-.9.4-2 1.2-1.9 2.4.1 1 1 1.6 1.9 1.6 1.1 0 1.8-.9 2.5-1.7.6-.8-.7-1.5-1.3-.8-.3.3-.6.9-1.1.9-.8.1-.3-.6.1-.8.8-.5 1.7-.6 2.6-.3.8.3 1.2-1.1.3-1.4"/><path fill="#161616" d="M300.786 150.625c.4-.5.9-.9 1.5-1.1-.3-.4-.6-.7-.8-1.1-.3.6-.9 1.1-1.7 1.2-.4 0-.8.3-.8.8 0 .4.3.8.8.8 1.3-.1 2.4-.8 3-2 .3-.5-.2-1.4-.8-1.1q-1.2.45-2.1 1.5c-.8.7.2 1.8.9 1M303.486 144.325c-1.8-.6-3.7.4-4.3 2.2-.2.5.3 1 .7.9 1.4 0 2.7-.5 3.7-1.5.5-.5.1-1.2-.5-1.3-1-.1-1.9.2-2.6.9s.4 1.7 1.1 1.1c.4-.4.9-.5 1.5-.5-.2-.4-.4-.9-.5-1.3-.7.7-1.6 1.1-2.6 1.1.2.3.5.6.7.9.4-1 1.5-1.4 2.5-1.1.8.4 1.2-1.1.3-1.4M255.486 189.725c21-10 42-19.9 63-29.9.9-.4.1-1.7-.8-1.3-21 10-42 19.9-63 29.9-.9.4-.1 1.7.8 1.3M263.786 204.925c1.7-2.3-1.6-4.4-3.6-3-1.5 1-3.9 4.8-1.2 5.8 2.5.9 6.9-1.5 5.7-4.5-1.5-3.7-4.7.2-5.3 2.1-.1.4.1.8.5.9 1.7.3 4.6-1.3 3-3.1-1.7-2-3.9.4-3.4 2.3.1.2.3.5.5.5 2.1.4 3.3-1.2 3.2-3.2-.1-3-.5-4.9 1.9-7.2 1.9-1.8 4.6-2.6 7-3.3-.3-.2-.6-.3-.9-.5.3 2.4.4 4.8.2 7.2.4-.2.9-.4 1.3-.5-2.4-2-4.3.5-4.9 2.8-.1.4.1.9.5.9 2.2.4 4.1-.7 4.6-3 .1-.5-.2-1-.7-.9-2.2 0-3.6 1.4-3.8 3.6-.1.6.7.9 1.1.6 1.4-.8 2.4-1.7 3.3-3.1.3-.6-.2-1.3-.8-1.1-1.3.4-2.1 1-2.9 2.1-.5.8.8 1.5 1.3.8.7-.5 1.3-1 2-1.4-.3-.4-.6-.7-.8-1.1-.7 1.2-1.5 1.9-2.7 2.6.4.2.8.4 1.1.6.8-.7 1.6-1.4 2.3-2.1-.2-.3-.5-.6-.7-.9-.9.7-1.8 1.3-2.8 2 .2.3.3.6.5.9.1-1.2.9-2 2.4-2.2.5.4 1.2.1 1.3-.5.2-2.6.1-5.1-.2-7.6-.1-.4-.6-.6-.9-.5-3.1 1-6.5 2.1-8.6 4.7-.7.9-1.4 2-1.6 3.2-.2 1.1.3 6.4-1.1 6.1.2.3.3.6.5.9.3-1.9.8-1.9 1.6-.1-.6.3-1.3.5-2 .5-.8.3-1.1 0-.9-1.1.4-1.2 1.4-1.6 3-1-.9.9.4 1.6 1 .8M281.986 193.225c-.9-1.5 1.2-2.5 2.3-2.9.3-.1 1.3-.6 1.6-.3.7.6-.8 1.5-1.2 1.8-.6.4-1.2 1-1.9 1.2-.7.3-.6-.3-.4-.8.5-1.3 2.3-1.8 3.6-1.8l-.8-.8c0 1.2-1.1 2-2.2 1.6.2.3.3.6.5.9.3-.8.9-1.2 1.8-1.1-.2-.3-.5-.6-.7-.9-.1.3-.3.5-.6.4-.9-.2-1.3 1.2-.4 1.4 1.1.3 2.2-.3 2.5-1.4.1-.5-.2-.9-.7-.9-1.5-.1-2.8.8-3.2 2.2-.1.4.2.8.5.9 2 .7 4.2-1 4.1-3.1 0-.4-.3-.8-.8-.8-2.2 0-5.5 1.4-5.2 4.2.1.9.7 1.6 1.6 1.6.8 0 1.4-.6 2-1 .7-.4 1.4-.9 2-1.4.8-.7 1.5-1.8 1-2.9-.6-1-1.8-1.1-2.8-.8-2.2.6-5.4 2.7-3.8 5.4.4.9 1.7.1 1.2-.7M297.686 187.025c.6-.8.7-1.9.4-2.8-.1-.4-.5-.6-.9-.5-2 .5-3.5 2.3-3.5 4.4 0 .3.2.7.6.7 2.2.4 4.4-1.4 4.2-3.7 0-.4-.3-.8-.8-.8-2 .2-3.7 1.5-4.2 3.5-.1.5.2.9.7.9 2.2 0 4.1-1.7 4.3-3.9.1-.5-.5-.8-.9-.7-.6.1-1.3.3-1.9.4-.9.2-.5 1.7.4 1.4.6-.1 1.3-.3 1.9-.4-.3-.2-.6-.5-.9-.7-.2 1.4-1.5 2.4-2.8 2.4.2.3.5.6.7.9.3-1.3 1.4-2.3 2.8-2.4l-.8-.8c.1 1.2-1 2.5-2.3 2.2.2.2.4.5.6.7 0-1.4 1-2.6 2.4-3-.3-.2-.6-.3-.9-.5.2.6.1 1.1-.2 1.7-.8 1 .5 1.8 1.1 1"/><path fill="#161616" d="M297.686 186.025c.2-2.6-.1-7 1.8-9 1.6-1.7 5.7-2.8 7.7-3.9 4.9-2.4 9.7-4.9 14.6-7.3-.4-.2-.8-.4-1.1-.6.1 2 .4 4.4 0 6.4-.6 2.8-.5 1.6-2.5 2.9-.9.6-3.2 1.7-3 3.3.1 1.1.9 1.7 2 1.7 1.8.1 2.3-1.9 2.6-3.3.2-.7-.5-1.1-1.1-.8-1.5.6-1.1.3-2 1.6-.5.7.1 1.5.9 1.2 1.3-.5 1.9-1.1 2.6-2.3.4-.7-.4-1.4-1-1-.7.3-1.3.7-2 1-.9.4-.1 1.7.8 1.3.7-.3 1.3-.7 2-1l-1-1c-.7.6-1.3 1.2-2 1.8l.9 1.2c.6-.4 1.2-.9 1.7-1.3-.4-.3-.7-.6-1.1-.8l2.7-.3c.4 0 .7-.3.8-.8.4-3.2.5-6.4.4-9.7 0-.6-.6-.9-1.1-.6-6.9 3.4-13.7 6.8-20.6 10.3-1.2.6-2.6 1.1-3.3 2.2-1.3 2.2-.7 6.6-.9 8.9-.3.9 1.2.9 1.2-.1"/><path fill="#161616" d="M303.086 174.725c-.4 2.3-.2 4.4.6 6.5.5-.2.9-.4 1.4-.6-.6-1-1.8-1.3-2.8-.7-1.4.7-1.5 2.5-1.4 3.9 0 .4.3.8.8.8q2.25 0 3.3-2.1c.1-.3.2-.7-.1-.9-1.3-1-3.3-.5-3.7 1.2-.1.5.2 1 .7.9 2.1-.1 3.5-1.5 3.8-3.5 0-.4-.4-.8-.8-.8-1.8.1-3.3 1.2-3.6 3.1-.2.9 1.3 1.3 1.4.4.2-1.2 1-1.9 2.2-2l-.8-.8c-.2 1.2-1.1 2-2.3 2 .2.3.5.6.7.9.3-.7.7-.9 1.2-.5 0-.3-.1-.6-.1-.9-.4.8-1.1 1.3-2 1.3l.8.8c0-.4-.1-.9 0-1.4.1-.4.8-2 1.4-1.1.4.7 1.7.3 1.4-.6q-1.05-2.85-.6-5.7c.1-.7-1.3-1.1-1.5-.2M310.386 170.725c.2 2.3.1 4.6-.3 7 .3-.2.6-.3.9-.5-2.4-.9-4.5 1.7-3.5 3.9.1.2.4.4.6.4 1.6-.2 2.8-1.1 3.3-2.7.1-.4-.2-.8-.5-.9-1.3-.5-2.6.3-2.8 1.6-.1.6.3 1 .9.9 1.7-.3 2.7-1.6 2.8-3.2 0-.7-.8-.9-1.3-.5-.7.6-1.4 1.3-2.1 1.9-.7.7.4 1.7 1.1 1.1s1.4-1.3 2.1-1.9c-.4-.2-.9-.4-1.3-.5-.1 1.1-.7 1.7-1.7 1.8l.9.9c.3-.2.7-.4 1-.6-.2-.3-.3-.6-.5-.9q-.3 1.65-.9.6.6-.75 1.5-.3c.4.1.9-.2.9-.5.4-2.4.6-4.9.4-7.4-.1-1.2-1.6-1.2-1.5-.2M266.486 211.725c23.5-12.5 47.3-24.6 71.2-36.4.9-.4.1-1.7-.8-1.3-23.9 11.8-47.6 23.9-71.2 36.4-.8.4 0 1.7.8 1.3"/><path fill="#000" d="M108.986 335.925c.1 7.7.3 15.4.4 23.1 24.3 13.3 51.8 26 82.4 37 7.4 2.6 14.7 5.1 21.9 7.3 29.7-13.4 53.9-24.9 70.3-32.9 150.7-73 215.3-120.4 238-137.7 9-6.8 16.1-12.5 20.3-15.8-2-11.4-4.1-22.7-6.1-34.1-6.3 4.7-17.8 13.2-32.5 23.6-97.2 68.8-184.4 115.3-242.9 143.8-10.9 5.3-28.4 13.7-50.4 23.6-33.7-12.7-67.5-25.3-101.4-37.9M294.286 484.225c1.7 16.4 2.4 32.9 2.3 49.4 0 1.9 3 1.9 3 0 .2-16.5-.6-32.9-2.3-49.4-.2-1.9-3.2-1.9-3 0"/><path fill="#000" d="M296.786 485.225c19.3-15.3 40.5-28.2 62.9-38.5 1.8-.8.2-3.4-1.5-2.6-22.7 10.4-44 23.4-63.5 38.9-1.6 1.3.6 3.4 2.1 2.2"/><path fill="#000" d="M358.086 446.725c3.8 13.6 5.7 27.6 5.6 41.8 0 1.9 3 1.9 3 0 .1-14.4-1.8-28.7-5.7-42.6-.5-1.9-3.4-1.1-2.9.8M111.786 385.025c8.8-3.3 17.6-6.9 26.2-10.8 1.8-.8.2-3.4-1.5-2.6-8.4 3.8-16.8 7.2-25.4 10.5-1.9.7-1.1 3.6.7 2.9"/><path fill="#FFF" d="M6.286 190.425c24.2 11.7 49.9 20 76.4 24.4 1.9.3 2.7-2.6.8-2.9-26.3-4.4-51.7-12.4-75.7-24.1-1.7-.9-3.2 1.7-1.5 2.6"/><path fill="#000" d="M285.586 491.425c1.7 16.4 1.4 32.9-.8 49.3-.3 1.9 2.6 2.7 2.9.8 2.3-16.6 2.7-33.4.9-50.1-.2-1.9-3.2-1.9-3 0M402.986 79.825c28.4-11.4 55.7-25.3 81.5-41.7 1.6-1 .1-3.6-1.5-2.6-25.6 16.3-52.6 30.2-80.8 41.4-1.7.7-1 3.6.8 2.9"/><path fill="#333" d="M221.086 155.425c-5.5 11.8-10.9 25.1-15.5 39.9-11.7 36.9-15.2 70.3-15.5 96.6 6.1-2.5 12.2-5 18.2-7.4 28.4 15.5 56.8 31.1 85.2 46.6.5 11.7.9 23.4 1.4 35.1-27.7 12.8-55.4 25.7-83.1 38.5-8.8 11.5-30.7 43.4-33.1 89.9-2.7 51.7 20.5 88.6 28.4 100-35.4 23-70.7 46-106.1 68.9-1-64.9-1.5-129.8-1.4-194.6.1-86.3 1.3-172.6 3.4-258.8 39.2-18.3 78.7-36.5 118.1-54.7" opacity=".09"/><path fill="#333" d="M108.886 359.425c1.2 12.1 3.1 25.3 6.1 39.2 6.9 31.7 17.4 58.3 27.7 79.1 70.7-29.6 146.6-65.8 225.7-110.2 45.3-25.4 87.7-51.3 127.1-77 .2-7.2.5-14.4.7-21.6-3.6-3.2-7.2-6.3-10.8-9.5-90.8 48.4-181.6 96.9-272.4 145.3z" opacity=".08"/><path fill="#333" d="M147.986 320.425c26.5 13.6 53.1 27.1 79.6 40.7 1.7.9 3.2-1.7 1.5-2.6-26.5-13.6-53.1-27.1-79.6-40.7-1.8-.8-3.3 1.8-1.5 2.6" opacity=".08"/><path fill="#333" d="M146.186 319.725c28 15.8 56.4 30.7 85.2 44.9 1.7.8 3.2-1.7 1.5-2.6-28.8-14.2-57.2-29.1-85.2-44.9-1.7-1-3.2 1.6-1.5 2.6M173.186 305.825c7.5 4.7 15.1 9.4 22.8 14 6.8 4 13.6 8.8 21.5 10.4 1.9.4 2.7-2.5.8-2.9-8.1-1.7-15.4-6.9-22.4-11.1-7.1-4.2-14.2-8.6-21.2-13-1.6-1-3.1 1.6-1.5 2.6" opacity=".08"/><path fill="#333" d="M173.286 304.525c4 5.7 11 9.3 16.8 12.9q10.95 6.75 22.5 12.3c1.7.8 3.3-1.8 1.5-2.6-6.6-3.2-13.1-6.6-19.4-10.4-6.1-3.7-14.7-7.8-18.9-13.7-1-1.6-3.6-.1-2.5 1.5" opacity=".08"/><path fill="#333" d="M171.886 304.925c14 12.2 28.8 24.6 47.5 28.4 1.9.4 2.7-2.5.8-2.9-18.2-3.6-32.6-15.7-46.2-27.6-1.5-1.3-3.6.8-2.1 2.1" opacity=".08"/><path fill="#333" d="M172.886 304.525c14.8 11.3 31 20.6 48.2 27.8 1.8.7 2.6-2.2.8-2.9-17-7.1-32.9-16.3-47.5-27.5-1.5-1.2-3 1.4-1.5 2.6M262.586 261.225c14.9 7.4 27.1 20 43.7 23.6 1.9.4 2.7-2.5.8-2.9-16.3-3.6-28.4-16.1-42.9-23.3-1.8-.9-3.3 1.7-1.6 2.6" opacity=".15"/><path fill="#333" d="M265.586 262.525c7.2 4.2 14.5 8.5 21.7 12.7 6.4 3.8 12.8 8 19.8 10.7 1.8.7 2.6-2.2.8-2.9-7.3-2.7-14-7.4-20.7-11.3l-20.1-11.7c-1.6-1-3.1 1.6-1.5 2.5" opacity=".15"/><path fill="#333" d="M260.186 259.825c13.8 13 28.6 26.2 48.4 27.9 1.9.2 1.9-2.8 0-3-18.9-1.5-33.1-14.6-46.3-27-1.4-1.4-3.6.8-2.1 2.1" opacity=".15"/><path fill="#333" d="M264.286 262.425c11 9.2 22.3 20.8 37.2 22.9 1.9.3 2.6-2.1.8-2.9-11-4.6-21-10.9-30-18.7l-1.8 2.4c10.6 7.1 21.4 14.1 32.9 19.8 1.7.9 3.2-1.7 1.5-2.6-11.5-5.7-22.2-12.6-32.9-19.8-1.4-.9-3.1 1.2-1.8 2.4 9.4 8.2 19.9 14.6 31.3 19.5.3-1 .5-1.9.8-2.9-14.4-2-25.2-13.2-35.9-22.1-1.4-1.3-3.6.8-2.1 2M294.186 242.125c23 18.2 46.8 35.3 71.4 51.2 1.6 1 3.1-1.5 1.5-2.6q-36.6-23.7-70.8-50.7c-1.4-1.2-3.6.9-2.1 2.1M320.186 229.525c18.2 21.2 40.7 38.3 66 50.2 1.7.8 3.3-1.8 1.5-2.6-25.1-11.7-47.4-28.6-65.4-49.7-1.3-1.5-3.4.7-2.1 2.1M341.286 216.425c17 22.4 40.8 38.6 67.8 46.2 1.9.5 2.7-2.4.8-2.9-26.3-7.3-49.6-23.1-66-44.8-1.1-1.5-3.7 0-2.6 1.5M235.286 273.625c23.6 19.6 49.7 35.7 77.8 48 1.8.8 3.3-1.8 1.5-2.6-27.9-12.1-53.8-28.1-77.2-47.5-1.5-1.3-3.6.9-2.1 2.1M233.786 150.125c8.5 29.2 16.7 58.5 24.6 87.8.5 1.9 3.4 1.1 2.9-.8-7.8-29.4-16-58.7-24.6-87.8-.5-1.8-3.4-1-2.9.8" opacity=".15"/><path fill="#333" d="M231.086 149.725c3.9 17.8 8.1 35.6 12.4 53.3 2 8.2 4.1 16.4 6.2 24.7.7 2.7 1.4 13.5 6.3 13.2 4.9-.4 1.7-8.2 1.1-10.3q-3.6-12.75-6.9-25.5c-4.7-17.7-9.1-35.4-13.3-53.2-.4-1.6-3.1-1.3-2.9.4 1.9 30 15.2 57.5 21.4 86.6.4 1.9 3.3 1.1 2.9-.8-5.8-28.6-12.9-56.8-21.4-84.7-.6-1.8-3.5-1.1-2.9.8 8.5 27.9 15.6 56.1 21.4 84.7 1-.3 1.9-.5 2.9-.8-6.1-28.8-19.4-56.1-21.2-85.8-1 .1-2 .3-2.9.4 3.4 14.6 7.1 29.2 10.8 43.8 1.8 7 3.6 13.9 5.5 20.8 1 3.8 2.1 7.6 3.1 11.3.4 1.6.9 3.1 1.3 4.7.3 1 1.2 4.7.1 2.2-1.4-3.1-1.8-7.1-2.7-10.4-.9-3.5-1.8-6.9-2.6-10.4-1.8-7.3-3.6-14.5-5.4-21.8-3.5-14.6-6.9-29.2-10.1-43.8-.6-2-3.5-1.2-3.1.6M411.386 232.925c6.8 10 19.1 9.3 29.8 7.6 1.9-.3 1.1-3.2-.8-2.9-9.1 1.5-20.4 2.5-26.4-6.2-1.1-1.6-3.7-.1-2.6 1.5M498.786 188.125c2.7 5.1 7 8.8 12.3 10.9 1.8.7 2.6-2.2.8-2.9-4.6-1.8-8.2-5.2-10.5-9.5-.9-1.7-3.5-.2-2.6 1.5M434.286 172.425c9.3 7.5 18.5 15.2 28 22.5 9.6 7.4 20 12.9 30.8 18.3 1.7.9 3.2-1.7 1.5-2.6-10.2-5.1-20.2-10.2-29.4-17.2-9.8-7.4-19.2-15.4-28.8-23.1-1.4-1.2-3.6.9-2.1 2.1M292.786 243.025c23.3 18 47.2 35.1 72 51.1 1.6 1 3.1-1.5 1.5-2.6-24.6-15.8-48.3-32.7-71.4-50.6-1.5-1.2-3.6.9-2.1 2.1M207.986 287.625c26.5 17.6 53.9 33.7 82.2 48.2 1.7.9 3.2-1.7 1.5-2.6-28.3-14.5-55.7-30.6-82.2-48.2-1.6-1.1-3.1 1.5-1.5 2.6" opacity=".15"/><path fill="#333" d="M293.486 483.825c.9 17 1.8 34 2.6 51 .1 1.9 3.1 1.9 3 0-.9-17-1.8-34-2.6-51-.1-1.9-3.1-1.9-3 0M355.786 448.625c3.5 13.6 5.4 27.5 5.7 41.6 0 1.9 3 1.9 3 0-.3-14.3-2.3-28.5-5.8-42.4-.5-1.9-3.4-1.1-2.9.8M283.986 491.225c-.1 17.6-.8 35.2-2.3 52.7-.1 1.7 2.5 2 2.9.4 2.7-9.3 3.5-18.9 4.1-28.5.1-1.9-2.9-1.9-3 0-.7 9.3-1.4 18.6-4 27.7 1 .1 2 .3 2.9.4 1.4-17.5 2.2-35.1 2.3-52.7.1-2-2.9-2-2.9 0M107.786 361.725c33.9 16.8 67.7 34.8 104.4 44.7 1.9.5 2.7-2.4.8-2.9-36.4-9.9-70-27.8-103.7-44.4-1.7-.8-3.2 1.8-1.5 2.6M146.186 319.425c29 16.8 58.9 31.8 89.6 44.9 1.8.8 3.3-1.8 1.5-2.6-30.7-13.2-60.7-28.2-89.6-44.9-1.7-.9-3.2 1.7-1.5 2.6" opacity=".29"/><path fill="#000" stroke="#000" d="M4.486 108.125c-1.4 1.1.1 6 1.7 11.2.7 2.1 1.3 3.8 1.7 4.9-1.3 3-1.5 5.5-1.4 7 .2 6 4 10.5 8.7 16.1 1.8 2.2 3.4 3.8 4.5 4.9-2 .5-5.2 1.5-8.4 3.8-2.3 1.6-7.6 5.5-7.3 10.1.2 3.4 3.3 5.7 5.9 7.7 7 5.2 17.9 8.2 28.7 4.9 4.3-1.3 7.7-3.4 10.1-5.2-1.9 4.6-3.6 8.7-4.9 12.2-2.1 5.4-2.7 7.4-1.7 9.4 1.1 2.4 4 3.9 6.6 3.8 4.2-.1 7.2-4.5 8.7-6.6 4.1-5.7 10.3-13.5 20.6-24.1 4.9.2 10.8.1 17.5-1 10.9-1.9 19.4-5.6 25.2-8.7l5.2 5.2c-2.7 1.1-7.3 3.4-11.2 8-1.8 2.1-3 4.2-3.8 5.9 2.4 0 5-.2 7.7-.7 13.1-2.3 22.2-9.9 26.9-14.7 1.6-2.6 3.7-6.5 5.2-11.5.5-1.6 2.8-9.7 1.7-20.3-.4-3.9-1-8.9-3.8-14.7-1.5-3.1-3.2-5.4-4.5-7-1.2-2.3-2.6-5.7-1.7-9.4.6-2.8 2-3.8 5.9-9.1 3.7-5 5.5-7.5 6.6-10.5.8-2.2 2.7-7.3 1-12.6-.9-2.8-3.2-5.1-7.7-9.8-6.8-7-8.6-7.3-9.4-10.5-1.3-4.9 1.6-10.1 2.4-11.5 2.6-4.6 5.9-6.2 5.6-9.8 0-.3-.2-2.8-1.7-3.5-3-1.4-9.2 5.1-12.6 10.5-2.4 3.9-4.4 7-4.2 11.2.3 5.9 4.7 7.2 10.5 16.4 4.1 6.5 8.7 13.9 6.3 19.9-1.3 3.1-4.5 6-9.4 10.5-2.2 2-3.3 2.7-4.5 4.5-2.4 3.6-2.9 7.6-2.8 10.5-2.7.4-6.8 1.1-11.5 2.8-5.5 1.9-8.3 3.8-12.2 5.9-7.1 3.8-18.6 9.9-31.1 8.4-2.9-.4-6.8-1.2-11.2-3.5-1-2.8-2.1-5.6-3.1-8.4 1.2-4.4.9-8.9-1.4-10.5-2.9-2.1-9.9.1-15 7.7-4 0-9.2.5-15 2.1-4.7 1.3-8.5 3-11.5 4.5-1.7-1.3-9.8-8.1-11.9-6.4Z"/><path fill="#000" d="M7.086 121.825c-4.4 14.6 4.2 29.4 18.3 34.6 12.6 4.6 27.2.7 36.1-9.1 1.3-1.4-.8-3.6-2.1-2.1-7.6 8.4-19.5 12.1-30.5 9.2-13.8-3.7-23-17.6-18.8-31.7.4-2-2.4-2.8-3-.9"/><path fill="#000" d="M9.086 121.125c-1.7-4.3-2.6-8.8-2.6-13.4-.8.4-1.5.9-2.3 1.3 4.7 2.3 8.2 5.9 10.6 10.5.9 1.7 3.5.2 2.6-1.5-2.6-5-6.6-9.1-11.7-11.6-1-.5-2.3.1-2.3 1.3 0 4.9.9 9.6 2.7 14.2.8 1.7 3.8 1 3-.8"/><path fill="#000" d="M17.886 118.225c9.1-5.2 19-7.7 29.4-7.6 1.9 0 1.9-3 0-3-11-.2-21.4 2.6-31 8-1.6.9-.1 3.5 1.6 2.6"/><path fill="#000" d="M48.886 109.925c3.1-2.8 6.4-5.3 9.9-7.6-.7-.3-1.5-.6-2.2-.9 1 3.6 1.4 7.3 1.3 11.1 0 1.9 3 1.9 3 0 .1-4-.4-8-1.4-11.9-.2-.9-1.4-1.4-2.2-.9-3.7 2.4-7.2 5.1-10.5 8-1.5 1.4.7 3.5 2.1 2.2"/><path fill="#000" d="M58.386 114.025c5.4 10 10.1 23.9-.4 32.4-1.5 1.2.6 3.3 2.1 2.1 11.6-9.4 6.9-24.9.9-36.1-.9-1.7-3.5-.1-2.6 1.6"/><path fill="#000" d="M62.586 121.525c17.5 11.7 36-3.7 51.8-10.7 10-4.4 23.1-6.2 31 3 8.2 9.5 6.5 23.2 4.9 34.7-.3 1.9 2.6 2.7 2.9.8 1.4-10.4 2.8-21.4-1.7-31.2-3.9-8.6-11.7-13.7-21.1-14-22.4-.6-44.5 29.5-66.4 14.8-1.5-1.1-3 1.5-1.4 2.6M67.886 150.825c-7.5 6.3-13.8 13.7-18.7 22.1-2.5 4.3-4.5 8.8-6.2 13.4-1.3 3.5-3 7.8-1 11.3 7.4 13.5 34-22.8 37.7-28.8 1-1.7-1.6-3.2-2.6-1.5-4 6.6-8.6 12.7-14 18.1-2.5 2.6-5.2 5-8 7.3-.8.7-4.4 4.3-5.7 4.2-1.6-1.7-3.3-3.3-4.9-5 .3-1.1.6-2.2 1-3.2 4.7-14 13.4-26.3 24.7-35.7 1.3-1.4-.8-3.5-2.3-2.2"/><path fill="#000" d="M136.086 128.725c-6.5 5-13.5 10.8-15.5 19.1-1.6 6.3-.1 13.2 5.2 17.3l.3-2.4c-3.6 2-7.1 4.4-10.3 7.1-1.7 1.5-6 4.3-6 6.9-.1 6 11.7 1.1 13.8.3 13.6-5.1 29.5-12.9 29.8-29.6 0-1.9-3-1.9-3 0-.2 12.8-11.5 20.2-22.1 24.6-2.1.9-4.2 1.7-6.3 2.5-1.4.5-2.9 1.1-4.3 1.5-1.3.3-3.8 1.3-3.8.1.1-1.5 4.3-4.3 5.4-5.2 2.6-2.1 5.4-3.9 8.3-5.5.8-.4 1.1-1.8.3-2.4-13.2-10.3 1.6-25.4 10.3-32.2 1.6-1.2-.5-3.3-2.1-2.1"/><path fill="#000" d="M79.686 170.425c14.2.2 28-2.9 40.9-9 1.7-.8.2-3.4-1.5-2.6-12.4 5.9-25.7 8.7-39.4 8.5-1.9.1-1.9 3.1 0 3.1M19.386 150.425c-7.2 2.9-15.9 7.2-15.8 16.2.1 9.4 12.6 12.1 19.8 13.4 7.9 1.5 21.2 1.9 26.7-5.5 5.5-7.6-4.4-11.7-10.4-12.6-1.9-.3-2.7 2.6-.8 2.9s6.8.8 8 2.5c0 2.1.1 4.1.1 6.2-.7.5-1.5 1-2.2 1.5-1.6.9-3.4 1.4-5.1 1.9-6.2 1.6-12.7 1-18.8-.6-5.3-1.3-14.6-3.4-14.2-10.4.4-7.1 8-10.4 13.6-12.7 1.7-.6.9-3.5-.9-2.8M146.586 20.325c-8.5 3.2-16.8 9.8-19.3 18.9-2.9 10.6 5.4 15.2 11.3 22.3 4 4.8 6.9 10.7 6.1 17.1-1 7.7-6.6 9.6-12.2 13.6-4.8 3.5-7.6 11.7-.3 14.1 1.8.6 2.6-2.3.8-2.9-9.4-3.1 5.9-11.3 7.7-12.6 2.6-1.8 4.6-4.2 5.8-7.1 2.4-5.8 1.5-12.2-1.3-17.6-1.6-3.1-3.7-5.8-6-8.4-3.2-3.4-7.9-6.4-9.2-11.1-3-10.6 8.8-20.2 17.4-23.4 1.8-.7 1-3.6-.8-2.9"/><path fill="#000" d="M145.986 21.925c1.9 5.5-3.4 9.2-5.9 13.5-1.6 2.7-2.3 5.8-2 8.9.7 8 7.5 11.7 12.4 17.1 8.6 9.3 2.6 21.1-4.4 29.2-1.9 2.2-4.3 4.4-4.8 7.4-.6 3.9 2.9 7.5 1.5 11.3-.7 1.8 2.2 2.6 2.9.8 1.3-3.6-.9-6-1.3-9.5-.6-5 4.9-8.9 7.6-12.5 4.7-6.5 7.8-15.1 4.6-22.9-3.3-7.9-13.7-11.2-15.3-19.9-1.8-9.6 10.9-14.5 7.7-24.1-.8-1.9-3.7-1.1-3 .7"/><path fill="#FFF" d="M63.386 120.325c1 6.4.1 12.6-2.3 18.5-.4.9 1.1 1.3 1.4.4 2.6-6.2 3.3-12.7 2.3-19.3-.1-1-1.5-.6-1.4.4M44.586 152.425c3.8-1.1 7.2-2.8 10.3-5.1.8-.6 0-1.9-.8-1.3-3 2.3-6.3 4-10 5-.9.2-.5 1.7.5 1.4M15.386 131.625c2.5 6.4 11.8 4.9 11.9-2.1 0-1-1.5-1-1.5 0-.1 5.2-7.1 6.6-9 1.7-.3-.9-1.7-.5-1.4.4M41.486 125.225c1.4 2.4 4.3 3.5 7 2.6 2.9-.9 4.4-3.8 4.5-6.7 0-1-1.5-1-1.5 0-.1 2.1-1.1 4.4-3.3 5.2-2 .8-4.3 0-5.5-1.9-.4-.7-1.7 0-1.2.8M53.286 102.425c-2 1.8-3.4 4-4.2 6.5-.2.7.6 1.1 1.1.8.3-.2.5-.3.8-.4q.9-.45 1.5.6c-.4.9.9 1.6 1.3.8.5-.9.3-1.9-.6-2.6-1.2-.9-2.6-.3-3.8.4.4.3.7.6 1.1.8.7-2.3 2-4.3 3.9-5.9.7-.6-.4-1.7-1.1-1M8.686 112.925c1.6 1.8 3 3.8 4 6 .3-.4.6-.7.8-1.1-2.3-.4-3.8 1.5-2.8 3.6.4.9 1.7.1 1.3-.8.4-.5.8-.9 1.1-1.4.7.1 1.1-.5.8-1.1-1.1-2.3-2.6-4.4-4.3-6.3-.5-.7-1.5.4-.9 1.1M35.686 137.825c.1-.2.1-.4.2-.7-.2.2-.4.5-.6.7-.1 0 .5 1.7.5 1.9.1.6.2 1.3 0 1.9-.3.9-1.3 1.6-2.2 1-.8-.6-1.5.7-.8 1.3 1.6 1.1 3.8-.1 4.4-1.9.4-1.3 0-2.8-.5-4.1-.4-.9-.8-1.8-1.9-1.6-.3.1-.5.4-.6.7 0 1.6 2.6 2.5 2.8.7.2-1.9-2.4-2.2-2.9-.4-.1 1 1.4 1.4 1.6.5"/><path fill="#FFF" d="M35.586 137.725c.7 1.9 2 3.8 4.1 4.3 1.7.4 3.7-.3 4.5-1.9.4-.9-.9-1.6-1.3-.8-.6 1.2-2 1.6-3.2 1.1-1.3-.5-2.1-1.9-2.6-3.1-.4-.9-1.9-.5-1.5.4M16.686 152.825c11.2-.7 21.8-.4 30.7 7.2.7.6 1.8-.4 1.1-1.1-9.3-7.9-20.1-8.3-31.8-7.7-.9.1-.9 1.6 0 1.6M58.886 157.425c-3.7 3.7-6.6 7.9-8.7 12.7-.4.9.9 1.6 1.3.8 2.1-4.6 4.9-8.8 8.5-12.4.6-.7-.4-1.8-1.1-1.1M131.186 128.425c-6.9 6.2-12.8 14.4-9.8 24.1.3.9 1.7.5 1.4-.4-2.8-9.2 2.9-16.8 9.4-22.6.7-.6-.3-1.7-1-1.1M46.786 186.725c9.1 10.3 24.4-14.4 27.2-20.8.4-.9-.9-1.6-1.3-.8-2.1 4.9-4.8 9.4-8.4 13.4-3.2 3.6-11.6 12.7-16.4 7.2-.7-.8-1.8.2-1.1 1M82.586 167.625c10.9.7 21.2-2.5 29.7-9.3.8-.6-.3-1.7-1.1-1.1-8.2 6.5-18.2 9.5-28.7 8.8-.8 0-.8 1.5.1 1.6M121.386 161.625c-2.1.8-9.1 4.7-6.6 7.8 1.2 1.6 4.6 1.1 6.2.9 2.6-.3 5-1.2 7.2-2.6.8-.5.1-1.8-.8-1.3-2.7 1.6-5.7 2.6-8.9 2.5-.5 0-1.7.1-2-.2-1.2-.9.4-2.4 1-3 1.2-1.2 2.7-2.1 4.3-2.7.9-.3.5-1.7-.4-1.4M152.886 133.325c.2 7.3-1.4 14.1-4.9 20.5-.5.8.8 1.6 1.3.8q5.4-9.9 5.1-21.3c0-1-1.5-1-1.5 0M27.286 181.225c5 .9 10.1 1.2 15.2.7 1-.1 1-1.6 0-1.5-5 .5-9.9.3-14.8-.6-.9-.2-1.3 1.2-.4 1.4"/><path fill="#4331F0" d="M395.08 415.264c-1.274-6.064 13-14.008 19.117-17.424 16.228-9.054 31.606-8.968 48.258-8.798 12.575.086 25.32.342 40.782 6.406 8.582 3.417 26.424 10.42 25.744 16.229-1.784 15.46-130.333 20.926-133.9 3.587"/><path fill="#000" stroke="#000" stroke-width="2" d="M394.931 414.696c16.25 4.528 40.458 9.224 69.912 7.883 27-1.258 49.007-7.212 64.157-12.579-.592 10.734-1.1 21.467-1.693 32.117a278.3 278.3 0 0 1-63.395 8.805c-28.27.671-52.138-3.103-69.912-7.212.254-9.643.592-19.37.931-29.014Z"/><path fill="#000" d="M455 444.236v182.56c0 1.605 3 1.605 3 0v-182.56c0-1.606-3-1.69-3 0"/><path fill="#000" d="M455 450.474v177.052c0 3.299 5 3.299 5 0V450.474c0-3.299-5-3.299-5 0"/><path fill="#000" d="M453.393 626.486c-18.499 13.615-36.068 28.329-52.623 44.226-2.366 2.284 1.267 5.835 3.547 3.552 16.218-15.644 33.45-30.104 51.525-43.465 2.703-1.86.169-6.258-2.45-4.313"/><path fill="#000" d="M456.866 630.185c16.75 13.45 32.138 28.433 45.911 44.948 2.126 2.554 5.697-1.107 3.571-3.576-13.773-16.514-29.162-31.497-45.91-44.947-2.467-2.043-6.122 1.532-3.572 3.575"/><path fill="#000" d="M454.637 630.404a317 317 0 0 0-.802 55.16c.268 3.206 5.613 3.29 5.346 0a317 317 0 0 1 .802-55.16c.356-3.205-4.99-3.205-5.346 0"/></g></svg>