<svg xmlns="http://www.w3.org/2000/svg" fill="none" viewBox="0 0 76 77"><circle cx="38" cy="38.804" r="38" fill="#0B0B0B"/><path fill="#fff" d="M39.773 49.04V32.561a8.99 8.99 0 0 1 8.988-8.988 1.498 1.498 0 1 1 0 2.996 6.01 6.01 0 0 0-5.992 5.992v1.497h11.235A2.996 2.996 0 0 1 57 37.055V49.04a2.996 2.996 0 0 1-2.996 2.996H42.769a2.996 2.996 0 0 1-2.996-2.996M21.05 52.034h11.234a2.996 2.996 0 0 0 2.996-2.996V37.055a2.996 2.996 0 0 0-2.996-2.996H21.05v-1.497a6.01 6.01 0 0 1 5.992-5.992 1.498 1.498 0 0 0 0-2.996 8.99 8.99 0 0 0-8.988 8.988v16.477a2.996 2.996 0 0 0 2.996 2.996"/></svg>