<svg width="191" height="190" viewBox="0 0 191 190" fill="none" xmlns="http://www.w3.org/2000/svg">
<circle cx="95.5498" cy="95" r="93.5" fill="#1C92FF" stroke="#0B0B0B" stroke-width="3"/>
<path fill-rule="evenodd" clip-rule="evenodd" d="M93.3084 52.2028C95.0425 51.4493 96.9129 51.0605 98.8035 51.0605C100.694 51.0605 102.565 51.4493 104.299 52.2028C106.001 52.9426 107.537 54.0184 108.813 55.3654L141.385 83.9893C141.748 84.3082 141.968 84.7296 142.039 85.1721C142.056 85.2778 142.065 85.3848 142.065 85.4919L142.065 85.5021V129.701C142.065 131.795 141.233 133.803 139.753 135.283C138.272 136.764 136.264 137.595 134.171 137.595H63.4365C61.3427 137.595 59.3347 136.764 57.8542 135.283C56.3737 133.803 55.542 131.795 55.542 129.701V85.5026L93.3084 52.2028Z" fill="#0B0B0B"/>
<path d="M133.954 81.5638L95.6644 47.8997C94.9224 47.2473 93.8153 47.2345 93.0584 47.8694L52.8926 81.5638L95.1246 111.787L133.954 81.5638Z" fill="white"/>
<path d="M135.066 81.6244L102.422 52.9378C101.319 51.7562 99.9846 50.8141 98.5021 50.1699C97.0196 49.5258 95.4204 49.1934 93.804 49.1934C92.1876 49.1934 90.5885 49.5258 89.106 50.1699C87.6235 50.8141 86.2892 51.7562 85.1862 52.9378L52.5425 81.6244" stroke="#0B0B0B" stroke-width="3" stroke-linecap="round" stroke-linejoin="round"/>
<path d="M64.9547 60.0313C64.9547 57.8221 66.7456 56.0312 68.9547 56.0312H117.507C119.716 56.0312 121.507 57.8221 121.507 60.0313V117.129H64.9547V60.0313Z" fill="white" stroke="#0B0B0B" stroke-width="3" stroke-linecap="round" stroke-linejoin="round"/>
<line x1="85.0688" y1="69.2695" x2="99.3036" y2="69.2695" stroke="#0B0B0B" stroke-width="3" stroke-linecap="round"/>
<line x1="85.0688" y1="82.9268" x2="113.918" y2="82.9268" stroke="#0B0B0B" stroke-width="3" stroke-linecap="round"/>
<line x1="85.0688" y1="95.2295" x2="104.893" y2="95.2295" stroke="#0B0B0B" stroke-width="3" stroke-linecap="round"/>
<circle cx="76.376" cy="69.4126" r="3.69287" fill="#FF4A60" stroke="#0B0B0B" stroke-width="3"/>
<circle cx="76.376" cy="83.0708" r="3.69287" fill="#5C42FB" stroke="#0B0B0B" stroke-width="3"/>
<circle cx="76.376" cy="95.3735" r="3.69287" fill="#81E644" stroke="#0B0B0B" stroke-width="3"/>
<path d="M135.135 128.111V83.0703L93.9727 111.843L52.0482 83.0703V128.111C52.0482 130.873 54.2868 133.111 57.0482 133.111H130.135C132.896 133.111 135.135 130.873 135.135 128.111Z" fill="#FFC431"/>
<path d="M135.066 81.624V125.833C135.066 127.396 134.445 128.895 133.339 130.001C132.234 131.106 130.734 131.727 129.171 131.727H58.437C56.8737 131.727 55.3744 131.106 54.2689 130.001C53.1635 128.895 52.5425 127.396 52.5425 125.833V81.624L86.5223 108.578C88.5991 110.209 91.1633 111.095 93.804 111.095C96.4447 111.095 99.0089 110.209 101.086 108.578L135.066 81.624Z" stroke="#0B0B0B" stroke-width="3" stroke-linecap="round" stroke-linejoin="round"/>
<path d="M108.769 102.483L120.33 114.044" stroke="#0B0B0B" stroke-width="3" stroke-linecap="round" stroke-linejoin="round"/>
<path d="M78.8399 102.483L67.2788 114.044" stroke="#0B0B0B" stroke-width="3" stroke-linecap="round" stroke-linejoin="round"/>
</svg>
