<svg width="92" height="92" viewBox="0 0 92 92" fill="none" xmlns="http://www.w3.org/2000/svg">
<path fill-rule="evenodd" clip-rule="evenodd" d="M43.1539 5.8146C44.8879 5.06116 46.7584 4.67236 48.649 4.67236C50.5396 4.67236 52.41 5.06116 54.1441 5.8146C55.8467 6.55438 57.382 7.63019 58.6583 8.97721L91.2307 37.6011C91.5937 37.9201 91.8135 38.3414 91.8849 38.7839C91.9019 38.8897 91.9105 38.9966 91.9105 39.1037L91.9105 39.1139V83.3126C91.9105 85.4063 91.0788 87.4143 89.5983 88.8948C88.1178 90.3753 86.1098 91.2071 84.016 91.2071H13.282C11.1882 91.2071 9.1802 90.3753 7.6997 88.8948C6.21919 87.4143 5.38745 85.4063 5.38745 83.3126V39.1144L43.1539 5.8146Z" fill="#0B0B0B"/>
<path d="M83.7996 35.1756L45.5098 1.51148C44.7679 0.859158 43.6608 0.846317 42.9039 1.48126L2.73804 35.1756L44.9701 65.3986L83.7996 35.1756Z" fill="white"/>
<path d="M84.911 35.236L52.2672 6.54939C51.1642 5.36779 49.83 4.42565 48.3475 3.78149C46.865 3.13734 45.2659 2.80493 43.6495 2.80493C42.0331 2.80493 40.4339 3.13734 38.9514 3.78149C37.4689 4.42565 36.1347 5.36779 35.0317 6.54939L2.38794 35.236" stroke="#0B0B0B" stroke-width="4" stroke-linecap="round" stroke-linejoin="round"/>
<path d="M14.8 13.6431C14.8 11.4339 16.5909 9.64307 18.8 9.64307H67.3525C69.5617 9.64307 71.3525 11.4339 71.3525 13.6431V70.7409H14.8V13.6431Z" fill="white" stroke="#0B0B0B" stroke-width="4" stroke-linecap="round" stroke-linejoin="round"/>
<line x1="34.9143" y1="22.8811" x2="49.149" y2="22.8811" stroke="#0B0B0B" stroke-width="3" stroke-linecap="round"/>
<line x1="34.9143" y1="36.5391" x2="63.763" y2="36.5391" stroke="#0B0B0B" stroke-width="3" stroke-linecap="round"/>
<line x1="34.9143" y1="48.8418" x2="54.738" y2="48.8418" stroke="#0B0B0B" stroke-width="3" stroke-linecap="round"/>
<circle cx="26.2214" cy="23.0242" r="3.69287" fill="#FF4A60" stroke="#0B0B0B" stroke-width="3"/>
<circle cx="26.2214" cy="36.6821" r="3.69287" fill="#5C42FB" stroke="#0B0B0B" stroke-width="3"/>
<circle cx="26.2214" cy="48.9849" r="3.69287" fill="#FFC224" stroke="#0B0B0B" stroke-width="3"/>
<path d="M84.9802 81.7233V36.6821L43.8181 65.4544L1.89355 36.6821V81.7233C1.89355 84.4847 4.13213 86.7233 6.89355 86.7233H79.9802C82.7417 86.7233 84.9802 84.4847 84.9802 81.7233Z" fill="white"/>
<path d="M84.911 35.2363V79.4451C84.911 81.0084 84.29 82.5077 83.1845 83.6132C82.0791 84.7186 80.5798 85.3396 79.0165 85.3396H8.28244C6.71912 85.3396 5.21983 84.7186 4.1144 83.6132C3.00897 82.5077 2.38794 81.0084 2.38794 79.4451V35.2363L36.3678 62.1899C38.4445 63.821 41.0088 64.7076 43.6495 64.7076C46.2902 64.7076 48.8544 63.821 50.9311 62.1899L84.911 35.2363Z" stroke="#0B0B0B" stroke-width="4" stroke-linecap="round" stroke-linejoin="round"/>
<path d="M58.614 56.0952L70.1751 67.6563" stroke="#0B0B0B" stroke-width="4" stroke-linecap="round" stroke-linejoin="round"/>
<path d="M28.6854 56.0952L17.1243 67.6563" stroke="#0B0B0B" stroke-width="4" stroke-linecap="round" stroke-linejoin="round"/>
</svg>
