<svg xmlns="http://www.w3.org/2000/svg" fill="none" viewBox="0 0 191 190"><circle cx="95.55" cy="95" r="93.5" fill="#53abf8" stroke="#0B0B0B" stroke-width="3"/><path fill="#0B0B0B" fill-rule="evenodd" d="M93.308 52.203a13.79 13.79 0 0 1 15.505 3.162l32.572 28.624a2 2 0 0 1 .68 1.503V129.7a7.894 7.894 0 0 1-7.894 7.894H63.437a7.89 7.89 0 0 1-7.895-7.894V85.503z" clip-rule="evenodd"/><path fill="#fff" d="M133.954 81.564 95.664 47.9a2 2 0 0 0-2.606-.03L52.893 81.563l42.232 30.223z"/><path stroke="#0B0B0B" stroke-linecap="round" stroke-linejoin="round" stroke-width="3" d="m135.066 81.624-32.644-28.686a11.79 11.79 0 0 0-17.236 0L52.542 81.624"/><path fill="#fff" stroke="#0B0B0B" stroke-linecap="round" stroke-linejoin="round" stroke-width="3" d="M64.955 60.031a4 4 0 0 1 4-4h48.552a4 4 0 0 1 4 4v57.098H64.955z"/><path stroke="#0B0B0B" stroke-linecap="round" stroke-width="3" d="M85.069 69.269h14.235M85.069 82.927h28.849M85.069 95.23h19.824"/><circle cx="76.376" cy="69.413" r="3.693" fill="#FF4A60" stroke="#0B0B0B" stroke-width="3"/><circle cx="76.376" cy="83.071" r="3.693" fill="#5C42FB" stroke="#0B0B0B" stroke-width="3"/><circle cx="76.376" cy="95.374" r="3.693" fill="#81E644" stroke="#0B0B0B" stroke-width="3"/><path fill="#FFC431" d="M135.135 128.111v-45.04l-41.162 28.772L52.048 83.07v45.041a5 5 0 0 0 5 5h73.087a5 5 0 0 0 5-5"/><path stroke="#0B0B0B" stroke-linecap="round" stroke-linejoin="round" stroke-width="3" d="M135.066 81.624v44.209a5.894 5.894 0 0 1-5.895 5.894H58.437a5.896 5.896 0 0 1-5.895-5.894V81.624l33.98 26.954a11.79 11.79 0 0 0 14.564 0zM108.769 102.483l11.561 11.561M78.84 102.483l-11.561 11.561"/></svg>