<svg xmlns="http://www.w3.org/2000/svg"  viewBox="0 0 48 48" width="48px" height="48px"><path fill="#f48fb1" d="M16,44h-5.1C9.3,44,8,42.7,8,41.1V14.9c0-1.6,1.3-2.9,2.9-2.9H16c0.6,0,1,0.4,1,1v30C17,43.6,16.6,44,16,44z"/><path fill="#f48fb1" d="M44.2,44H38c-0.6,0-1-0.4-1-1V13c0-0.6,0.4-1,1-1h6.2c2.1,0,3.8,1.8,3.8,3.9v24.1C48,42.2,46.3,44,44.2,44z"/><path fill="none" stroke="#18193f" stroke-linecap="round" stroke-linejoin="round" stroke-miterlimit="10" stroke-width="3" d="M3.5,15.5v-5.1c0-1.7,1.3-3,3-3h5c0.6,0,1,0.4,1,1v31.1c0,0.6-0.4,1-1,1h-5c-1.7,0-3-1.3-3-3V22.5"/><path fill="none" stroke="#18193f" stroke-linecap="round" stroke-linejoin="round" stroke-miterlimit="10" stroke-width="3" d="M44.5,33.5v3.1c0,2.2-1.8,4-4,4h-7c-0.6,0-1-0.4-1-1V8.4c0-0.6,0.4-1,1-1h7c2.2,0,4,1.8,4,4v14"/><line x1="17.5" x2="17.5" y1="6.5" y2="41.5" fill="none" stroke="#18193f" stroke-linecap="round" stroke-linejoin="round" stroke-miterlimit="10" stroke-width="3"/><line x1="22.5" x2="22.5" y1="6.5" y2="41.5" fill="none" stroke="#18193f" stroke-linecap="round" stroke-linejoin="round" stroke-miterlimit="10" stroke-width="3"/><line x1="27.5" x2="27.5" y1="6.5" y2="41.5" fill="none" stroke="#18193f" stroke-linecap="round" stroke-linejoin="round" stroke-miterlimit="10" stroke-width="3"/><line x1="9.5" x2="12.5" y1="13.5" y2="13.5" fill="none" stroke="#18193f" stroke-linecap="round" stroke-linejoin="round" stroke-miterlimit="10" stroke-width="3"/><line x1="9.5" x2="12.5" y1="19.5" y2="19.5" fill="none" stroke="#18193f" stroke-linecap="round" stroke-linejoin="round" stroke-miterlimit="10" stroke-width="3"/><line x1="9.5" x2="12.5" y1="34.5" y2="34.5" fill="none" stroke="#18193f" stroke-linecap="round" stroke-linejoin="round" stroke-miterlimit="10" stroke-width="3"/><line x1="9.5" x2="12.5" y1="28.5" y2="28.5" fill="none" stroke="#18193f" stroke-linecap="round" stroke-linejoin="round" stroke-miterlimit="10" stroke-width="3"/><circle cx="37.5" cy="14.5" r="1.5" fill="#18193f"/><circle cx="37.5" cy="20.5" r="1.5" fill="#18193f"/><circle cx="37.5" cy="27.5" r="1.5" fill="#18193f"/><circle cx="37.5" cy="33.5" r="1.5" fill="#18193f"/></svg>