<svg xmlns="http://www.w3.org/2000/svg"  viewBox="0 0 48 48" width="48px" height="48px"><path fill="#9fa8da" d="M28,35.5L28,35.5c-3.9,0-7-3.1-7-7V15.5c0-3.9,3.1-7,7-7l0,0c3.9,0,7,3.1,7,7v13.1C35,32.4,31.9,35.5,28,35.5z"/><line x1="24" x2="24" y1="38.5" y2="44.5" fill="none" stroke="#18193f" stroke-linecap="round" stroke-linejoin="round" stroke-width="3"/><path fill="none" stroke="#18193f" stroke-linecap="round" stroke-linejoin="round" stroke-width="3" d="M22.3,32.3c-3.3-0.8-5.8-3.8-5.8-7.3V11c0-4.1,3.4-7.5,7.5-7.5l0,0c4.1,0,7.5,3.4,7.5,7.5v10.9"/><path fill="none" stroke="#18193f" stroke-linecap="round" stroke-linejoin="round" stroke-width="3" d="M24,38.5c-7.5,0-13.5-6-13.5-13.5c0-2.5,0-4.5,0-4.5"/><line x1="18" x2="28" y1="45" y2="45" fill="none" stroke="#18193f" stroke-linecap="round" stroke-linejoin="round" stroke-width="3"/><path fill="none" stroke="#18193f" stroke-linecap="round" stroke-linejoin="round" stroke-width="3" d="M28.4,40.6c-3.1-4.2-2.2-10.2,2-13.3c4.2-3.1,10.2-2.2,13.3,2"/><path fill="none" stroke="#18193f" stroke-linecap="round" stroke-linejoin="round" stroke-width="3" d="M45.5,36.3c-0.3,2.5-1.7,4.7-3.8,6.3c-2.1,1.6-4.7,2.1-7.1,1.7"/><line x1="36" x2="36" y1="31.7" y2="38.3" fill="none" stroke="#18193f" stroke-linecap="round" stroke-linejoin="round" stroke-width="3"/><line x1="39.3" x2="32.7" y1="35" y2="35" fill="none" stroke="#18193f" stroke-linecap="round" stroke-linejoin="round" stroke-width="3"/></svg>