<svg xmlns="http://www.w3.org/2000/svg"  viewBox="0 0 48 48" width="48px" height="48px"><path fill="#f48fb1" d="M41,7.5c0-0.5-0.2-0.9-0.6-1.2C40.1,6,39.6,5.9,39.2,6l-18.8,4.3c-2,0.4-3.4,2.2-3.4,4.2v16.3	c-0.7-0.3-1.5-0.4-2.3-0.4c-2.9,0-5.2,1.9-5.2,4.2s2.3,4.2,5.2,4.2c2.7,0,4.9-1.6,5.2-3.8c0.1-0.2,0.1-0.4,0.1-0.6V20.1L38,16v9.9	c-0.7-0.3-1.4-0.4-2.3-0.4c-2.9,0-5.2,1.9-5.2,4.2s2.3,4.2,5.2,4.2c2.7,0,4.9-1.6,5.2-3.7C41,30,41,29.8,41,29.7V7.5z"/><path fill="none" stroke="#18193f" stroke-linecap="round" stroke-linejoin="round" stroke-miterlimit="10" stroke-width="3" d="M25,25.7c0-2.3,2.3-4.2,5.2-4.2c2.6,0,4.8,1.5,5.2,3.6"/><path fill="none" stroke="#18193f" stroke-linecap="round" stroke-linejoin="round" stroke-miterlimit="10" stroke-width="3" d="M35.5,24.9V6c0-1.3-1.2-2.2-2.4-1.9L16.7,7.8c-1.3,0.3-2.2,1.4-2.2,2.8v5.4l14.3-3.3"/><line x1="14.5" x2="14.5" y1="11.1" y2="30.5" fill="none" stroke="#18193f" stroke-linecap="round" stroke-linejoin="round" stroke-miterlimit="10" stroke-width="3"/><path fill="none" stroke="#18193f" stroke-linecap="round" stroke-linejoin="round" stroke-width="3" d="M36.1,44.5c-2.5,0.1-4.9-1-6.8-2.9c-3.7-3.7-3.6-9.8,0.1-13.4c3.7-3.7,9.8-3.6,13.4,0.1	c3.7,3.7,3.6,9.8-0.1,13.4"/><line x1="36" x2="36" y1="31.7" y2="38.3" fill="none" stroke="#18193f" stroke-linecap="round" stroke-linejoin="round" stroke-width="3"/><line x1="39.3" x2="32.7" y1="35" y2="35" fill="none" stroke="#18193f" stroke-linecap="round" stroke-linejoin="round" stroke-width="3"/><ellipse cx="9.2" cy="30.7" fill="none" stroke="#18193f" stroke-linecap="round" stroke-linejoin="round" stroke-miterlimit="10" stroke-width="3" rx="5.2" ry="4.2"/></svg>