<svg xmlns="http://www.w3.org/2000/svg"  viewBox="0 0 48 48" width="48px" height="48px"><path fill="#a5d6a7" d="M45.618,37.965C46.539,37.331,47,36.38,47,35.43V13.671c0-1.69-2.188-2.746-3.685-1.69l-7.715,5.07	c-0.806,0.528-1.958,0.528-2.764,0l-9.903-6.655c-0.806-0.528-1.958-0.528-2.764,0l-9.788,6.655C9.576,17.684,9,18.635,9,19.586	v21.654c0,1.69,2.188,2.746,3.685,1.69l7.6-5.07c0.806-0.528,1.958-0.528,2.764,0l9.212,6.232c1.267,0.845,2.879,0.845,4.03,0	L45.618,37.965z"/><line x1="33" x2="37" y1="26" y2="30" fill="none" stroke="#18193f" stroke-linecap="round" stroke-linejoin="round" stroke-width="3"/><line x1="37" x2="33" y1="26" y2="30" fill="none" stroke="#18193f" stroke-linecap="round" stroke-linejoin="round" stroke-width="3"/><circle cx="28" cy="28" r="1" fill="#18193f"/><circle cx="24" cy="27" r="1" fill="#18193f"/><circle cx="21" cy="25" r="1" fill="#18193f"/><circle cx="19" cy="22" r="1" fill="#18193f"/><circle cx="16" cy="20" r="1" fill="#18193f"/><circle cx="12" cy="20" r="1" fill="#18193f"/><circle cx="10" cy="23" r="1" fill="#18193f"/><circle cx="9" cy="27" r="1" fill="#18193f"/><path fill="none" stroke="#18193f" stroke-linecap="round" stroke-linejoin="round" stroke-miterlimit="10" stroke-width="3" d="M20.624,7.532l-1.691-1.136c-0.806-0.528-1.958-0.528-2.764,0l-9.788,6.655C5.576,13.684,5,14.635,5,15.586v21.654	c0,1.69,2.188,2.746,3.685,1.69l1.099-0.733"/><path fill="none" stroke="#18193f" stroke-linecap="round" stroke-linejoin="round" stroke-miterlimit="10" stroke-width="3" d="M13.809,35.511l2.476-1.652c0.806-0.528,1.958-0.528,2.764,0l9.212,6.232c1.267,0.845,2.879,0.845,4.03,0l9.327-6.126	C42.539,33.331,43,32.38,43,31.43V9.671c0-1.69-2.188-2.746-3.685-1.69l-7.715,5.07c-0.806,0.528-1.958,0.528-2.764,0l-3.363-2.26"/></svg>