<svg xmlns="http://www.w3.org/2000/svg"  viewBox="0 0 48 48" width="48px" height="48px"><path fill="#9fa8da" d="M40.141,44H15.859C13.728,44,12,42.272,12,40.141V15.859C12,13.728,13.728,12,15.859,12h24.283	C42.272,12,44,13.728,44,15.859v24.283C44,42.272,42.272,44,40.141,44z"/><path fill="#18193f" d="M27.348,16.209c0.128-0.077,0.261-0.159,0.4-0.231c0.359-0.184,0.758-0.277,1.164-0.257	c0.292,0.016,0.559,0.097,0.764,0.312c0.195,0.2,0.267,0.446,0.287,0.712c0.005,0.057,0.005,0.113,0.005,0.174v2.655	c0,0.231-0.031,0.261-0.261,0.261h-0.625c-0.041,0-0.082,0-0.123-0.005c-0.061-0.005-0.113-0.057-0.123-0.118	c-0.011-0.057-0.011-0.112-0.011-0.169v-2.374c0.005-0.097-0.005-0.189-0.031-0.282c-0.041-0.159-0.184-0.272-0.348-0.282	c-0.302-0.02-0.605,0.041-0.882,0.169c-0.041,0.011-0.067,0.052-0.061,0.093v2.697c0,0.052,0,0.098-0.011,0.148	c0,0.072-0.057,0.123-0.128,0.123l0,0c-0.077,0.005-0.153,0.005-0.236,0.005h-0.543c-0.189,0-0.231-0.047-0.231-0.236v-2.425	c0-0.087-0.005-0.18-0.025-0.267c-0.036-0.174-0.184-0.298-0.359-0.308c-0.307-0.02-0.62,0.041-0.897,0.174	c-0.041,0.011-0.067,0.057-0.057,0.097v2.733c0,0.189-0.041,0.231-0.231,0.231h-0.688c-0.18,0-0.225-0.052-0.225-0.225v-3.558	c0-0.041,0.005-0.082,0.016-0.123c0.02-0.061,0.082-0.097,0.143-0.097h0.641c0.092,0,0.148,0.057,0.18,0.143	c0.025,0.072,0.041,0.139,0.067,0.216c0.052,0,0.082-0.036,0.118-0.057c0.282-0.174,0.579-0.323,0.912-0.384	c0.257-0.052,0.513-0.052,0.769,0c0.241,0.052,0.457,0.195,0.595,0.4c0.011,0.016,0.02,0.025,0.031,0.036	C27.338,16.198,27.343,16.198,27.348,16.209z M19.772,16.404c0.036-0.011,0.067-0.031,0.087-0.061	c0.093-0.093,0.189-0.18,0.292-0.261c0.267-0.205,0.6-0.307,0.933-0.282c0.133,0.005,0.18,0.047,0.189,0.174	c0.011,0.174,0.005,0.353,0.005,0.528c0.005,0.072,0,0.139-0.011,0.21c-0.02,0.093-0.057,0.128-0.148,0.139	c-0.072,0.005-0.139,0-0.21-0.005c-0.343-0.031-0.677,0.036-1,0.143c-0.072,0.025-0.072,0.077-0.072,0.133v2.459	c0,0.047,0,0.087-0.005,0.133c-0.005,0.067-0.057,0.118-0.123,0.118c-0.036,0.005-0.077,0.005-0.112,0.005H18.93	c-0.036,0-0.077,0-0.113-0.005c-0.067-0.005-0.118-0.061-0.123-0.128c-0.005-0.041-0.005-0.082-0.005-0.123v-3.487	c0-0.236,0.025-0.261,0.261-0.261h0.492c0.133,0,0.195,0.047,0.231,0.174C19.71,16.137,19.741,16.266,19.772,16.404z M21.771,17.829	v-1.82c0.005-0.123,0.052-0.169,0.174-0.174c0.267-0.005,0.533-0.005,0.8,0c0.118,0,0.153,0.036,0.164,0.153	c0.005,0.047,0.005,0.087,0.005,0.133v3.414c0,0.057-0.005,0.112-0.011,0.169c-0.005,0.067-0.057,0.113-0.123,0.118	c-0.031,0.005-0.057,0.005-0.087,0.005H21.98c-0.025,0-0.047,0-0.072-0.005c-0.072-0.005-0.133-0.061-0.139-0.133	c-0.005-0.041-0.005-0.082-0.005-0.123C21.771,18.997,21.771,18.413,21.771,17.829z M22.366,13.999	c0.082-0.005,0.164,0.011,0.241,0.036c0.277,0.092,0.42,0.333,0.395,0.646c-0.02,0.267-0.22,0.482-0.487,0.523	c-0.113,0.02-0.231,0.02-0.343,0c-0.292-0.057-0.507-0.272-0.487-0.641C21.714,14.199,21.955,13.999,22.366,13.999z M17.931,17.409	c-0.02-0.267-0.092-0.528-0.2-0.769c-0.21-0.441-0.533-0.764-1.025-0.877c-0.564-0.123-1.072,0-1.533,0.343	c-0.031,0.031-0.067,0.057-0.108,0.077c-0.011-0.005-0.02-0.011-0.02-0.016c-0.016-0.052-0.025-0.103-0.041-0.153	c-0.041-0.128-0.092-0.174-0.231-0.174c-0.153,0-0.312,0.005-0.467,0c-0.118-0.005-0.225,0.011-0.308,0.102	c0,1.794,0,3.594,0.005,5.382c0.067,0.108,0.169,0.128,0.287,0.123c0.184-0.005,0.369,0,0.553,0c0.323,0,0.323,0,0.323-0.318V19.67	c0-0.036-0.016-0.077,0.02-0.107c0.257,0.2,0.569,0.323,0.892,0.353c0.452,0.047,0.861-0.067,1.205-0.374	c0.252-0.231,0.436-0.528,0.533-0.857C17.958,18.265,17.967,17.839,17.931,17.409z M16.706,18.47	c-0.036,0.159-0.118,0.302-0.236,0.41c-0.133,0.112-0.298,0.18-0.472,0.18c-0.261,0.016-0.517-0.041-0.748-0.164	c-0.057-0.025-0.092-0.082-0.087-0.143v-0.928c0-0.307,0.005-0.616,0-0.923c-0.005-0.072,0.036-0.133,0.102-0.159	c0.282-0.133,0.574-0.195,0.882-0.133c0.216,0.031,0.4,0.169,0.487,0.369c0.077,0.164,0.123,0.343,0.133,0.523	C16.798,17.829,16.798,18.158,16.706,18.47z M31.84,18.163c0.384,0.072,0.779,0.077,1.164,0.016	c0.225-0.031,0.441-0.097,0.641-0.205c0.231-0.133,0.4-0.318,0.472-0.574c0.18-0.646-0.097-1.297-0.769-1.537	c-0.328-0.107-0.677-0.143-1.02-0.097c-0.81,0.093-1.337,0.538-1.578,1.313c-0.169,0.528-0.148,1.066-0.011,1.599	c0.18,0.682,0.631,1.087,1.312,1.23c0.389,0.087,0.784,0.072,1.174,0.011c0.205-0.036,0.41-0.088,0.605-0.164	c0.117-0.047,0.18-0.118,0.174-0.252c-0.005-0.123,0-0.252,0-0.379c0-0.153-0.061-0.2-0.21-0.164	c-0.149,0.036-0.292,0.067-0.441,0.097c-0.318,0.067-0.646,0.067-0.964,0.011c-0.436-0.087-0.718-0.461-0.693-0.923	C31.743,18.147,31.793,18.152,31.84,18.163z M31.712,17.378c0.016-0.123,0.052-0.241,0.097-0.353	c0.153-0.374,0.477-0.503,0.805-0.482c0.093,0.005,0.184,0.025,0.272,0.061c0.133,0.057,0.22,0.18,0.236,0.323	c0.016,0.087,0.011,0.18-0.016,0.267c-0.061,0.184-0.21,0.261-0.389,0.298c-0.107,0.025-0.22,0.036-0.333,0.025	c-0.2,0-0.405-0.016-0.605-0.047C31.701,17.46,31.701,17.46,31.712,17.378z"/><path fill="#18193f" d="M15.935,26.639c0.033-0.11,0.066-0.215,0.099-0.324c0.253-0.853,0.506-1.699,0.758-2.552l0.032-0.099	c0.028-0.099,0.121-0.16,0.22-0.16h0.837c0.209,0,0.252,0.061,0.182,0.259l-0.33,0.874c-0.368,0.957-0.738,1.92-1.106,2.877	c-0.011,0.032-0.028,0.066-0.039,0.099c-0.039,0.116-0.153,0.193-0.275,0.182c-0.242-0.005-0.484-0.005-0.726,0	c-0.171,0.005-0.269-0.072-0.33-0.225c-0.137-0.363-0.281-0.732-0.418-1.094c-0.33-0.864-0.666-1.727-0.996-2.597	c-0.033-0.066-0.055-0.143-0.072-0.215c-0.017-0.11,0.022-0.165,0.132-0.165c0.313-0.005,0.628,0,0.935,0	c0.132,0,0.193,0.088,0.225,0.203c0.061,0.209,0.121,0.424,0.188,0.633c0.225,0.765,0.445,1.535,0.672,2.299	C15.918,26.639,15.924,26.639,15.935,26.639z M19.83,25.649v1.98c-0.011,0.11-0.061,0.16-0.171,0.165	c-0.297,0.005-0.588,0.005-0.886,0c-0.11,0-0.16-0.055-0.171-0.16c-0.005-0.032-0.005-0.072-0.005-0.104v-3.807	c0.005-0.171,0.049-0.22,0.22-0.22h0.792c0.171,0,0.22,0.049,0.22,0.22L19.83,25.649L19.83,25.649z M19.219,21.528	c0.11-0.011,0.22,0.011,0.324,0.055c0.215,0.083,0.363,0.281,0.374,0.512c0.044,0.501-0.292,0.753-0.737,0.743	c-0.061,0-0.121-0.011-0.182-0.022c-0.341-0.083-0.517-0.347-0.484-0.726c0.028-0.303,0.264-0.528,0.588-0.556	C19.142,21.528,19.181,21.523,19.219,21.528z M34.225,25.33c0.005-0.062-0.017-0.192-0.017-0.197	c-0.011-0.104-0.033-0.209-0.061-0.308c-0.203-0.726-0.66-1.205-1.403-1.392c-0.347-0.083-0.698-0.093-1.051-0.039	c-0.742,0.11-1.277,0.506-1.535,1.21c-0.253,0.672-0.248,1.408,0.005,2.079c0.22,0.61,0.66,0.996,1.293,1.155	c0.336,0.083,0.687,0.104,1.034,0.055c1.155-0.138,1.634-1.013,1.711-1.771c0,0,0.028-0.228,0.028-0.332L34.225,25.33z M32.905,26.353c-0.033,0.116-0.082,0.22-0.153,0.319c-0.121,0.171-0.313,0.281-0.522,0.297c-0.104,0.011-0.209,0.011-0.313-0.011	c-0.232-0.044-0.424-0.198-0.517-0.413c-0.083-0.171-0.132-0.358-0.148-0.545c-0.028-0.324-0.033-0.649,0.044-0.968	c0.028-0.127,0.083-0.252,0.148-0.363c0.121-0.197,0.33-0.324,0.561-0.341c0.104-0.011,0.209-0.011,0.313,0.011	c0.22,0.044,0.402,0.188,0.501,0.39c0.093,0.193,0.148,0.407,0.16,0.622c0.005,0.099,0.011,0.198,0.005,0.297	C32.998,25.891,32.971,26.127,32.905,26.353z M24.583,21.567h-0.765c-0.209,0-0.248,0.039-0.248,0.248v1.782	c0,0.039,0.017,0.077-0.011,0.116c-0.049-0.005-0.077-0.039-0.116-0.061c-0.573-0.336-1.172-0.396-1.778-0.116	c-0.424,0.198-0.688,0.556-0.858,0.979c-0.165,0.407-0.203,0.837-0.193,1.271c0,0.407,0.093,0.808,0.275,1.172	c0.209,0.402,0.512,0.709,0.952,0.842c0.6,0.188,1.161,0.093,1.672-0.286c0.039-0.022,0.061-0.061,0.11-0.072	c0.028,0.061,0.049,0.127,0.061,0.193c0.022,0.088,0.099,0.148,0.193,0.148h0.132c0.198,0,0.39,0.005,0.583,0	c0.153,0,0.198-0.049,0.203-0.209v-5.797C24.791,21.606,24.747,21.567,24.583,21.567z M23.576,25.616v1.001	c0.011,0.066-0.028,0.127-0.088,0.153c-0.264,0.148-0.567,0.209-0.864,0.165c-0.252-0.028-0.473-0.182-0.588-0.407	c-0.088-0.176-0.138-0.363-0.153-0.556c-0.044-0.347-0.017-0.698,0.066-1.034c0.028-0.093,0.061-0.182,0.11-0.269	c0.116-0.215,0.336-0.352,0.578-0.368c0.292-0.028,0.583,0.028,0.847,0.148c0.066,0.022,0.104,0.088,0.099,0.16	C23.57,24.95,23.576,25.281,23.576,25.616L23.576,25.616z M27.904,26.051c0.319-0.022,0.637-0.083,0.924-0.237	c0.292-0.143,0.495-0.413,0.556-0.732c0.039-0.198,0.039-0.408-0.005-0.605c-0.116-0.495-0.429-0.802-0.902-0.963	c-0.264-0.083-0.545-0.116-0.82-0.104c-0.924,0.022-1.627,0.489-1.914,1.414c-0.193,0.61-0.165,1.232,0.022,1.842	c0.192,0.628,0.632,1.007,1.259,1.178c0.269,0.066,0.55,0.093,0.825,0.083c0.402-0.005,0.802-0.083,1.183-0.225	c0.16-0.061,0.197-0.116,0.197-0.286V27.02c-0.005-0.16-0.072-0.215-0.232-0.176c-0.121,0.032-0.237,0.061-0.358,0.088	c-0.368,0.088-0.753,0.104-1.128,0.039c-0.374-0.072-0.628-0.286-0.726-0.66c-0.028-0.11-0.049-0.22-0.061-0.336	c0.028,0,0.055,0,0.077,0.011C27.167,26.051,27.536,26.078,27.904,26.051z M26.755,25.17c0.039-0.215,0.088-0.424,0.22-0.6	c0.203-0.269,0.484-0.347,0.802-0.313c0.028,0,0.049,0.011,0.077,0.011c0.385,0.061,0.478,0.368,0.408,0.666	c-0.055,0.22-0.237,0.302-0.44,0.341c-0.11,0.022-0.225,0.032-0.341,0.028c-0.225-0.005-0.445-0.022-0.666-0.055	C26.766,25.242,26.744,25.22,26.755,25.17L26.755,25.17z"/><path fill="#18193f" d="M24.312,33.998c-0.192-0.005-0.386-0.005-0.577,0c-0.265-0.014-0.53-0.024-0.795-0.043	c-0.703-0.053-1.403-0.159-2.086-0.318c-2.366-0.549-4.442-1.653-6.254-3.257c-0.169-0.15-0.327-0.303-0.492-0.458	c-0.038-0.034-0.073-0.083-0.092-0.13c-0.029-0.067-0.014-0.14,0.034-0.192s0.126-0.073,0.193-0.043	c0.043,0.019,0.087,0.038,0.126,0.062c1.73,1.07,3.618,1.85,5.598,2.312c0.665,0.154,1.334,0.274,2.009,0.362	c0.968,0.121,1.946,0.164,2.919,0.13c0.525-0.014,1.046-0.062,1.566-0.13c1.214-0.154,2.414-0.429,3.575-0.814	c0.612-0.202,1.209-0.434,1.793-0.703c0.087-0.048,0.192-0.062,0.289-0.038c0.159,0.038,0.255,0.202,0.217,0.362	c-0.005,0.019-0.014,0.043-0.024,0.063c-0.038,0.073-0.092,0.135-0.159,0.183C31.598,31.78,31,32.16,30.369,32.478	c-1.19,0.602-2.462,1.031-3.773,1.277C25.839,33.888,25.078,33.969,24.312,33.998z M32.594,29.301	c0.318,0.01,0.631,0.029,0.939,0.111c0.087,0.024,0.169,0.053,0.25,0.092c0.111,0.043,0.182,0.15,0.197,0.265	c0.019,0.135,0.024,0.274,0.014,0.414c-0.062,0.824-0.318,1.618-0.742,2.327c-0.154,0.255-0.342,0.487-0.558,0.689	c-0.043,0.043-0.097,0.077-0.154,0.097c-0.092,0.024-0.15-0.024-0.154-0.116c0.005-0.048,0.014-0.097,0.034-0.145	c0.169-0.453,0.332-0.901,0.462-1.368c0.077-0.255,0.13-0.515,0.164-0.781c0.01-0.097,0.014-0.192,0.005-0.289	c-0.005-0.164-0.111-0.303-0.27-0.352c-0.15-0.048-0.303-0.077-0.463-0.087c-0.443-0.019-0.886,0-1.325,0.058l-0.582,0.073	c-0.063,0.005-0.121,0-0.154-0.058c-0.034-0.058-0.019-0.116,0.014-0.173c0.038-0.053,0.087-0.102,0.145-0.135	c0.357-0.255,0.757-0.41,1.181-0.511C31.924,29.343,32.257,29.311,32.594,29.301z"/><path fill="none" stroke="#18193f" stroke-linecap="round" stroke-linejoin="round" stroke-width="3" d="M25.362,40.5H11.5	c-2.209,0-4-1.791-4-4v-25c0-2.209,1.791-4,4-4h1.415"/><path fill="none" stroke="#18193f" stroke-linecap="round" stroke-linejoin="round" stroke-width="3" d="M18.689,7.5H36.5	c2.209,0,4,1.791,4,4v25c0,2.209-1.791,4-4,4h-2.968"/></svg>