<svg xmlns="http://www.w3.org/2000/svg"  viewBox="0 0 48 48" width="48px" height="48px"><path fill="#90caf9" d="M38.182,44H17.818C14.605,44,12,41.395,12,38.182V17.818C12,14.605,14.605,12,17.818,12h20.364	C41.395,12,44,14.605,44,17.818v20.364C44,41.395,41.395,44,38.182,44z"/><path fill="none" stroke="#18193f" stroke-linecap="round" stroke-linejoin="round" stroke-width="3" d="M26.88,40.5H13.5	c-3.314,0-6-2.686-6-6v-21c0-3.314,2.686-6,6-6"/><path fill="none" stroke="#18193f" stroke-linecap="round" stroke-linejoin="round" stroke-width="3" d="M18.511,7.5H34.5	c3.314,0,6,2.686,6,6v21c0,3.314-2.686,6-6,6h-1.755"/><path fill="#18193f" d="M20.536,27l7.484-12.96c0.41-0.72,0.17-1.63-0.55-2.05c-0.72-0.41-1.64-0.17-2.05,0.55L24,15.001 l-1.42-2.461c-0.41-0.72-1.33-0.96-2.05-0.55c-0.72,0.42-0.96,1.33-0.55,2.05L22.268,18l-5.194,9H12.5c-0.83,0-1.5,0.67-1.5,1.5 c0,0.83,0.67,1.5,1.5,1.5h14.38l-1.72-3H20.536z"/><path fill="#18193f" d="M35.5,27h-4.571l-4.039-7l-1.73,3l6.32,10.96c0.28,0.48,0.78,0.75,1.3,0.75 c0.26,0,0.51-0.07,0.75-0.2c0.72-0.42,0.96-1.33,0.55-2.05L32.661,30H35.5c0.83,0,1.5-0.67,1.5-1.5C37,27.67,36.33,27,35.5,27z"/><path fill="#18193f" d="M13.92,32.46c-0.41,0.72-0.17,1.63,0.55,2.05c0.24,0.13,0.49,0.2,0.75,0.2 c0.52,0,1.02-0.27,1.3-0.75L17.65,32h-3.46L13.92,32.46z"/></svg>