<svg xmlns="http://www.w3.org/2000/svg"  viewBox="0 0 48 48" width="48px" height="48px"><path fill="#90caf9" d="M47.868,30.601c-0.016-0.369-0.204-0.731-0.574-0.92l-15.05-7.681	c-2.678-1.367-5.809-1.372-8.491-0.015l-15.04,7.614c-0.399,0.202-0.59,0.604-0.58,1.002H8.129v7.873H8.14	c0.027,0.357,0.212,0.702,0.57,0.885l15.05,7.681c2.677,1.366,5.808,1.372,8.491,0.015l15.04-7.614	c0.387-0.196,0.581-0.581,0.583-0.966h0.001v-7.873H47.868z"/><path fill="none" stroke="#18193f" stroke-linecap="round" stroke-linejoin="round" stroke-miterlimit="10" stroke-width="3" d="M31.496,42.842l-3.109,1.564c-2.768,1.393-6.001,1.387-8.765-0.014L4.087,36.51c-0.386-0.196-0.585-0.573-0.598-0.956"/><path fill="none" stroke="#18193f" stroke-linecap="round" stroke-linejoin="round" stroke-miterlimit="10" stroke-width="3" d="M44.514,35.554c0.015,0.412-0.186,0.831-0.601,1.04l-7.585,3.817"/><path fill="none" stroke="#18193f" stroke-linecap="round" stroke-linejoin="round" stroke-miterlimit="10" stroke-width="3" d="M37.8,23.402l6.117,3.122c0.801,0.409,0.799,1.6-0.003,2.006l-15.526,7.86c-2.769,1.401-6.002,1.395-8.765-0.015L9.035,30.971"/><path fill="none" stroke="#18193f" stroke-linecap="round" stroke-linejoin="round" stroke-miterlimit="10" stroke-width="3" d="M3.489,27.501c-0.02-0.419,0.181-0.848,0.601-1.061l15.526-7.86c2.768-1.401,6.001-1.396,8.765,0.015l4.01,2.047"/><line x1="3.5" x2="3.5" y1="27.5" y2="35.5" fill="none" stroke="#18193f" stroke-linecap="round" stroke-linejoin="round" stroke-miterlimit="10" stroke-width="3"/><line x1="44.5" x2="44.5" y1="27.5" y2="35.5" fill="none" stroke="#18193f" stroke-linecap="round" stroke-linejoin="round" stroke-miterlimit="10" stroke-width="3"/><line x1="24" x2="24" y1="12.5" y2="26.5" fill="none" stroke="#18193f" stroke-linecap="round" stroke-linejoin="round" stroke-miterlimit="10" stroke-width="3"/><circle cx="24" cy="8" r="4.5" fill="none" stroke="#18193f" stroke-linecap="round" stroke-linejoin="round" stroke-miterlimit="10" stroke-width="3"/><ellipse cx="14.5" cy="27.5" fill="#18193f" rx="2.5" ry="1.5"/></svg>