<svg xmlns="http://www.w3.org/2000/svg"  viewBox="0 0 48 48" width="48px" height="48px"><path fill="#ffe082" d="M36.538,19.605c-8.517-8.517-19.091-5.148-23.794-6.861l-0.14-0.14l1.68,22.067	c0.139,1.825,0.927,3.541,2.221,4.835l0,0c1.287,1.287,2.99,2.074,4.805,2.219l22.132,1.773	C41.642,38.847,45.119,28.18,36.538,19.605z"/><line x1="42.5" x2="8.5" y1="5.5" y2="39.5" fill="none" stroke="#18193f" stroke-linejoin="round" stroke-width="3"/><path fill="#18193f" d="M38.947,12.598c-0.932,0-1.84-0.369-2.508-1.038c-0.803-0.803-1.173-1.95-0.992-3.07	c0.181-1.119,0.894-2.091,1.907-2.6l5.476-2.732c0.576-0.288,1.273-0.175,1.73,0.282c0.456,0.456,0.569,1.153,0.281,1.73	l-2.73,5.472c0,0.001-0.001,0.002-0.001,0.003c-0.51,1.014-1.482,1.727-2.603,1.908C39.321,12.583,39.134,12.598,38.947,12.598z"/><path fill="#18193f" d="M9.5,44c-0.193,0-0.389-0.037-0.574-0.114C8.365,43.654,8,43.107,8,42.5V40H5.5	c-0.606,0-1.153-0.365-1.386-0.926s-0.104-1.206,0.325-1.635l5-5C9.721,32.158,10.103,32,10.5,32h4c0.828,0,1.5,0.671,1.5,1.5v4	c0,0.398-0.158,0.779-0.439,1.061l-5,5C10.273,43.848,9.89,44,9.5,44z"/><path fill="none" stroke="#18193f" stroke-linecap="round" stroke-linejoin="round" stroke-width="3" d="M6.5,6.5	c2,6,15.553-1.447,26,9"/><path fill="none" stroke="#18193f" stroke-linecap="round" stroke-linejoin="round" stroke-width="3" d="M36.788,21.815	c-0.909-2.151-2.263-4.291-4.288-6.315"/><path fill="none" stroke="#18193f" stroke-linecap="round" stroke-linejoin="round" stroke-width="3" d="M41.51,41.497	c-3.617-1.204-2.35-6.608-3.062-12.999"/><path fill="none" stroke="#18193f" stroke-linecap="round" stroke-linejoin="round" stroke-width="3" d="M38,38.949	c-0.003-9.308-19.643-28.941-28.952-28.941"/><line x1="8.5" x2="10.5" y1="8.567" y2="33.5" fill="none" stroke="#18193f" stroke-linecap="round" stroke-linejoin="round" stroke-width="3"/><line x1="18.791" x2="14.5" y1="37.844" y2="37.5" fill="none" stroke="#18193f" stroke-linecap="round" stroke-linejoin="round" stroke-width="3"/><line x1="39.443" x2="26.953" y1="39.498" y2="38.498" fill="none" stroke="#18193f" stroke-linecap="round" stroke-linejoin="round" stroke-width="3"/></svg>