<svg xmlns="http://www.w3.org/2000/svg"  viewBox="0 0 48 48" width="48px" height="48px"><path fill="#8ce7f2" d="M44.35,42.555c-0.436-1.903-1.808-3.398-5.859-4.555c-2.51-0.717-10-3-10-3l2.08-1.04	c0.504-0.252,0.687-0.864,0.432-1.366c-2.176-4.296-2.773-9.233-1.665-13.942l1.78-7.566c0.171-0.726-0.485-1.377-1.21-1.201	l-16.026,3.898c-0.504,0.123-0.831,0.611-0.752,1.124l0.745,4.839c0.733,4.767,0.32,9.641-1.205,14.217l-0.196,0.587	c-0.228,0.684,0.321,1.377,1.039,1.312l0.427-0.039C9.75,42.228,12.491,45,12.491,45l29.905,0C43.679,45,44.637,43.806,44.35,42.555	z"/><path fill="none" stroke="#18193f" stroke-linecap="round" stroke-linejoin="round" stroke-miterlimit="10" stroke-width="3" d="M12.34,42.5H8.491c0,0-3-3,2-10"/><path fill="none" stroke="#18193f" stroke-linecap="round" stroke-linejoin="round" stroke-miterlimit="10" stroke-width="3" d="M24.491,32.5c0,0,7.49,2.283,10,3c4.044,1.155,5.418,2.646,5.857,4.544c0.291,1.257-0.661,2.456-1.952,2.456H18.491"/><circle cx="18.491" cy="31.5" r="1.5" fill="#18193f"/><path fill="none" stroke="#18193f" stroke-linecap="round" stroke-linejoin="round" stroke-miterlimit="10" stroke-width="3" d="M10.143,18.092c0.301,4.008-0.197,8.043-1.473,11.871l-0.196,0.587c-0.228,0.684,0.321,1.377,1.039,1.312l3.977-0.362	c0,2.761,2.239,5,5,5s5-2.239,5-5l3.08-1.54c0.504-0.252,0.687-0.864,0.432-1.366c-0.416-0.821-0.774-1.666-1.074-2.528"/><path fill="none" stroke="#18193f" stroke-linecap="round" stroke-linejoin="round" stroke-miterlimit="10" stroke-width="3" d="M24.948,21.856c-0.295-2.385-0.171-4.824,0.39-7.204l1.78-7.566c0.171-0.726-0.485-1.377-1.21-1.201L9.883,9.783	c-0.504,0.123-0.831,0.611-0.752,1.124l0.415,2.698"/><path fill="none" stroke="#18193f" stroke-linecap="round" stroke-linejoin="round" stroke-miterlimit="10" stroke-width="3" d="M24.491,42.5c0,0,1-6,6-8"/><path fill="none" stroke="#18193f" stroke-linecap="round" stroke-linejoin="round" stroke-miterlimit="10" stroke-width="3" d="M32.491,42.5c0,0,0-3,4-6"/><polyline fill="none" stroke="#18193f" stroke-linecap="round" stroke-linejoin="round" stroke-miterlimit="10" stroke-width="3" points="11.491,9.5 15.491,9.5 16.491,12.5 15.491,15.5"/><polyline fill="none" stroke="#18193f" stroke-linecap="round" stroke-linejoin="round" stroke-miterlimit="10" stroke-width="3" points="10.491,20.5 15.491,20.5 16.491,23.5 15.491,26.5"/></svg>