<svg xmlns="http://www.w3.org/2000/svg"  viewBox="0 0 48 48" width="48px" height="48px"><path fill="#90caf9" d="M44.888,10.137l-9.962,3.937L22.022,26.978v0L11,38c-1.933,1.933-1.933,5.067,0,7	c1.68,1.68,4.266,1.9,6.183,0.661c0.503-0.325,4.833-9.603,11.813-11.659l0.001,0.001l12.542-12.542	c3.845-3.845,4.772-7.85,4.96-10.112C46.573,10.468,45.71,9.812,44.888,10.137z"/><path fill="none" stroke="#18193f" stroke-linecap="round" stroke-linejoin="round" stroke-width="3" d="M22.543,18.457l8.383-8.383	L42.5,5.5c0,0,0.837,6.163-4.961,11.961L24.997,30.003"/><line x1="15.5" x2="27.5" y1="20.5" y2="32.5" fill="none" stroke="#18193f" stroke-linecap="round" stroke-linejoin="round" stroke-width="3"/><path fill="none" stroke="#18193f" stroke-linecap="round" stroke-linejoin="round" stroke-width="3" d="M18.855,33.954	C20.568,32.225,22.631,30.697,25,30"/><path fill="none" stroke="#18193f" stroke-linecap="round" stroke-linejoin="round" stroke-width="3" d="M17.5,23.5L7,34	c-1.933,1.933-1.933,5.067,0,7l0,0c1.68,1.68,4.266,1.9,6.183,0.661c0.205-0.132,1.043-1.746,2.434-3.752"/><circle cx="10.5" cy="37.5" r="1.5" fill="#18193f"/></svg>