<svg xmlns="http://www.w3.org/2000/svg"  viewBox="0 0 48 48" width="48px" height="48px"><path fill="#9fa8da" d="M42.522,26.069c-3.824-0.229-6.189-1.318-7.457-2.134l0.02-0.02c0.485-0.485,0.668-1.156,0.551-1.782	l5.45-6.219c0.781-0.781,0.781-2.047,0-2.828l-1.879-1.879c-0.391-0.391-1.024-0.391-1.414,0L31.5,17.5l0.051,0.132	c-0.771-0.478-1.795-0.387-2.465,0.282L27.5,19.5l-2.586-2.586c-0.781-0.781-2.047-0.781-2.828,0l-6.172,6.172	c-0.781,0.781-0.781,2.047,0,2.828L18.5,28.5l-0.879,0.879c-1.172,1.172-1.172,3.071,0,4.243L18,34l-7.198,7.198	c-0.391,0.391-0.391,1.024,0,1.415l4.32,4.598c0.506,0.506,1.363,0.333,1.633-0.33L19.5,35.5l-0.117-0.117	c1.168,1.163,3.056,1.164,4.227,0.005l3.628,8.475c0.238,0.619,1.002,0.839,1.533,0.441l2.328-1.746	c0.362-0.271,0.496-0.752,0.328-1.171l-4.214-9.6l3.392-3.392c1.238,1.252,4.526,3.597,11.777,3.906	c0.023,0.001,0.044,0.002,0.066,0.002c0.852,0,1.552-0.699,1.552-1.558v-3.125C44,26.792,43.347,26.118,42.522,26.069z"/><line x1="41.5" x2="36.5" y1="3.5" y2="8.5" fill="none" stroke="#18193f" stroke-linecap="round" stroke-width="3"/><path fill="none" stroke="#18193f" stroke-linecap="round" stroke-linejoin="round" stroke-width="3" d="M8.404,35.596l-2.603,2.603	c-0.391,0.391-0.391,1.024,0,1.415l4.32,4.598c0.506,0.506,1.363,0.333,1.633-0.33l3.373-12.754"/><path fill="#18193f" d="M30.645,3.065l0.85,5.319l3.527-3.489L32.338,2.28C31.681,1.642,30.584,2.151,30.645,3.065z"/><path fill="none" stroke="#18193f" stroke-width="3" d="M27.5,13.5l7-7l2.586,2.586c0.781,0.781,0.781,2.047,0,2.828L31.5,17.5	L27.5,13.5z"/><path fill="none" stroke="#18193f" stroke-linecap="round" stroke-linejoin="round" stroke-width="3" d="M26.202,24.798l4.883-4.883	c0.782-0.782,0.782-2.048,0.001-2.829l-3.172-3.172c-0.781-0.781-2.047-0.781-2.828,0L13.621,25.379	c-1.172,1.172-1.172,3.071,0,4.243l1.757,1.757c1.168,1.168,3.06,1.17,4.232,0.009l3.628,8.475c0.238,0.619,1.002,0.839,1.533,0.441	l2.328-1.746c0.362-0.271,0.496-0.752,0.328-1.171l-4.214-9.6"/><path fill="#18193f" d="M42.099,22.945C34.071,22.464,31.024,19.032,31,19c0.028,0.037-1.022,1.302-2.166,2.66	c0.389,0.144,2.691,1.462,2.695,1.458c2.067,1.18,5.19,2.369,9.471,2.753v2.031c-2.67-0.181-4.808-0.597-6.507-1.106	c-0.6-0.179-1.236,0.045-1.6,0.554c-0.016,0.022-0.031,0.044-0.047,0.066c-0.583,0.808-0.21,1.952,0.744,2.24	c2.171,0.654,4.905,1.155,8.329,1.301c0.029,0.001,0.057,0.002,0.085,0.002c1.095,0,1.995-0.898,1.995-2.003l0-4.018	C43.999,23.875,43.16,23.009,42.099,22.945z"/><path fill="none" stroke="#18193f" stroke-linecap="round" stroke-linejoin="round" stroke-width="3" d="M17.414,13.586l0.672-0.672	c0.781-0.781,2.047-0.781,2.828,0L23.5,15.5"/><path fill="none" stroke="#18193f" stroke-linecap="round" stroke-linejoin="round" stroke-width="3" d="M14.5,24.5l-2.586-2.586	c-0.781-0.781-0.781-2.047,0-2.828l2.692-2.692"/></svg>