<svg xmlns="http://www.w3.org/2000/svg"  viewBox="0 0 48 48" width="48px" height="48px"><path fill="#a5d6a7" d="M40,22.3h-6c-1.1,0-2,0.9-2,2v9.3H22V13c0-1.1-0.9-2-2-2h-6c-1.1,0-2,0.9-2,2v29.9c0,1.1,0.9,2,2,2h26	c1.1,0,2-0.9,2-2V24.3C42,23.2,41.1,22.3,40,22.3z"/><path fill="none" stroke="#18193f" stroke-linecap="round" stroke-linejoin="round" stroke-miterlimit="10" stroke-width="3" d="M18.5,42.5h-9c-1.1,0-2-0.9-2-2v-4h11V42.5z"/><polyline fill="none" stroke="#18193f" stroke-linecap="round" stroke-linejoin="round" stroke-miterlimit="10" stroke-width="3" points="7.5,36.5 7.5,30.5 18.5,30.5 18.5,36.5"/><line x1="18.5" x2="18.5" y1="24.5" y2="30.3" fill="none" stroke="#18193f" stroke-linecap="round" stroke-linejoin="round" stroke-miterlimit="10" stroke-width="3"/><line x1="13.3" x2="18.5" y1="24.5" y2="24.5" fill="none" stroke="#18193f" stroke-linecap="round" stroke-linejoin="round" stroke-miterlimit="10" stroke-width="3"/><line x1="7.5" x2="9" y1="24.5" y2="24.5" fill="none" stroke="#18193f" stroke-linecap="round" stroke-linejoin="round" stroke-miterlimit="10" stroke-width="3"/><line x1="7.5" x2="7.5" y1="30.3" y2="24.5" fill="none" stroke="#18193f" stroke-linecap="round" stroke-linejoin="round" stroke-miterlimit="10" stroke-width="3"/><polyline fill="none" stroke="#18193f" stroke-linecap="round" stroke-linejoin="round" stroke-miterlimit="10" stroke-width="3" points="7.5,24.5 7.5,18.5 18.5,18.5 18.5,24.5"/><line x1="18.5" x2="18.5" y1="12.5" y2="18.5" fill="none" stroke="#18193f" stroke-linecap="round" stroke-linejoin="round" stroke-miterlimit="10" stroke-width="3"/><line x1="7.5" x2="7.5" y1="18.5" y2="12.5" fill="none" stroke="#18193f" stroke-linecap="round" stroke-linejoin="round" stroke-miterlimit="10" stroke-width="3"/><polyline fill="none" stroke="#18193f" stroke-linecap="round" stroke-linejoin="round" stroke-miterlimit="10" stroke-width="3" points="18.5,42.5 18.5,36.5 29.5,36.5 29.5,42.5 18.5,42.5"/><polyline fill="none" stroke="#18193f" stroke-linecap="round" stroke-linejoin="round" stroke-miterlimit="10" stroke-width="3" points="18.5,36.5 18.5,30.5 29.5,30.5 29.5,36.5"/><path fill="none" stroke="#18193f" stroke-linecap="round" stroke-linejoin="round" stroke-miterlimit="10" stroke-width="3" d="M40.5,36.5v4c0,1.1-0.9,2-2,2h-9v-6H35"/><polyline fill="none" stroke="#18193f" stroke-linecap="round" stroke-linejoin="round" stroke-miterlimit="10" stroke-width="3" points="29.5,36.5 29.5,30.5 40.5,30.5 40.5,36.5"/><line x1="40.5" x2="40.5" y1="24.5" y2="30.5" fill="none" stroke="#18193f" stroke-linecap="round" stroke-linejoin="round" stroke-miterlimit="10" stroke-width="3"/><line x1="35" x2="40.5" y1="24.5" y2="24.5" fill="none" stroke="#18193f" stroke-linecap="round" stroke-linejoin="round" stroke-miterlimit="10" stroke-width="3"/><path fill="none" stroke="#18193f" stroke-linecap="round" stroke-linejoin="round" stroke-miterlimit="10" stroke-width="3" d="M29.5,30.3v-9.8c0-1.1,0.9-2,2-2h7c1.1,0,2,0.9,2,2v4"/><path fill="none" stroke="#18193f" stroke-linecap="round" stroke-linejoin="round" stroke-miterlimit="10" stroke-width="3" d="M12.5,12.5h-5v-4c0-1.1,0.9-2,2-2h7c1.1,0,2,0.9,2,2v4h-1.4"/></svg>