<svg xmlns="http://www.w3.org/2000/svg"  viewBox="0 0 48 48" width="48px" height="48px"><path fill="#90caf9" d="M25.8,38.2l0,6.7c0,0.8,0.9,1.3,1.6,0.8l5.2-3.9c0.1-0.1,0.2-0.2,0.3-0.3l14.3-27.7c1-1.9,0.2-4.3-1.7-5.3l0,0	c-1.9-1-4.3-0.2-5.3,1.7L25.9,37.8C25.8,37.9,25.8,38.1,25.8,38.2z"/><path fill="none" stroke="#18193f" stroke-linecap="round" stroke-miterlimit="5" stroke-width="3" d="M41.5,25.8l4.7-9.1c0.6-1.2,0.2-2.7-1.1-3.3l-2.8-1.5"/><path fill="none" stroke="#18193f" stroke-linecap="round" stroke-linejoin="round" stroke-miterlimit="5" stroke-width="3" d="M40.5,15l2.9-5.6c1-2,0.2-4.4-1.7-5.4l0,0c-2-1-4.4-0.2-5.4,1.7l-9.7,18.6"/><path fill="none" stroke="#18193f" stroke-linecap="round" stroke-linejoin="round" stroke-miterlimit="5" stroke-width="3" d="M24.1,29.2L21.7,34c-0.1,0.1-0.1,0.3-0.1,0.5l0,6.8c0,0.8,0.9,1.3,1.6,0.8l5.3-4c0.1-0.1,0.2-0.2,0.3-0.3	L38,19.9"/><path fill="none" stroke="#18193f" stroke-linecap="round" stroke-linejoin="round" stroke-miterlimit="5" stroke-width="3" d="M2.8,23.9c-3.3,7.8,2.9,10.4,6.7,6.6c-3,6,1,10,5,6c-1,5,2,6,2,6"/><path fill="none" stroke="#18193f" stroke-linecap="round" stroke-linejoin="round" stroke-miterlimit="5" stroke-width="3" d="M14.5,20.5c0-4.2-5.6-3.8-9.2-0.4"/><line x1="42.4" x2="35" y1="12" y2="8.2" fill="none" stroke="#18193f" stroke-linejoin="round" stroke-miterlimit="5" stroke-width="3"/><line x1="22.6" x2="28.5" y1="33.7" y2="36.5" fill="none" stroke="#18193f" stroke-linecap="round" stroke-linejoin="round" stroke-miterlimit="5" stroke-width="3"/></svg>