<svg xmlns="http://www.w3.org/2000/svg"  viewBox="0 0 48 48" width="48px" height="48px"><path fill="#f48fb1" d="M22.5,9L22.5,9C14.4,9,10,14.5,10,19.7c0,3.5,1.2,6.4,3.3,8c1.3,1,3.6,2,7,1.1c0.1,0,0.2-0.1,0.3-0.1	C22,28.3,23,27,23,25.5c0-1.9-1.6-3.5-3.5-3.5S16,23.6,16,25.5c0,0.1,0,0.3,0,0.4c-0.3-0.1-0.6-0.3-0.9-0.5	c-1.4-1.1-2.2-3.2-2.2-5.7c0-3.6,3.1-7.5,8.9-7.7c5.2,5,7.5,10.1,6.8,15.1c-1.3,10.5-14.8,18-15,18c-0.6,0.3-0.9,1.1-0.7,1.8	c0.2,0.6,0.8,1,1.4,1c0.1,0,0.2,0,0.2,0c1-0.2,24.3-4,24.3-21C39,12.2,27.1,9,22.5,9z"/><circle cx="40" cy="18" r="2" fill="#18193f"/><circle cx="40" cy="29" r="2" fill="#18193f"/><circle cx="15.5" cy="21.5" r="3.5" fill="#18193f"/><path fill="none" stroke="#18193f" stroke-linecap="round" stroke-linejoin="round" stroke-width="3" d="M22.2,38.6c-5.8,3-11.7,3.9-11.7,3.9s22-11.9,14.2-28"/><path fill="none" stroke="#18193f" stroke-linecap="round" stroke-linejoin="round" stroke-width="3" d="M16,23.4c-6,1.5-8.5-3.1-8.5-7.7s4-9.2,11-9.2c4.5,0,15,3.1,15,16.4c0,5.4-2.6,9.4-6.1,12.3"/></svg>