<svg xmlns="http://www.w3.org/2000/svg"  viewBox="0 0 48 48" width="48px" height="48px"><path fill="#9fa8da" d="M40.357,43h-0.053c0.715-0.564,1.542-1.534,1.542-3.005c0-5.088-7.907-5.671-8.206-16.956	c1.378-2.41,2.248-5.631,2.248-8.466c0-5.347-3.073-7.26-6.864-7.26c-3.79,0-6.864,1.914-6.864,7.26	c0,2.806,0.851,5.992,2.202,8.394c-0.267,11.355-8.21,11.93-8.21,17.029c0,1.471,0.826,2.44,1.542,3.005h-0.051	c-1.426,0-2.581,1.119-2.581,2.5c0,1.381,1.155,2.5,2.581,2.5h22.713c1.426,0,2.581-1.119,2.581-2.5	C42.937,44.119,41.782,43,40.357,43z"/><path fill="none" stroke="#18193f" stroke-linecap="round" stroke-linejoin="round" stroke-width="3" d="M32.644,30.616	c1.95,2.093,3.854,3.456,3.854,5.896c0,1.418-0.804,2.353-1.5,2.897"/><path fill="none" stroke="#18193f" stroke-linecap="round" stroke-linejoin="round" stroke-width="3" d="M24.574,19.532H28.5	c0,2.617,0.414,4.663,1.054,6.322"/><path fill="none" stroke="#18193f" stroke-linecap="round" stroke-linejoin="round" stroke-width="3" d="M13,39.409	c-0.696-0.544-1.5-1.479-1.5-2.897c0-5,8-5.48,8-16.98"/><path fill="none" stroke="#18193f" stroke-linecap="round" stroke-width="3" d="M22.234,44.512H35c1.381,0,2.5-1.119,2.5-2.5l0,0	c0-1.381-1.119-2.5-2.5-2.5H13c-1.381,0-2.5,1.119-2.5,2.5l0,0c0,1.381,1.119,2.5,2.5,2.5h3.872"/><circle cx="24.016" cy="3.016" r="1.984" fill="#18193f"/><path fill="none" stroke="#18193f" stroke-linecap="round" stroke-linejoin="round" stroke-width="3.049" d="M19.468,19.434	c-1.143-2.191-1.848-4.988-1.848-7.463c0-4.987,2.867-6.773,6.403-6.773s6.403,1.785,6.403,6.773c0,2.501-0.72,5.332-1.885,7.533"/></svg>