<svg xmlns="http://www.w3.org/2000/svg"  viewBox="0 0 48 48" width="48px" height="48px"><path fill="#9fa8da" d="M28,35.5L28,35.5c-3.9,0-7-3.1-7-7V15.5c0-3.9,3.1-7,7-7l0,0c3.9,0,7,3.1,7,7v13.1C35,32.4,31.9,35.5,28,35.5z"/><line x1="23" x2="23" y1="38.5" y2="44.5" fill="none" stroke="#18193f" stroke-linecap="round" stroke-linejoin="round" stroke-width="3"/><path fill="none" stroke="#18193f" stroke-linecap="round" stroke-linejoin="round" stroke-width="3" d="M20.3,32c-2.8-1.1-4.8-3.8-4.8-7V11c0-4.1,3.4-7.5,7.5-7.5l0,0c4.1,0,7.5,3.4,7.5,7.5v8.4"/><path fill="none" stroke="#18193f" stroke-linecap="round" stroke-linejoin="round" stroke-width="3" d="M23,38.5c-7.5,0-13.5-6-13.5-13.5c0-2.5,0-4.5,0-4.5"/><line x1="17" x2="29" y1="45" y2="45" fill="none" stroke="#18193f" stroke-linecap="round" stroke-linejoin="round" stroke-width="3"/><path fill="none" stroke="#18193f" stroke-linecap="round" stroke-linejoin="round" stroke-width="3" d="M38.3,44.4c-2.9,0.4-5.9-0.5-8-2.7c-3.7-3.7-3.7-9.7,0-13.4s9.7-3.7,13.4,0s3.7,9.7,0,13.4"/><line x1="42.9" x2="30.5" y1="29.1" y2="41.5" fill="none" stroke="#18193f" stroke-linecap="round" stroke-linejoin="round" stroke-width="3"/></svg>