<svg xmlns="http://www.w3.org/2000/svg"  viewBox="0 0 48 48" width="48px" height="48px"><path fill="#90caf9" d="M45.8,17.4L45.8,17.4C45.8,17.4,45.8,17.4,45.8,17.4C45,16.1,42.4,13,37.3,13H37c-0.5-0.8-1.5-2.4-1.9-2.9 c-0.1-0.2-0.3-0.3-0.5-0.4c-0.9-0.3-3-0.8-6.6-0.8c-3.6,0-5.7,0.5-6.6,0.8c-0.2,0.1-0.4,0.2-0.5,0.4c-0.4,0.6-1.4,2.1-1.9,2.9h-0.3 c-5.1,0-7.7,3.1-8.5,4.4l0,0c-1.8,2.5-1.7,5.4-1.4,6.8c0.1,0.4,0.5,0.7,0.9,0.7l5.4,0v5.2c0,5.5,1.2,8,2,9l0.2,0.3l-1.7,2.2 c-0.8,1-0.4,2.5,0.7,3c2.4,1.1,6.3,2.5,11.6,2.5c5.3,0,9.3-1.4,11.6-2.5c1.1-0.6,1.5-2,0.7-3l-1.7-2.2l0.2-0.3c0.7-1,2-3.5,2-9V25 l5.4,0c0.4,0,0.8-0.3,0.9-0.7C47.6,22.8,47.7,19.9,45.8,17.4z"/><path fill="none" stroke="#18193f" stroke-linecap="round" stroke-linejoin="round" stroke-miterlimit="10" stroke-width="3" d="M41.8,13.4c1.6,2.2,1.8,4.6,1.7,6.3c-0.1,1-1,1.8-2,1.8h-4.2"/><path fill="none" stroke="#18193f" stroke-linecap="round" stroke-miterlimit="10" stroke-width="3" d="M15,9c0.4-0.6,1.2-1.9,1.7-2.6C17,6,17.4,5.7,17.8,5.6c1-0.3,3.1-0.7,6.2-0.7c3.1,0,5.1,0.4,6.2,0.7	C30.6,5.7,31,6,31.3,6.4c0.5,0.7,1.3,2,1.7,2.6"/><path fill="none" stroke="#18193f" stroke-linecap="round" stroke-linejoin="round" stroke-miterlimit="10" stroke-width="3" d="M6.2,13.4C7,12.1,9.6,9,14.7,9H15"/><path fill="none" stroke="#18193f" stroke-linecap="round" stroke-linejoin="round" stroke-miterlimit="10" stroke-width="3" d="M37.8,16.9c-0.6,1-0.9,2.4-0.9,4v5.2c0,5.5-1.2,8-2,9l-0.2,0.3l2.4,3.1c0.4,0.5,0.2,1.2-0.3,1.5	c-2.1,1.2-6.5,3.1-12.8,3.1c-6.3,0-10.7-2-12.8-3.1c-0.5-0.3-0.7-1-0.3-1.5l2.4-3.1L13,35.1c-0.7-1-2-3.5-2-9v-5.2	c0-1.9-0.5-3.4-1.2-4.5"/><path fill="none" stroke="#18193f" stroke-linecap="round" stroke-linejoin="round" stroke-miterlimit="10" stroke-width="3" d="M33.3,9c5.1,0,7.7,3.1,8.5,4.4"/><path fill="none" stroke="#18193f" stroke-linecap="round" stroke-linejoin="round" stroke-miterlimit="10" stroke-width="3" d="M17.1,36.6c-1.6-0.4-2.9-0.9-4-1.4"/><path fill="none" stroke="#18193f" stroke-linecap="round" stroke-linejoin="round" stroke-miterlimit="10" stroke-width="3" d="M34.7,35.3c-2.4,1-6,2.1-10.7,2.1c-0.6,0-1.2,0-1.8-0.1"/><path fill="none" stroke="#18193f" stroke-linecap="round" stroke-linejoin="round" stroke-miterlimit="10" stroke-width="3" d="M6.2,13.4c-1.6,2.2-1.8,4.6-1.7,6.3c0.1,1,1,1.8,2,1.8h4.2"/><polyline fill="none" stroke="#18193f" stroke-linecap="round" stroke-linejoin="round" stroke-miterlimit="10" stroke-width="3" points="15.6,9.2 24,13.5 28.4,11.2"/></svg>