<svg xmlns="http://www.w3.org/2000/svg"  viewBox="0 0 48 48" width="48px" height="48px"><path fill="#f48fb1" d="M13.9,22h28.2c1.6,0,2.9,1.3,2.9,2.9v17.2c0,1.6-1.3,2.9-2.9,2.9H13.9c-1.6,0-2.9-1.3-2.9-2.9V24.9	C11,23.3,12.3,22,13.9,22z"/><path fill="none" stroke="#18193f" stroke-linecap="round" stroke-linejoin="round" stroke-miterlimit="5" stroke-width="3" d="M6.5,23v-2.5c0-1.7,1.3-3,3-3h29c1.7,0,3,1.3,3,3v18c0,1.7-1.3,3-3,3H36"/><path fill="none" stroke="#18193f" stroke-linecap="round" stroke-linejoin="round" stroke-miterlimit="5" stroke-width="3" d="M30.5,41.5h-21c-1.7,0-3-1.3-3-3V27.9"/><circle cx="31.5" cy="31.5" r="3" fill="none" stroke="#18193f" stroke-linecap="round" stroke-linejoin="round" stroke-miterlimit="5" stroke-width="3"/><circle cx="16.5" cy="31.5" r="3" fill="none" stroke="#18193f" stroke-linecap="round" stroke-linejoin="round" stroke-miterlimit="5" stroke-width="3"/><path fill="none" stroke="#18193f" stroke-linecap="round" stroke-linejoin="round" stroke-miterlimit="5" stroke-width="3" d="M17.2,23.5h13.6c1,0,1.8-0.7,2-1.7l0.7-4.3h-19l0.7,4.3C15.4,22.8,16.2,23.5,17.2,23.5z"/><line x1="31.5" x2="16.5" y1="34.5" y2="34.5" fill="none" stroke="#18193f" stroke-linecap="round" stroke-linejoin="round" stroke-miterlimit="5" stroke-width="3"/><line x1="31.5" x2="16.5" y1="28.5" y2="28.5" fill="none" stroke="#18193f" stroke-linecap="round" stroke-linejoin="round" stroke-miterlimit="5" stroke-width="3"/><path fill="none" stroke="#18193f" stroke-linecap="round" stroke-linejoin="round" stroke-miterlimit="5" stroke-width="3" d="M24.5,16.5c0-3,0-2,0-5c0-4-3-7-9-7c-3,0-8,1-8,4C7.5,14.5,24.5,9.5,24.5,16.5"/></svg>