<svg xmlns="http://www.w3.org/2000/svg"  viewBox="0 0 48 48" width="48px" height="48px"><circle cx="20.5" cy="28" r="13" fill="#90caf9"/><path fill="none" stroke="#18193f" stroke-linecap="round" stroke-linejoin="round" stroke-miterlimit="10" stroke-width="3" d="M39.6,13.8c3,2.4,4.9,6,4.9,10.2c0,5.2-3,9.7-7.4,11.7"/><path fill="none" stroke="#18193f" stroke-linecap="round" stroke-linejoin="round" stroke-miterlimit="10" stroke-width="3" d="M30.7,12.6c4.1,2.2,6.8,6.5,6.8,11.4c0,4.6-2.4,8.6-5.9,10.9"/><path fill="none" stroke="#18193f" stroke-linecap="round" stroke-linejoin="round" stroke-miterlimit="10" stroke-width="3" d="M19.2,36.7c-0.9,0.2-1.8,0.3-2.7,0.3c-7.2,0-13-5.8-13-13c0-2.7,0.8-5.2,2.3-7.3"/><path fill="none" stroke="#18193f" stroke-linecap="round" stroke-linejoin="round" stroke-miterlimit="10" stroke-width="3" d="M11.9,11.9c1.4-0.6,3-0.9,4.6-0.9c7.2,0,13,5.8,13,13c0,4.4-2.2,8.4-5.6,10.7"/><circle cx="16.5" cy="24" r="6.3" fill="none" stroke="#18193f" stroke-miterlimit="10" stroke-width="3"/><circle cx="16.5" cy="24" r="1.7" fill="#18193f"/></svg>