<svg xmlns="http://www.w3.org/2000/svg"  viewBox="0 0 48 48" width="48px" height="48px"><circle cx="19" cy="23" r="9.5" fill="#ffe082"/><circle cx="38.5" cy="23" r="9.5" fill="#ffe082"/><ellipse cx="35" cy="22" fill="#18193f" rx="2" ry="3"/><circle cx="32" cy="15.5" r="1.5" fill="#18193f"/><circle cx="37.5" cy="15.5" r="1.5" fill="#18193f"/><circle cx="15" cy="19" r="9.5" fill="none" stroke="#18193f" stroke-linecap="round" stroke-linejoin="round" stroke-width="3"/><ellipse cx="15" cy="22" fill="#18193f" rx="2" ry="3"/><circle cx="12" cy="15.5" r="1.5" fill="#18193f"/><circle cx="17.5" cy="15.5" r="1.5" fill="#18193f"/><path fill="none" stroke="#18193f" stroke-linecap="round" stroke-linejoin="round" stroke-width="3" d="M23.5,37.5c0,0,5.6-3.7,15-4c0.6,0,1,0.4,1,1v7c0,0.6-0.4,1-1,1h-30c-0.6,0-1-0.4-1-1l0-7c0-0.6,0.5-1,1-1	c3.3,0.1,6.2,0.6,8.5,1.3"/><path fill="none" stroke="#18193f" stroke-linecap="round" stroke-linejoin="round" stroke-width="3" d="M23.5,42.5v-5"/><path fill="none" stroke="#18193f" stroke-linecap="round" stroke-linejoin="round" stroke-width="3" d="M28.5,12c1.7-1.6,4-2.5,6.5-2.5c5.2,0,9.5,4.3,9.5,9.5s-4.3,9.5-9.5,9.5c-2.8,0-5.4-1.3-7.1-3.2"/></svg>