<svg xmlns="http://www.w3.org/2000/svg"  viewBox="0 0 48 48" width="48px" height="48px"><path fill="#9fa8da" d="M17.8,12c-4.3,0-7.8,2.5-7.8,6.8v2.9v14.6v7.8c0,1.1,0.9,1.9,2.1,1.9h31.8c1.1,0,2.1-0.9,2.1-1.9v-7.8v-4.1	c0-3.3-2.1-6.3-5.3-7.4l-2-0.7c-2.7-0.9-4.9-2.1-5.8-4.8l-0.6-2c-1-3.2-4-5.3-7.4-5.3L17.8,12L17.8,12z"/><line x1="21.5" x2="21.5" y1="33.5" y2="37.5" fill="none" stroke="#18193f" stroke-linecap="round" stroke-miterlimit="10" stroke-width="3"/><line x1="11.5" x2="11.5" y1="33.5" y2="37.5" fill="none" stroke="#18193f" stroke-linecap="round" stroke-miterlimit="10" stroke-width="3"/><line x1="16.5" x2="16.5" y1="33.5" y2="37.5" fill="none" stroke="#18193f" stroke-linecap="round" stroke-miterlimit="10" stroke-width="3"/><line x1="31.5" x2="31.5" y1="33.5" y2="37.5" fill="none" stroke="#18193f" stroke-linecap="round" stroke-miterlimit="10" stroke-width="3"/><line x1="36.5" x2="36.5" y1="33.5" y2="37.5" fill="none" stroke="#18193f" stroke-linecap="round" stroke-miterlimit="10" stroke-width="3"/><path fill="none" stroke="#18193f" stroke-linecap="round" stroke-linejoin="round" stroke-miterlimit="10" stroke-width="3" d="M38.7,42.5h1.7c1.2,0,2.1-0.9,2.1-2v-8v-4.2c0-3.4-2.2-6.5-5.5-7.6L35,20c-2.8-0.9-5-2.1-5.9-4.9l-0.7-2	c-1.1-3.3-4.1-5.5-7.6-5.5h-7.3v0c-4.4,0-8,2.6-8,7v3"/><path fill="none" stroke="#18193f" stroke-linecap="round" stroke-linejoin="round" stroke-miterlimit="10" stroke-width="3" d="M5.5,23.7v8.8v8c0,1.1,0.9,2,2.1,2h24.7"/><line x1="5.5" x2="42.5" y1="32" y2="32" fill="none" stroke="#18193f" stroke-miterlimit="10" stroke-width="3"/></svg>