<svg xmlns="http://www.w3.org/2000/svg"  viewBox="0 0 48 48" width="48px" height="48px"><path id="cloud_1_" fill="#8ce7f2" d="M40.8,26.5c-0.7,0-1.3,0-1.9,0c0-6.9-5.6-12.6-12.6-12.6s-12.6,5.6-12.6,12.6c-0.6,0-1.2,0-1.9,0 c-4,0-7.3,3.2-7.3,7.3S7.7,41,11.8,41s11.6,0,14.5,0s10.5,0,14.5,0s7.3-3.2,7.3-7.3S44.8,26.5,40.8,26.5z"/><g id="cloud_2_"><path fill="none" stroke="#18193f" stroke-linecap="round" stroke-linejoin="round" stroke-miterlimit="10.417" stroke-width="3" d="M11,22.5c-0.6,0-1.3,0-2,0c-4.1,0-7.5,3.4-7.5,7.5s3.4,7.5,7.5,7.5s12,0,15,0c1.8,0,5.3,0,8.7,0"/><path fill="none" stroke="#18193f" stroke-linecap="round" stroke-linejoin="round" stroke-miterlimit="10.417" stroke-width="3" d="M39,37.5c4.1,0,7.5-3.4,7.5-7.5s-3.4-7.5-7.5-7.5c-0.7,0-1.4,0-2,0c0-7.2-5.8-13-13-13c-4.6,0-8.7,2.4-11,6"/></g></svg>