<svg xmlns="http://www.w3.org/2000/svg"  viewBox="0 0 48 48" width="48px" height="48px"><path fill="#90caf9" d="M16.848,44C14.133,44,12,41.867,12,39.152V16.848C12,14.133,14.133,12,16.848,12h22.303	C41.867,12,44,14.133,44,16.848v22.303C44,41.867,41.867,44,39.152,44H16.848z"/><path fill="none" stroke="#18193f" stroke-linecap="round" stroke-linejoin="round" stroke-width="3" d="M22.085,40.5H12.5	c-2.8,0-5-2.2-5-5v-23c0-2.8,2.2-5,5-5h2h5.479H35.5c2.8,0,5,2.2,5,5v8.968"/><line x1="14.5" x2="14.5" y1="5" y2="9.5" fill="none" stroke="#18193f" stroke-linecap="round" stroke-linejoin="round" stroke-miterlimit="10" stroke-width="3"/><line x1="33.5" x2="33.5" y1="5" y2="9.5" fill="none" stroke="#18193f" stroke-linecap="round" stroke-linejoin="round" stroke-miterlimit="10" stroke-width="3"/><line x1="13.787" x2="40.5" y1="15.5" y2="15.5" fill="none" stroke="#18193f" stroke-linecap="round" stroke-linejoin="round" stroke-width="3"/><path fill="none" stroke="#18193f" stroke-linecap="round" stroke-miterlimit="10" stroke-width="3" d="M37.465,41.635	c0,2.311-2.319,4.184-5.179,4.184s-5.179-1.873-5.179-4.184c0-2.311,2.319-4.184,5.179-4.184c0.079,0,0.157,0.001,0.236,0.004"/><line x1="37.465" x2="37.465" y1="29.766" y2="41.255" fill="#fff" stroke="#18193f" stroke-linecap="round" stroke-miterlimit="10" stroke-width="3"/><path fill="none" stroke="#18193f" stroke-linecap="round" stroke-linejoin="round" stroke-miterlimit="10" stroke-width="3" d="M37.5,32.364v-3.784c0-1.396,1.395-2.363,2.702-1.873l5,1.875c0.781,0.293,1.298,1.039,1.298,1.873v2.398	c0,1.396-1.395,2.363-2.702,1.873l-2.112-0.792"/></svg>