<svg xmlns="http://www.w3.org/2000/svg"  viewBox="0 0 48 48" width="48px" height="48px"><path fill="#8ce7f2" d="M30.23,7.458l11.365,8.909c0.558,0.438,0.843,1.138,0.748,1.841l-3.245,24.065	c-0.063,0.469-0.29,0.9-0.641,1.217l-3.885,3.51c-0.368,0.332-0.845,0.516-1.341,0.516H24.77c-0.495,0-0.973-0.184-1.341-0.516	l-3.885-3.51c-0.351-0.317-0.579-0.749-0.641-1.218l-3.241-24.135c-0.095-0.705,0.192-1.407,0.753-1.844l11.352-8.84	C28.492,6.89,29.507,6.892,30.23,7.458z"/><path fill="none" stroke="#18193f" stroke-linecap="round" stroke-linejoin="round" stroke-width="3" d="M34.292,10.779l3.302,2.589	c0.558,0.438,0.843,1.138,0.748,1.841l-3.245,24.065c-0.063,0.469-0.29,0.9-0.641,1.217l-3.885,3.51	c-0.368,0.332-0.845,0.516-1.341,0.516H20.77c-0.495,0-0.973-0.184-1.341-0.516l-3.885-3.51c-0.351-0.317-0.579-0.749-0.641-1.218	l-0.615-4.577"/><path fill="none" stroke="#18193f" stroke-linecap="round" stroke-linejoin="round" stroke-width="3" d="M13.326,27.531	l-1.664-12.393c-0.095-0.705,0.192-1.407,0.753-1.844l11.352-8.84c0.724-0.564,1.74-0.563,2.463,0.004l4.256,3.336"/><polyline fill="none" stroke="#18193f" stroke-linecap="round" stroke-linejoin="round" stroke-width="3" points="31,18 25,4 19,18 20,43.517"/><line x1="30" x2="30.763" y1="43.517" y2="24.06" fill="none" stroke="#18193f" stroke-linecap="round" stroke-linejoin="round" stroke-width="3"/><polyline fill="none" stroke="#18193f" stroke-linecap="round" stroke-linejoin="round" stroke-width="3" points="12.5,14.5 19,18.511 31,18.511 37.673,14.561"/></svg>