<svg xmlns="http://www.w3.org/2000/svg"  viewBox="0 0 48 48" width="48px" height="48px"><path fill="#90caf9" d="M31.7,9.9c-2.3-1.2-5.1-1.2-7.5,0l-12,6.2c-1.4,0.7-2.2,2.1-2.2,3.7v16.5c0,1.5,0.9,2.9,2.2,3.6l12,6.2	c2.3,1.2,5.1,1.2,7.5,0l12-6.2c1.4-0.7,2.2-2.1,2.2-3.6V19.7c0-1.5-0.9-2.9-2.2-3.6L31.7,9.9z"/><path fill="none" stroke="#18193f" stroke-linecap="round" stroke-linejoin="round" stroke-width="3" d="M37.7,36.5l1.6-0.8c1.3-0.7,2.2-2.1,2.2-3.6V15.9c0-1.5-0.8-2.9-2.2-3.6l-11.7-6c-2.3-1.2-5-1.2-7.3,0	l-1.6,0.8"/><path fill="none" stroke="#18193f" stroke-linecap="round" stroke-linejoin="round" stroke-width="3" d="M13,10.2l-4.3,2.2c-1.3,0.7-2.2,2.1-2.2,3.6v16.1c0,1.5,0.8,2.9,2.2,3.6l11.7,6c2.3,1.2,5,1.2,7.3,0l5.3-2.7"/><line x1="24" x2="24" y1="21.5" y2="37.5" fill="none" stroke="#18193f" stroke-linecap="round" stroke-linejoin="round" stroke-width="3"/><path fill="none" stroke="#18193f" stroke-linecap="round" stroke-linejoin="round" stroke-width="3" d="M11.5,16l8.8,4.6c2.3,1.2,5,1.2,7.3,0l8.8-4.6"/><ellipse cx="24" cy="13.5" fill="#18193f" rx="2.5" ry="1.5"/><ellipse cx="15.5" cy="28.5" fill="#18193f" rx="1.5" ry="2.5"/><ellipse cx="19.5" cy="34.5" fill="#18193f" rx="1.5" ry="2.5"/><ellipse cx="30.5" cy="32.5" fill="#18193f" rx="1.5" ry="2.5"/><ellipse cx="35.5" cy="23.5" fill="#18193f" rx="1.5" ry="2.5"/><ellipse cx="11.5" cy="22.5" fill="#18193f" rx="1.5" ry="2.5"/></svg>