<svg xmlns="http://www.w3.org/2000/svg"  viewBox="0 0 48 48" width="48px" height="48px"><circle cx="28.5" cy="29.5" r="15.3" fill="#90caf9"/><path fill="none" stroke="#18193f" stroke-linecap="round" stroke-linejoin="round" stroke-width="3" d="M28.2,41.1c-1.2,0.3-2.4,0.4-3.7,0.4c-8.8,0-16-7.2-16-16c0-3,0.8-5.9,2.3-8.3"/><path fill="none" stroke="#18193f" stroke-linecap="round" stroke-linejoin="round" stroke-width="3" d="M17.4,11.2c2.1-1.1,4.6-1.7,7.1-1.7c8.8,0,16,7.2,16,16c0,4.5-1.9,8.6-4.9,11.5"/><path fill="none" stroke="#18193f" stroke-linecap="round" stroke-linejoin="round" stroke-width="3" d="M24.5,10c-4.9,3.4-6.5,9.4-6.5,15.7c0,6.4,2.4,11.6,6.5,15.8"/><path fill="none" stroke="#18193f" stroke-linecap="round" stroke-linejoin="round" stroke-width="3" d="M24,10c4.9,3.4,6.5,9.4,6.5,15.7c0,6.4-2.4,11.6-6.5,15.8"/><line x1="9" x2="34" y1="25.5" y2="25.5" fill="none" stroke="#18193f" stroke-linecap="round" stroke-linejoin="round" stroke-width="3"/><line x1="15.7" x2="38" y1="17.5" y2="17.5" fill="none" stroke="#18193f" stroke-linecap="round" stroke-linejoin="round" stroke-width="3"/><line x1="11" x2="38" y1="33.5" y2="33.5" fill="none" stroke="#18193f" stroke-linecap="round" stroke-linejoin="round" stroke-width="3"/><line x1="24.5" x2="24.5" y1="9.5" y2="3.5" fill="none" stroke="#18193f" stroke-linecap="round" stroke-width="3"/><path fill="#18193f" d="M45.5,6L45.5,6C44.1,6,43,4.9,43,3.5v0C43,2.7,42.3,2,41.5,2S40,2.7,40,3.5v0C40,4.9,38.9,6,37.5,6h0 C36.7,6,36,6.7,36,7.5S36.7,9,37.5,9h0c1.4,0,2.5,1.1,2.5,2.5v0c0,0.8,0.7,1.5,1.5,1.5s1.5-0.7,1.5-1.5v0c0-1.4,1.1-2.5,2.5-2.5h0 C46.3,9,47,8.3,47,7.5S46.3,6,45.5,6z"/><path fill="#18193f" d="M9.5,40L9.5,40C8.7,40,8,39.3,8,38.5l0,0C8,37.7,7.3,37,6.5,37S5,37.7,5,38.5l0,0C5,39.3,4.3,40,3.5,40h0 C2.7,40,2,40.7,2,41.5S2.7,43,3.5,43h0C4.3,43,5,43.7,5,44.5l0,0C5,45.3,5.7,46,6.5,46S8,45.3,8,44.5l0,0C8,43.7,8.7,43,9.5,43h0 c0.8,0,1.5-0.7,1.5-1.5S10.3,40,9.5,40z"/></svg>