<svg xmlns="http://www.w3.org/2000/svg"  viewBox="0 0 48 48" width="48px" height="48px"><path fill="#ffe082" d="M42,37.4c0,4.5-6.3,8.2-14,8.2s-14-3.7-14-8.2v-0.5c0-1.6,1.3-2.9,2.9-2.9h22.2c1.6,0,2.9,1.3,2.9,2.9V37.4z"/><circle cx="28" cy="21.3" r="8.2" fill="#ffe082"/><path fill="none" stroke="#18193f" stroke-linecap="round" stroke-linejoin="round" stroke-width="3" d="M31.5,41.3c-2.2,0.8-4.8,1.2-7.5,1.2c-8,0-14.5-3.8-14.5-8.5v-0.5c0-1.7,1.3-3,3-3H15"/><path fill="none" stroke="#18193f" stroke-linecap="round" stroke-linejoin="round" stroke-width="3" d="M19.6,30.5h15.9c1.7,0,3,1.3,3,3V34c0,1.6-0.8,3.2-2.2,4.5"/><path fill="none" stroke="#18193f" stroke-linecap="round" stroke-linejoin="round" stroke-miterlimit="10" stroke-width="3" d="M31.5,12.5h2.8c1.8,0,3.2,1.4,3.2,3.2v2.5c0,1.8-1.4,3.2-3.2,3.2h-2.8"/><path fill="none" stroke="#18193f" stroke-linecap="round" stroke-linejoin="round" stroke-miterlimit="10" stroke-width="3" d="M16.5,12.5h-2.8c-1.8,0-3.2,1.4-3.2,3.2v2.5c0,1.8,1.4,3.2,3.2,3.2h2.8"/><path fill="none" stroke="#18193f" stroke-linecap="round" stroke-linejoin="round" stroke-width="3" d="M31.2,12.5c0.8,1.3,1.3,2.8,1.3,4.5c0,4.7-3.8,8.5-8.5,8.5s-8.5-3.8-8.5-8.5s3.8-8.5,8.5-8.5	c1,0,2,0.2,2.9,0.5"/><path fill="none" stroke="#18193f" stroke-linecap="round" stroke-linejoin="round" stroke-width="3" d="M37.5,16c0-7.5-6-13.5-13.5-13.5h0c-7.5,0-13.5,6-13.5,13.5"/></svg>