<svg xmlns="http://www.w3.org/2000/svg"  viewBox="0 0 48 48" width="48px" height="48px"><path fill="#90caf9" d="M26,17.8c0-4.3-4.3-7.7-9.5-7.7c-2.1,0-4,0.5-5.5,1.5c-0.6,0.4-1,1-1,1.7v9.1c0,0.7,0.4,1.4,1,1.7	c1.6,0.9,3.5,1.5,5.5,1.5c1.2,0,2.4-0.2,3.5-0.5l0,13.9c0,1.5,1,2.8,2.4,3.1c1.9,0.3,3.6-1.1,3.6-2.9C26,39.1,26,17.9,26,17.8z"/><path fill="#90caf9" d="M31,22.2c0-4.3,4.3-7.7,9.5-7.7c2.1,0,4,0.5,5.5,1.5c0.6,0.4,1,1,1,1.7v9.1c0,0.7-0.4,1.4-1,1.7	c-1.6,0.9-3.5,1.5-5.5,1.5c-1.2,0-2.4-0.2-3.5-0.5l0,13.9c0,1.5-1,2.8-2.4,3.1c-1.9,0.3-3.6-1.1-3.6-2.9C31,43.5,31,22.3,31,22.2z"/><line x1="15.6" x2="21" y1="29.5" y2="29.5" fill="none" stroke="#18193f" stroke-linecap="round" stroke-linejoin="round" stroke-width="3"/><path fill="none" stroke="#18193f" stroke-linecap="round" stroke-linejoin="round" stroke-miterlimit="10" stroke-width="3" d="M21.5,13.2c0-4.3-4.3-7.7-9.5-7.7C9.9,5.5,8,6,6.5,7c-0.6,0.4-1,1-1,1.7v9.1c0,0.7,0.4,1.4,1,1.7	C8,20.5,9.9,21,12,21c1.2,0,2.4-0.2,3.5-0.5l0,3.8"/><path fill="none" stroke="#18193f" stroke-linecap="round" stroke-linejoin="round" stroke-miterlimit="10" stroke-width="3" d="M15.5,29.5l0,4.8c0,1.6,1.2,3.1,2.8,3.2c1.7,0.1,3.2-1.3,3.2-3c0,0,0-9.8,0-15.8"/><line x1="26.5" x2="32" y1="34.5" y2="34.5" fill="none" stroke="#18193f" stroke-linecap="round" stroke-linejoin="round" stroke-width="3"/><path fill="none" stroke="#18193f" stroke-linecap="round" stroke-linejoin="round" stroke-miterlimit="10" stroke-width="3" d="M26.5,29.1c0-5.4,0-10.8,0-10.8c0-4.3,4.3-7.7,9.5-7.7c2.1,0,4,0.5,5.5,1.5c0.6,0.4,1,1,1,1.7v9.1	c0,0.7-0.4,1.4-1,1.7C40,25.5,38.1,26,36,26c-1.2,0-2.4-0.2-3.5-0.5l0,13.9c0,1.6-1.2,3.1-2.8,3.2c-1.7,0.1-3.2-1.3-3.2-3	c0,0,0-1.8,0-4.8"/></svg>