<svg xmlns="http://www.w3.org/2000/svg"  viewBox="0 0 48 48" width="48px" height="48px" clip-rule="evenodd"><path fill="#9fa8da" d="M41.937,38.511c0,0.74-0.425,1.415-1.093,1.734l-12.057,5.762c-0.497,0.237-1.074,0.237-1.573,0	l-12.057-5.762c-0.668-0.319-1.093-0.994-1.093-1.734V12.149c0-1.062,0.861-1.922,1.922-1.922h24.03	c1.062,0,1.922,0.861,1.922,1.922V38.511z"/><path fill="none" stroke="#18193f" stroke-linecap="round" stroke-linejoin="round" stroke-miterlimit="10" stroke-width="3" d="M9.499,12.085V7.5c0-1.105,0.895-2,2-2H36.5c1.105,0,2,0.895,2,2v15.245"/><path fill="none" stroke="#18193f" stroke-linecap="round" stroke-linejoin="round" stroke-miterlimit="10" stroke-width="3" d="M38.5,30.277v4.651c0,0.77-0.443,1.472-1.138,1.805l-12.545,5.995c-0.517,0.247-1.117,0.247-1.636,0l-12.545-5.995	c-0.695-0.332-1.138-1.034-1.138-1.805V19.745"/><path fill="#18193f" fill-rule="evenodd" d="M28.801,34.782h-9.622c-0.122,0-0.159,0.166-0.047,0.217	l4.71,2.144c0.03,0.014,0.063,0.014,0.093,0.002L28.845,35C28.959,34.95,28.923,34.782,28.801,34.782z" clip-rule="evenodd"/><polygon fill="#18193f" fill-rule="evenodd" points="13.711,23.841 17.57,23.841 17.57,21.912 15.64,21.912 15.64,18.695 17.57,18.695 17.57,16.767 15.64,16.767 15.64,13.552 17.57,13.552 17.57,11.623 13.711,11.623" clip-rule="evenodd"/><rect width="1.929" height="12.218" x="25.286" y="11.623" fill="#18193f" fill-rule="evenodd" clip-rule="evenodd"/><path fill="#18193f" fill-rule="evenodd" d="M20.785,19.982h1.027c1.465,0,2.188-0.732,2.188-2.214v-3.793	c0-1.575-0.772-2.352-2.339-2.352h-0.65h-2.155v12.218h1.929L20.785,19.982L20.785,19.982z M20.785,13.552h0.644	c0.355,0,0.644,0.287,0.644,0.644v3.215c0,0.355-0.287,0.644-0.644,0.644h-0.644V13.552z" clip-rule="evenodd"/><path fill="#18193f" fill-rule="evenodd" d="M34.289,21.557v-2.218H32.36v1.816	c0,0.516-0.248,0.755-0.765,0.755h-0.381c-0.535,0-0.783-0.24-0.783-0.755v-3.746v-2.462v-0.755c0-0.355,0.287-0.644,0.644-0.644	h0.644c0.355,0,0.644,0.287,0.644,0.644v0.644v1.286h1.929v-2.171c0-1.571-0.782-2.33-2.4-2.33h-0.967	c-1.619,0-2.419,0.777-2.419,2.349v7.521c0,1.571,0.801,2.349,2.419,2.349h0.98C33.499,23.841,34.289,23.084,34.289,21.557z" clip-rule="evenodd"/><polygon fill="#18193f" fill-rule="evenodd" points="34.237,29.609 34.233,29.555 34.222,29.502 34.211,29.449 34.201,29.402 34.184,29.353 34.168,29.306 34.148,29.263 34.121,29.215 34.094,29.172 34.063,29.124 34.032,29.081 33.994,29.044 33.956,29.001 33.914,28.964 33.871,28.926 33.829,28.899 33.787,28.868 33.744,28.841 33.696,28.814 33.649,28.788 33.595,28.761 33.542,28.741 33.488,28.714 33.43,28.692 33.383,28.676 33.335,28.661 33.281,28.643 33.234,28.628 33.181,28.612 33.127,28.596 33.074,28.585 33.016,28.57 32.962,28.554 32.904,28.543 32.846,28.527 32.788,28.51 32.729,28.494 32.675,28.483 32.628,28.468 32.581,28.457 32.537,28.442 32.496,28.431 32.432,28.409 32.372,28.389 32.32,28.365 32.278,28.339 32.229,28.312 32.193,28.276 32.171,28.245 32.145,28.185 32.14,28.116 32.14,28.105 32.145,28.051 32.167,28.003 32.198,27.956 32.245,27.913 32.283,27.891 32.325,27.869 32.372,27.86 32.426,27.849 32.484,27.838 32.548,27.838 32.601,27.838 32.649,27.843 32.702,27.849 32.755,27.854 32.809,27.865 32.862,27.876 32.915,27.887 32.967,27.902 33.021,27.918 33.08,27.934 33.123,27.956 33.17,27.971 33.212,27.993 33.261,28.014 33.303,28.036 33.35,28.058 33.394,28.084 33.441,28.105 33.484,28.138 33.526,28.165 33.573,28.191 33.616,28.221 33.649,28.179 33.675,28.138 33.707,28.094 33.738,28.051 33.771,28.003 33.798,27.96 33.829,27.918 33.86,27.876 33.887,27.833 33.919,27.789 33.952,27.747 33.978,27.705 34.01,27.657 34.041,27.613 34.072,27.571 34.099,27.529 34.132,27.486 34.09,27.453 34.047,27.422 34.005,27.391 33.963,27.364 33.914,27.331 33.871,27.304 33.824,27.278 33.776,27.251 33.733,27.229 33.685,27.202 33.633,27.182 33.586,27.161 33.537,27.139 33.488,27.122 33.435,27.102 33.388,27.091 33.341,27.075 33.286,27.058 33.239,27.048 33.185,27.037 33.134,27.028 33.085,27.017 33.032,27.004 32.973,27.001 32.92,26.99 32.862,26.984 32.809,26.984 32.751,26.978 32.691,26.975 32.634,26.975 32.575,26.975 32.517,26.975 32.463,26.975 32.411,26.978 32.358,26.984 32.305,26.99 32.251,26.995 32.204,27.004 32.149,27.017 32.102,27.028 32.054,27.037 32.013,27.048 31.964,27.064 31.911,27.086 31.857,27.102 31.81,27.122 31.763,27.149 31.714,27.172 31.666,27.197 31.623,27.224 31.583,27.256 31.539,27.289 31.501,27.315 31.46,27.353 31.422,27.395 31.385,27.433 31.347,27.475 31.316,27.518 31.284,27.56 31.258,27.609 31.231,27.657 31.21,27.705 31.189,27.753 31.168,27.8 31.157,27.849 31.141,27.896 31.13,27.945 31.119,27.993 31.115,28.047 31.108,28.094 31.104,28.147 31.104,28.201 31.104,28.212 31.104,28.271 31.108,28.329 31.115,28.383 31.119,28.436 31.13,28.483 31.141,28.537 31.157,28.581 31.173,28.628 31.189,28.67 31.21,28.708 31.237,28.755 31.262,28.799 31.289,28.835 31.32,28.873 31.353,28.91 31.391,28.948 31.427,28.986 31.465,29.017 31.507,29.044 31.55,29.077 31.598,29.103 31.641,29.13 31.692,29.157 31.741,29.183 31.794,29.204 31.848,29.226 31.901,29.246 31.959,29.268 32.006,29.284 32.054,29.3 32.102,29.317 32.154,29.326 32.204,29.344 32.256,29.359 32.309,29.369 32.363,29.386 32.416,29.395 32.474,29.413 32.528,29.422 32.586,29.439 32.639,29.449 32.691,29.466 32.74,29.475 32.788,29.493 32.831,29.502 32.867,29.513 32.931,29.54 32.984,29.562 33.032,29.582 33.074,29.604 33.118,29.635 33.154,29.668 33.181,29.706 33.203,29.758 33.207,29.822 33.207,29.833 33.203,29.887 33.185,29.935 33.165,29.978 33.134,30.015 33.091,30.048 33.054,30.069 33.011,30.084 32.962,30.095 32.915,30.105 32.862,30.116 32.804,30.122 32.74,30.122 32.686,30.122 32.628,30.116 32.575,30.116 32.521,30.105 32.463,30.1 32.411,30.089 32.358,30.078 32.305,30.069 32.256,30.052 32.204,30.036 32.149,30.02 32.102,29.998 32.054,29.982 32.006,29.962 31.959,29.942 31.911,29.918 31.868,29.891 31.821,29.871 31.777,29.844 31.73,29.811 31.688,29.785 31.641,29.753 31.598,29.722 31.55,29.69 31.507,29.657 31.474,29.7 31.438,29.738 31.407,29.78 31.369,29.822 31.336,29.86 31.306,29.902 31.269,29.945 31.237,29.982 31.2,30.025 31.168,30.063 31.13,30.105 31.097,30.149 31.068,30.187 31.03,30.229 30.997,30.271 30.959,30.309 30.928,30.351 30.97,30.389 31.008,30.42 31.05,30.453 31.093,30.485 31.135,30.516 31.178,30.548 31.22,30.574 31.262,30.603 31.311,30.629 31.353,30.656 31.4,30.683 31.449,30.703 31.498,30.73 31.545,30.752 31.592,30.772 31.645,30.794 31.692,30.81 31.746,30.825 31.794,30.847 31.848,30.863 31.901,30.88 31.948,30.89 32.002,30.906 32.054,30.917 32.107,30.928 32.16,30.937 32.214,30.949 32.267,30.954 32.32,30.964 32.378,30.97 32.432,30.976 32.484,30.981 32.543,30.981 32.597,30.986 32.649,30.986 32.708,30.986 32.766,30.986 32.82,30.986 32.873,30.981 32.931,30.976 32.984,30.97 33.032,30.964 33.085,30.959 33.138,30.949 33.185,30.937 33.234,30.928 33.286,30.917 33.335,30.901 33.388,30.884 33.441,30.869 33.495,30.847 33.548,30.825 33.595,30.799 33.642,30.778 33.691,30.752 33.733,30.719 33.776,30.692 33.818,30.661 33.854,30.629 33.898,30.592 33.93,30.56 33.967,30.521 33.999,30.485 34.025,30.442 34.057,30.4 34.083,30.356 34.11,30.314 34.132,30.267 34.152,30.223 34.174,30.176 34.19,30.122 34.201,30.073 34.217,30.02 34.228,29.967 34.233,29.909 34.237,29.855 34.244,29.797 34.244,29.738 34.244,29.727 34.244,29.668" clip-rule="evenodd"/><polygon fill="#18193f" fill-rule="evenodd" points="30.459,30.042 30.407,30.042 30.353,30.042 30.3,30.042 30.247,30.042 30.193,30.042 30.14,30.042 30.086,30.042 30.028,30.042 29.975,30.042 29.922,30.042 29.87,30.042 29.815,30.042 29.763,30.042 29.71,30.042 29.656,30.042 29.603,30.042 29.551,30.042 29.498,30.042 29.444,30.042 29.391,30.042 29.338,30.042 29.284,30.042 29.232,30.042 29.179,30.042 29.126,30.042 29.072,30.042 29.019,30.042 28.961,30.042 28.907,30.042 28.854,30.042 28.801,30.042 28.749,30.042 28.696,30.042 28.642,30.042 28.589,30.042 28.537,30.042 28.484,30.042 28.484,29.989 28.484,29.929 28.484,29.876 28.484,29.822 28.484,29.764 28.484,29.711 28.484,29.657 28.484,29.599 28.484,29.546 28.484,29.493 28.484,29.433 28.484,29.38 28.537,29.38 28.589,29.38 28.642,29.38 28.696,29.38 28.749,29.38 28.801,29.38 28.854,29.38 28.907,29.38 28.956,29.38 29.008,29.38 29.061,29.38 29.115,29.38 29.168,29.38 29.221,29.38 29.273,29.38 29.327,29.38 29.382,29.38 29.435,29.38 29.487,29.38 29.54,29.38 29.594,29.38 29.647,29.38 29.699,29.38 29.752,29.38 29.805,29.38 29.859,29.38 29.906,29.38 29.959,29.38 30.013,29.38 30.066,29.38 30.119,29.38 30.171,29.38 30.225,29.38 30.278,29.38 30.331,29.38 30.331,29.326 30.331,29.279 30.331,29.226 30.331,29.172 30.331,29.124 30.331,29.07 30.331,29.017 30.331,28.964 30.331,28.915 30.331,28.862 30.331,28.808 30.331,28.761 30.331,28.708 30.331,28.654 30.331,28.607 30.331,28.554 30.278,28.554 30.225,28.554 30.171,28.554 30.119,28.554 30.066,28.554 30.013,28.554 29.959,28.554 29.906,28.554 29.859,28.554 29.805,28.554 29.752,28.554 29.699,28.554 29.647,28.554 29.594,28.554 29.54,28.554 29.487,28.554 29.435,28.554 29.382,28.554 29.327,28.554 29.273,28.554 29.221,28.554 29.168,28.554 29.115,28.554 29.061,28.554 29.008,28.554 28.956,28.554 28.907,28.554 28.854,28.554 28.801,28.554 28.749,28.554 28.696,28.554 28.642,28.554 28.589,28.554 28.537,28.554 28.484,28.554 28.484,28.5 28.484,28.446 28.484,28.392 28.484,28.339 28.484,28.285 28.484,28.232 28.484,28.185 28.484,28.132 28.484,28.078 28.484,28.025 28.484,27.971 28.484,27.918 28.537,27.918 28.589,27.918 28.642,27.918 28.696,27.918 28.749,27.918 28.801,27.918 28.849,27.918 28.903,27.918 28.956,27.918 29.008,27.918 29.061,27.918 29.115,27.918 29.168,27.918 29.221,27.918 29.273,27.918 29.327,27.918 29.382,27.918 29.435,27.918 29.487,27.918 29.534,27.918 29.587,27.918 29.641,27.918 29.694,27.918 29.747,27.918 29.801,27.918 29.854,27.918 29.906,27.918 29.959,27.918 30.013,27.918 30.066,27.918 30.119,27.918 30.171,27.918 30.22,27.918 30.273,27.918 30.327,27.918 30.38,27.918 30.433,27.918 30.485,27.918 30.539,27.918 30.539,27.865 30.539,27.816 30.539,27.763 30.539,27.709 30.539,27.657 30.539,27.609 30.539,27.555 30.539,27.502 30.539,27.453 30.539,27.4 30.539,27.347 30.539,27.3 30.539,27.246 30.539,27.193 30.539,27.139 30.539,27.091 30.539,27.037 30.485,27.037 30.433,27.037 30.38,27.037 30.327,27.037 30.273,27.037 30.22,27.037 30.167,27.037 30.113,27.037 30.06,27.037 30.008,27.037 29.955,27.037 29.901,27.037 29.848,27.037 29.794,27.037 29.747,27.037 29.694,27.037 29.641,27.037 29.587,27.037 29.534,27.037 29.482,27.037 29.429,27.037 29.375,27.037 29.322,27.037 29.269,27.037 29.217,27.037 29.163,27.037 29.11,27.037 29.057,27.037 29.003,27.037 28.95,27.037 28.896,27.037 28.843,27.037 28.791,27.037 28.738,27.037 28.685,27.037 28.631,27.037 28.578,27.037 28.524,27.037 28.473,27.037 28.419,27.037 28.366,27.037 28.312,27.037 28.261,27.037 28.212,27.037 28.159,27.037 28.105,27.037 28.053,27.037 28,27.037 27.947,27.037 27.893,27.037 27.84,27.037 27.787,27.037 27.733,27.037 27.68,27.037 27.626,27.037 27.573,27.037 27.521,27.037 27.468,27.037 27.468,27.091 27.468,27.146 27.468,27.197 27.468,27.251 27.468,27.304 27.468,27.358 27.468,27.411 27.468,27.464 27.468,27.518 27.468,27.571 27.468,27.624 27.468,27.678 27.468,27.731 27.468,27.785 27.468,27.838 27.468,27.891 27.468,27.945 27.468,27.998 27.468,28.047 27.468,28.099 27.468,28.152 27.468,28.205 27.468,28.259 27.468,28.312 27.468,28.365 27.468,28.419 27.468,28.472 27.468,28.527 27.468,28.581 27.468,28.634 27.468,28.687 27.468,28.741 27.468,28.792 27.468,28.846 27.468,28.899 27.468,28.953 27.468,29.006 27.468,29.059 27.468,29.113 27.468,29.166 27.468,29.221 27.468,29.273 27.468,29.326 27.468,29.38 27.468,29.433 27.468,29.486 27.468,29.54 27.468,29.593 27.468,29.646 27.468,29.7 27.468,29.753 27.468,29.807 27.468,29.86 27.468,29.915 27.468,29.962 27.468,30.015 27.468,30.069 27.468,30.122 27.468,30.176 27.468,30.229 27.468,30.282 27.468,30.336 27.468,30.389 27.468,30.442 27.468,30.496 27.468,30.548 27.468,30.603 27.468,30.656 27.468,30.709 27.468,30.763 27.468,30.816 27.468,30.869 27.468,30.923 27.521,30.923 27.573,30.923 27.626,30.923 27.68,30.923 27.733,30.923 27.787,30.923 27.84,30.923 27.893,30.923 27.947,30.923 28.005,30.923 28.057,30.923 28.11,30.923 28.163,30.923 28.218,30.923 28.27,30.923 28.323,30.923 28.377,30.923 28.43,30.923 28.484,30.923 28.537,30.923 28.589,30.923 28.642,30.923 28.696,30.923 28.749,30.923 28.801,30.923 28.854,30.923 28.907,30.923 28.961,30.923 29.019,30.923 29.072,30.923 29.126,30.923 29.179,30.923 29.232,30.923 29.284,30.923 29.338,30.923 29.391,30.923 29.444,30.923 29.498,30.923 29.551,30.923 29.603,30.923 29.656,30.923 29.71,30.923 29.763,30.923 29.815,30.923 29.87,30.923 29.922,30.923 29.975,30.923 30.028,30.923 30.086,30.923 30.14,30.923 30.193,30.923 30.247,30.923 30.3,30.923 30.353,30.923 30.407,30.923 30.459,30.923 30.512,30.923 30.565,30.923 30.565,30.869 30.565,30.821 30.565,30.766 30.565,30.712 30.565,30.661 30.565,30.614 30.565,30.56 30.565,30.507 30.565,30.458 30.565,30.405 30.565,30.351 30.565,30.303 30.565,30.249 30.565,30.196 30.565,30.143 30.565,30.095 30.565,30.042 30.512,30.042" clip-rule="evenodd"/><polygon fill="#18193f" fill-rule="evenodd" points="26.578,27.037 26.529,27.037 26.476,27.037 26.424,27.037 26.371,27.037 26.322,27.037 26.268,27.037 26.217,27.037 26.163,27.037 26.116,27.037 26.061,27.037 26.008,27.037 25.956,27.037 25.907,27.037 25.856,27.037 25.802,27.037 25.749,27.037 25.702,27.037 25.648,27.037 25.595,27.037 25.568,27.081 25.542,27.128 25.51,27.171 25.484,27.219 25.457,27.262 25.43,27.309 25.399,27.351 25.372,27.4 25.345,27.442 25.319,27.485 25.286,27.533 25.261,27.576 25.234,27.624 25.207,27.667 25.174,27.714 25.148,27.756 25.121,27.8 25.094,27.847 25.068,27.89 25.036,27.937 25.009,27.981 24.983,28.028 24.958,28.072 24.925,28.119 24.898,28.161 24.871,28.204 24.845,28.252 24.815,28.295 24.788,28.343 24.761,28.386 24.735,28.433 24.702,28.477 24.675,28.524 24.648,28.566 24.623,28.524 24.597,28.477 24.564,28.433 24.538,28.386 24.512,28.343 24.485,28.295 24.458,28.252 24.425,28.204 24.399,28.161 24.372,28.119 24.347,28.072 24.32,28.028 24.287,27.981 24.261,27.937 24.234,27.89 24.209,27.847 24.182,27.8 24.149,27.756 24.122,27.714 24.096,27.667 24.069,27.624 24.038,27.576 24.011,27.533 23.984,27.485 23.958,27.442 23.931,27.4 23.9,27.351 23.873,27.309 23.846,27.262 23.821,27.219 23.793,27.171 23.761,27.128 23.735,27.081 23.708,27.037 23.655,27.037 23.603,27.037 23.554,27.037 23.501,27.037 23.447,27.037 23.396,27.037 23.347,27.037 23.295,27.037 23.242,27.037 23.188,27.037 23.14,27.037 23.086,27.037 23.035,27.037 22.981,27.037 22.934,27.037 22.881,27.037 22.827,27.037 22.774,27.037 22.727,27.037 22.673,27.037 22.62,27.037 22.62,27.091 22.62,27.146 22.62,27.197 22.62,27.251 22.62,27.304 22.62,27.358 22.62,27.411 22.62,27.464 22.62,27.518 22.62,27.571 22.62,27.624 22.62,27.678 22.62,27.731 22.62,27.785 22.62,27.838 22.62,27.891 22.62,27.945 22.62,27.998 22.62,28.047 22.62,28.099 22.62,28.152 22.62,28.205 22.62,28.259 22.62,28.312 22.62,28.365 22.62,28.419 22.62,28.472 22.62,28.527 22.62,28.581 22.62,28.634 22.62,28.687 22.62,28.741 22.62,28.792 22.62,28.846 22.62,28.899 22.62,28.953 22.62,29.006 22.62,29.059 22.62,29.113 22.62,29.166 22.62,29.221 22.62,29.273 22.62,29.326 22.62,29.38 22.62,29.433 22.62,29.486 22.62,29.54 22.62,29.593 22.62,29.646 22.62,29.7 22.62,29.753 22.62,29.807 22.62,29.86 22.62,29.915 22.62,29.962 22.62,30.015 22.62,30.069 22.62,30.122 22.62,30.176 22.62,30.229 22.62,30.282 22.62,30.336 22.62,30.389 22.62,30.442 22.62,30.496 22.62,30.548 22.62,30.603 22.62,30.656 22.62,30.709 22.62,30.763 22.62,30.816 22.62,30.869 22.62,30.923 22.673,30.923 22.727,30.923 22.779,30.923 22.832,30.923 22.885,30.923 22.939,30.923 22.992,30.923 23.044,30.923 23.097,30.923 23.151,30.923 23.204,30.923 23.257,30.923 23.311,30.923 23.364,30.923 23.416,30.923 23.469,30.923 23.523,30.923 23.576,30.923 23.63,30.923 23.63,30.869 23.63,30.816 23.63,30.763 23.63,30.709 23.63,30.654 23.63,30.601 23.63,30.548 23.63,30.494 23.63,30.441 23.63,30.387 23.63,30.34 23.63,30.287 23.63,30.234 23.63,30.18 23.63,30.127 23.63,30.072 23.63,30.019 23.63,29.965 23.63,29.912 23.63,29.858 23.63,29.805 23.63,29.753 23.63,29.698 23.63,29.645 23.63,29.592 23.63,29.538 23.63,29.485 23.63,29.431 23.63,29.378 23.63,29.325 23.63,29.271 23.63,29.218 23.63,29.171 23.63,29.117 23.63,29.062 23.63,29.009 23.63,28.956 23.63,28.902 23.63,28.849 23.63,28.796 23.63,28.742 23.63,28.689 23.63,28.635 23.661,28.679 23.688,28.727 23.719,28.769 23.746,28.818 23.777,28.86 23.804,28.909 23.837,28.951 23.863,29 23.895,29.041 23.922,29.091 23.953,29.133 23.98,29.182 24.011,29.224 24.038,29.271 24.069,29.314 24.096,29.362 24.129,29.406 24.16,29.453 24.187,29.496 24.218,29.544 24.245,29.587 24.278,29.635 24.303,29.678 24.336,29.727 24.361,29.769 24.394,29.818 24.421,29.86 24.452,29.909 24.479,29.951 24.512,29.998 24.538,30.042 24.57,30.089 24.597,30.133 24.628,30.18 24.648,30.18 24.675,30.138 24.706,30.089 24.735,30.047 24.766,30.004 24.791,29.956 24.824,29.913 24.851,29.871 24.878,29.822 24.909,29.78 24.936,29.738 24.969,29.694 24.995,29.646 25.027,29.603 25.053,29.56 25.08,29.513 25.111,29.469 25.138,29.427 25.17,29.38 25.196,29.336 25.228,29.293 25.254,29.245 25.281,29.202 25.312,29.16 25.339,29.111 25.372,29.067 25.399,29.026 25.43,28.984 25.457,28.935 25.484,28.893 25.515,28.849 25.542,28.802 25.573,28.76 25.6,28.716 25.631,28.668 25.658,28.626 25.658,28.679 25.658,28.733 25.658,28.786 25.658,28.84 25.658,28.893 25.658,28.945 25.658,28.998 25.658,29.052 25.658,29.106 25.658,29.16 25.658,29.213 25.658,29.265 25.658,29.318 25.658,29.373 25.658,29.427 25.658,29.48 25.658,29.533 25.658,29.587 25.658,29.64 25.658,29.694 25.658,29.747 25.658,29.8 25.658,29.854 25.658,29.907 25.658,29.96 25.658,30.014 25.658,30.067 25.658,30.121 25.658,30.174 25.658,30.227 25.658,30.281 25.658,30.334 25.658,30.387 25.658,30.441 25.658,30.494 25.658,30.548 25.658,30.601 25.658,30.654 25.658,30.709 25.658,30.763 25.658,30.816 25.658,30.869 25.658,30.923 25.711,30.923 25.765,30.923 25.818,30.923 25.876,30.923 25.929,30.923 25.981,30.923 26.035,30.923 26.088,30.923 26.143,30.923 26.199,30.923 26.253,30.923 26.308,30.923 26.36,30.923 26.413,30.923 26.465,30.923 26.524,30.923 26.578,30.923 26.63,30.923 26.685,30.923 26.685,30.869 26.685,30.816 26.685,30.763 26.685,30.709 26.685,30.656 26.685,30.603 26.685,30.548 26.685,30.496 26.685,30.442 26.685,30.389 26.685,30.336 26.685,30.282 26.685,30.229 26.685,30.176 26.685,30.122 26.685,30.069 26.685,30.015 26.685,29.962 26.685,29.915 26.685,29.86 26.685,29.807 26.685,29.753 26.685,29.7 26.685,29.646 26.685,29.593 26.685,29.54 26.685,29.486 26.685,29.433 26.685,29.38 26.685,29.326 26.685,29.273 26.685,29.221 26.685,29.166 26.685,29.113 26.685,29.059 26.685,29.006 26.685,28.953 26.685,28.899 26.685,28.846 26.685,28.792 26.685,28.741 26.685,28.687 26.685,28.634 26.685,28.581 26.685,28.527 26.685,28.472 26.685,28.419 26.685,28.365 26.685,28.312 26.685,28.259 26.685,28.205 26.685,28.152 26.685,28.099 26.685,28.047 26.685,27.998 26.685,27.945 26.685,27.891 26.685,27.838 26.685,27.785 26.685,27.731 26.685,27.678 26.685,27.624 26.685,27.571 26.685,27.518 26.685,27.464 26.685,27.411 26.685,27.358 26.685,27.304 26.685,27.251 26.685,27.197 26.685,27.146 26.685,27.091 26.685,27.037 26.63,27.037" clip-rule="evenodd"/><path fill="#18193f" fill-rule="evenodd" d="M22.144,30.825l-0.022-0.049l-0.016-0.053l-0.022-0.049	l-0.022-0.049l-0.022-0.049l-0.022-0.049l-0.022-0.049l-0.022-0.053l-0.022-0.049l-0.016-0.049l-0.022-0.049l-0.022-0.049	l-0.022-0.049l-0.022-0.055l-0.022-0.049l-0.022-0.049l-0.022-0.049l-0.016-0.049l-0.022-0.049l-0.022-0.053l-0.022-0.049	l-0.022-0.049l-0.022-0.049l-0.022-0.049l-0.022-0.049l-0.016-0.053l-0.022-0.049l-0.022-0.049l-0.022-0.049L21.51,29.34	l-0.022-0.049l-0.022-0.053l-0.022-0.049l-0.016-0.049l-0.022-0.049l-0.022-0.049l-0.022-0.049l-0.022-0.053l-0.014-0.039	l-0.022-0.049l-0.022-0.049l-0.016-0.049l-0.022-0.049l-0.022-0.049l-0.022-0.053l-0.022-0.049l-0.022-0.049l-0.022-0.049	l-0.022-0.049l-0.016-0.049l-0.022-0.053l-0.022-0.049l-0.022-0.049l-0.022-0.049l-0.022-0.049l-0.022-0.049l-0.022-0.053	l-0.016-0.049l-0.022-0.049l-0.022-0.049l-0.022-0.049l-0.022-0.049l-0.022-0.053l-0.022-0.049l-0.022-0.049l-0.016-0.049	l-0.022-0.049l-0.022-0.049l-0.022-0.053L20.67,27.37l-0.022-0.049l-0.022-0.049l-0.022-0.049l-0.009-0.039l-0.022-0.053	l-0.022-0.049l-0.022-0.049l-0.022-0.049h-0.053h-0.049h-0.061h-0.052H20.24h-0.008h-0.053h-0.053h-0.052h-0.049h-0.053h-0.053	h-0.05h-0.049h-0.053h-0.052h-0.052h-0.049h-0.052l-0.022,0.049l-0.022,0.049l-0.022,0.049l-0.016,0.053l-0.022,0.047l-0.022,0.049	l-0.022,0.049l-0.022,0.049l-0.022,0.049l-0.022,0.053l-0.022,0.049l-0.016,0.049l-0.022,0.049l-0.022,0.049l-0.022,0.049	l-0.022,0.053l-0.022,0.049l-0.022,0.049l-0.022,0.049l-0.016,0.049l-0.022,0.049l-0.022,0.053l-0.022,0.049l-0.022,0.049	l-0.022,0.049l-0.022,0.049l-0.022,0.049l-0.016,0.053l-0.022,0.049l-0.022,0.049l-0.022,0.049l-0.022,0.049l-0.022,0.049	l-0.022,0.053l-0.022,0.049l-0.016,0.049l-0.022,0.049l-0.022,0.049l-0.022,0.049l-0.022,0.049l-0.022,0.053l-0.022,0.049	l-0.022,0.049l-0.016,0.049l-0.022,0.049l-0.022,0.049l-0.022,0.053l-0.022,0.049l-0.022,0.049l-0.022,0.049l-0.022,0.049	l-0.016,0.049l-0.022,0.053l-0.022,0.049l-0.022,0.049l-0.022,0.049L18.353,29.8l-0.022,0.049l-0.022,0.053l-0.022,0.047	l-0.022,0.049l-0.022,0.049l-0.022,0.049l-0.022,0.049l-0.022,0.053l-0.008,0.035l-0.022,0.049l-0.016,0.049l-0.022,0.049	l-0.022,0.049l-0.022,0.053l-0.022,0.049l-0.022,0.049L18,30.626l-0.022,0.049l-0.016,0.049l-0.022,0.053l-0.022,0.049l-0.022,0.049	l-0.022,0.049h0.052h0.053h0.052h0.053h0.058h0.052h0.052H18.3h0.053h0.052h0.052h0.053h0.053h0.052h0.058h0.052h0.053h0.052h0.052	h0.052l0.022-0.049l0.016-0.049l0.022-0.049l0.022-0.053l0.016-0.049l0.022-0.049l0.022-0.049l0.016-0.049l0.022-0.049l0.022-0.049	l0.016-0.049l0.022-0.053l0.022-0.049l0.016-0.049l0.022-0.049h0.052h0.053h0.053h0.052h0.049h0.052h0.052h0.052H19.7h0.053h0.052	h0.052h0.053h0.053h0.049h0.052h0.053h0.052h0.057h0.053h0.052h0.053h0.052h0.053h0.049h0.052h0.052h0.052h0.052l0.022,0.049	l0.016,0.049l0.022,0.049l0.022,0.053l0.016,0.049l0.022,0.049l0.022,0.049l0.016,0.049l0.022,0.049l0.022,0.049l0.016,0.049	l0.022,0.053l0.022,0.049l0.016,0.049l0.022,0.049h0.053h0.052h0.049h0.052h0.053h0.053h0.052h0.049h0.053h0.053h0.052h0.052h0.053	h0.049h0.053h0.052h0.053h0.052h0.049h0.053h0.052l-0.022-0.049L22.144,30.825z M20.435,29.369h-0.053H20.33h-0.053h-0.052h-0.055	h-0.053h-0.052h-0.049h-0.053h-0.053h-0.052h-0.052h-0.053h-0.053h-0.052h-0.053l0.022-0.049l0.016-0.049l0.022-0.053l0.022-0.049	l0.016-0.049l0.022-0.049l0.022-0.053l0.022-0.049l0.016-0.049l0.022-0.049l0.022-0.049l0.016-0.053l0.022-0.049l0.022-0.049	l0.016-0.049l0.022-0.049l0.022-0.053l0.022-0.049l0.016-0.049l0.022-0.049l0.022-0.053l0.016-0.049l0.022-0.049l0.022,0.049	l0.016,0.049l0.022,0.053l0.022,0.049l0.016,0.049l0.022,0.049l0.022,0.053l0.016,0.049l0.022,0.049l0.022,0.049l0.016,0.049	l0.024,0.052l0.016,0.049l0.022,0.049l0.022,0.049l0.016,0.049l0.022,0.053l0.022,0.049l0.016,0.049l0.022,0.049l0.022,0.053	l0.016,0.049l0.022,0.049L20.435,29.369L20.435,29.369z" clip-rule="evenodd"/><polygon fill="#18193f" fill-rule="evenodd" points="17.411,28.661 17.359,28.661 17.306,28.661 17.253,28.661 17.199,28.661 17.146,28.661 17.094,28.661 17.041,28.661 16.986,28.661 16.932,28.661 16.879,28.661 16.827,28.661 16.774,28.661 16.72,28.661 16.667,28.661 16.615,28.661 16.562,28.661 16.508,28.661 16.455,28.661 16.402,28.661 16.35,28.661 16.297,28.661 16.243,28.661 16.19,28.661 16.136,28.661 16.083,28.661 16.03,28.661 15.978,28.661 15.925,28.661 15.871,28.661 15.818,28.661 15.764,28.661 15.764,28.714 15.764,28.761 15.764,28.814 15.764,28.868 15.764,28.921 15.764,28.97 15.764,29.023 15.764,29.077 15.764,29.13 15.764,29.177 15.764,29.23 15.764,29.284 15.764,29.337 15.764,29.386 15.764,29.439 15.818,29.439 15.866,29.439 15.92,29.439 15.972,29.439 16.025,29.439 16.072,29.439 16.125,29.439 16.179,29.439 16.232,29.439 16.281,29.439 16.333,29.439 16.386,29.439 16.439,29.439 16.487,29.439 16.54,29.439 16.54,29.493 16.54,29.546 16.54,29.599 16.54,29.653 16.54,29.711 16.54,29.764 16.54,29.818 16.54,29.871 16.54,29.924 16.499,29.951 16.46,29.971 16.413,29.995 16.37,30.015 16.323,30.036 16.275,30.048 16.223,30.063 16.169,30.073 16.116,30.084 16.063,30.089 16.005,30.095 15.945,30.1 15.882,30.1 15.822,30.1 15.764,30.095 15.713,30.089 15.659,30.078 15.606,30.069 15.552,30.052 15.499,30.036 15.45,30.015 15.403,29.995 15.356,29.971 15.312,29.945 15.271,29.918 15.227,29.887 15.185,29.855 15.149,29.822 15.116,29.785 15.08,29.749 15.047,29.711 15.016,29.668 14.989,29.626 14.962,29.582 14.935,29.535 14.915,29.486 14.893,29.433 14.877,29.391 14.862,29.344 14.851,29.295 14.84,29.246 14.829,29.199 14.824,29.146 14.819,29.097 14.815,29.044 14.815,28.99 14.815,28.979 14.815,28.921 14.819,28.868 14.824,28.814 14.835,28.755 14.846,28.708 14.855,28.654 14.873,28.601 14.893,28.554 14.909,28.505 14.931,28.457 14.957,28.416 14.983,28.365 15.009,28.325 15.036,28.285 15.069,28.245 15.107,28.205 15.138,28.169 15.174,28.138 15.212,28.105 15.249,28.073 15.292,28.047 15.334,28.02 15.377,27.993 15.425,27.971 15.472,27.949 15.521,27.934 15.568,27.918 15.615,27.907 15.669,27.896 15.717,27.891 15.769,27.887 15.822,27.887 15.882,27.887 15.94,27.891 15.998,27.896 16.052,27.902 16.105,27.913 16.158,27.923 16.206,27.934 16.254,27.949 16.301,27.967 16.344,27.982 16.386,28.003 16.428,28.025 16.476,28.051 16.519,28.078 16.562,28.105 16.604,28.132 16.647,28.165 16.689,28.191 16.731,28.227 16.774,28.259 16.807,28.218 16.843,28.179 16.876,28.138 16.912,28.094 16.943,28.051 16.976,28.014 17.012,27.971 17.045,27.929 17.083,27.887 17.114,27.849 17.146,27.807 17.184,27.763 17.215,27.727 17.246,27.684 17.284,27.64 17.315,27.598 17.353,27.56 17.386,27.518 17.342,27.486 17.3,27.449 17.257,27.417 17.215,27.384 17.173,27.358 17.13,27.326 17.083,27.3 17.041,27.273 16.992,27.246 16.95,27.219 16.903,27.197 16.854,27.172 16.807,27.149 16.758,27.128 16.711,27.108 16.664,27.091 16.62,27.075 16.573,27.064 16.524,27.048 16.476,27.037 16.428,27.028 16.381,27.017 16.328,27.004 16.275,26.995 16.227,26.99 16.169,26.978 16.116,26.975 16.063,26.975 16.005,26.968 15.945,26.964 15.887,26.964 15.829,26.964 15.775,26.964 15.717,26.964 15.664,26.968 15.611,26.975 15.557,26.978 15.504,26.984 15.45,26.995 15.399,27.001 15.345,27.011 15.298,27.028 15.245,27.037 15.196,27.055 15.149,27.064 15.1,27.086 15.047,27.102 15.006,27.119 14.953,27.146 14.904,27.166 14.855,27.188 14.808,27.215 14.761,27.241 14.713,27.268 14.67,27.295 14.628,27.32 14.585,27.353 14.543,27.38 14.501,27.411 14.463,27.444 14.421,27.48 14.384,27.513 14.347,27.551 14.309,27.587 14.278,27.624 14.24,27.662 14.209,27.7 14.176,27.742 14.144,27.785 14.113,27.827 14.086,27.869 14.059,27.913 14.033,27.956 14.006,27.998 13.979,28.047 13.959,28.094 13.937,28.143 13.915,28.191 13.895,28.238 13.873,28.292 13.857,28.339 13.841,28.392 13.826,28.442 13.816,28.494 13.799,28.548 13.789,28.596 13.783,28.65 13.772,28.701 13.767,28.761 13.763,28.814 13.763,28.868 13.756,28.926 13.756,28.979 13.756,28.99 13.756,29.044 13.756,29.103 13.763,29.157 13.767,29.21 13.772,29.263 13.778,29.311 13.789,29.364 13.794,29.413 13.805,29.466 13.821,29.513 13.832,29.566 13.846,29.615 13.857,29.664 13.879,29.711 13.895,29.753 13.915,29.802 13.937,29.849 13.959,29.898 13.979,29.945 14.006,29.989 14.033,30.036 14.059,30.078 14.086,30.122 14.118,30.165 14.144,30.207 14.176,30.245 14.209,30.287 14.24,30.323 14.278,30.362 14.314,30.4 14.351,30.431 14.389,30.469 14.425,30.501 14.463,30.533 14.505,30.565 14.549,30.596 14.59,30.629 14.632,30.656 14.676,30.683 14.724,30.709 14.766,30.736 14.815,30.763 14.862,30.783 14.909,30.805 14.957,30.825 15.009,30.847 15.058,30.863 15.107,30.884 15.154,30.901 15.207,30.91 15.254,30.928 15.309,30.937 15.356,30.949 15.41,30.959 15.463,30.97 15.516,30.976 15.568,30.981 15.622,30.986 15.68,30.99 15.733,30.997 15.786,30.997 15.844,30.997 15.903,30.997 15.961,30.997 16.019,30.99 16.072,30.986 16.132,30.981 16.184,30.976 16.243,30.97 16.297,30.964 16.35,30.954 16.402,30.943 16.449,30.932 16.502,30.923 16.551,30.906 16.604,30.89 16.651,30.874 16.7,30.857 16.747,30.843 16.794,30.821 16.849,30.799 16.896,30.778 16.95,30.756 16.997,30.73 17.045,30.709 17.094,30.683 17.141,30.656 17.188,30.629 17.231,30.603 17.273,30.574 17.315,30.543 17.359,30.516 17.4,30.485 17.438,30.458 17.48,30.427 17.518,30.394 17.518,30.34 17.518,30.287 17.518,30.234 17.518,30.187 17.518,30.133 17.518,30.078 17.518,30.025 17.518,29.971 17.518,29.918 17.518,29.871 17.518,29.818 17.518,29.764 17.518,29.711 17.518,29.657 17.518,29.604 17.518,29.551 17.518,29.502 17.518,29.449 17.518,29.395 17.518,29.344 17.518,29.29 17.518,29.237 17.518,29.183 17.518,29.135 17.518,29.081 17.518,29.028 17.518,28.975 17.518,28.921 17.518,28.868 17.518,28.819 17.518,28.766 17.518,28.714 17.518,28.661 17.465,28.661" clip-rule="evenodd"/></svg>