<svg xmlns="http://www.w3.org/2000/svg"  viewBox="0 0 48 48" width="48px" height="48px"><path fill="#90caf9" d="M40.121,44H15.879C13.737,44,12,42.263,12,40.121V15.879C12,13.737,13.737,12,15.879,12h24.242	C42.263,12,44,13.737,44,15.879v24.242C44,42.263,42.263,44,40.121,44z"/><path fill="#18193f" d="M20,29h4v12.235c0.979,0.16,1.976,0.265,3,0.265s2.021-0.105,3-0.265V29h3.625	c0.504,0,0.93-0.376,0.992-0.876l0.375-3c0.036-0.284-0.053-0.57-0.243-0.786C34.56,24.123,34.287,24,34,24h-4v-3.5	c0-1.103,0.897-2,2-2h2c0.552,0,1-0.447,1-1v-3.375c0-0.518-0.396-0.95-0.911-0.996C34.03,13.124,32.62,13,30.834,13	C26.427,13,24,15.617,24,20.368V24h-4c-0.552,0-1,0.447-1,1v3C19,28.553,19.448,29,20,29z"/><path fill="none" stroke="#18193f" stroke-linecap="round" stroke-linejoin="round" stroke-width="3" d="M40.5,31.596V36.5	c0,2.209-1.791,4-4,4h-25c-2.209,0-4-1.791-4-4V20.83"/><path fill="none" stroke="#18193f" stroke-linecap="round" stroke-linejoin="round" stroke-width="3" d="M7.5,14.064V11.5	c0-2.209,1.791-4,4-4h25c2.209,0,4,1.791,4,4v14.479"/></svg>