<svg xmlns="http://www.w3.org/2000/svg"  viewBox="0 0 48 48" width="48px" height="48px"><circle cx="28" cy="28" r="18.5" fill="#90caf9"/><path fill="none" stroke="#18193f" stroke-linecap="round" stroke-linejoin="round" stroke-miterlimit="10" stroke-width="3" d="M34.7,39.1c-3,2.1-6.7,3.4-10.7,3.4C13.8,42.5,5.5,34.2,5.5,24c0-3,0.7-5.8,2-8.4"/><path fill="none" stroke="#18193f" stroke-linecap="round" stroke-linejoin="round" stroke-miterlimit="10" stroke-width="3" d="M13.9,8.5c2.9-1.9,6.3-3,10.1-3c10.2,0,18.5,8.3,18.5,18.5c0,3.4-0.9,6.6-2.5,9.3"/><path fill="#18193f" d="M17,29h4v13.2c1,0.2,2,0.3,3,0.3s2-0.1,3-0.3V29h3.6c0.5,0,0.9-0.4,1-0.9l0.4-3c0-0.3-0.1-0.6-0.2-0.8	C31.6,24.1,31.3,24,31,24h-4v-3.5c0-1.1,0.9-2,2-2h2c0.6,0,1-0.4,1-1v-3.4c0-0.5-0.4-1-0.9-1c-0.1,0-1.5-0.1-3.3-0.1	c-4.4,0-6.8,2.6-6.8,7.4V24h-4c-0.6,0-1,0.4-1,1v3C16,28.6,16.4,29,17,29z"/></svg>