<svg xmlns="http://www.w3.org/2000/svg"  viewBox="0 0 48 48" width="48px" height="48px"><path fill="#90caf9" d="M18.453,29.404l4.453-0.003v16.188c0,0.994,0.805,1.799,1.799,1.799h3.597	c0.994,0,1.799-0.805,1.799-1.799V29.401h4.133c0.913,0,1.681-0.683,1.787-1.591l0.314-2.698c0.124-1.068-0.71-2.006-1.787-2.006	H30.1l0.056-4.322c0-1.345,1.09-2.435,2.435-2.435h2.615c0.673,0,1.218-0.545,1.218-1.218v-4.11c0-0.63-0.482-1.157-1.11-1.213	C35.242,9.801,33.345,9.65,31.17,9.65c-5.366,0-8.267,3.174-8.267,8.959v4.497h-4.48c-1,0-1.809,0.816-1.799,1.816l0.026,2.701	C16.663,28.61,17.466,29.405,18.453,29.404z"/><path fill="none" stroke="#18193f" stroke-linecap="round" stroke-linejoin="round" stroke-width="3" d="M18.498,18.5h-4.981	c-1.112,0-2.011,0.907-2,2.019l0.029,3.003c0.013,1.098,0.906,1.982,2.003,1.981L18.5,25.5v18c0,1.105,0.895,2,2,2h4	c1.105,0,2-0.895,2-2V31.638"/><path fill="none" stroke="#18193f" stroke-linecap="round" stroke-linejoin="round" stroke-width="3" d="M26.5,25.5h4.596	c1.015,0,1.869-0.76,1.987-1.769l0.349-3c0.138-1.188-0.79-2.231-1.987-2.231H26.5l0.062-4.806c0-1.496,1.212-2.708,2.708-2.708	h2.908c0.748,0,1.354-0.606,1.354-1.354v-4.57c0-0.701-0.536-1.286-1.234-1.349c-0.08-0.007-2.189-0.175-4.608-0.175	c-5.519,0-8.693,3.019-9.138,8.563"/></svg>