<svg xmlns="http://www.w3.org/2000/svg"  viewBox="0 0 48 48" width="48px" height="48px"><path fill="#a5d6a7" d="M34.3,16.9c-16.1,0-22.3,7.8-23.9,9.9C10.1,27.2,10,27.6,10,28l0,15.1c0,1.1,0.9,1.9,1.9,1.9h32.1	c1.1,0,1.9-0.9,1.9-1.9V19.4c0-0.9-0.7-1.7-1.6-1.9C42.5,17.2,40,16.9,34.3,16.9z"/><path fill="none" stroke="#18193f" stroke-linecap="round" stroke-linejoin="round" stroke-width="3" d="M16.1,41.5h24.4c1.1,0,2-0.9,2-2V26.8"/><path fill="none" stroke="#18193f" stroke-linecap="round" stroke-linejoin="round" stroke-width="3" d="M42.5,19.4v-4.8c0-1-0.7-1.8-1.7-2c-1.9-0.3-4.5-0.7-10.3-0.7C14,12,7.6,20.2,5.9,22.4	c-0.3,0.3-0.4,0.8-0.4,1.2v15.9c0,1.1,0.9,2,2,2h2.6"/><path fill="none" stroke="#18193f" stroke-linecap="round" stroke-linejoin="round" stroke-width="3" d="M35.2,23.3c-1.7,4.1-3.7,9.8-5.7,17.7"/><path fill="none" stroke="#18193f" stroke-linecap="round" stroke-linejoin="round" stroke-width="3" d="M36.5,12.5c0,0-10.2,3.3-18.8,21.9"/><path fill="none" stroke="#18193f" stroke-linecap="round" stroke-linejoin="round" stroke-width="3" d="M20.8,17.2c-4.6,3.7-10.7,9.5-15.3,17.3"/><line x1="14.8" x2="13.7" y1="4.5" y2="7.3" fill="none" stroke="#18193f" stroke-linecap="round" stroke-width="3"/><line x1="8.7" x2="9.9" y1="4.7" y2="7.5" fill="none" stroke="#18193f" stroke-linecap="round" stroke-width="3"/><line x1="4.5" x2="7.3" y1="9.2" y2="10.3" fill="none" stroke="#18193f" stroke-linecap="round" stroke-width="3"/><line x1="4.7" x2="7.5" y1="15.3" y2="14.1" fill="none" stroke="#18193f" stroke-linecap="round" stroke-width="3"/><line x1="19.3" x2="16.5" y1="8.7" y2="9.9" fill="none" stroke="#18193f" stroke-linecap="round" stroke-width="3"/><path fill="none" stroke="#18193f" stroke-linecap="round" stroke-width="3" d="M10.5,16.8C8.5,16.1,7,14.2,7,12c0-2.8,2.2-5,5-5s5,2.2,5,5c0,0.5-0.1,1-0.2,1.5"/></svg>