<svg xmlns="http://www.w3.org/2000/svg"  viewBox="0 0 48 48" width="48px" height="48px"><path fill="#ffe082" d="M27.5,17.5l-4.9-4.1c-0.7-0.6-1.6-0.9-2.6-0.9h-7.6c-1.7,0-3,1.3-3,3v25c0,1.7,1.3,3,3,3h31c1.7,0,3-1.3,3-3	v-20c0-1.7-1.3-3-3-3H27.5z"/><path fill="none" stroke="#18193f" stroke-linecap="round" stroke-linejoin="round" stroke-width="3" d="M42.5,27.4V16.5c0-1.7-1.3-3-3-3h-16l-4.9-4.1c-0.7-0.6-1.6-0.9-2.6-0.9H8.5c-1.7,0-3,1.3-3,3v6"/><path fill="none" stroke="#18193f" stroke-linecap="round" stroke-linejoin="round" stroke-width="3" d="M5.5,24.3v12.2c0,1.7,1.3,3,3,3h31c1.7,0,3-1.3,3-3v-3"/></svg>