<svg xmlns="http://www.w3.org/2000/svg"  viewBox="0 0 48 48" width="48px" height="48px"><path fill="#ffe082" d="M37,17H27l-4.9-4.1c-0.7-0.6-1.7-0.9-2.6-0.9h-7.5C10.4,12,9,13.4,9,15.1v12v6.9v7c0,1.7,1.4,3.1,3.1,3.1h31.9	c1.7,0,3.1-1.4,3.1-3.1V20.1c0-1.7-1.4-3.1-3.1-3.1h-1.1H37z"/><path fill="none" stroke="#18193f" stroke-linecap="round" stroke-linejoin="round" stroke-miterlimit="10" stroke-width="3" d="M5.5,29.8v6.7c0,1.7,1.3,3,3,3h31c1.7,0,3-1.3,3-3v-20c0-1.7-1.3-3-3-3h-1.1"/><path fill="none" stroke="#18193f" stroke-linecap="round" stroke-linejoin="round" stroke-miterlimit="10" stroke-width="3" d="M32.7,13.5h-9.2l-4.9-4.1c-0.7-0.6-1.6-0.9-2.6-0.9H8.5c-1.7,0-3,1.3-3,3v11.7"/><path fill="none" stroke="#18193f" stroke-linecap="round" stroke-linejoin="round" stroke-miterlimit="10" stroke-width="3" d="M6,16.5h12.1c0.9,0,1.8-0.3,2.6-0.9l2.3-1.9"/></svg>