<svg xmlns="http://www.w3.org/2000/svg"  viewBox="0 0 48 48" width="48px" height="48px"><path fill="#a5d6a7" d="M45.035,36.65l-5.124-7.608h2.547c0.669,0,1.069-0.744,0.701-1.302l-5.08-7.698h2.46	c0.673,0,1.072-0.752,0.696-1.309l-5.539-8.202c-0.333-0.493-1.059-0.493-1.391,0l-3.418,5.06c-0.611-0.321-1.289-0.518-2.016-0.561	c0.162-0.773,0.156-1.608-0.113-2.478c-0.559-1.809-2.124-3.208-3.996-3.492c-3.108-0.472-5.783,1.922-5.783,4.94	c0,0.353,0.039,0.697,0.108,1.03c-2.622,0.155-4.706,2.31-4.706,4.97c0,1.542,0.713,2.904,1.811,3.821	c-2.357,1.257-3.912,3.82-3.692,6.724c0.201,2.653,1.996,4.974,4.466,5.961c1.431,0.572,2.789,0.599,4.033,0.323V46	c0,0.552,0.448,1,1,1h3.959c0.552,0,1-0.448,1-1v-8.042H32V46c0,0.552,0.448,1,1,1h4c0.552,0,1-0.448,1-1v-8.042h6.339	C45.011,37.958,45.411,37.207,45.035,36.65z"/><polyline fill="none" stroke="#18193f" stroke-linecap="round" stroke-linejoin="round" stroke-width="3" points="33.5,38.83 33.5,42.5 28.5,42.5 28.5,33.5"/><path fill="none" stroke="#18193f" stroke-linecap="round" stroke-linejoin="round" stroke-width="3" d="M36,24.797l5.383,7.207	c0.461,0.617,0.021,1.496-0.75,1.496H21.367c-0.77,0-1.211-0.879-0.75-1.496l2.62-3.507"/><path fill="none" stroke="#18193f" stroke-linecap="round" stroke-linejoin="round" stroke-width="3" d="M34,15.691l5.4,7.318	c0.456,0.618,0.015,1.491-0.753,1.491H23.353c-0.768,0-1.209-0.874-0.753-1.491l5.4-7.318"/><path fill="none" stroke="#18193f" stroke-linecap="round" stroke-linejoin="round" stroke-width="3" d="M36.142,12.356l1.235,1.647	C37.84,14.62,37.4,15.5,36.629,15.5H25.371c-0.771,0-1.211-0.88-0.749-1.497l5.629-7.505c0.374-0.499,1.123-0.499,1.497,0	l1.508,2.011"/><path fill="#18193f" d="M19.5,37.777c-0.828,0-1.5,0.672-1.5,1.5V41h-2v-8.981c0-0.828-0.671-1.5-1.499-1.501	c-0.193,0-0.383,0.037-0.562,0.109C13.323,30.875,12.664,31.002,12,31c-2.698,0.056-4.934-2.081-5-4.779	c0.025-2.111,1.429-3.956,3.456-4.544c0.791-0.246,1.233-1.086,0.988-1.877c-0.114-0.367-0.365-0.677-0.701-0.865	C9.682,18.374,9.013,17.278,9,16.078c0.045-1.871,1.588-3.356,3.459-3.329c0.082,0.011,0.164,0.02,0.248,0.024	c0.827,0.042,1.532-0.595,1.574-1.423c0.01-0.205-0.022-0.41-0.094-0.602C14.068,10.446,14.005,10.125,14,9.8c0-1.657,1.343-3,3-3	c1.2,0,2.228,0.706,2.705,1.724c0.245,0.522,0.812,0.816,1.388,0.816h0c1.067,0,1.786-1.111,1.335-2.078	c-1.222-2.619-4.275-4.209-7.514-3.112C12.533,4.957,11,7.285,11,9.799v0.119c-2.896,0.641-4.968,3.194-5,6.16	c0.004,1.388,0.475,2.734,1.337,3.822C5.253,21.33,4.005,23.693,4,26.221c0.066,4.355,3.645,7.835,8,7.779	c0.334,0,0.668-0.02,1-0.06v8.56c0,0.828,0.672,1.5,1.5,1.5h5c0.828,0,1.5-0.672,1.5-1.5v-3.223	C21,38.448,20.328,37.777,19.5,37.777z"/></svg>