<svg xmlns="http://www.w3.org/2000/svg"  viewBox="0 0 48 48" width="48px" height="48px"><path fill="#ffe082" d="M45.917,31.29V20.858c0-1.578-1.31-2.858-2.926-2.858H26.464l-5.017-4.1	c-0.717-0.6-1.638-0.9-2.662-0.9h-5.776c-1.616,0-2.926,1.28-2.926,2.858v5.852v6.581v11.852c0,1.578,1.31,2.858,2.926,2.858h29.981	c1.616,0,2.926-1.28,2.926-2.858v-2.948V31.29z"/><path fill="none" stroke="#18193f" stroke-linecap="round" stroke-linejoin="round" stroke-width="3" d="M42.5,27.4V16.5	c0-1.7-1.3-3-3-3h-16l-4.9-4.1C17.9,8.8,17,8.5,16,8.5H8.5c-1.7,0-3,1.3-3,3v6"/><path fill="none" stroke="#18193f" stroke-linecap="round" stroke-linejoin="round" stroke-width="3" d="M5.5,24.3v12.2	c0,1.7,1.3,3,3,3h31c1.7,0,3-1.3,3-3v-3"/><path fill="none" stroke="#18193f" stroke-miterlimit="10" stroke-width="3" d="M29.33,19.877	c-1.382-0.708-3.225-0.817-4.666-0.827c-1.987-0.013-4.229,0.118-6.077,0.875c-1.312,0.537-2.103,2.032-2.702,3.234	c-1.034,2.073-1.553,4.509-1.249,6.82c0.161,1.22,0.793,2.785,2.262,2.732c1.501-0.055,2.666-1.478,3.615-2.477	c0.287-0.302,0.971-1.32,1.451-1.32c0,0,4.083,0,4.083,0c0.26,0,0.558,0.39,0.72,0.553c0.417,0.42,0.811,0.862,1.228,1.282	c1.032,1.041,2.624,2.73,4.206,1.738c1.414-0.887,1.237-2.825,1.141-4.261c-0.178-2.644-1.092-5.837-3.085-7.707	C29.984,20.263,29.671,20.052,29.33,19.877z"/><circle cx="27.777" cy="24.5" r="1.223" fill="#18193f"/><circle cx="20.33" cy="24.5" r="1.223" fill="#18193f"/></svg>