<svg xmlns="http://www.w3.org/2000/svg"  viewBox="0 0 48 48" width="48px" height="48px"><path fill="#8ce7f2" d="M18.862,35.218l-6.772-5.026c-0.633-0.471-1.007-1.213-1.007-2.002l0,0	c0-1.729,1.719-2.933,3.344-2.342l7.242,2.634V15.49c0-1.329,1.077-2.406,2.406-2.406l0,0c1.329,0,2.406,1.077,2.406,2.406v4.331	v-9.142c0-1.329,1.077-2.406,2.406-2.406l0,0c1.329,0,2.406,1.077,2.406,2.406v9.142v-7.218c0-1.329,1.077-2.406,2.406-2.406l0,0	c1.329,0,2.406,1.077,2.406,2.406v8.18v-6.255c0-1.329,1.077-2.406,2.406-2.406l0,0c1.329,0,2.406,1.077,2.406,2.406v14.648	c0,2.708-0.63,5.379-1.842,7.801l0,0c-0.641,1.282-0.502,2.815,0.357,3.961l1.485,1.98c0,0-6.737,0-10.105,4.812	c-0.276,0.395-0.481-2.887-10.105-4.812c-0.401-0.08,0.732-1.465,0.732-1.465c0.715-1.43,2.299-4.118,1.192-5.272L18.862,35.218z"/><path fill="none" stroke="#18193f" stroke-linecap="round" stroke-linejoin="round" stroke-miterlimit="10" stroke-width="3" d="M30.548,41.357C29.245,42.084,27.984,43.094,27,44.5c-0.287,0.41-0.5-3-10.5-5c-0.417-0.083,0.761-1.522,0.761-1.522	c0.743-1.486,2.389-4.279,1.239-5.478l-3.917-1l-7.037-5.223c-0.658-0.489-1.046-1.26-1.046-2.08l0,0	c0-1.797,1.786-3.048,3.475-2.434L17.5,24.5"/><path fill="none" stroke="#18193f" stroke-linecap="round" stroke-linejoin="round" stroke-miterlimit="10" stroke-width="3" d="M17.5,17.979V11c0-1.381,1.119-2.5,2.5-2.5l0,0c1.381,0,2.5,1.119,2.5,2.5v4.5V6c0-1.381,1.119-2.5,2.5-2.5l0,0	c1.381,0,2.5,1.119,2.5,2.5v9.5V8c0-1.381,1.119-2.5,2.5-2.5l0,0c1.381,0,2.5,1.119,2.5,2.5v8.5V10c0-1.381,1.119-2.5,2.5-2.5l0,0	c1.381,0,2.5,1.119,2.5,2.5v15.221c0,2.814-0.655,5.589-1.914,8.106l0,0c-0.666,1.332-0.522,2.925,0.371,4.116L37.5,39.5	c0,0-0.642,0-1.633,0.139"/><circle cx="22.5" cy="20.5" r="1.5" fill="#18193f"/><circle cx="27.5" cy="20.5" r="1.5" fill="#18193f"/><circle cx="32.5" cy="21.5" r="1.5" fill="#18193f"/><line x1="24.5" x2="35.5" y1="33.5" y2="33.5" fill="none" stroke="#18193f" stroke-linecap="round" stroke-linejoin="round" stroke-miterlimit="10" stroke-width="3"/></svg>