<svg xmlns="http://www.w3.org/2000/svg"  viewBox="0 0 48 48" width="48px" height="48px"><path fill="#a5d6a7" d="M47,23.5c-1.4,0.3-2.7,0.7-3.9,1.3c-2,1-3.8,2.4-5.4,4.1c0.3-4.5,1.6-9.7,3.8-12.9c0.6-0.8-0.3-1.8-1.2-1.5	c-4.4,1.7-9,6.1-11.5,10.6c-3.3-7.3-8.3-13.1-14-16.2c-0.9-0.5-1.9,0.6-1.3,1.5C19,17.6,23,27.8,24.3,39.3c0.1,0.9,0.2,1.8,0.2,2.7	c-0.8-7.9-5.5-14.6-11.7-17.6c-1.4-0.7-2.9-1.2-4.5-1.5c-1-0.2-1.6,1-0.8,1.7c4.4,4.1,7.3,11.5,7.3,19.9v0c0,1.4,1.1,2.6,2.5,2.6	h21.5c1.5,0,2.6-1.2,2.5-2.7c0-0.7-0.1-1.4-0.1-2.1c0-7.3,2.6-13.7,6.4-17.3C48.4,24.4,47.8,23.3,47,23.5z"/><path fill="none" stroke="#18193f" stroke-linecap="round" stroke-linejoin="round" stroke-miterlimit="10" stroke-width="3" d="M10.1,32.1c0.7,2.7,1.1,5.7,1.1,8.8c0,0,0,0,0,0c0,1.4,1.1,2.6,2.5,2.6H29"/><path fill="none" stroke="#18193f" stroke-linecap="round" stroke-linejoin="round" stroke-miterlimit="10" stroke-width="3" d="M20.8,38.1c-1.1-7.6-5.6-14.5-11.5-17.4c-1.4-0.7-2.9-1.2-4.5-1.5c-1-0.2-1.6,1-0.8,1.7	c1.5,1.4,2.8,3.2,3.9,5.3"/><path fill="none" stroke="#18193f" stroke-linecap="round" stroke-linejoin="round" stroke-miterlimit="10" stroke-width="3" d="M29.2,36.6c-0.1-1-0.2-2-0.3-3c-1.9-13.1-9-23.7-17.7-28.4c-0.9-0.5-1.9,0.6-1.3,1.5c3,4,5.6,8.8,7.5,14.3"/><path fill="none" stroke="#18193f" stroke-linecap="round" stroke-linejoin="round" stroke-miterlimit="10" stroke-width="3" d="M40,27.4c1.1-2.5,2.5-4.5,4.1-6.1c0.6-0.6,0.1-1.7-0.8-1.5c-1.4,0.3-2.7,0.7-3.9,1.3	c-5.4,2.7-9.5,8.3-10.2,15.2"/><path fill="none" stroke="#18193f" stroke-linecap="round" stroke-linejoin="round" stroke-miterlimit="10" stroke-width="3" d="M29,43.5l6.3,0c1.5,0,2.6-1.2,2.5-2.7c0-0.7-0.1-1.4-0.1-2.1c0-2.1,0.2-4.1,0.6-6"/><path fill="none" stroke="#18193f" stroke-linecap="round" stroke-linejoin="round" stroke-miterlimit="10" stroke-width="3" d="M34,25.1c0-4.8,1.4-9.2,3.8-12.7c0.6-0.8-0.3-1.8-1.2-1.5c-2.7,1-5.1,2.7-7.2,4.8"/></svg>