<svg xmlns="http://www.w3.org/2000/svg"  viewBox="0 0 48 48" width="48px" height="48px"><path fill="#9fa8da" d="M44.237,35.288l-1.175-5.417c-0.689-4.135-4.174-7.418-8.226-8.738L35.5,20.5l6.261-6.261	c0.419-0.419,0.381-1.102-0.07-1.485c-2.506-2.126-5.978-3.529-9.643-3.29C31.5,9.5,29.5,15.5,29.5,15.5s-1-6-1.955-5.855	c-4.526,0.688-8.91,2.406-11.702,5.198c-5.984,5.984-7.154,18.282-1.753,24.799c0.382,0.461,1.073,0.508,1.496,0.084l5.071-5.071	l0.77-0.735c0.611,2.516,0.473,5.172-0.446,7.625l-0.745,1.989c-0.295,0.788,0.456,1.566,1.254,1.299l5.531-1.852	c2.873-0.962,5.98-0.966,8.856-0.012l5.95,1.974c0.737,0.245,1.46-0.408,1.291-1.166L41.5,36.5h1.76	C43.898,36.5,44.372,35.911,44.237,35.288z"/><path fill="none" stroke="#18193f" stroke-linecap="round" stroke-linejoin="round" stroke-miterlimit="10" stroke-width="3" d="M38.5,25.5c0,0-5-2-8,3c0,0,2.883,5.181,8,3"/><path fill="none" stroke="#18193f" stroke-linecap="round" stroke-linejoin="round" stroke-miterlimit="10" stroke-width="3" d="M29.069,38.35c-2.027-0.233-4.092-0.023-6.048,0.632l-5.531,1.852c-0.798,0.267-1.549-0.511-1.254-1.299l0.745-1.989	c1.152-3.074,1.098-6.47-0.151-9.505l0,0c-0.686-1.669-0.717-3.572,0.066-5.197C18.727,19.047,22.605,16.5,27,16.5l0,0	c5.482,0,11.161,3.963,12.062,9.371L40.5,32.5"/><path fill="none" stroke="#18193f" stroke-linecap="round" stroke-linejoin="round" stroke-miterlimit="10" stroke-width="3" d="M37.5,32.5l1.617,7.279c0.168,0.758-0.554,1.411-1.291,1.166L34.5,39.841"/><path fill="none" stroke="#18193f" stroke-linecap="round" stroke-linejoin="round" stroke-miterlimit="10" stroke-width="3" d="M15.584,8.15c-1.42,0.748-2.693,1.645-3.741,2.693c-5.984,5.984-7.154,18.282-1.753,24.799c0.382,0.461,1.073,0.508,1.496,0.084	l2.017-2.017"/><path fill="none" stroke="#18193f" stroke-linecap="round" stroke-linejoin="round" stroke-miterlimit="10" stroke-width="3" d="M31.5,16.5l6.261-6.261c0.419-0.419,0.381-1.102-0.07-1.485c-2.506-2.126-5.978-3.529-9.643-3.29C27.5,5.5,25.5,11.5,25.5,11.5	s-1-6-1.955-5.855c-1.328,0.202-2.644,0.493-3.911,0.873"/></svg>