<svg xmlns="http://www.w3.org/2000/svg"  viewBox="0 0 48 48" width="48px" height="48px"><path fill="#a5d6a7" d="M44.1,18H11.9c-1.1,0-1.9,0.9-1.9,1.9v23.1c0,1.1,0.9,1.9,1.9,1.9h32.1c1.1,0,1.9-0.9,1.9-1.9V19.9	C46,18.9,45.1,18,44.1,18z"/><circle cx="12" cy="19" r="2" fill="#18193f"/><circle cx="19" cy="19" r="2" fill="#18193f"/><circle cx="29" cy="19" r="2" fill="#18193f"/><circle cx="36" cy="19" r="2" fill="#18193f"/><path fill="none" stroke="#18193f" stroke-linecap="round" stroke-linejoin="round" stroke-width="3" d="M36.9,24.5H5.5"/><path fill="none" stroke="#18193f" stroke-linejoin="round" stroke-width="3" d="M13.7,13.5c1-3.4,5.2-6,10.3-6s9.3,2.6,10.3,6"/><line x1="10" x2="10" y1="41" y2="43" fill="none" stroke="#18193f" stroke-linecap="round" stroke-linejoin="round" stroke-miterlimit="10" stroke-width="3"/><line x1="38" x2="38" y1="41" y2="43" fill="none" stroke="#18193f" stroke-linecap="round" stroke-linejoin="round" stroke-miterlimit="10" stroke-width="3"/><path fill="none" stroke="#18193f" stroke-linecap="round" stroke-linejoin="round" stroke-width="3" d="M5.5,28.4V15.5c0-1.1,0.9-2,2-2h33c1.1,0,2,0.9,2,2V39c0,1.1-0.9,2-2,2H38"/><path fill="none" stroke="#18193f" stroke-linecap="round" stroke-linejoin="round" stroke-width="3" d="M31.6,41H7.5c-1.1,0-2-0.9-2-2v-4.2"/></svg>