<svg xmlns="http://www.w3.org/2000/svg"  viewBox="0 0 48 48" width="48px" height="48px"><path fill="#90caf9" d="M12,46L12,46c-2.1,0-3.9-1.7-3.9-3.9V31.9c0-2.1,1.7-3.9,3.9-3.9h0c2.1,0,3.9,1.7,3.9,3.9v10.3	C15.9,44.3,14.1,46,12,46z"/><path fill="#90caf9" d="M44,46L44,46c-2.1,0-3.9-1.7-3.9-3.9V31.9c0-2.1,1.7-3.9,3.9-3.9h0c2.1,0,3.9,1.7,3.9,3.9v10.3	C47.9,44.3,46.1,46,44,46z"/><path fill="none" stroke="#18193f" stroke-linecap="round" stroke-linejoin="round" stroke-width="3" d="M11.5,36.7V38c0,1.9-1.6,3.5-3.5,3.5h0c-1.9,0-3.5-1.6-3.5-3.5V28c0-1.9,1.6-3.5,3.5-3.5h0	c1.9,0,3.5,1.6,3.5,3.5v2.7"/><path fill="none" stroke="#18193f" stroke-linecap="round" stroke-linejoin="round" stroke-width="3" d="M36.5,32.6V28c0-1.9,1.6-3.5,3.5-3.5h0"/><path fill="none" stroke="#18193f" stroke-linecap="round" stroke-linejoin="round" stroke-width="3" d="M40,24.5c1.9,0,3.5,1.6,3.5,3.5v10c0,1.9-1.6,3.5-3.5,3.5h0c-1.9,0-3.5-1.6-3.5-3.5"/><path fill="none" stroke="#18193f" stroke-linecap="round" stroke-linejoin="round" stroke-width="3" d="M12.3,10.4C15.5,8,19.6,6.5,24,6.5h0c10.8,0,19.5,8.7,19.5,19.5v4.9"/><path fill="none" stroke="#18193f" stroke-linecap="round" stroke-linejoin="round" stroke-width="3" d="M4.5,31.5V26c0-4,1.2-7.8,3.3-10.9"/><path fill="#18193f" d="M45,28h-3v10h3c1.1,0,2-0.9,2-2v-6C47,28.9,46.1,28,45,28z"/><path fill="#18193f" d="M1,30v6c0,1.1,0.9,2,2,2h3V28H3C1.9,28,1,28.9,1,30z"/></svg>