<svg xmlns="http://www.w3.org/2000/svg"  viewBox="0 0 48 48" width="48px" height="48px"><circle cx="28" cy="36" r="12" fill="#8ce7f2"/><path fill="none" stroke="#18193f" stroke-linecap="round" stroke-linejoin="round" stroke-width="3" d="M24,20c6.6,0,12,5.4,12,12c0,4.2-2.1,7.9-5.4,10"/><path fill="none" stroke="#18193f" stroke-linecap="round" stroke-linejoin="round" stroke-width="3" d="M24,44c-6.6,0-12-5.4-12-12c0-4.3,2.2-8,5.5-10.1"/><path fill="none" stroke="#18193f" stroke-linecap="round" stroke-linejoin="round" stroke-width="3" d="M24,20c2.2,0,4,5.4,4,12s-1.8,12-4,12s-4-5.4-4-12c0-2.9,0.3-5.5,0.9-7.6"/><line x1="13" x2="30.7" y1="27.8" y2="27.8" fill="none" stroke="#18193f" stroke-linecap="round" stroke-linejoin="round" stroke-width="3"/><line x1="18.3" x2="35" y1="36.2" y2="36.2" fill="none" stroke="#18193f" stroke-linecap="round" stroke-linejoin="round" stroke-width="3"/><path fill="none" stroke="#18193f" stroke-linecap="round" stroke-linejoin="round" stroke-width="3" d="M4.5,28.3v-3.1C4.5,14.4,13.2,5.7,24,5.7s19.5,8.7,19.5,19.4v1.2"/><path fill="none" stroke="#18193f" stroke-linecap="round" stroke-linejoin="round" stroke-width="3" d="M4.5,30v-3c0-1.9,1.6-3.5,3.5-3.5h0c1.9,0,3.5,1.6,3.5,3.5v8c0,1.9-1.6,3.5-3.5,3.5h0c-1.9,0-3.5-1.6-3.5-3.5"/><path fill="none" stroke="#18193f" stroke-linecap="round" stroke-linejoin="round" stroke-width="3" d="M43.5,33v2c0,1.9-1.6,3.5-3.5,3.5h0c-1.9,0-3.5-1.6-3.5-3.5v-8c0-1.9,1.6-3.5,3.5-3.5h0c1.9,0,3.5,1.6,3.5,3.5	v0.8"/></svg>