<svg xmlns="http://www.w3.org/2000/svg"  viewBox="0 0 48 48" width="48px" height="48px"><path fill="#a5d6a7" d="M22.7,25.2c-0.4-1.4-1.7-2.2-3-2.7c-1.2-0.5-2.6-0.6-3.8-0.4c-4,0.5-7.3,3.5-8.7,7.1c-0.5,1.1-0.7,2.4-0.9,3.6 c-0.1,0.7,0.6,1.3,1.2,1.1c3.2-0.9,6.9,1.6,9.5,1.6c0,0,0,0,0.1,0c2,0,3.8-1.1,4.9-2.7C23.2,30.8,23.4,27.4,22.7,25.2z"/><path fill="#a5d6a7" d="M34.2,39.1c0.9,1.4,2.6,2.3,4.3,2.3c0,0,0,0,0.1,0c2.2,0,5.4-2,8.2-1.4c0.7,0.2,1.4-0.4,1.3-1.1 c-0.1-1-0.4-1.9-0.7-2.8C46,33,43.1,30.4,39.5,30c-1.1-0.1-2.3,0-3.4,0.4c-1.2,0.4-2.2,1.2-2.6,2.4C32.9,34.6,33.1,37.4,34.2,39.1z"/><line x1="18.5" x2="23.5" y1="10.5" y2="2.5" fill="none" stroke="#18193f" stroke-linecap="round" stroke-linejoin="round" stroke-width="3"/><line x1="26.9" x2="31.9" y1="15" y2="7" fill="none" stroke="#18193f" stroke-linecap="round" stroke-linejoin="round" stroke-width="3"/><line x1="39.5" x2="44.5" y1="11.5" y2="3.5" fill="none" stroke="#18193f" stroke-linecap="round" stroke-linejoin="round" stroke-width="3"/><path fill="none" stroke="#18193f" stroke-linecap="round" stroke-linejoin="round" stroke-width="3" d="M5.6,22.7c-1.3,1.9-2.1,4.4-2.1,7.4C6.8,27.9,11,31,13.8,31c2.2,0,4.5-1.1,5.7-3"/><path fill="none" stroke="#18193f" stroke-linecap="round" stroke-linejoin="round" stroke-width="3" d="M19.4,21.1c-1.9-3.3-6.1-3.9-9.7-2.1"/><path fill="none" stroke="#18193f" stroke-linecap="round" stroke-linejoin="round" stroke-width="3" d="M44.5,36c-2.9-1.9-6.6,1-9.1,1c-1.2,0-2.4-0.3-3.4-1c-0.6-0.3-1.1-0.8-1.5-1.3"/><path fill="none" stroke="#18193f" stroke-linecap="round" stroke-linejoin="round" stroke-width="3" d="M30.4,28.6c2.5-4.3,9.9-3.4,12.8,2.2"/><path fill="none" stroke="#18193f" stroke-linecap="round" stroke-linejoin="round" stroke-width="3" d="M20.5,22c0,0,4,0.5,4,7v13.5"/><path fill="none" stroke="#18193f" stroke-linecap="round" stroke-linejoin="round" stroke-width="3" d="M11.5,24c0,0,3.5-3,9-2"/><path fill="none" stroke="#18193f" stroke-linecap="round" stroke-linejoin="round" stroke-width="3" d="M24.5,37c0-1.5,0.5-6,4.5-7.5"/><path fill="none" stroke="#18193f" stroke-linecap="round" stroke-linejoin="round" stroke-width="3" d="M29,29.5c5,0,7,1.5,7,1.5"/></svg>