<svg xmlns="http://www.w3.org/2000/svg"  viewBox="0 0 48 48" width="48px" height="48px"><path fill="#9fa8da" d="M36.8,42H20.2c-2.9,0-5.2,2.2-5.2,4.9l0,0c0,0.5,0.5,1,1,1H41c0.6,0,1-0.4,1-1l0,0C42,44.2,39.7,42,36.8,42z"/><path fill="#9fa8da" d="M39.3,20.4L30.5,14c-0.3-0.2-0.7-0.4-1.1-0.5c-0.6-0.1-1.5-0.2-2.5-0.3V8.5c0-0.3-0.3-0.6-0.6-0.5	c-1.2,0.2-3.9,1-4.8,5.8c-4.4,1.8-6.4,6.5-6.4,10.6c0,5.1,4.1,11.3,4.1,18.5l18.7-0.2c0-11-8.9-10.6-11.5-19.4	c3.6,4.6,8.7,1.5,8.7,1.5l1.8,0.4C40.3,25.9,41.4,21.8,39.3,20.4z"/><path fill="none" stroke="#18193f" stroke-linecap="round" stroke-linejoin="round" stroke-width="3" d="M33.1,43.5h3.4c0.6,0,1-0.4,1-1l0,0c0-2.8-2.2-5-5-5h-16c-2.8,0-5,2.2-5,5l0,0c0,0.6,0.4,1,1,1h15.2"/><path fill="none" stroke="#18193f" stroke-linecap="round" stroke-linejoin="round" stroke-width="3" d="M14.2,30.1c0.7,2.2,1.3,4.6,1.3,7.4"/><path fill="none" stroke="#18193f" stroke-linecap="round" stroke-linejoin="round" stroke-width="3" d="M32.2,31.6c-2.5-4.7-7.8-5.6-9.7-12.1C26,24,31,21,31,21l1.7,0.4C36,22,37,18,35,16.6l-7.5-5.5	c-1.2-0.9-2.5-1.4-3.9-1.5l0,0V4.5c0,0-4.7-0.4-5.8,5.7c-4.3,1.7-6.2,6.3-6.2,10.3c0,1.5,0.4,3.1,0.9,4.6"/></svg>