<svg xmlns="http://www.w3.org/2000/svg"  viewBox="0 0 48 48" width="48px" height="48px"><path fill="#ffab91" d="M27.1,9.2c-2,1-7.1,3.2-13.2,3.6c-1.1,0.1-1.9,1-1.9,2.1v14C12,40.6,26.1,47,28,47s16-6.4,16-18.1v-14	c0-1.1-0.8-2-1.9-2.1c-6.1-0.4-11.2-2.6-13.2-3.6C28.3,9,27.7,9,27.1,9.2z"/><path fill="none" stroke="#18193f" stroke-linecap="round" stroke-linejoin="round" stroke-width="3" d="M37.3,32.6c1.4-2.2,2.2-4.8,2.2-7.7V11.4c0-1.1-0.8-1.9-1.9-2C31.8,9,26.8,6.9,24.9,6c-0.6-0.3-1.2-0.3-1.8,0	c-1.9,1-6.9,3.1-12.7,3.5c-1,0.1-1.9,0.9-1.9,2v6.2"/><path fill="none" stroke="#18193f" stroke-linecap="round" stroke-linejoin="round" stroke-width="3" d="M8.5,23.5v1.4c0,11.4,13.6,17.6,15.5,17.6c0.9,0,4.8-1.5,8.4-4.5"/><line x1="24" x2="24" y1="11.5" y2="42.5" fill="none" stroke="#18193f" stroke-linecap="round" stroke-linejoin="round" stroke-width="3"/><line x1="35" x2="8.5" y1="23" y2="23" fill="none" stroke="#18193f" stroke-linecap="round" stroke-linejoin="round" stroke-width="3"/></svg>