<svg xmlns="http://www.w3.org/2000/svg"  viewBox="0 0 48 48" width="48px" height="48px"><path fill="#a5d6a7" d="M22,40.7c3.1,5.2,10,4.3,11.6,4.3c6.9-0.3,12.4-5.9,12.3-16.2c-0.1-5-2-12.6-6.8-18.7c-0.8-1-2.1-1.4-3.3-1.1	c-4.9,1.4-17.5,5.7-22.9,13.5c-1.5,2.4-1.7,4.7-1.7,6.6C11.2,35.9,17.7,40.7,22,40.7"/><path fill="none" stroke="#18193f" stroke-linecap="round" stroke-miterlimit="20" stroke-width="3" d="M12.6,14.7c-1.3,1.2-2.4,2.4-3.4,3.8c-1.5,2.4-1.7,4.7-1.7,6.6c0,6.7,6.4,11.5,10.6,11.5"/><path fill="none" stroke="#18193f" stroke-linecap="round" stroke-miterlimit="20" stroke-width="3" d="M23,39c2.6,2,5,2,6.5,2c6.8-0.3,12.1-5.9,12-16.2c-0.1-5-2-12.6-6.6-18.7c-0.8-1-2.1-1.4-3.3-1.1	c-2.8,0.8-8.3,2.7-13.4,5.7"/><path fill="none" stroke="#18193f" stroke-linecap="round" stroke-miterlimit="20" stroke-width="3" d="M28.8,17.7C26.5,28.5,19.5,39,8.5,42.5"/></svg>