<svg xmlns="http://www.w3.org/2000/svg"  viewBox="0 0 48 48" width="48px" height="48px"><path fill="#f48fb1" d="M47.8,24.5c-0.1-0.4-0.4-0.7-0.9-0.8c-0.8-0.1-1.6-0.1-2.4,0c-0.4,0-0.6-1.7-1.2-2.8c-0.4-0.8-1.3-1-1.4-1.7	c-0.3-1.1-0.7-2.1-1.2-3c-0.2-0.4-0.6-0.6-1.1-0.5c-2.1,0.5-4.2,1.7-6,3.4c-1.2-3.6-3.1-6.5-5.4-8.3c-0.3-0.3-0.9-0.3-1.2,0	c-2.4,1.9-4.3,5-5.5,8.7c-2-1.9-4.2-3.2-6.4-3.8c-0.4-0.1-0.8,0.1-1.1,0.5c-1.2,2.1-1.8,4.8-1.7,7.7c-1.4-0.3-2.8-0.5-4.1-0.3	c-0.4,0-0.8,0.4-0.9,0.8c-0.8,4.4,1,9.9,5.1,14.5c4.4,4.8,10.1,7.1,14.7,6.4c0,0,0.7,0,0.7,0c4.5,0.8,10.3-1.6,14.7-6.4	C46.8,34.4,48.6,28.8,47.8,24.5z"/><path fill="none" stroke="#18193f" stroke-linecap="round" stroke-linejoin="round" stroke-miterlimit="10" stroke-width="3" d="M30.1,15.2c1.8-1.7,3.9-2.8,5.9-3.3c0.4-0.1,0.8,0.1,1.1,0.5c0.3,0.6,0.6,1.3,0.9,2"/><path fill="none" stroke="#18193f" stroke-linecap="round" stroke-linejoin="round" stroke-miterlimit="10" stroke-width="3" d="M17.9,15.6c-2-1.9-4.2-3.2-6.4-3.7c-0.4-0.1-0.8,0.1-1.1,0.5c-0.6,1.1-1.1,2.3-1.3,3.6"/><path fill="none" stroke="#18193f" stroke-linecap="round" stroke-linejoin="round" stroke-miterlimit="10" stroke-width="3" d="M10.3,36.3c4.2,3.9,9.3,5.7,13.3,5"/><path fill="none" stroke="#18193f" stroke-linecap="round" stroke-linejoin="round" stroke-miterlimit="10" stroke-width="3" d="M16.7,24.2c-3.8-3.3-8.2-4.9-12-4.5c-0.4,0-0.8,0.4-0.9,0.8c-0.6,3.2,0.2,7.1,2.3,10.7"/><path fill="none" stroke="#18193f" stroke-linecap="round" stroke-linejoin="round" stroke-miterlimit="10" stroke-width="3" d="M31.7,23.9c3.7-3.1,8-4.6,11.6-4.2c0.4,0,0.8,0.4,0.9,0.8c0.8,4.4-1,9.9-5.1,14.5c-4.4,4.8-10.1,7.1-14.7,6.4"/><path fill="none" stroke="#18193f" stroke-linecap="round" stroke-linejoin="round" stroke-miterlimit="10" stroke-width="3" d="M30.9,28.8c0.3-1.5,0.4-3.2,0.4-4.8c0-7.4-2.7-13.9-6.7-17.1c-0.3-0.3-0.9-0.3-1.2,0c-4,3.2-6.7,9.6-6.7,17.1	c0,7.8,3,14.5,7.3,17.5c1.9-1.3,3.5-3.3,4.7-5.8"/></svg>