<svg xmlns="http://www.w3.org/2000/svg"  viewBox="0 0 48 48" width="48px" height="48px"><path fill="#f48fb1" d="M22.6,25.3c0,8.7-9.1,12.2-11.3,14.4c-1,0.9-1.7,2.1-1.7,3.5l0,0c0,2.4,1.9,4.3,4.3,4.3l0,0	c1.4,0,2.5-0.8,3.5-1.7c2.2-2.2,5.6-11.3,14.4-11.3"/><ellipse cx="35" cy="22" fill="#f48fb1" rx="13.6" ry="11.7" transform="rotate(-45.001 35 22)"/><path fill="none" stroke="#18193f" stroke-linecap="round" stroke-linejoin="round" stroke-width="3" d="M16.6,27.8c-2.8,4.2-7.8,6.4-9.4,7.9c-1,0.9-1.7,2.1-1.7,3.5l0,0c0,2.4,1.9,4.3,4.3,4.3l0,0	c1.4,0,2.5-0.8,3.5-1.7c2-2.1,5.3-10.4,12.8-11.4"/><path fill="none" stroke="#18193f" stroke-linecap="round" stroke-linejoin="round" stroke-width="3" d="M31,30.5c-3.6,0.5-7.1-0.4-9.6-2.9c-4.5-4.5-4-12.4,1.2-17.7"/><path fill="none" stroke="#18193f" stroke-linecap="round" stroke-linejoin="round" stroke-width="3" d="M27.9,6.3c4.5-1.8,9.4-1.1,12.7,2.1c4.6,4.6,4,12.6-1.4,17.9c-0.9,0.9-1.8,1.6-2.8,2.2"/><line x1="23" x2="39" y1="10" y2="26" fill="none" stroke="#18193f" stroke-linecap="round" stroke-linejoin="round" stroke-width="3"/></svg>