<svg xmlns="http://www.w3.org/2000/svg"  viewBox="0 0 48 48" width="48px" height="48px"><path fill="#ffe082" d="M44.5,24.8c-4.4-1-6.1,3.8-9.8,3.8V10.5c0-1.4-1.1-2.5-2.5-2.5c-1.4,0-2.5,1.1-2.5,2.5l0,9.3l-0.3,0	c-0.1-1.3-1.2-2.3-2.5-2.3c-1.4,0-2.5,1.1-2.5,2.5v0.1l-0.2,0c-0.4-0.9-1.3-1.6-2.3-1.6c-0.9,0-1.6,0.4-2.1,1.1v-8.1	c0-1.4-1.1-2.5-2.5-2.5c-1.4,0-2.5,1.1-2.5,2.5v18.8c0,3.2,1.8,6,4.5,7.3c-0.8,0.2-1.3,0.9-1.3,1.8v2.8c0,1,0.8,1.9,1.9,1.9h12.2	c1,0,1.9-0.8,1.9-1.9v-2.8c0-0.4-0.1-0.7-0.3-1c1.1-0.3,2.2-0.9,2.9-1.5c4.1-4.1,5.7-5.3,8.4-7C47,28.5,47,25.4,44.5,24.8z"/><path fill="none" stroke="#18193f" stroke-linecap="round" stroke-linejoin="round" stroke-miterlimit="10" stroke-width="3" d="M10.5,14.5V7c0-1.4,1.1-2.5,2.5-2.5l0,0c1.4,0,2.5,1.1,2.5,2.5"/><path fill="none" stroke="#18193f" stroke-linecap="round" stroke-linejoin="round" stroke-miterlimit="10" stroke-width="3" d="M25.5,15.5l0-9.5c0-1.4,1.1-2.5,2.5-2.5l0,0c1.4,0,2.5,1.1,2.5,2.5v18.5c3.7,0,5.5-4.9,9.9-3.9	c2.6,0.6,2.6,3.7,0.6,5c-2.7,1.7-4.4,3-8.5,7.2c-1,1-2.9,1.8-4.2,1.8h-9.4c-4.6,0-8.4-3.8-8.4-8.4v-5.7"/><path fill="none" stroke="#18193f" stroke-linecap="round" stroke-linejoin="round" stroke-miterlimit="10" stroke-width="3" d="M20.5,16.5V16c0-1.4,1.1-2.5,2.5-2.5l0,0c1.4,0,2.5,1.1,2.5,2.5v0.5"/><path fill="none" stroke="#18193f" stroke-linecap="round" stroke-linejoin="round" stroke-miterlimit="10" stroke-width="3" d="M15.5,17.5V17c0-1.4,1.1-2.5,2.5-2.5l0,0c1.4,0,2.5,1.1,2.5,2.5"/><line x1="15.5" x2="15.5" y1="7.5" y2="17.5" fill="none" stroke="#18193f" stroke-linecap="round" stroke-linejoin="round" stroke-miterlimit="10" stroke-width="3"/><path fill="none" stroke="#18193f" stroke-linecap="round" stroke-linejoin="round" stroke-miterlimit="10" stroke-width="3" d="M21.9,41.5h-5.9c-1.1,0-2-0.9-2-2v-3c0-1.1,0.9-2,2-2h13.1c1.1,0,2,0.9,2,2v3c0,1.1-0.9,2-2,2h-1.9"/><polygon fill="#fff" stroke="#18193f" stroke-linecap="round" stroke-linejoin="round" stroke-miterlimit="10" stroke-width="3" points="11.9,38 13.9,39.3 13.9,36.7"/><polygon fill="#fff" stroke="#18193f" stroke-linecap="round" stroke-linejoin="round" stroke-miterlimit="10" stroke-width="3" points="33.1,38 31.1,39.3 31.1,36.7"/></svg>