<svg xmlns="http://www.w3.org/2000/svg"  viewBox="0 0 48 48" width="48px" height="48px"><path fill="#90caf9" d="M35.4,10.2c-5.8,0-10.5,4.7-10.5,10.5c0,0.9,0.1,1.7,0.3,2.5L10.4,40c-0.4,0.4-0.3,1,0,1.4l4.1,4.1	c0.4,0.4,1,0.4,1.4,0l16.6-14.6c0.9,0.3,1.9,0.4,2.9,0.4c5.8,0,10.5-4.7,10.5-10.5S41.2,10.2,35.4,10.2z"/><path fill="none" stroke="#18193f" stroke-linecap="round" stroke-linejoin="round" stroke-width="3" d="M41.1,12.8c-1.6-3.8-5.3-6.5-9.7-6.5c-5.8,0-10.5,4.7-10.5,10.5c0,1.2,0.2,2.3,0.5,3.3"/><path fill="none" stroke="#18193f" stroke-linecap="round" stroke-linejoin="round" stroke-width="3" d="M28,26.7c1,0.3,2.2,0.5,3.3,0.5c4.6,0,8.6-3,10-7.2"/><line x1="23.1" x2="39.7" y1="8.5" y2="25.1" fill="none" stroke="#18193f" stroke-linecap="round" stroke-linejoin="round" stroke-width="3"/><path fill="none" stroke="#18193f" stroke-linecap="round" stroke-linejoin="round" stroke-width="3" d="M13.9,27.5l6.9-7.9l7.4,7.4L11.9,41.5c-0.4,0.4-1,0.3-1.4,0l-4.1-4.1C6,37,6,36.4,6.4,36l3.5-3.9"/><line x1="17.3" x2="20.1" y1="25.5" y2="28.3" fill="none" stroke="#18193f" stroke-linecap="round" stroke-linejoin="round" stroke-width="3"/></svg>