<svg xmlns="http://www.w3.org/2000/svg"  viewBox="0 0 48 48" width="48px" height="48px"><path fill="#90caf9" d="M46,9h-7c-0.552,0-1,0.448-1,1v2h-2c-0.552,0-1,0.448-1,1v2h-2c-0.552,0-1,0.448-1,1v2h-2	c-0.552,0-1,0.448-1,1v2h-2c-0.552,0-1,0.448-1,1v2h-2c-0.552,0-1,0.448-1,1v2h-3v-2c0-0.552-0.448-1-1-1h-2v-2c0-0.552-0.448-1-1-1	h-4c-0.552,0-1,0.448-1,1v4c0,0.552,0.448,1,1,1h2v5c0,0.552,0.448,1,1,1h2v3h-2c-0.552,0-1,0.448-1,1v2H9c-0.552,0-1,0.448-1,1v7	c0,0.552,0.448,1,1,1h7c0.552,0,1-0.448,1-1v-5h2c0.552,0,1-0.448,1-1v-2h3v2c0,0.552,0.448,1,1,1h5v2c0,0.552,0.448,1,1,1h4	c0.552,0,1-0.448,1-1v-4c0-0.552-0.448-1-1-1h-2v-2c0-0.552-0.448-1-1-1h-2v-3h2c0.552,0,1-0.448,1-1v-2h2c0.552,0,1-0.448,1-1v-2h2	c0.552,0,1-0.448,1-1v-2h2c0.552,0,1-0.448,1-1v-2h2c0.552,0,1-0.448,1-1v-2h2c0.552,0,1-0.448,1-1v-7C47,9.448,46.552,9,46,9z"/><path fill="#18193f" d="M33,11h-2V9c0-0.552,0.448-1,1-1h2v2C34,10.552,33.552,11,33,11z"/><path fill="#18193f" d="M30,14h-2v-2c0-0.552,0.448-1,1-1h2v2C31,13.552,30.552,14,30,14z"/><path fill="#18193f" d="M27,17h-2v-2c0-0.552,0.448-1,1-1h2v2C28,16.552,27.552,17,27,17z"/><path fill="#18193f" d="M24,20h-2v-2c0-0.552,0.448-1,1-1h2v2C25,19.552,24.552,20,24,20z"/><rect width="3" height="3" x="13" y="29" fill="#18193f"/><path fill="#18193f" d="M13,35h-3v-2c0-0.552,0.448-1,1-1h2V35z"/><rect width="3" height="3" x="16" y="32" fill="#18193f"/><path fill="#18193f" d="M15,38h-2v-3h3v2C16,37.552,15.552,38,15,38z"/><path fill="#18193f" d="M10,38v3H7v-3H10v-3H7H5c-0.552,0-1,0.448-1,1v1.944V38v3v1v1c0,0.552,0.448,1,1,1h2h3h2	c0.552,0,1-0.448,1-1v-2v-3H10z"/><path fill="#18193f" d="M33,23h-2v-2c0-0.552,0.448-1,1-1h2v2C34,22.552,33.552,23,33,23z"/><path fill="#18193f" d="M30,26h-2v-2c0-0.552,0.448-1,1-1h2v2C31,25.552,30.552,26,30,26z"/><path fill="#18193f" d="M27,29h-2v-2c0-0.552,0.448-1,1-1h2v2C28,28.552,27.552,29,27,29z"/><path fill="#18193f" d="M28,35h-3v-3h2c0.552,0,1,0.448,1,1V35z"/><path fill="#18193f" d="M28,35v3h-3v2c0,0.552,0.448,1,1,1h2h2c0.552,0,1-0.448,1-1v-2v-2c0-0.552-0.448-1-1-1H28z"/><path fill="#18193f" d="M16,23h-3v-3h2c0.552,0,1,0.448,1,1V23z"/><path fill="#18193f" d="M10,17H8c-0.552,0-1,0.448-1,1v2v2c0,0.552,0.448,1,1,1h2v-3h3v-2c0-0.552-0.448-1-1-1H10z"/><polygon fill="#18193f" points="19,23 16,23 16,26 16,29 19,29 19,26"/><path fill="#18193f" d="M13,23h-3v3v2c0,0.552,0.448,1,1,1h2v-3V23z"/><rect width="6" height="3" x="19" y="29" fill="#18193f"/><path fill="#18193f" d="M39,17h-2v-2c0-0.552,0.448-1,1-1h2v2C40,16.552,39.552,17,39,17z"/><path fill="#18193f" d="M36,20h-2v-2c0-0.552,0.448-1,1-1h2v2C37,19.552,36.552,20,36,20z"/><path fill="#18193f" d="M35,5c-0.552,0-1,0.448-1,1v2h6v6h2c0.552,0,1-0.448,1-1V6c0-0.552-0.448-1-1-1H35z"/></svg>