<svg xmlns="http://www.w3.org/2000/svg"  viewBox="0 0 48 48" width="48px" height="48px"><path fill="#8ce7f2" d="M47,21h-2v-8c0-0.552-0.448-1-1-1h-8v-2c0-0.552-0.448-1-1-1H24c-0.552,0-1,0.448-1,1v2h-2	c-0.552,0-1,0.448-1,1v1c0,0.552,0.448,1,1,1h2v2c0,0.552,0.448,1,1,1h9v3h-2c-0.552,0-1,0.448-1,1v2h-2c-0.552,0-1,0.448-1,1v2h-2	c-0.552,0-1,0.448-1,1v2h-2c-0.552,0-1,0.448-1,1v2h-2c-0.552,0-1,0.448-1,1v2h-2c-0.552,0-1,0.448-1,1v2h-2c-0.552,0-1,0.448-1,1v2	h-2c-0.552,0-1,0.448-1,1v4c0,0.552,0.448,1,1,1h4c0.552,0,1-0.448,1-1v-2h2c0.552,0,1-0.448,1-1v-2h2c0.552,0,1-0.448,1-1v-2h2	c0.552,0,1-0.448,1-1v-2h2c0.552,0,1-0.448,1-1v-2h2c0.552,0,1-0.448,1-1v-2h2c0.552,0,1-0.448,1-1v-2h2c0.552,0,1-0.448,1-1v-2h3v9	c0,0.552,0.448,1,1,1h2v2c0,0.552,0.448,1,1,1h1c0.552,0,1-0.448,1-1v-2h2c0.552,0,1-0.448,1-1V22C48,21.448,47.552,21,47,21z"/><path fill="#18193f" d="M31,14h-2v3h3v-2C32,14.448,31.552,14,31,14z"/><path fill="#18193f" d="M34,17h-2v3h3v-2C35,17.448,34.552,17,34,17z"/><path fill="#18193f" d="M29,23h2c0.552,0,1-0.448,1-1v-2h-3V23z"/><path fill="#18193f" d="M26,20h-2c-0.552,0-1,0.448-1,1v2h3V20z"/><path fill="#18193f" d="M26,26h2c0.552,0,1-0.448,1-1v-2h-3V26z"/><path fill="#18193f" d="M23,23h-2c-0.552,0-1,0.448-1,1v2h3V23z"/><path fill="#18193f" d="M23,29h2c0.552,0,1-0.448,1-1v-2h-3V29z"/><path fill="#18193f" d="M20,26h-2c-0.552,0-1,0.448-1,1v2h3V26z"/><path fill="#18193f" d="M20,32h2c0.552,0,1-0.448,1-1v-2h-3V32z"/><path fill="#18193f" d="M15,29c-0.552,0-1,0.448-1,1v2h3v-3H15z"/><path fill="#18193f" d="M17,35h2c0.552,0,1-0.448,1-1v-2h-3V35z"/><path fill="#18193f" d="M11,33v2h3v-3h-2C11.448,32,11,32.448,11,33z"/><path fill="#18193f" d="M8,36v2h3v-3H9C8.448,35,8,35.448,8,36z"/><path fill="#18193f" d="M13,41c0.552,0,1-0.448,1-1v-2h-3v3H13z"/><path fill="#18193f" d="M8,38H6c-0.552,0-1,0.448-1,1v4c0,0.552,0.448,1,1,1h4c0.552,0,1-0.448,1-1v-2H8V38z"/><path fill="#18193f" d="M17,8c-0.552,0-1,0.448-1,1v1c0,0.552,0.448,1,1,1h2V8H17z"/><path fill="#18193f" d="M32,6c0-0.552-0.448-1-1-1H20c-0.552,0-1,0.448-1,1v2h13V6z"/><path fill="#18193f" d="M28,11h-9v2c0,0.552,0.448,1,1,1h9v-2C29,11.448,28.552,11,28,11z"/><path fill="#18193f" d="M38,32c0,0.552,0.448,1,1,1h1c0.552,0,1-0.448,1-1v-2h-3V32z"/><path fill="#18193f" d="M43,17h-2v13h2c0.552,0,1-0.448,1-1V18C44,17.448,43.552,17,43,17z"/><path fill="#18193f" d="M37,20h-2v9c0,0.552,0.448,1,1,1h2v-9C38,20.448,37.552,20,37,20z"/><path fill="#18193f" d="M33,11h2v2c0,0.552,0.448,1,1,1h2v2c0,0.552,0.448,1,1,1h2V9c0-0.552-0.448-1-1-1h-8v2 C32,10.552,32.448,11,33,11z"/></svg>