<svg xmlns="http://www.w3.org/2000/svg"  viewBox="0 0 48 48" width="48px" height="48px"><circle cx="28" cy="28" r="18" fill="#8ce7f2"/><path fill="none" stroke="#18193f" stroke-linecap="round" stroke-linejoin="round" stroke-miterlimit="10" stroke-width="3" d="M24,42.5C13.8,42.5,5.5,34.2,5.5,24c0-7.6,4.6-14.2,11.2-17"/><path fill="none" stroke="#18193f" stroke-linecap="round" stroke-linejoin="round" stroke-miterlimit="10" stroke-width="3" d="M22.6,5.6c0.5,0,1-0.1,1.4-0.1c10.2,0,18.5,8.3,18.5,18.5c0,7.6-4.5,14-11,16.9"/><line x1="18" x2="15.6" y1="35.7" y2="40.1" fill="none" stroke="#18193f" stroke-linecap="round" stroke-linejoin="round" stroke-miterlimit="10" stroke-width="3"/><line x1="8.1" x2="18.4" y1="32.7" y2="27.4" fill="none" stroke="#18193f" stroke-linecap="round" stroke-linejoin="round" stroke-miterlimit="10" stroke-width="3"/><line x1="29.9" x2="40.4" y1="21.3" y2="15.4" fill="none" stroke="#18193f" stroke-linecap="round" stroke-linejoin="round" stroke-miterlimit="10" stroke-width="3"/><line x1="30.6" x2="27.4" y1="12.2" y2="18.4" fill="none" stroke="#18193f" stroke-linecap="round" stroke-linejoin="round" stroke-miterlimit="10" stroke-width="3"/><path fill="none" stroke="#18193f" stroke-linecap="round" stroke-linejoin="round" stroke-miterlimit="10" stroke-width="3" d="M28.7,28.5c-1.2,1.2-2.8,2-4.7,2c-3.6,0-6.5-2.9-6.5-6.5s2.9-6.5,6.5-6.5s6.5,2.9,6.5,6.5"/><circle cx="24" cy="24" r="2" fill="#18193f"/></svg>