<svg xmlns="http://www.w3.org/2000/svg"  viewBox="0 0 48 48" width="48px" height="48px"><path fill="#8ce7f2" d="M42.9,46H13.1c-1.7,0-3.1-1.4-3.1-3.1V23.1c0-1.7,1.4-3.1,3.1-3.1h29.9c1.7,0,3.1,1.4,3.1,3.1v19.9	C46,44.6,44.6,46,42.9,46z"/><path fill="none" stroke="#18193f" stroke-linecap="round" stroke-linejoin="round" stroke-width="3" d="M41.5,36v2.5c0,1.7-1.3,3-3,3h-29c-1.7,0-3-1.3-3-3v-5.4"/><path fill="none" stroke="#18193f" stroke-linecap="round" stroke-linejoin="round" stroke-width="3" d="M6.5,24.4v-4.9c0-1.7,1.3-3,3-3h29c1.7,0,3,1.3,3,3v10.9"/><line x1="9.5" x2="38.5" y1="11.5" y2="11.5" fill="none" stroke="#18193f" stroke-linecap="round" stroke-linejoin="round" stroke-width="3"/><line x1="33.5" x2="14.5" y1="6.5" y2="6.5" fill="none" stroke="#18193f" stroke-linecap="round" stroke-linejoin="round" stroke-width="3"/><path fill="#18193f" d="M28.1,23.6l-3.7-1.5C24.3,22,24.2,22,24,22c0,0,0,0,0,0c0,0,0,0,0,0c-0.1,0-0.2,0-0.3,0.1c0,0,0,0-0.1,0	c0,0-0.1,0-0.1,0.1c0,0-0.1,0.1-0.1,0.1c0,0,0,0,0,0c-0.1,0.1-0.1,0.2-0.2,0.3c0,0,0,0,0,0.1c0,0.1-0.1,0.2-0.1,0.3v3v4.4	c-0.6-0.3-1.3-0.4-2-0.4c-2.2,0-4,1.3-4,3s1.8,3,4,3s4-1.3,4-3v-5.5l3.6,1.5c0.1,0,0.2,0.1,0.4,0.1c0.2,0,0.4-0.1,0.6-0.2	c0.3-0.2,0.4-0.5,0.4-0.8v-1.6C30,25.1,29.3,24,28.1,23.6z"/></svg>