<svg xmlns="http://www.w3.org/2000/svg"  viewBox="0 0 48 48" width="48px" height="48px"><path fill="#a5d6a7" d="M40.1,44H15.9c-2.1,0-3.9-1.7-3.9-3.9V15.9c0-2.1,1.7-3.9,3.9-3.9h24.2c2.1,0,3.9,1.7,3.9,3.9v24.2	C44,42.3,42.3,44,40.1,44z"/><path fill="none" stroke="#18193f" stroke-linecap="round" stroke-linejoin="round" stroke-miterlimit="10" stroke-width="3" d="M40.5,33.4v3.1c0,2.2-1.8,4-4,4h-25c-2.2,0-4-1.8-4-4V20.8"/><path fill="none" stroke="#18193f" stroke-linecap="round" stroke-linejoin="round" stroke-miterlimit="10" stroke-width="3" d="M7.5,14.5v-3c0-2.2,1.8-4,4-4h25c2.2,0,4,1.8,4,4V28"/><path fill="none" stroke="#18193f" stroke-linecap="round" stroke-linejoin="round" stroke-miterlimit="10" stroke-width="3" d="M32.5,27.9v-11c0-1.2-1.1-2.2-2.3-2l-9,1.4c-1,0.2-1.7,1-1.7,2v12.6"/><ellipse cx="16.3" cy="30.9" fill="none" stroke="#18193f" stroke-linecap="round" stroke-linejoin="round" stroke-miterlimit="10" stroke-width="3" rx="3.3" ry="2.9"/><ellipse cx="29.3" cy="27.9" fill="none" stroke="#18193f" stroke-linecap="round" stroke-linejoin="round" stroke-miterlimit="10" stroke-width="3" rx="3.3" ry="2.9"/><line x1="32.5" x2="23.8" y1="19.5" y2="20.8" fill="none" stroke="#18193f" stroke-linecap="round" stroke-linejoin="round" stroke-miterlimit="10" stroke-width="3"/></svg>