<svg xmlns="http://www.w3.org/2000/svg"  viewBox="0 0 48 48" width="48px" height="48px"><path fill="#ffab91" d="M36.7,12c-3.7,0-7,2-8.7,5.1C26.3,14,23,12,19.3,12c-5.5,0-10.1,4.5-10.1,10.1C9.1,34.6,24.5,44,28,44	s18.9-10.6,18.9-21.9C46.9,16.5,42.3,12,36.7,12z"/><path fill="none" stroke="#18193f" stroke-linecap="round" stroke-linejoin="round" stroke-miterlimit="10" stroke-width="3" d="M36.2,31.8c3.6-3.9,6.6-8.7,6.6-13.7C42.9,12.5,38.3,8,32.7,8c-3.7,0-7,2-8.7,5.1c-1.3-2.3-3.4-4-5.9-4.7"/><path fill="none" stroke="#18193f" stroke-linecap="round" stroke-linejoin="round" stroke-miterlimit="10" stroke-width="3" d="M11.7,8.6c-3.8,1.4-6.6,5.1-6.6,9.5C5.1,30.6,20.5,40,24,40c1.1,0,3.4-1.1,6-2.9"/><path fill="#18193f" d="M29.1,18.6l-3.7-1.5C25.3,17,25.2,17,25,17c0,0,0,0,0,0c0,0,0,0,0,0c-0.1,0-0.2,0-0.3,0.1c0,0,0,0-0.1,0	c0,0-0.1,0-0.1,0.1c0,0-0.1,0.1-0.1,0.1c0,0,0,0,0,0c-0.1,0.1-0.1,0.2-0.2,0.3c0,0,0,0,0,0.1c0,0.1-0.1,0.2-0.1,0.3v3v4.4	c-0.6-0.3-1.3-0.4-2-0.4c-2.2,0-4,1.3-4,3s1.8,3,4,3s4-1.3,4-3v-5.5l3.6,1.5c0.1,0,0.2,0.1,0.4,0.1c0.2,0,0.4-0.1,0.6-0.2	c0.3-0.2,0.4-0.5,0.4-0.8v-1.6C31,20.1,30.3,19,29.1,18.6z"/></svg>