<svg xmlns="http://www.w3.org/2000/svg"  viewBox="0 0 48 48" width="48px" height="48px"><path fill="#8ce7f2" d="M43,42H13c-1.1,0-2-0.9-2-2V17c0-1.1,0.9-2,2-2h30c1.1,0,2,0.9,2,2v23C45,41.1,44.1,42,43,42z"/><line x1="24.5" x2="24.5" y1="15.5" y2="31.5" fill="none" stroke="#18193f" stroke-linecap="round" stroke-linejoin="round" stroke-miterlimit="10" stroke-width="3"/><path fill="none" stroke="#18193f" stroke-linecap="round" stroke-linejoin="round" stroke-miterlimit="10" stroke-width="3" d="M24.5,20.5v-4.7c0-0.7,0.6-1.1,1.2-1l5.2,1.3c0.9,0.2,1.5,1,1.5,1.9v3.2c0,0.7-0.6,1.1-1.2,1L29,21.6"/><path fill="none" stroke="#18193f" stroke-linecap="round" stroke-linejoin="round" stroke-miterlimit="10" stroke-width="3" d="M24.5,31.3c0,1.8-1.9,3.3-4.3,3.3S16,33,16,31.3c0-1.4,1.2-2.6,2.9-3.1"/><line x1="7" x2="41" y1="10.5" y2="10.5" fill="none" stroke="#18193f" stroke-linecap="round" stroke-linejoin="round" stroke-miterlimit="10" stroke-width="3"/><line x1="7" x2="19" y1="17.5" y2="17.5" fill="none" stroke="#18193f" stroke-linecap="round" stroke-linejoin="round" stroke-miterlimit="10" stroke-width="3"/><line x1="38" x2="41" y1="17.5" y2="17.5" fill="none" stroke="#18193f" stroke-linecap="round" stroke-linejoin="round" stroke-miterlimit="10" stroke-width="3"/><line x1="7" x2="15" y1="24.5" y2="24.5" fill="none" stroke="#18193f" stroke-linecap="round" stroke-linejoin="round" stroke-miterlimit="10" stroke-width="3"/><line x1="37" x2="41" y1="24.5" y2="24.5" fill="none" stroke="#18193f" stroke-linecap="round" stroke-linejoin="round" stroke-miterlimit="10" stroke-width="3"/><line x1="7" x2="11" y1="31.5" y2="31.5" fill="none" stroke="#18193f" stroke-linecap="round" stroke-linejoin="round" stroke-miterlimit="10" stroke-width="3"/><line x1="30" x2="41" y1="31.5" y2="31.5" fill="none" stroke="#18193f" stroke-linecap="round" stroke-linejoin="round" stroke-miterlimit="10" stroke-width="3"/><line x1="7" x2="41" y1="38.5" y2="38.5" fill="none" stroke="#18193f" stroke-linecap="round" stroke-linejoin="round" stroke-miterlimit="10" stroke-width="3"/></svg>