<svg xmlns="http://www.w3.org/2000/svg"  viewBox="0 0 48 48" width="48px" height="48px"><path fill="#9fa8da" d="M28,8.5c3.9,0,7,3.1,7,7v13.1c0,3.9-3.1,7-7,7l0,0c-3.9,0-7-3.1-7-7V15.5C21,11.6,24.1,8.5,28,8.5"/><line x1="24" x2="24" y1="38.5" y2="44.5" fill="none" stroke="#18193f" stroke-linecap="round" stroke-linejoin="round" stroke-width="3"/><path fill="none" stroke="#18193f" stroke-linecap="round" stroke-linejoin="round" stroke-width="3" d="M16.5,10.3c0.3-3.8,3.5-6.8,7.5-6.8"/><path fill="none" stroke="#18193f" stroke-linecap="round" stroke-linejoin="round" stroke-width="3" d="M31.5,19.1V25c0,4.1-3.4,7.5-7.5,7.5l0,0c-4.1,0-7.5-3.4-7.5-7.5v-1.9"/><path fill="none" stroke="#18193f" stroke-linecap="round" stroke-linejoin="round" stroke-width="3" d="M24,3.5c4.1,0,7.5,3.4,7.5,7.5v2.3"/><path fill="none" stroke="#18193f" stroke-linecap="round" stroke-linejoin="round" stroke-width="3" d="M30.4,36.9c-1.9,1-4.1,1.6-6.4,1.6c-7.5,0-13.5-6-13.5-13.5c0-2.5,0-4.5,0-4.5"/><path fill="none" stroke="#18193f" stroke-linecap="round" stroke-linejoin="round" stroke-width="3" d="M37.5,20.5c0,0,0,2,0,4.5c0,1.7-0.3,3.4-0.9,4.9"/><line x1="18" x2="30" y1="45" y2="45" fill="none" stroke="#18193f" stroke-linecap="round" stroke-linejoin="round" stroke-width="3"/><line x1="6.8" x2="41.2" y1="6.8" y2="41.2" fill="none" stroke="#18193f" stroke-linecap="round" stroke-linejoin="round" stroke-width="3"/></svg>