<svg xmlns="http://www.w3.org/2000/svg"  viewBox="0 0 48 48" width="48px" height="48px"><path fill="#ffe082" d="M45.826,15.5H40.5l-1.606-4.817c-0.202-0.607-0.915-0.87-1.463-0.541L33.5,12.5l-4.849-3.527	c-0.38-0.276-0.901-0.251-1.253,0.061L23.5,12.5l-3.931-2.359c-0.549-0.329-1.261-0.066-1.463,0.541L16.5,15.5h-4.89	c-0.844,0-1.308,0.98-0.774,1.633L14,21l-1.381,2.485c-0.425,0.765,0.268,1.668,1.117,1.456L15.5,24.5V28l0.047,0.789	c0.03,0.786,0.063,1.269,0.134,2.02c-1.256,0.358-2.181,1.501-2.181,2.872c0,1.657,1.343,3,3,3c0.093,0,0.18-0.019,0.271-0.027	C18.8,43.567,23.059,47.681,28,47.681s9.2-4.114,11.229-11.027c0.091,0.008,0.178,0.027,0.271,0.027c1.657,0,3-1.343,3-3	c0-1.371-0.925-2.514-2.181-2.872c0.071-0.75,0.116-1.523,0.146-2.309l0.036-0.771V24.5l3.135,0.627	c0.79,0.158,1.432-0.634,1.115-1.374L44,22l2.706-5.026C47.065,16.308,46.582,15.5,45.826,15.5z"/><path fill="none" stroke="#18193f" stroke-linecap="round" stroke-linejoin="round" stroke-width="3" d="M22.688,43.583	c0.431,0.065,0.869,0.098,1.312,0.098c4.941,0,9.2-4.114,11.229-11.027c0.091,0.008,0.178,0.027,0.271,0.027c1.657,0,3-1.343,3-3	c0-1.371-0.925-2.514-2.181-2.872"/><path fill="none" stroke="#18193f" stroke-linecap="round" stroke-linejoin="round" stroke-width="3" d="M11.5,23.181	c0,1.261,0.071,2.462,0.181,3.628C10.425,27.167,9.5,28.31,9.5,29.681c0,1.657,1.343,3,3,3c0.093,0,0.18-0.019,0.271-0.027	c1.135,3.868,2.968,6.859,5.229,8.744"/><line x1="11.5" x2="30" y1="24.5" y2="24.5" fill="none" stroke="#18193f" stroke-linecap="round" stroke-linejoin="round" stroke-width="3"/><line x1="17.5" x2="17.5" y1="24.5" y2="19.5" fill="none" stroke="#18193f" stroke-linecap="round" stroke-linejoin="round" stroke-width="3"/><line x1="30.5" x2="30.5" y1="19.5" y2="24.5" fill="none" stroke="#18193f" stroke-linecap="round" stroke-linejoin="round" stroke-width="3"/><path fill="none" stroke="#18193f" stroke-linecap="round" stroke-linejoin="round" stroke-width="3" d="M11.5,24.5v-4l1.752-0.5	c3.482-0.995,7.086-1.5,10.707-1.5h0.217c4.189,0,8.351,0.675,12.325,2"/><path fill="none" stroke="#18193f" stroke-linecap="round" stroke-linejoin="round" stroke-width="3" d="M32.831,6.502l0.6-0.36	c0.549-0.329,1.261-0.066,1.463,0.541L36.5,11.5h5.326c0.757,0,1.239,0.808,0.88,1.474L40,18l0.751,1.753	c0.317,0.74-0.326,1.532-1.115,1.375L36.5,20.5"/><path fill="none" stroke="#18193f" stroke-linecap="round" stroke-linejoin="round" stroke-width="3" d="M11.5,20.5l-1.764,0.441	c-0.849,0.212-1.542-0.691-1.117-1.456L10,17l-3.164-3.867C6.302,12.48,6.767,11.5,7.61,11.5h4.89l1.606-4.817	c0.202-0.607,0.915-0.87,1.463-0.541L19.5,8.5l3.898-3.465c0.351-0.312,0.872-0.338,1.253-0.061L28,7.409"/><line x1="16.5" x2="14.5" y1="34.5" y2="35.5" fill="none" stroke="#18193f" stroke-linecap="round" stroke-linejoin="round" stroke-width="3"/><line x1="18.5" x2="16.5" y1="38.5" y2="39.5" fill="none" stroke="#18193f" stroke-linecap="round" stroke-linejoin="round" stroke-width="3"/><line x1="31.5" x2="29.5" y1="39.5" y2="38.5" fill="none" stroke="#18193f" stroke-linecap="round" stroke-linejoin="round" stroke-width="3"/><line x1="33.5" x2="31.5" y1="35.5" y2="34.5" fill="none" stroke="#18193f" stroke-linecap="round" stroke-linejoin="round" stroke-width="3"/><circle cx="18" cy="30" r="2" fill="#18193f"/><circle cx="30" cy="30" r="2" fill="#18193f"/></svg>