<svg xmlns="http://www.w3.org/2000/svg"  viewBox="0 0 48 48" width="48px" height="48px"><path fill="#a5d6a7" d="M25.5,42.8l-2.2,1.5c-1.4,1-3.3,0.9-4.7-0.1l-1.8-1.3c-5-3.7-7.9-9.4-7.9-15.5v-0.9c0-5.7,5.1-12.7,8.3-15.9	c2-2,5.5-2,7.5-0.1c3.5,3.2,9.2,10.5,9.2,16.5l0,0C34,33.3,30.8,39.2,25.5,42.8z"/><path fill="#a5d6a7" d="M21,45h7.7c7.7,0,10.6-1.4,14.1-5.5l0,0c2.7-3.3,4.2-7.3,4.2-11.6v-4.9c0-1.6-1.3-2.9-2.9-2.9H32"/><path fill="none" stroke="#18193f" stroke-linecap="round" stroke-linejoin="round" stroke-miterlimit="10" stroke-width="3" d="M8,12.8c1.6-2.5,3.4-4.8,4.8-6.2c2-2,5.5-2.1,7.5-0.1c3.5,3.3,9.2,10.7,9.2,16.8l0,0c0,6.5-3.2,12.5-8.5,16.2	l-2.2,1.5c-1.4,1-3.3,0.9-4.7-0.1l-1.8-1.4c-5-3.7-7.9-9.5-7.9-15.7v-0.9"/><line x1="16.5" x2="16.5" y1="16.5" y2="5.5" fill="none" stroke="#18193f" stroke-linecap="round" stroke-linejoin="round" stroke-miterlimit="10" stroke-width="3"/><line x1="16.5" x2="16.5" y1="41.5" y2="23.3" fill="none" stroke="#18193f" stroke-linecap="round" stroke-linejoin="round" stroke-miterlimit="10" stroke-width="3"/><path fill="none" stroke="#18193f" stroke-linecap="round" stroke-linejoin="round" stroke-miterlimit="10" stroke-width="3" d="M30.8,41c3.7-0.7,5.9-2.4,8.3-5.3l0,0c2.8-3.4,4.4-7.6,4.4-12v-5.2c0-1.7-1.3-3-3-3h-13"/><line x1="29" x2="42.5" y1="29.1" y2="16.5" fill="none" stroke="#18193f" stroke-linecap="round" stroke-linejoin="round" stroke-miterlimit="10" stroke-width="3"/></svg>