<svg xmlns="http://www.w3.org/2000/svg"  viewBox="0 0 48 48" width="48px" height="48px"><path fill="#ffab91" d="M15.707,43.938c-2.004,0-3.644-1.64-3.644-3.644V15.707c0-2.004,1.64-3.644,3.644-3.644h24.587	c2.004,0,3.644,1.64,3.644,3.644v24.587c0,2.004-1.64,3.644-3.644,3.644H15.707z"/><path fill="none" stroke="#18193f" stroke-linecap="round" stroke-miterlimit="10" stroke-width="3" d="M33.596,7.5h3.132	c2.075,0,3.773,1.698,3.773,3.773v25.455c0,2.075-1.698,3.773-3.773,3.773H20.064"/><path fill="none" stroke="#18193f" stroke-linecap="round" stroke-miterlimit="10" stroke-width="3" d="M14,40.5h-2.727	c-2.075,0-3.773-1.698-3.773-3.773V11.273C7.5,9.198,9.198,7.5,11.273,7.5h15.429"/><path fill="#18193f" d="M31,12.99v19.99l-5-15.1v-4.89c0-0.547,0.443-0.99,0.99-0.99h3.02C30.557,12,31,12.443,31,12.99z"/><path fill="#18193f" d="M22,30.12l0,4.344c0,0.521-0.409,0.946-0.929,0.983c-0.018,0.001-0.035,0.003-0.053,0.004	C18.842,35.612,17,33.878,17,31.696c0-6.135,0-16.676,0-16.676L22,30.12z"/><path fill="#18193f" d="M29.316,35.702c-0.921-0.132-1.892-0.229-2.899-0.289c-0.391-0.023-0.736-0.27-0.874-0.637 l-8.042-21.438C17.259,12.69,17.737,12,18.429,12h2.885c0.413,0,0.782,0.256,0.927,0.643l8.145,21.735 C30.651,35.085,30.064,35.809,29.316,35.702z"/></svg>