<svg xmlns="http://www.w3.org/2000/svg"  viewBox="0 0 48 48" width="48px" height="48px"><path fill="#90caf9" d="M27.068,8.897L8.965,26.569c-0.804,0.785-0.804,2.078,0,2.862l18.103,17.671	c0.791,0.772,2.057,0.756,2.829-0.035l17.24-17.671c0.758-0.777,0.758-2.016,0-2.793L29.897,8.932	C29.126,8.141,27.859,8.126,27.068,8.897z"/><path fill="none" stroke="#18193f" stroke-linecap="round" stroke-linejoin="round" stroke-width="3" d="M14.788,35.02l8.281,8.083	c0.791,0.772,2.057,0.756,2.829-0.035l17.24-17.671c0.758-0.777,0.758-2.016,0-2.793L36.5,15.8"/><path fill="none" stroke="#18193f" stroke-linecap="round" stroke-linejoin="round" stroke-width="3" d="M30.606,9.759l-4.709-4.827	c-0.771-0.791-2.038-0.806-2.829-0.035L4.965,22.569c-0.804,0.785-0.804,2.078,0,2.862l5.268,5.142"/><polyline fill="none" stroke="#18193f" stroke-linecap="round" stroke-linejoin="round" stroke-width="3" points="24.763,5.174 28.978,31.955 24.903,43.371"/><polyline fill="none" stroke="#18193f" stroke-linecap="round" stroke-linejoin="round" stroke-width="3" points="10.604,26.103 28.978,31.955 43.655,24.433"/><circle cx="19.863" cy="17.009" r="2.014" fill="none" stroke="#18193f" stroke-linecap="round" stroke-linejoin="round" stroke-width="2"/><circle cx="18.517" cy="21.468" r="2.518" fill="none" stroke="#18193f" stroke-linecap="round" stroke-linejoin="round" stroke-width="2"/></svg>