<svg xmlns="http://www.w3.org/2000/svg"  viewBox="0 0 48 48" width="48px" height="48px"><circle cx="28" cy="28" r="18.9" fill="#ffab91"/><path fill="#18193f" d="M19.1,41.8c1-1.5,1.5-2.8,1.9-4.3l1-4.1c1.1,1,2.6,1.5,4.5,1.5c5.2,0,9.5-5.3,9.5-11.8C36,16.8,30.8,12,24,12	c-6.6,0-12,5-12,11.3c0,3,1.1,5.7,3.2,7.6c0.2,0.2,0.6,0.1,0.7-0.2l0.6-2.3c0.1-0.2,0-0.5-0.1-0.7c-0.7-1-1.3-2.4-1.3-4.4	c0-4.5,4-8.3,9-8.3c0.8,0,8,0.2,8,8.5c0,4.1-1.9,8.5-6,8.5c-1-0.1-1.8-0.4-2.2-1c-0.7-1-0.6-2.6-0.3-3.5l0.8-3	c0.2-0.8,0.3-1.5,0.3-2.1c0-2-1.2-3-2.5-3c-1.8,0-3,1.9-3,3.8c0,1,0.2,2.1,0.5,3.1l-2.3,9.4c0,0-0.2,0.6-0.2,2.6	c0,0.5,0.1,1.7,0.1,2.8L19.1,41.8z"/><path fill="none" stroke="#18193f" stroke-linecap="round" stroke-linejoin="round" stroke-width="3" d="M31.6,40.9c-2.3,1-4.9,1.6-7.6,1.6C13.8,42.5,5.5,34.2,5.5,24c0-3.7,1.1-7.2,3-10.1"/><path fill="none" stroke="#18193f" stroke-linecap="round" stroke-linejoin="round" stroke-width="3" d="M15,7.8c2.7-1.5,5.7-2.3,9-2.3c10.2,0,18.5,8.3,18.5,18.5c0,4.5-1.6,8.6-4.3,11.9"/></svg>