<svg xmlns="http://www.w3.org/2000/svg"  viewBox="0 0 48 48" width="48px" height="48px"><path fill="#ffab91" d="M47.029,17.192h-1.817v-1.817c0-0.501-0.407-0.908-0.908-0.908h-1.817V12.65	c0-0.501-0.407-0.908-0.908-0.908h-9.083c-0.501,0-0.908,0.407-0.908,0.908v1.201l-0.502,0.615h-1.315	c-0.501,0-0.908,0.407-0.908,0.908v1.817h-2.725v-1.817c0-0.501-0.407-0.908-0.908-0.908h-1.817V12.65	c0-0.501-0.407-0.908-0.908-0.908h-9.083c-0.501,0-0.908,0.407-0.908,0.908v1.716l-0.097,0.101h-1.72	c-0.501,0-0.908,0.407-0.908,0.908v1.817H7.971c-0.501,0-0.908,0.407-0.908,0.908v8.175c0,0.501,0.407,0.908,0.908,0.908h1.817V29	c0,0.501,0.407,0.908,0.908,0.908h1.817V29.86l0.049,0.048h-0.049v1.817c0,0.501,0.407,0.908,0.908,0.908h1.817v-0.097l0.099,0.097	h-0.099v1.817c0,0.501,0.407,0.908,0.908,0.908h1.817v1.817c0,0.501,0.407,0.908,0.908,0.908h1.817V39.9	c0,0.501,0.407,0.908,0.908,0.908h1.817l0,0v1.817c0,0.501,0.407,0.908,0.908,0.908h1.817l0,0v1.817	c0,0.501,0.407,0.908,0.908,0.908h0.908c0.501,0,0.908-0.407,0.908-0.908v-1.817l0,0h1.817c0.501,0,0.908-0.407,0.908-0.908v-1.817	l0,0h1.817c0.501,0,0.908-0.407,0.908-0.908v-1.817h1.817c0.501,0,0.908-0.407,0.908-0.908v-1.817h1.817	c0.501,0,0.908-0.407,0.908-0.908v-1.817h1.817c0.501,0,0.908-0.407,0.908-0.908v-1.817h1.817c0.501,0,0.908-0.407,0.908-0.908	v-1.817h1.817c0.501,0,0.908-0.407,0.908-0.908V18.1C47.937,17.599,47.531,17.192,47.029,17.192z"/><path fill="#18193f" d="M24,15h-1c-0.552,0-1-0.448-1-1v-2h3v2C25,14.552,24.552,15,24,15z"/><path fill="#18193f" d="M24,44h-1c-0.552,0-1-0.448-1-1v-2h3v2C25,43.552,24.552,44,24,44z"/><path fill="#18193f" d="M22,12h-2c-0.552,0-1-0.448-1-1V9h2c0.552,0,1,0.448,1,1V12z"/><path fill="#18193f" d="M6,12H4v-2c0-0.552,0.448-1,1-1h2v2C7,11.552,6.552,12,6,12z"/><path fill="#18193f" d="M7,26H5c-0.552,0-1-0.448-1-1v-2h2c0.552,0,1,0.448,1,1V26z"/><path fill="#18193f" d="M13,32h-2c-0.552,0-1-0.448-1-1v-2h2c0.552,0,1,0.448,1,1V32z"/><path fill="#18193f" d="M16,35h-2c-0.552,0-1-0.448-1-1v-2h2c0.552,0,1,0.448,1,1V35z"/><path fill="#18193f" d="M19,38h-2c-0.552,0-1-0.448-1-1v-2h2c0.552,0,1,0.448,1,1V38z"/><path fill="#18193f" d="M22,41h-2c-0.552,0-1-0.448-1-1v-2h2c0.552,0,1,0.448,1,1V41z"/><path fill="#18193f" d="M19,9H7V7c0-0.552,0.448-1,1-1h10c0.552,0,1,0.448,1,1V9z"/><path fill="#18193f" d="M1,22v-9c0-0.552,0.448-1,1-1h2v11H2C1.448,23,1,22.552,1,22z"/><path fill="#18193f" d="M37,29h2c0.552,0,1-0.448,1-1v-2h-2c-0.552,0-1,0.448-1,1V29z"/><path fill="#18193f" d="M40,26h2c0.552,0,1-0.448,1-1v-2h-2c-0.552,0-1,0.448-1,1V26z"/><path fill="#18193f" d="M34,32h2c0.552,0,1-0.448,1-1v-2h-2c-0.552,0-1,0.448-1,1V32z"/><path fill="#18193f" d="M31,35h2c0.552,0,1-0.448,1-1v-2h-2c-0.552,0-1,0.448-1,1V35z"/><path fill="#18193f" d="M28,38h2c0.552,0,1-0.448,1-1v-2h-2c-0.552,0-1,0.448-1,1V38z"/><path fill="#18193f" d="M25,41h2c0.552,0,1-0.448,1-1v-2h-2c-0.552,0-1,0.448-1,1V41z"/><path fill="#18193f" d="M28,9h12V7c0-0.552-0.448-1-1-1H29c-0.552,0-1,0.448-1,1V9z"/><path fill="#18193f" d="M46,22v-9c0-0.552-0.448-1-1-1h-2v11h2C45.552,23,46,22.552,46,22z"/><path fill="#18193f" d="M25,12h2c0.552,0,1-0.448,1-1V9h-2c-0.552,0-1,0.448-1,1V12z"/></svg>