<svg xmlns="http://www.w3.org/2000/svg"  viewBox="0 0 48 48" width="48px" height="48px"><path fill="#f48fb1" d="M45.3,19.5L39.4,18c-0.7-0.2-1.4,0.4-1.4,1.1v16c-0.5-0.1-1-0.2-1.5-0.2c-3,0-5.5,1.9-5.5,4.3	c0,2.4,2.5,4.3,5.5,4.3c3,0,5.5-1.9,5.5-4.3c0,0,0,0,0-0.1c0-0.1,0-0.1,0-0.2V25.4l3.6,0.9c0.7,0.2,1.4-0.4,1.4-1.1v-3.6	C47,20.7,46.3,19.8,45.3,19.5z"/><line x1="7.5" x2="30.5" y1="11.5" y2="11.5" fill="none" stroke="#18193f" stroke-linecap="round" stroke-linejoin="round" stroke-miterlimit="5" stroke-width="3"/><line x1="7.5" x2="30.5" y1="18.5" y2="18.5" fill="none" stroke="#18193f" stroke-linecap="round" stroke-linejoin="round" stroke-miterlimit="5" stroke-width="3"/><line x1="7.5" x2="30.5" y1="25.5" y2="25.5" fill="none" stroke="#18193f" stroke-linecap="round" stroke-linejoin="round" stroke-miterlimit="5" stroke-width="3"/><line x1="7.5" x2="22.5" y1="32.5" y2="32.5" fill="none" stroke="#18193f" stroke-linecap="round" stroke-linejoin="round" stroke-miterlimit="5" stroke-width="3"/><line x1="7.5" x2="22.5" y1="39.5" y2="39.5" fill="none" stroke="#18193f" stroke-linecap="round" stroke-linejoin="round" stroke-miterlimit="5" stroke-width="3"/><line x1="36.5" x2="36.5" y1="16.5" y2="35.5" fill="none" stroke="#18193f" stroke-linecap="round" stroke-linejoin="round" stroke-width="3"/><path fill="none" stroke="#18193f" stroke-linecap="round" stroke-linejoin="round" stroke-width="3" d="M36.5,18.7V14c0-0.7,0.6-1.1,1.2-1l5.2,1.3c0.9,0.2,1.5,1,1.5,1.9v3.2c0,0.7-0.6,1.1-1.2,1L41.5,20"/><path fill="none" stroke="#18193f" stroke-linecap="round" stroke-linejoin="round" stroke-width="3" d="M36.5,35.5c0,1.8-1.9,3.3-4.3,3.3s-4.3-1.5-4.3-3.3c0-1.3,1.1-2.5,2.6-3"/></svg>