<svg xmlns="http://www.w3.org/2000/svg"  viewBox="0 0 48 48" width="48px" height="48px"><path fill="#8ce7f2" d="M40.1,45H15.9c-2.1,0-3.9-1.7-3.9-3.9V16.9c0-2.1,1.7-3.9,3.9-3.9h24.2c2.1,0,3.9,1.7,3.9,3.9v24.2	C44,43.3,42.3,45,40.1,45z"/><path fill="none" stroke="#18193f" stroke-linecap="round" stroke-linejoin="round" stroke-miterlimit="10" stroke-width="3" d="M40.5,34.5v3c0,2.2-1.8,4-4,4h-25c-2.2,0-4-1.8-4-4V24.6"/><path fill="none" stroke="#18193f" stroke-linecap="round" stroke-linejoin="round" stroke-miterlimit="10" stroke-width="3" d="M7.5,17.5v-5c0-2.2,1.8-4,4-4h25c2.2,0,4,1.8,4,4v14.3"/><line x1="20.5" x2="34.5" y1="18.5" y2="18.5" fill="none" stroke="#18193f" stroke-linecap="round" stroke-linejoin="round" stroke-miterlimit="10" stroke-width="3"/><circle cx="14.5" cy="18.5" r="2" fill="#18193f"/><line x1="20.5" x2="34.5" y1="25.5" y2="25.5" fill="none" stroke="#18193f" stroke-linecap="round" stroke-linejoin="round" stroke-miterlimit="10" stroke-width="3"/><circle cx="14.5" cy="25.5" r="2" fill="#18193f"/><line x1="20.5" x2="34.5" y1="32.5" y2="32.5" fill="none" stroke="#18193f" stroke-linecap="round" stroke-linejoin="round" stroke-miterlimit="10" stroke-width="3"/><circle cx="14.5" cy="32.5" r="2" fill="#18193f"/></svg>