<svg xmlns="http://www.w3.org/2000/svg"  viewBox="0 0 48 48" width="48px" height="48px"><path fill="#ffab91" d="M38,47H18c-5.2,0-9.5-4.3-9.5-9.5l0,0c0-5.2,4.3-9.5,9.5-9.5H38c5.2,0,9.5,4.3,9.5,9.5l0,0	C47.5,42.7,43.2,47,38,47z"/><path fill="none" stroke="#18193f" stroke-linecap="round" stroke-width="3" d="M17.2,16.3c1.7-1.7,4.1-2.7,6.7-2.7c2.6,0,4.9,1,6.7,2.7"/><path fill="none" stroke="#18193f" stroke-linecap="round" stroke-width="3" d="M33.1,10.7c0.6,0.4,1.2,0.9,1.7,1.5"/><path fill="none" stroke="#18193f" stroke-linecap="round" stroke-width="3" d="M12.9,12.1c2.8-2.8,6.7-4.5,10.9-4.5c1.4,0,2.7,0.2,3.9,0.5"/><path fill="none" stroke="#18193f" stroke-linecap="round" stroke-linejoin="round" stroke-width="3" d="M20.4,23.5h14.1c5.5,0,10,4.5,10,10l0,0c0,5.5-4.5,10-10,10"/><path fill="none" stroke="#18193f" stroke-linecap="round" stroke-linejoin="round" stroke-width="3" d="M26.9,43.5H13.5c-5.5,0-10-4.5-10-10l0,0c0-5.5,4.5-10,10-10h1"/><line x1="34.5" x2="34.5" y1="23.5" y2="43.5" fill="none" stroke="#18193f" stroke-linecap="round" stroke-linejoin="round" stroke-width="3"/><line x1="14.5" x2="14.5" y1="23.5" y2="43.5" fill="none" stroke="#18193f" stroke-linecap="round" stroke-linejoin="round" stroke-width="3"/><line x1="14.5" x2="10" y1="30.5" y2="30.5" fill="none" stroke="#18193f" stroke-linecap="round" stroke-linejoin="round" stroke-width="3"/><line x1="13.5" x2="4.5" y1="36.5" y2="36.5" fill="none" stroke="#18193f" stroke-linecap="round" stroke-linejoin="round" stroke-width="3"/><line x1="43.5" x2="35.5" y1="30.5" y2="30.5" fill="none" stroke="#18193f" stroke-linecap="round" stroke-linejoin="round" stroke-width="3"/><line x1="38.5" x2="34.5" y1="36.5" y2="36.5" fill="none" stroke="#18193f" stroke-linecap="round" stroke-linejoin="round" stroke-width="3"/><path fill="#18193f" d="M29.1,28.6l-3.7-1.5C25.3,27,25.2,27,25,27c0,0,0,0,0,0c0,0,0,0,0,0c-0.1,0-0.2,0-0.3,0.1c0,0,0,0-0.1,0	c0,0-0.1,0-0.1,0.1c0,0-0.1,0.1-0.1,0.1c0,0,0,0,0,0c-0.1,0.1-0.1,0.2-0.2,0.3c0,0,0,0,0,0.1c0,0.1-0.1,0.2-0.1,0.3v3v3.4	c-0.6-0.3-1.3-0.4-2-0.4c-2.2,0-4,1.3-4,3s1.8,3,4,3s4-1.3,4-3v-4.5l3.6,1.5c0.1,0,0.2,0.1,0.4,0.1c0.2,0,0.4-0.1,0.6-0.2	c0.3-0.2,0.4-0.5,0.4-0.8v-1.6C31,30.1,30.3,29,29.1,28.6z"/></svg>