<svg xmlns="http://www.w3.org/2000/svg"  viewBox="0 0 48 48" width="48px" height="48px" baseProfile="basic"><path fill="#ffab91" d="M16,46.5c-1.379,0-2.5-1.122-2.5-2.5V12c0-1.378,1.121-2.5,2.5-2.5h24c1.379,0,2.5,1.122,2.5,2.5v32 c0,1.378-1.121,2.5-2.5,2.5H16z"/><circle cx="26" cy="24" r="1" fill="#18193f"/><path fill="#18193f" d="M31.899,25.563l-2.912-6.003C28.99,19.54,29,19.521,29,19.5v-3c0-0.215-0.138-0.406-0.341-0.474 c-0.207-0.068-0.429,0.002-0.559,0.173l-0.926,1.226c-0.053,0.069-0.121,0.08-0.16,0.08c-0.041,0.002-0.112-0.009-0.166-0.087 l-0.831-1.202c-0.09-0.13-0.235-0.21-0.394-0.215c-0.149-0.015-0.309,0.064-0.408,0.187l-1.037,1.296 c-0.052,0.064-0.119,0.075-0.156,0.075c-0.042-0.006-0.107-0.01-0.16-0.08l-0.963-1.279c-0.13-0.172-0.355-0.243-0.558-0.173 C22.138,16.094,22,16.285,22,16.5v3c0,0.276,0.224,0.5,0.5,0.5h4.536c0.016,0.084,0.025,0.17,0.065,0.251l2.568,5.296l-1.116,0.558 C28.214,26.275,28,26.621,28,27v1.381c0,0.405-0.263,0.755-0.652,0.872c-1.489,0.444-2.344,1.447-2.344,2.752c0,0.552,0.447,1,1,1 s1-0.448,1-1c0-0.168,0-0.562,0.915-0.835C29.164,30.797,30,29.677,30,28.381v-0.763l1.447-0.724 C31.937,26.649,32.139,26.056,31.899,25.563z"/><path fill="#18193f" d="M32.023,32c1.667,0,3.023,1.57,3.023,3.5S33.69,39,32.023,39S29,37.43,29,35.5S30.356,32,32.023,32 z M32.023,37.25c0.702,0,1.296-0.802,1.296-1.75s-0.593-1.75-1.296-1.75c-0.702,0-1.296,0.802-1.296,1.75 S31.321,37.25,32.023,37.25z"/><path fill="#18193f" d="M29.864,32c0.221,0,0.442,0.085,0.611,0.256l0.696,0.705c0.337,0.342,0.337,0.896,0,1.237 c-0.337,0.342-0.884,0.342-1.221,0l-0.696-0.705c-0.337-0.342-0.337-0.896,0-1.237C29.422,32.085,29.643,32,29.864,32z"/><path fill="#18193f" d="M16.023,16c-1.641,0-2.977-1.572-2.977-3.504s1.336-3.504,2.977-3.504 c1.641,0,2.977,1.572,2.977,3.504S17.664,16,16.023,16z M16.023,10.744c-0.691,0-1.276,0.802-1.276,1.752s0.584,1.752,1.276,1.752 c0.691,0,1.276-0.802,1.276-1.752S16.715,10.744,16.023,10.744z"/><path fill="#18193f" d="M18.15,16c-0.218,0-0.435-0.086-0.601-0.257l-0.685-0.706c-0.332-0.342-0.332-0.897,0-1.239 c0.332-0.342,0.87-0.342,1.203,0l0.685,0.706c0.332,0.342,0.332,0.897,0,1.239C18.585,15.914,18.367,16,18.15,16z"/><path fill="#18193f" d="M15.426,38.552L16,37.991l0.574,0.562c0.554,0.586,1.455,0.586,2.01,0 c0.555-0.586,0.555-1.538,0-2.123l-2.05-2.201c-0.294-0.316-0.776-0.316-1.07,0l-2.048,2.201c-0.555,0.586-0.555,1.537,0,2.123 c0.277,0.293,0.641,0.439,1.004,0.439S15.148,38.845,15.426,38.552z"/><path fill="#18193f" d="M30.42,9c-0.364,0-0.727,0.146-1.004,0.439c-0.555,0.586-0.555,1.537,0,2.123l2.048,2.201 c0.294,0.316,0.776,0.316,1.07,0l2.05-2.201c0.555-0.585,0.555-1.537,0-2.123c-0.554-0.586-1.455-0.586-2.01,0L32,10.001 l-0.574-0.562C31.148,9.146,30.784,9,30.42,9z"/><path fill="#18193f" d="M22.978,28.154c0-2.11-0.334-6.667,4.829-7.151C27.397,20.318,28.808,19,28,19h-4.045 C20.431,19,18,21.753,18,26c-1.528,0-2.985,1.5-2.985,3.522C15.015,30.989,16,33,19,33C21,33,22.978,31.047,22.978,28.154z"/><path fill="#18193f" d="M38.5,19c-0.828,0-1.5,0.672-1.5,1.5V40c0,0.55-0.45,1-1,1H12c-0.55,0-1-0.45-1-1v-6.5 c0-0.828-0.672-1.5-1.5-1.5h0C8.672,32,8,32.672,8,33.5V40c0,2.209,1.791,4,4,4h24c2.209,0,4-1.791,4-4V20.5 C40,19.672,39.328,19,38.5,19z"/><path fill="#18193f" d="M36,4H12C9.791,4,8,5.791,8,8v17.5C8,26.328,8.672,27,9.5,27h0c0.828,0,1.5-0.672,1.5-1.5V8 c0-0.55,0.45-1,1-1h24c0.55,0,1,0.45,1,1v5.5c0,0.828,0.672,1.5,1.5,1.5s1.5-0.672,1.5-1.5V8C40,5.791,38.209,4,36,4z"/></svg>