<svg xmlns="http://www.w3.org/2000/svg"  viewBox="0 0 48 48" width="48px" height="48px"><path fill="#8ce7f2" d="M47,15.9c0-1.6-1.3-2.9-2.9-2.9H32.9c-2.7,0-4.9,2.2-4.9,4.8c0-2.7-2.2-4.8-4.9-4.8H11.9	C10.3,13,9,14.3,9,15.9v20.2c0,0.3,0.1,0.6,0.2,0.9H9v5.1c0,1.6,1.3,2.9,2.9,2.9h32.2c1.6,0,2.9-1.3,2.9-2.9V37h-0.2	c0.1-0.3,0.2-0.6,0.2-0.9V15.9z"/><path fill="none" stroke="#18193f" stroke-linecap="round" stroke-linejoin="round" stroke-width="3" d="M24,13.5c0-2.8-2.2-5-5-5H7.5c-1.7,0-3,1.3-3,3v21c0,1.7,1.3,3,3,3h10c2.7,0,5.2,1.5,6.5,4l0,0"/><path fill="none" stroke="#18193f" stroke-linecap="round" stroke-linejoin="round" stroke-width="3" d="M43.5,29.2v3.3c0,1.7-1.3,3-3,3h-10c-2.7,0-5.2,1.5-6.5,4l0,0"/><path fill="none" stroke="#18193f" stroke-linecap="round" stroke-linejoin="round" stroke-width="3" d="M24,13.5c0-2.8,2.2-5,5-5h11.5c1.7,0,3,1.3,3,3v9.7"/><path fill="none" stroke="#18193f" stroke-linecap="round" stroke-linejoin="round" stroke-width="3" d="M16.4,41.5H7.5c-1.7,0-3-1.3-3-3v-5"/><path fill="none" stroke="#18193f" stroke-linecap="round" stroke-linejoin="round" stroke-width="3" d="M43.5,33.5v5c0,1.7-1.3,3-3,3H29.6H26c-1.1,0-2-0.9-2-2v0"/><path fill="#18193f" d="M29.1,19.6l-3.7-1.5C25.3,18,25.2,18,25,18c0,0,0,0,0,0c0,0,0,0,0,0c-0.1,0-0.2,0-0.3,0.1c0,0,0,0-0.1,0	c0,0-0.1,0-0.1,0.1c0,0-0.1,0.1-0.1,0.1c0,0,0,0,0,0c-0.1,0.1-0.1,0.2-0.2,0.3c0,0,0,0,0,0.1c0,0.1-0.1,0.2-0.1,0.3v3v4.4	c-0.6-0.3-1.3-0.4-2-0.4c-2.2,0-4,1.3-4,3s1.8,3,4,3s4-1.3,4-3v-5.5l3.6,1.5c0.1,0,0.2,0.1,0.4,0.1c0.2,0,0.4-0.1,0.6-0.2	c0.3-0.2,0.4-0.5,0.4-0.8v-1.6C31,21.1,30.3,20,29.1,19.6z"/></svg>