<svg xmlns="http://www.w3.org/2000/svg"  viewBox="0 0 48 48" width="48px" height="48px"><path fill="#90caf9" d="M22.1,8h11.7C35,8,36,9,36,10.1v5.7c0,1.2-1,2.1-2.1,2.1H22.1C21,18,20,17,20,15.9v-5.7C20,9,21,8,22.1,8z"/><path fill="#90caf9" d="M34.2,39H21.8c-1,0-1.9-0.7-2.1-1.7l-2.4-12.7c-0.2-1.2,0.5-2.3,1.7-2.5c0.1,0,0.3,0,0.4,0h17.2	c1.2,0,2.1,1,2.1,2.1c0,0.1,0,0.3,0,0.4l-2.4,12.7C36.1,38.3,35.2,39,34.2,39z"/><path fill="#90caf9" d="M33,38v6.8c0,1.8-1.4,3.2-3.2,3.2h-3.5c-1.8,0-3.2-1.4-3.2-3.2V38"/><path fill="none" stroke="#18193f" stroke-linecap="round" stroke-linejoin="round" stroke-miterlimit="10" stroke-width="3" d="M24.7,4.5h4.8c1.1,0,2,0.9,2,2v5c0,1.1-0.9,2-2,2h-11c-1.1,0-2-0.9-2-2v-5c0-1.1,0.9-2,2-2h0.3"/><path fill="#18193f" d="M21,8L21,8c0.6,0,1,0.4,1,1l0,0c0,0.6-0.4,1-1,1l0,0c-0.6,0-1-0.4-1-1l0,0C20,8.5,20.4,8,21,8z"/><path fill="#18193f" d="M27,8L27,8c0.6,0,1,0.4,1,1l0,0c0,0.6-0.4,1-1,1l0,0c-0.6,0-1-0.4-1-1l0,0C26,8.5,26.4,8,27,8z"/><path fill="none" stroke="#18193f" stroke-linecap="round" stroke-linejoin="round" stroke-width="3" d="M14.7,24.8l-0.7-3.9c-0.2-1.1,0.5-2.1,1.6-2.3c0.1,0,0.2,0,0.4,0h16.2c1.1,0,2,0.9,2,2c0,0.1,0,0.2,0,0.4	l-1,5.1"/><path fill="none" stroke="#18193f" stroke-linecap="round" stroke-linejoin="round" stroke-width="3" d="M32.3,30.3l-0.5,2.6c-0.2,0.9-1,1.6-2,1.6H18.2c-1,0-1.8-0.7-2-1.6L15.7,30"/><path fill="none" stroke="#18193f" stroke-linecap="round" stroke-linejoin="round" stroke-width="3" d="M28.5,35v6.5c0,1.7-1.3,3-3,3h-3c-1.7,0-3-1.3-3-3v-2.4"/><circle cx="37.1" cy="21" r="3" fill="none" stroke="#18193f" stroke-linecap="round" stroke-linejoin="round" stroke-width="3"/><line x1="37.7" x2="39.6" y1="24.5" y2="33.5" fill="none" stroke="#18193f" stroke-linecap="round" stroke-linejoin="round" stroke-width="3"/><path fill="none" stroke="#18193f" stroke-linecap="round" stroke-linejoin="round" stroke-width="3" d="M42.6,36c0-1.4-1.1-2.5-2.5-2.5s-2.5,1.1-2.5,2.5"/><line x1="24" x2="24" y1="13.5" y2="17.5" fill="none" stroke="#18193f" stroke-linecap="round" stroke-linejoin="round" stroke-width="3"/><circle cx="10.6" cy="21" r="3" fill="none" stroke="#18193f" stroke-linecap="round" stroke-linejoin="round" stroke-width="3"/><line x1="8.1" x2="9.9" y1="33.5" y2="24.5" fill="none" stroke="#18193f" stroke-linecap="round" stroke-linejoin="round" stroke-width="3"/><path fill="none" stroke="#18193f" stroke-linecap="round" stroke-linejoin="round" stroke-width="3" d="M10.1,36c0-1.4-1.1-2.5-2.5-2.5S5.1,34.6,5.1,36"/></svg>