<svg xmlns="http://www.w3.org/2000/svg"  viewBox="0 0 48 48" width="48px" height="48px"><path fill="#ffab91" d="M32.9,32.4c-1.9,0-3.3-0.6-4-2.7l0-0.2L48,10.5l-1.4-1.4c-1.6,0-2.5,0-4.1,0L28.2,23.5l0-0.2	c-1.4-4.1-5.4-4.5-7.7-1.7c-1.3,1.5-1.2,3.8-1.8,4.9c-1.1,1.7-2.8,2-4,1.9c-2.2-0.1-4.2,0.5-5.7,2c-3.4,3.4-2.6,9.5,1.6,13.8	c4.2,4.3,10.4,5,13.8,1.6c1.5-1.5,1.9-3.5,2.1-5.7c0.2-1.8,0.9-3.6,2.4-3.6c2,0,3.9-0.2,5.3-1.6C35.5,33.6,34.9,32.4,32.9,32.4z"/><path fill="#18193f" d="M13.1,38.4l-3.5-3.5c-0.6-0.6-0.6-1.5,0-2.1l0,0c0.6-0.6,1.5-0.6,2.1,0l3.5,3.5c0.6,0.6,0.6,1.5,0,2.1l0,0	C14.6,39,13.6,39,13.1,38.4z"/><path fill="#18193f" d="M16.9,34.4l-3.5-3.5c-0.6-0.6-0.6-1.5,0-2.1l0,0c0.6-0.6,1.5-0.6,2.1,0l3.5,3.5c0.6,0.6,0.6,1.5,0,2.1l0,0	C18.5,35,17.5,35,16.9,34.4z"/><path fill="none" stroke="#18193f" stroke-linecap="round" stroke-miterlimit="10" stroke-width="3" d="M17.5,44.7c1.2-0.3,2.4-1,3.3-1.9c1.5-1.5,1.9-3.6,2.2-5.9c0.2-1.8,0.9-3.7,2.5-3.7c2.1,0,4-0.2,5.4-1.6	c1.4-1.4,0.8-2.6-1.2-2.6c-2,0-3.4-0.7-4.1-2.7"/><path fill="none" stroke="#18193f" stroke-linecap="round" stroke-miterlimit="10" stroke-width="3" d="M20.7,16.1c-1.4-0.1-2.8,0.5-3.9,1.8c-1.3,1.6-1.2,3.9-1.9,5c-1.1,1.8-2.9,2-4.1,2c-2.2-0.1-4.3,0.5-5.8,2	c-3.4,3.5-2.7,9.8,1.7,14.2c1.7,1.7,3.8,2.9,5.9,3.5"/><path fill="none" stroke="#18193f" stroke-linecap="round" stroke-linejoin="round" stroke-miterlimit="10" stroke-width="3" d="M31,20.7L22.7,29l-3.5-3.5L39.5,5.1c1.7,0,2.6,0,4.2,0l1.4,1.4l-10,10"/><line x1="37.9" x2="39.2" y1="3.2" y2="4.7" fill="none" stroke="#18193f" stroke-linecap="round" stroke-linejoin="round" stroke-miterlimit="10" stroke-width="3"/><line x1="37.2" x2="38.5" y1="9.6" y2="11" fill="none" stroke="#18193f" stroke-linecap="round" stroke-linejoin="round" stroke-miterlimit="10" stroke-width="3"/><line x1="34.3" x2="35.7" y1="6.8" y2="8.2" fill="none" stroke="#18193f" stroke-linecap="round" stroke-linejoin="round" stroke-miterlimit="10" stroke-width="3"/></svg>