<svg xmlns="http://www.w3.org/2000/svg"  viewBox="0 0 48 48" width="48px" height="48px"><path fill="#ffab91" d="M20.284,23h-6.569C12.216,23,11,21.784,11,20.284v-6.569c0-1.5,1.216-2.716,2.716-2.716h6.569	c1.5,0,2.716,1.216,2.716,2.716v6.569C23,21.784,21.784,23,20.284,23z"/><path fill="#ffab91" d="M20.284,45h-6.569C12.216,45,11,43.784,11,42.284v-6.569c0-1.5,1.216-2.716,2.716-2.716h6.569	c1.5,0,2.716,1.216,2.716,2.716v6.569C23,43.784,21.784,45,20.284,45z"/><path fill="#ffab91" d="M42.284,34h-6.569C34.216,34,33,32.784,33,31.284v-6.569c0-1.5,1.216-2.716,2.716-2.716h6.569	c1.5,0,2.716,1.216,2.716,2.716v6.569C45,32.784,43.784,34,42.284,34z"/><line x1="8" x2="33.468" y1="29.5" y2="29.5" fill="none" stroke="#18193f" stroke-linecap="round" stroke-linejoin="round" stroke-width="3"/><line x1="8" x2="40" y1="18.5" y2="18.5" fill="none" stroke="#18193f" stroke-linecap="round" stroke-linejoin="round" stroke-width="3"/><line x1="18.5" x2="18.5" y1="8" y2="35" fill="none" stroke="#18193f" stroke-linecap="round" stroke-linejoin="round" stroke-width="3"/><line x1="29.5" x2="29.5" y1="8" y2="40.5" fill="none" stroke="#18193f" stroke-linecap="round" stroke-linejoin="round" stroke-width="3"/><path fill="none" stroke="#18193f" stroke-linecap="round" stroke-linejoin="round" stroke-miterlimit="10" stroke-width="3" d="M40.5,24.25v13.601c0,1.463-1.186,2.649-2.649,2.649H10.149c-1.463,0-2.649-1.186-2.649-2.649V10.149	C7.5,8.686,8.686,7.5,10.149,7.5h2.547"/><path fill="none" stroke="#18193f" stroke-linecap="round" stroke-linejoin="round" stroke-miterlimit="10" stroke-width="3" d="M18.5,7.5h19.351c1.463,0,2.649,1.186,2.649,2.649V18.5"/></svg>