<svg xmlns="http://www.w3.org/2000/svg"  viewBox="0 0 48 48" width="48px" height="48px" fill="#9fa8da"><path fill="#9fa8da" d="M34.8,28.7c-0.6-1.7-1.5-3.2-2.6-4.6c-0.3-0.3-0.7-0.4-1.1-0.3l-0.7,0.3c-0.6,0.2-1.2,0.3-1.9,0.2	c-1.6-0.2-2.7-1.4-2.9-2.9l-0.1-0.9c-0.1-0.4-0.4-0.7-0.8-0.8c-0.9-0.2-1.7-0.3-2.6-0.3c-0.9,0-1.8,0.1-2.6,0.3	c-0.4,0.1-0.7,0.4-0.8,0.8l-0.1,0.8c-0.2,1.5-1.4,2.7-2.9,2.9c-0.6,0.1-1.3,0-1.9-0.2L13,23.8c-0.4-0.1-0.8,0-1.1,0.3	c-1.2,1.3-2.1,2.9-2.6,4.6c-0.1,0.4,0,0.8,0.3,1.1l0.7,0.5C11,31,11.5,32,11.5,33s-0.5,2-1.3,2.7l-0.7,0.5c-0.3,0.3-0.5,0.7-0.3,1.1	c0.6,1.7,1.5,3.2,2.6,4.6c0.3,0.3,0.7,0.4,1.1,0.3l0.7-0.3c0.6-0.2,1.2-0.3,1.9-0.2c1.6,0.2,2.7,1.4,2.9,2.9l0.1,0.9	c0.1,0.4,0.4,0.7,0.8,0.8c0.9,0.2,1.7,0.3,2.6,0.3c0.9,0,1.8-0.1,2.6-0.3c0.4-0.1,0.7-0.4,0.8-0.8l0.1-0.8c0.2-1.5,1.4-2.7,2.9-2.9	c0.6-0.1,1.3,0,1.9,0.2l0.7,0.3c0.4,0.1,0.8,0,1.1-0.3c1.2-1.3,2.1-2.9,2.6-4.6c0.1-0.4,0-0.8-0.3-1.1l-0.7-0.5	C33,35,32.5,34,32.5,33s0.5-2,1.3-2.7l0.7-0.5C34.8,29.5,34.9,29.1,34.8,28.7z"/><path fill="#9fa8da" d="M47.9,14.9c-0.4-1.2-1-2.2-1.8-3.2c-0.2-0.2-0.5-0.3-0.8-0.2l-0.5,0.2c-0.4,0.2-0.9,0.2-1.3,0.2	c-1.1-0.2-1.9-1-2-2l-0.1-0.6c0-0.3-0.3-0.5-0.5-0.6c-0.6-0.1-1.2-0.2-1.8-0.2c-0.6,0-1.2,0.1-1.8,0.2c-0.3,0.1-0.5,0.3-0.5,0.6	l-0.1,0.6c-0.2,1-1,1.8-2,2c-0.4,0.1-0.9,0-1.3-0.2l-0.5-0.2c-0.3-0.1-0.6,0-0.8,0.2c-0.8,0.9-1.4,2-1.8,3.2c-0.1,0.3,0,0.6,0.2,0.8	l0.5,0.4c0.6,0.5,0.9,1.2,0.9,1.9s-0.3,1.4-0.9,1.9l-0.5,0.4c-0.2,0.2-0.3,0.5-0.2,0.8c0.4,1.2,1,2.2,1.8,3.2	c0.2,0.2,0.5,0.3,0.8,0.2l0.5-0.2c0.4-0.2,0.9-0.2,1.3-0.2c1.1,0.2,1.9,1,2,2l0.1,0.6c0,0.3,0.3,0.5,0.5,0.6	c0.6,0.1,1.2,0.2,1.8,0.2c0.6,0,1.2-0.1,1.8-0.2c0.3-0.1,0.5-0.3,0.5-0.6l0.1-0.6c0.2-1,1-1.8,2-2c0.4-0.1,0.9,0,1.3,0.2l0.5,0.2	c0.3,0.1,0.6,0,0.8-0.2c0.8-0.9,1.4-2,1.8-3.2c0.1-0.3,0-0.6-0.2-0.8l-0.5-0.4c-0.6-0.5-0.9-1.2-0.9-1.9s0.3-1.4,0.9-1.9l0.5-0.4	C47.9,15.4,48,15.1,47.9,14.9z"/><circle cx="35" cy="14" r="2.5" fill="#18193f"/><path fill="none" stroke="#18193f" stroke-linecap="round" stroke-linejoin="round" stroke-width="3" d="M27.7,38.4c1.5-1.6,2.7-3.5,3.3-5.7l-1.2-1C29,31,28.5,30,28.5,29s0.5-2,1.3-2.7l1.2-1	c-0.6-2.2-1.8-4.1-3.3-5.7l-1.4,0.5c-1,0.4-2.1,0.3-3-0.2s-1.5-1.4-1.7-2.5l-0.3-1.5c-1.1-0.3-2.2-0.4-3.3-0.4	c-1.1,0-2.2,0.2-3.3,0.4"/><path fill="none" stroke="#18193f" stroke-linecap="round" stroke-linejoin="round" stroke-width="3" d="M12.8,19.9c-0.9,0.5-2,0.6-3,0.2l-1.4-0.5c-1.5,1.6-2.7,3.5-3.3,5.7l1.2,1C7,27,7.5,28,7.5,29S7,31,6.2,31.7	l-1.2,1c0.6,2.2,1.8,4.1,3.3,5.7l1.4-0.5c1-0.4,2.1-0.3,3,0.2s1.5,1.4,1.7,2.5l0.2,1.5c1.1,0.3,2.2,0.4,3.3,0.4s2.2-0.2,3.3-0.4	l0.2-1.5c0.2-1,0.8-1.9,1.7-2.5"/><circle cx="18" cy="29" r="4.5" fill="none" stroke="#18193f" stroke-width="3"/><path fill="none" stroke="#18193f" stroke-linecap="round" stroke-linejoin="round" stroke-width="3" d="M35,23.2c0.8,0,1.6-0.1,2.3-0.3l0.2-1.1c0.1-0.7,0.6-1.3,1.2-1.7c0.6-0.4,1.4-0.4,2.1-0.2l1,0.4	c1.1-1.1,1.9-2.4,2.3-4l-0.8-0.7c-0.6-0.5-0.9-1.2-0.9-1.9c0-0.7,0.3-1.4,0.9-1.9l0.8-0.7c-0.4-1.5-1.2-2.9-2.3-4l-1,0.4	C40,8,39.3,7.9,38.6,7.6c-0.6-0.4-1.1-1-1.2-1.7l-0.2-1.1c-0.7-0.2-1.5-0.3-2.3-0.3c-0.8,0-1.6,0.1-2.3,0.3l-0.2,1.1	c-0.1,0.7-0.6,1.3-1.2,1.7C30.7,7.9,30,8,29.3,7.7l-1-0.4c-1.1,1.1-1.9,2.4-2.3,4l0.8,0.7c0.6,0.5,0.9,1.2,0.9,1.9"/></svg>