<svg xmlns="http://www.w3.org/2000/svg"  viewBox="0 0 48 48" width="48px" height="48px"><path fill="#8ce7f2" d="M40.1,11H19.9c-1.6,0-2.9,1.3-2.9,2.9V37h-2.4c-1.4,0-2.6,1.2-2.6,2.6v2.5c0,2.1,1.7,3.8,3.8,3.8h23.3	c2.1,0,3.9-1.7,3.9-3.8V13.9C43,12.3,41.7,11,40.1,11z"/><path fill="none" stroke="#18193f" stroke-linecap="round" stroke-linejoin="round" stroke-miterlimit="10" stroke-width="3" d="M39.5,11.8V9.5c0-1.7-1.3-3-3-3h-21c-1.7,0-3,1.3-3,3V27"/><path fill="none" stroke="#18193f" stroke-linecap="round" stroke-linejoin="round" stroke-miterlimit="10" stroke-width="3" d="M35.5,42.5c2.2,0,4-1.8,4-4V17.4"/><path fill="#18193f" d="M30.1,15.6l-3.7-1.5C26.3,14,26.2,14,26,14c0,0,0,0,0,0c0,0,0,0,0,0c-0.1,0-0.2,0-0.3,0.1c0,0,0,0-0.1,0	c0,0-0.1,0-0.1,0.1c0,0-0.1,0.1-0.1,0.1c0,0,0,0,0,0c-0.1,0.1-0.1,0.2-0.2,0.3c0,0,0,0,0,0.1c0,0.1-0.1,0.2-0.1,0.3v3v4.4	c-0.6-0.3-1.3-0.4-2-0.4c-2.2,0-4,1.3-4,3s1.8,3,4,3s4-1.3,4-3v-5.5l3.6,1.5c0.1,0,0.2,0.1,0.4,0.1c0.2,0,0.4-0.1,0.6-0.2	c0.3-0.2,0.4-0.5,0.4-0.8v-1.6C32,17.1,31.3,16,30.1,15.6z"/><path fill="none" stroke="#18193f" stroke-linecap="round" stroke-linejoin="round" stroke-miterlimit="10" stroke-width="3" d="M26.4,42.5H11.5c-2.2,0-4-1.8-4-4v-2.3c0-1.5,1.2-2.7,2.7-2.7h18.3c1.7,0,3,1.4,3,3v2c0,2.2,1.8,4,4,4h0	c2.2,0,4-1.8,4-4"/></svg>