<svg xmlns="http://www.w3.org/2000/svg"  viewBox="0 0 48 48" width="48px" height="48px"><circle cx="20.7" cy="16.8" r="6.3" fill="#ffe082"/><path fill="#ffe082" d="M30,44.7l-1.4-8.4l7.3,1.5c2.6-1,6.6-2.4,9.2-3.4c1.5-0.6,2.3-2.3,1.6-3.8l0-0.1c-0.6-1.4-2.2-2-3.6-1.5	l-6.8,2.4c0,0-10.2-3.9-14.6-3.9h-1.4C15.7,27.5,9,30.5,9,39.7v5.3C9,46.1,9.9,47,11,47h17.2C29.3,47,30.2,45.9,30,44.7z"/><path fill="#18193f" d="M44.1,5.6l-3.7-1.5C40.3,4,40.2,4,40,4c0,0,0,0,0,0c0,0,0,0,0,0c-0.1,0-0.2,0-0.3,0.1c0,0,0,0-0.1,0	c0,0-0.1,0-0.1,0.1c0,0-0.1,0.1-0.1,0.1c0,0,0,0,0,0c-0.1,0.1-0.1,0.2-0.2,0.3c0,0,0,0,0,0.1C39,4.8,39,4.9,39,5v3v4.4	c-0.6-0.3-1.3-0.4-2-0.4c-2.2,0-4,1.3-4,3s1.8,3,4,3s4-1.3,4-3V9.5l3.6,1.5c0.1,0,0.2,0.1,0.4,0.1c0.2,0,0.4-0.1,0.6-0.2	c0.3-0.2,0.4-0.5,0.4-0.8V8.4C46,7.1,45.3,6,44.1,5.6z"/><ellipse cx="16.5" cy="14" fill="#18193f" rx="1.5" ry="2"/><circle cx="16.5" cy="12.5" r="6.5" fill="none" stroke="#18193f" stroke-linecap="round" stroke-linejoin="round" stroke-width="3"/><line x1="10.5" x2="10.5" y1="35" y2="43.5" fill="none" stroke="#18193f" stroke-linecap="round" stroke-linejoin="round" stroke-width="3"/><path fill="none" stroke="#18193f" stroke-linecap="round" stroke-linejoin="round" stroke-width="3" d="M5.7,29.8C5,31.5,4.5,33.5,4.5,36v5.5c0,1.1,0.9,2,2,2H17"/><path fill="none" stroke="#18193f" stroke-linecap="round" stroke-linejoin="round" stroke-width="3" d="M22.5,43.5h1.6c1.2,0,2.2-1.1,2-2.3l-1.5-8.6l7.5,1.6c2.7-1,6.7-2.5,9.5-3.5c1.6-0.6,2.3-2.4,1.6-3.9l0-0.1	c-0.6-1.4-2.2-2.1-3.7-1.6l-7,2.5c0,0-10.5-4-15-4H16c-2.1,0-4.5,0.6-6.7,2"/><path fill="none" stroke="#18193f" stroke-miterlimit="10" stroke-width="3" d="M13.5,24.6l2.6,5.9c0.4,0.8,1.5,0.8,1.8,0l2.6-5.9"/></svg>