<svg xmlns="http://www.w3.org/2000/svg"  viewBox="0 0 48 48" width="48px" height="48px"><path fill="#a5d6a7" d="M45,22.7c0-4.3-7.6-7.8-17-7.8s-17,3.5-17,7.8h0v15.6c0,4.4,7.6,7.9,17,7.9s17-3.5,17-7.9L45,22.7L45,22.7z"/><path fill="none" stroke="#18193f" stroke-linecap="round" stroke-linejoin="round" stroke-miterlimit="10" stroke-width="3" d="M30.9,25.9c-2.1,0.4-4.4,0.7-6.9,0.7c-9.7,0-17.5-3.6-17.5-8.1c0-3.7,5.4-6.8,12.7-7.8"/><path fill="none" stroke="#18193f" stroke-linecap="round" stroke-linejoin="round" stroke-miterlimit="10" stroke-width="3" d="M27.1,10.6c8.2,0.7,14.4,4,14.4,7.9c0,2.3-2.1,4.4-5.4,5.8"/><path fill="none" stroke="#18193f" stroke-linecap="round" stroke-linejoin="round" stroke-miterlimit="5" stroke-width="3" d="M6.5,18.5v16c0,4.5,7.8,8.1,17.5,8.1s17.5-3.6,17.5-8.1v-7.4"/><line x1="23.5" x2="23.5" y1="32.5" y2="42.5" fill="none" stroke="#18193f" stroke-linecap="round" stroke-linejoin="round" stroke-miterlimit="5" stroke-width="3"/><line x1="13.5" x2="13.5" y1="31.5" y2="40.5" fill="none" stroke="#18193f" stroke-linecap="round" stroke-linejoin="round" stroke-miterlimit="5" stroke-width="3"/><line x1="33.5" x2="33.5" y1="31.5" y2="40.5" fill="none" stroke="#18193f" stroke-linecap="round" stroke-linejoin="round" stroke-miterlimit="5" stroke-width="3"/><path fill="#18193f" d="M44.1,12.4l-21.2,9c-0.5,0.2-1,0-1.2-0.5c-0.2-0.5,0-1,0.4-1.2l20.8-10c0.7-0.4,1.6,0,2,0.7S44.9,12,44.1,12.4	C44.2,12.3,44.1,12.4,44.1,12.4z"/><path fill="#18193f" d="M36.2,4.8L17.8,18.6c-0.4,0.3-1,0.2-1.3-0.2c-0.3-0.4-0.2-0.9,0.1-1.3L34.4,2.4C35,1.9,36,2,36.5,2.6	C37,3.2,36.9,4.2,36.2,4.8C36.3,4.7,36.3,4.7,36.2,4.8z"/></svg>