<svg xmlns="http://www.w3.org/2000/svg"  viewBox="0 0 48 48" width="48px" height="48px"><path fill="#8ce7f2" d="M43.1,44H12.9c-1.6,0-2.9-1.3-2.9-2.9V16.9c0-1.6,1.3-2.9,2.9-2.9h30.2c1.6,0,2.9,1.3,2.9,2.9v24.2	C46,42.7,44.7,44,43.1,44z"/><path fill="none" stroke="#18193f" stroke-linecap="round" stroke-linejoin="round" stroke-miterlimit="10" stroke-width="3" d="M30.7,40.5H8.5c-1.7,0-3-1.3-3-3v-25c0-1.7,1.3-3,3-3h2.6"/><path fill="none" stroke="#18193f" stroke-linecap="round" stroke-linejoin="round" stroke-miterlimit="10" stroke-width="3" d="M17.9,9.5h21.6c1.7,0,3,1.3,3,3v25c0,1.7-1.3,3-3,3h-2.8"/><path fill="none" stroke="#18193f" stroke-linecap="round" stroke-miterlimit="10" stroke-width="3" d="M20,31c-1.6-1.5-2.5-3.6-2.5-6c0-2.3,1-4.4,2.5-6"/><path fill="none" stroke="#18193f" stroke-linecap="round" stroke-miterlimit="10" stroke-width="3" d="M13.9,17.6c0.4-0.6,0.9-1.2,1.4-1.7"/><path fill="none" stroke="#18193f" stroke-linecap="round" stroke-miterlimit="10" stroke-width="3" d="M15.3,34c-2.3-2.3-3.7-5.5-3.7-9c0-0.6,0-1.2,0.1-1.7"/><path fill="none" stroke="#18193f" stroke-linecap="round" stroke-miterlimit="10" stroke-width="3" d="M28,19c1.6,1.5,2.5,3.6,2.5,6c0,2.3-1,4.4-2.5,6"/><path fill="none" stroke="#18193f" stroke-linecap="round" stroke-miterlimit="10" stroke-width="3" d="M33.6,33c-0.3,0.4-0.6,0.7-0.9,1"/><path fill="none" stroke="#18193f" stroke-linecap="round" stroke-miterlimit="10" stroke-width="3" d="M32.7,16c2.3,2.3,3.7,5.5,3.7,9c0,1.1-0.1,2.1-0.4,3.2"/><circle cx="24" cy="25" r="2" fill="#18193f"/></svg>