<svg xmlns="http://www.w3.org/2000/svg"  viewBox="0 0 48 48" width="48px" height="48px"><path fill="#8ce7f2" d="M40.2,24.5h-2v-0.7c0-5.6-4.5-10.1-10.1-10.1s-10.1,4.5-10.1,10.1v0.7h-2c-3.8,0-6.8,3.1-6.8,6.8	c0,3.8,3.1,6.8,6.8,6.8h24.4c3.8,0,6.8-3.1,6.8-6.8C47,27.6,43.9,24.5,40.2,24.5z"/><path fill="none" stroke="#18193f" stroke-linecap="round" stroke-linejoin="round" stroke-miterlimit="10" stroke-width="3" d="M13.6,20.5h-2.1c-3.9,0-7,3.1-7,7c0,3.9,3.1,7,7,7H26"/><path fill="none" stroke="#18193f" stroke-linecap="round" stroke-linejoin="round" stroke-miterlimit="10" stroke-width="3" d="M41.3,22.4c-1.3-1.2-3-1.9-4.8-1.9h-2.1v-0.7c0-5.8-4.7-10.4-10.4-10.4c-4,0-7.4,2.2-9.2,5.5"/><path fill="none" stroke="#18193f" stroke-linecap="round" stroke-linejoin="round" stroke-miterlimit="10" stroke-width="3" d="M45.5,39.9v-11c0-1.2-1.1-2.2-2.3-2l-9,1.4c-1,0.2-1.7,1-1.7,2v12.6"/><ellipse cx="29.3" cy="42.9" fill="none" stroke="#18193f" stroke-linecap="round" stroke-linejoin="round" stroke-miterlimit="10" stroke-width="3" rx="3.3" ry="2.9"/><ellipse cx="42.3" cy="39.9" fill="none" stroke="#18193f" stroke-linecap="round" stroke-linejoin="round" stroke-miterlimit="10" stroke-width="3" rx="3.3" ry="2.9"/><line x1="40" x2="32.5" y1="32.3" y2="33.5" fill="none" stroke="#18193f" stroke-linecap="round" stroke-linejoin="round" stroke-miterlimit="10" stroke-width="3"/></svg>