<svg xmlns="http://www.w3.org/2000/svg"  viewBox="0 0 48 48" width="48px" height="48px"><path fill="#9fa8da" d="M42.2,36.9c0,0,2-2.5,2-10C44.1,15.6,32,9.6,28.8,8.2c-0.5-0.2-1.1-0.2-1.6,0C24,9.6,11.9,15.6,11.9,26.9	c0,7.5,2,10,2,10l-1.6,4.6c-0.7,1.6,0.2,3.5,1.8,4.1l6.1,2.2c2.5,0.8,3.5-0.6,3.5-1.9v-1h8.8v1c0,1.4,1.3,2.3,2.6,1.9l7-2.2	c1.7-0.5,2.5-2.4,1.8-4.1L42.2,36.9z"/><path fill="none" stroke="#18193f" stroke-linecap="round" stroke-linejoin="round" stroke-width="3" d="M40.5,23.5c0-11.3-12.4-17.3-15.7-18.7c-0.5-0.2-1.1-0.2-1.6,0c-2.3,1-8.9,4.1-12.8,9.7"/><path fill="none" stroke="#18193f" stroke-linecap="round" stroke-linejoin="round" stroke-width="3" d="M19.5,29.5L16,28.2c-1.5-0.4-2.5-1.8-2.5-3.3v0c0-2.2,2.1-3.9,4.3-3.3l6.2,1.9l6.2-1.9	c2.2-0.6,4.3,1.1,4.3,3.3v0c0,1.5-1,2.9-2.5,3.3l-3.5,1.3v13c0,1.3,1.3,2.3,2.6,1.9l7.2-2.2c1.7-0.5,2.6-2.4,1.9-4l-1.7-4.6	c0,0,0.8-1,1.4-3.8"/><path fill="none" stroke="#18193f" stroke-linecap="round" stroke-linejoin="round" stroke-width="3" d="M7.8,20.5c-0.2,0.9-0.3,1.9-0.3,3c0,7.5,2,10,2,10l-1.7,4.6c-0.7,1.6,0.2,3.5,1.9,4l6.2,2.2	c2.5,0.8,3.6-0.6,3.6-1.9v-7.6"/><line x1="28.5" x2="19.5" y1="41.5" y2="41.5" fill="none" stroke="#18193f" stroke-linecap="round" stroke-linejoin="round" stroke-width="3"/></svg>