<svg xmlns="http://www.w3.org/2000/svg"  viewBox="0 0 48 48" width="48px" height="48px"><path fill="#f48fb1" d="M28,9L28,9c-9.3,0-16.9,7.6-16.9,16.9V36c0,1.1,0.9,2,2,2h29.8c1.1,0,2-0.9,2-2V25.9C44.9,16.6,37.3,9,28,9z"/><path fill="none" stroke="#18193f" stroke-linecap="round" stroke-linejoin="round" stroke-width="3" d="M41.5,34.5V22c0-9.7-7.8-17.5-17.5-17.5l0,0C14.3,4.5,6.5,12.3,6.5,22v6.1"/><path fill="none" stroke="#18193f" stroke-linecap="round" stroke-linejoin="round" stroke-width="3" d="M35.3,19.8c-1-5.3-5.7-9.3-11.3-9.3l0,0c-6.4,0-11.5,5.1-11.5,11.5v12.5"/><path fill="none" stroke="#18193f" stroke-linecap="round" stroke-linejoin="round" stroke-width="3" d="M35.5,34.5v-7.7"/><path fill="none" stroke="#18193f" stroke-linecap="round" stroke-linejoin="round" stroke-width="3" d="M29.6,28.9v-6.8c0-3.4-3.2-6.2-6.8-5.4c-2.5,0.6-4.3,2.9-4.3,5.5l0,11.8"/><path fill="none" stroke="#18193f" stroke-linecap="round" stroke-linejoin="round" stroke-width="3" d="M8.9,42.5H5.5c-1.1,0-2-0.9-2-2v-4c0-1.1,0.9-2,2-2h37c1.1,0,2,0.9,2,2v4c0,1.1-0.9,2-2,2H16.8"/></svg>