<svg xmlns="http://www.w3.org/2000/svg"  viewBox="0 0 48 48" width="48px" height="48px"><path fill="#9fa8da" d="M39.995,43.833h-23.99c-2.12,0-3.838-1.719-3.838-3.838v-23.99c0-2.12,1.719-3.838,3.838-3.838h23.99	c2.12,0,3.838,1.719,3.838,3.838v23.99C43.833,42.115,42.115,43.833,39.995,43.833z"/><path fill="none" stroke="#18193f" stroke-linecap="round" stroke-linejoin="round" stroke-width="3" d="M27.723,40.5H11.5	c-2.209,0-4-1.791-4-4v-25c0-2.209,1.791-4,4-4H14"/><path fill="none" stroke="#18193f" stroke-linecap="round" stroke-linejoin="round" stroke-width="3" d="M21.298,7.5H36.5	c2.209,0,4,1.791,4,4v25c0,2.209-1.791,4-4,4h-2.181"/><path fill="#18193f" d="M29,12c-3.859,0-7,3.141-7,7c0,0.207,0.013,0.411,0.031,0.614l-3.243,5.401 C18.692,25.01,18.597,25,18.5,25c-1.721,0-3.259,0.796-4.268,2.038l-5.815-2.492c-0.758-0.326-1.642,0.026-1.97,0.788 c-0.326,0.761,0.026,1.643,0.788,1.97l5.815,2.492C13.021,30.027,13,30.261,13,30.5c0,3.033,2.467,5.5,5.5,5.5s5.5-2.467,5.5-5.5 c0-0.266-0.025-0.525-0.062-0.78l4.795-3.733C28.822,25.99,28.91,26,29,26c3.859,0,7-3.141,7-7S32.859,12,29,12z M18.5,34 c-1.882,0-3.412-1.497-3.486-3.362l2.895,1.241C18.102,31.961,18.302,32,18.5,32c0.582,0,1.135-0.341,1.379-0.91 c0.326-0.761-0.026-1.643-0.788-1.97l-2.89-1.239C16.818,27.34,17.616,27,18.5,27c1.93,0,3.5,1.57,3.5,3.5S20.43,34,18.5,34z M29,23c-2.206,0-4-1.794-4-4s1.794-4,4-4s4,1.794,4,4S31.206,23,29,23z"/><circle cx="29" cy="19" r="2" fill="#18193f"/></svg>