<svg xmlns="http://www.w3.org/2000/svg"  viewBox="0 0 48 48" width="48px" height="48px" fill="#9fa8da"><path fill="#9fa8da" d="M41.9,31.1c3.6-3.6,4.4-8.8,2.6-13.2L38,24.4l-5.4-1.2L31.6,18l6.4-6.4c-4.4-1.8-9.6-1-13.2,2.6 c-3.3,3.3-4.3,8-2.9,12.1L12.2,36c-2.1,2.1-2.1,5.6,0,7.8l0,0c2.1,2.1,5.6,2.1,7.8,0l9.8-9.8C33.9,35.3,38.6,34.4,41.9,31.1z"/><path fill="none" stroke="#18193f" stroke-linecap="round" stroke-linejoin="round" stroke-miterlimit="10" stroke-width="3" d="M21.7,34.1l4-4c4.1,1.3,8.8,0.3,12.1-2.9c3.6-3.6,4.4-8.8,2.6-13.2L34,20.4l-5.4-1.2L27.6,14l6.4-6.4 C30.2,5.9,25.7,6.4,22.2,9"/><path fill="none" stroke="#18193f" stroke-linecap="round" stroke-linejoin="round" stroke-miterlimit="10" stroke-width="3" d="M18.1,14.6c-0.9,2.5-0.9,5.1-0.1,7.6L8.2,32c-2.1,2.1-2.1,5.6,0,7.8l0,0c2.1,2.1,5.6,2.1,7.8,0l1.8-1.8"/></svg>