<svg xmlns="http://www.w3.org/2000/svg"  viewBox="0 0 48 48" width="48px" height="48px"><path fill="#8ce7f2" d="M11.663,41.663c-0.373-0.373-0.392-0.971-0.044-1.367l24.474-27.854	c0.413-0.498,0.974-0.851,1.601-1.008l7.529-1.883c0.739-0.185,1.41,0.483,1.229,1.223l-1.843,7.518	c-0.156,0.634-0.511,1.201-1.014,1.617L15.704,44.382c-0.396,0.348-0.994,0.328-1.367-0.045L11.663,41.663z"/><path fill="none" stroke="#18193f" stroke-linecap="round" stroke-linejoin="round" stroke-width="3" d="M11.5,25.5l11,11"/><path fill="none" stroke="#18193f" stroke-linecap="round" stroke-linejoin="round" stroke-width="3" d="M5.5,36.5l6,6"/><line x1="20.748" x2="15" y1="21.423" y2="28" fill="none" stroke="#18193f" stroke-linecap="round" stroke-linejoin="round" stroke-width="3"/><path fill="none" stroke="#18193f" stroke-linecap="round" stroke-linejoin="round" stroke-width="3" d="M20,33l19.595-17.091	c0.503-0.416,0.858-0.983,1.014-1.617l1.843-7.518c0.181-0.74-0.489-1.408-1.229-1.223l-7.529,1.883	c-0.627,0.157-1.188,0.51-1.601,1.008l-6.35,7.266"/><line x1="14.75" x2="11" y1="37.25" y2="41" fill="none" stroke="#18193f" stroke-linecap="round" stroke-linejoin="round" stroke-width="3"/><line x1="7" x2="14.5" y1="37" y2="29.5" fill="none" stroke="#18193f" stroke-linecap="round" stroke-linejoin="round" stroke-width="3"/></svg>