<svg xmlns="http://www.w3.org/2000/svg"  viewBox="0 0 48 48" width="48px" height="48px"><path fill="#f48fb1" d="M43.1,41H12.9c-1.6,0-2.9-1.3-2.9-2.9V17.9c0-1.6,1.3-2.9,2.9-2.9h30.2c1.6,0,2.9,1.3,2.9,2.9v20.2	C46,39.7,44.7,41,43.1,41z"/><path fill="none" stroke="#18193f" stroke-linecap="round" stroke-linejoin="round" stroke-miterlimit="10" stroke-width="3" d="M42.5,32.4v2.1c0,1.7-1.3,3-3,3h-31c-1.7,0-3-1.3-3-3V21.7"/><path fill="none" stroke="#18193f" stroke-linecap="round" stroke-linejoin="round" stroke-miterlimit="10" stroke-width="3" d="M5.5,17v-3.5c0-1.7,1.3-3,3-3h31c1.7,0,3,1.3,3,3v11.2"/><path fill="none" stroke="#18193f" stroke-linecap="round" stroke-linejoin="round" stroke-miterlimit="10" stroke-width="3" d="M13.6,32.8c0.6-0.8,1.5-1.3,2.5-1.3h15.8c1,0,1.9,0.5,2.5,1.3l3.1,4.7"/><path fill="none" stroke="#18193f" stroke-linecap="round" stroke-linejoin="round" stroke-miterlimit="10" stroke-width="3" d="M33.5,19.5h-19c-1.7,0-3,1.3-3,3s1.3,3,3,3h19c1.7,0,3-1.3,3-3S35.2,19.5,33.5,19.5z"/><path fill="none" stroke="#18193f" stroke-linecap="round" stroke-linejoin="round" stroke-miterlimit="10" stroke-width="3" d="M14.5,25.5c1.7,0,3-1.3,3-3s-1.3-3-3-3"/><path fill="none" stroke="#18193f" stroke-linecap="round" stroke-linejoin="round" stroke-miterlimit="10" stroke-width="3" d="M33.5,25.5c-1.7,0-3-1.3-3-3s1.3-3,3-3"/></svg>