<svg xmlns="http://www.w3.org/2000/svg"  viewBox="0 0 48 48" width="48px" height="48px"><path fill="#90caf9" d="M30.982,46.807H13.018c-1.644,0-2.976-1.332-2.976-2.976V19.169c0-1.644,1.332-2.976,2.976-2.976	h17.965c1.644,0,2.976,1.332,2.976,2.976v24.661C33.958,45.474,32.626,46.807,30.982,46.807z"/><path fill="none" stroke="#18193f" stroke-linecap="round" stroke-linejoin="round" stroke-miterlimit="10" stroke-width="3" d="M19.995,4.896c0.763-0.548,1.764-0.745,2.73-0.448l17.95,5.517c1.642,0.505,2.564,2.245,2.06,3.887l-7.573,24.641"/><path fill="none" stroke="#18193f" stroke-linecap="round" stroke-linejoin="round" stroke-miterlimit="10" stroke-width="3" d="M17.442,11.051l1.396-4.543c0.208-0.676,0.624-1.229,1.157-1.612"/><path fill="none" stroke="#18193f" stroke-linecap="round" stroke-linejoin="round" stroke-miterlimit="10" stroke-width="3" d="M17.696,10.225c3.695,1.136,7.612-0.939,8.748-4.635"/><path fill="none" stroke="#18193f" stroke-linecap="round" stroke-linejoin="round" stroke-miterlimit="10" stroke-width="3" d="M37.409,14.051c0.83,1.632,2.295,2.938,4.183,3.519l-5.288,17.206c-1.848-0.568-3.751-0.333-5.334,0.506"/><path fill="none" stroke="#18193f" stroke-linecap="round" stroke-linejoin="round" stroke-miterlimit="10" stroke-width="3" d="M30.5,24.287v16.102c0,1.718-1.393,3.111-3.111,3.111H8.611c-1.718,0-3.111-1.393-3.111-3.111v-6.921"/><path fill="none" stroke="#18193f" stroke-linecap="round" stroke-linejoin="round" stroke-miterlimit="10" stroke-width="3" d="M5.5,27.5V14.611c0-1.718,1.393-3.111,3.111-3.111h18.778c1.718,0,3.111,1.393,3.111,3.111V18.5"/><polygon fill="none" stroke="#18193f" stroke-linecap="round" stroke-linejoin="round" stroke-miterlimit="10" stroke-width="3" points="22.5,29.364 24.364,27.5 22.5,25.636 22.5,23 19.864,23 18,21.136 16.136,23 13.5,23 13.5,25.636 11.636,27.5 13.5,29.364 13.5,32 16.136,32 18,33.864 19.864,32 22.5,32"/><path fill="none" stroke="#18193f" stroke-linecap="round" stroke-linejoin="round" stroke-miterlimit="10" stroke-width="3" d="M23.5,11.5c0,2.151,0.97,4.075,2.496,5.359"/><path fill="none" stroke="#18193f" stroke-linecap="round" stroke-linejoin="round" stroke-miterlimit="10" stroke-width="3" d="M5.5,18.5c3.866,0,7-3.134,7-7"/><path fill="none" stroke="#18193f" stroke-linecap="round" stroke-linejoin="round" stroke-miterlimit="10" stroke-width="3" d="M12.5,43.5c0-3.866-3.134-7-7-7v-0.181"/><path fill="none" stroke="#18193f" stroke-linecap="round" stroke-linejoin="round" stroke-miterlimit="10" stroke-width="3" d="M30.5,36.5c-3.866,0-7,3.134-7,7"/></svg>