<svg xmlns="http://www.w3.org/2000/svg"  viewBox="0 0 48 48" width="48px" height="48px"><path fill="#ffab91" d="M43.5,8.5h-31c-1.7,0-3,1.3-3,3v35c0,0.6,0.4,1,1,1l8,0c0.6,0,1-0.5,1-1c-0.3-8.2-4-13-4-13	s10.1-4.4,11.4-12.6c0.3-2,0.6-3.9,1.1-5.9c0.4,2,0.8,3.9,1.1,5.9c1.3,8.2,11.4,12.6,11.4,12.6s-3.7,4.7-4,13c0,0.6,0.4,1,1,1l8,0	c0.6,0,1-0.4,1-1v-35C46.5,9.8,45.2,8.5,43.5,8.5z"/><path fill="none" stroke="#18193f" stroke-linecap="round" stroke-linejoin="round" stroke-miterlimit="10" stroke-width="3" d="M25,15.2c0,9.3,11.5,14.3,11.5,14.3h6v-22c0-1.7-1.3-3-3-3h-17"/><path fill="none" stroke="#18193f" stroke-linecap="round" stroke-linejoin="round" stroke-miterlimit="10" stroke-width="3" d="M42.5,37.5v5c0,0.6-0.4,1-1,1h-8c-0.6,0-1-0.5-1-1c0.3-8.2,4-13,4-13h6v2.8"/><path fill="none" stroke="#18193f" stroke-linecap="round" stroke-linejoin="round" stroke-miterlimit="10" stroke-width="3" d="M18.9,24.3C21.1,22,23,19,23,15.2"/><path fill="none" stroke="#18193f" stroke-linecap="round" stroke-linejoin="round" stroke-miterlimit="10" stroke-width="3" d="M25.5,4.5h-17c-1.7,0-3,1.3-3,3v22h6c0,0,1.2-0.5,2.9-1.6"/><path fill="none" stroke="#18193f" stroke-linecap="round" stroke-linejoin="round" stroke-miterlimit="10" stroke-width="3" d="M11.5,29.5c0,0,3.7,4.7,4,13c0,0.6-0.4,1-1,1h-8c-0.6,0-1-0.4-1-1v-13H11.5z"/><path fill="none" stroke="#18193f" stroke-linecap="round" stroke-linejoin="round" stroke-miterlimit="10" stroke-width="3" d="M31.5,4.9c0.2,0.7,0.3,1.4,0.3,2.1c0,4.3-3.5,7.8-7.8,7.8s-7.8-3.5-7.8-7.8c0-0.7,0.1-1.4,0.3-2.1"/><path fill="none" stroke="#18193f" stroke-linecap="round" stroke-linejoin="round" stroke-miterlimit="10" stroke-width="3" d="M12.8,12.4c-0.3,0-0.5,0.1-0.8,0.1c-3.2,0-5.9-2.4-6.4-5.5"/><path fill="none" stroke="#18193f" stroke-linecap="round" stroke-linejoin="round" stroke-miterlimit="10" stroke-width="3" d="M42.3,7.7c-0.7,2.8-3.3,4.8-6.3,4.8c-0.1,0-0.2,0-0.3,0"/></svg>