<svg xmlns="http://www.w3.org/2000/svg"  viewBox="0 0 48 48" width="48px" height="48px"><path fill="#9fa8da" d="M40.97,45H15.03C12.804,45,11,43.196,11,40.97V15.03c0-2.226,1.804-4.03,4.03-4.03H40.97	c2.226,0,4.03,1.804,4.03,4.03V40.97C45,43.196,43.196,45,40.97,45z"/><path fill="#18193f" d="M34.362,19.62c-0.431-1.585-1.115-2.962-2.035-4.093c-1.882-2.315-4.622-3.501-8.165-3.525	c-3.519,0.024-6.23,1.216-8.062,3.543c-1.614,2.053-2.447,4.894-2.476,8.466c0.028,3.551,0.861,6.392,2.476,8.444	c1.831,2.327,4.543,3.519,8.081,3.543c3.128-0.021,5.34-0.847,7.169-2.675c2.43-2.428,2.354-5.475,1.551-7.347	c-0.58-1.352-1.678-2.445-3.177-3.163c-0.035-0.018-0.071-0.034-0.107-0.051c-0.264-3.38-2.214-5.323-5.42-5.344	c-1.944,0-3.565,0.835-4.565,2.353c-0.112,0.17-0.067,0.399,0.102,0.516l1.668,1.145c0.083,0.057,0.186,0.078,0.284,0.059	s0.186-0.078,0.241-0.162c0.604-0.915,1.568-1.107,2.297-1.107c0.886,0.005,1.545,0.251,1.958,0.731	c0.223,0.259,0.394,0.597,0.512,1.009c-0.757-0.091-1.563-0.111-2.405-0.063c-3.106,0.179-5.104,2.019-4.967,4.58	c0.069,1.306,0.72,2.43,1.831,3.165c0.918,0.605,2.096,0.906,3.321,0.837c1.621-0.089,2.896-0.713,3.791-1.854	c0.573-0.729,0.96-1.625,1.178-2.725c0.422,0.341,0.733,0.74,0.927,1.193c0.455,1.058,0.478,2.802-0.954,4.232	c-1.294,1.293-2.863,1.853-5.24,1.87c-2.642-0.02-4.632-0.857-5.916-2.489c-1.219-1.55-1.85-3.808-1.873-6.705	c0.023-2.903,0.654-5.161,1.873-6.711c1.284-1.632,3.274-2.47,5.91-2.489c2.665,0.02,4.693,0.863,6.028,2.507	c0.653,0.804,1.153,1.823,1.486,3.03c0.055,0.198,0.26,0.314,0.458,0.263l1.955-0.521c0.097-0.025,0.179-0.089,0.229-0.175	C34.375,19.819,34.388,19.717,34.362,19.62z M24.323,27.683c-0.742,0.029-1.43-0.155-1.842-0.524	c-0.251-0.225-0.387-0.505-0.404-0.832c-0.038-0.721,0.563-1.528,2.367-1.633c0.23-0.013,0.456-0.02,0.679-0.02	c0.597,0,1.166,0.047,1.697,0.141C26.536,27.229,25.405,27.623,24.323,27.683C24.324,27.683,24.324,27.683,24.323,27.683z"/><path fill="none" stroke="#18193f" stroke-linecap="round" stroke-linejoin="round" stroke-width="3" d="M40.5,32.787V36.5	c0,2.209-1.791,4-4,4h-25c-2.209,0-4-1.791-4-4V20.404"/><path fill="none" stroke="#18193f" stroke-linecap="round" stroke-linejoin="round" stroke-width="3" d="M7.5,14.66V11.5	c0-2.209,1.791-4,4-4h25c2.209,0,4,1.791,4,4V25"/></svg>