<svg xmlns="http://www.w3.org/2000/svg"  viewBox="0 0 48 48" width="48px" height="48px"><path fill="#ffab91" d="M32.7,23.9c-0.9-0.2-1.8-0.3-2.8-0.2v-4.2c3.2-1.5,5.9-3.4,5.9-7.1c0-3.4-2.2-5.1-4.4-5.1S27,9,27,12.4v5.2	c-0.2,0.1-0.4,0.2-0.6,0.3c-4.5,2-10.2,4.4-10.2,11.2c0,6,5.2,9.8,10.8,10.5v2.2c0,2.6-1.9,3-2.4,3c-1.4,0.2-3.1-0.6-3.5-2.4	c-0.2-0.8-1-1.3-1.8-1.1c-0.8,0.2-1.3,1-1.1,1.8c0.7,3.1,3.5,4.7,6,4.7c0.2,0,0.4,0,0.7,0c2.5-0.3,5.1-2.2,5.1-6v-2.2	c5.3-0.4,8.8-3.8,8.8-8.6C38.8,27.5,36.4,24.7,32.7,23.9z"/><path fill="none" stroke="#18193f" stroke-linecap="round" stroke-linejoin="round" stroke-width="3" d="M30.2,34c2.5-1.1,4.3-3.2,4.3-6.5c0-7-10.9-8.3-14-2"/><path fill="none" stroke="#18193f" stroke-linecap="round" stroke-linejoin="round" stroke-width="3" d="M16.5,20c-1.2,1.4-2,3.1-2,5.5c0,5.9,5.7,9.2,11,9.3"/><path fill="none" stroke="#18193f" stroke-linecap="round" stroke-linejoin="round" stroke-width="3" d="M16.5,39.5c1.1,5,9,5,9-1v-30c0-5,6-5,6,0c0,5-6.6,6.1-11.5,8.9"/><circle cx="17.5" cy="39.5" r="2.5" fill="#18193f"/></svg>