<svg xmlns="http://www.w3.org/2000/svg"  viewBox="0 0 48 48" width="48px" height="48px"><path fill="#a5d6a7" d="M35.7,40c6.1,0,11.1-5,11.1-11.1c0-5-3.3-9.3-7.9-10.6C38,13,33.5,9,28,9s-10,4-10.9,9.2	c-4.6,1.4-7.9,5.6-7.9,10.6c0,6.1,5,11.1,11.1,11.1C21.3,40,34,40,35.7,40z"/><line x1="24" x2="24" y1="12.5" y2="43.5" fill="none" stroke="#18193f" stroke-linecap="round" stroke-miterlimit="10" stroke-width="3"/><line x1="15.5" x2="24" y1="19.5" y2="28" fill="none" stroke="#18193f" stroke-linecap="round" stroke-miterlimit="10" stroke-width="3"/><line x1="32.5" x2="24" y1="23.5" y2="32" fill="none" stroke="#18193f" stroke-linecap="round" stroke-miterlimit="10" stroke-width="3"/><path fill="none" stroke="#18193f" stroke-linecap="round" stroke-linejoin="round" stroke-miterlimit="10" stroke-width="3" d="M15.5,8.3c-1.4,1.6-2.4,3.5-2.8,5.7C8,15.4,4.5,19.8,4.5,25c0,6.4,5.1,11.5,11.5,11.5c1.1,0,5.9,0,8,0"/><path fill="none" stroke="#18193f" stroke-linecap="round" stroke-linejoin="round" stroke-miterlimit="10" stroke-width="3" d="M29,36.5c4.1,0,1.3,0,3,0c6.4,0,11.5-5.1,11.5-11.5c0-5.2-3.5-9.6-8.2-11c-1-5.4-5.6-9.5-11.3-9.5	c-0.7,0-1.4,0.1-2.1,0.2"/></svg>