<svg xmlns="http://www.w3.org/2000/svg"  viewBox="0 0 48 48" width="48px" height="48px"><path fill="#90caf9" d="M40.121,44H15.879C13.737,44,12,42.263,12,40.121V15.879C12,13.737,13.737,12,15.879,12h24.242	C42.263,12,44,13.737,44,15.879v24.242C44,42.263,42.263,44,40.121,44z"/><path fill="none" stroke="#18193f" stroke-linecap="round" stroke-linejoin="round" stroke-width="3" d="M40.5,32.787V36.5	c0,2.209-1.791,4-4,4h-25c-2.209,0-4-1.791-4-4V20.404"/><path fill="none" stroke="#18193f" stroke-linecap="round" stroke-linejoin="round" stroke-width="3" d="M7.5,14.66V11.5	c0-2.209,1.791-4,4-4h25c2.209,0,4,1.791,4,4V25"/><path fill="#18193f" d="M31.5,34.21c0,0.089-0.035,0.172-0.102,0.232c-0.082,0.072-2.032,1.745-6.51,1.745 c-5.368,0-5.524-6.008-5.524-6.694l-0.051-7.368h-2.505c-0.17,0-0.308-0.138-0.308-0.309V18.91c0-0.127,0.078-0.243,0.195-0.289 c0.049-0.019,4.848-1.953,4.848-6.499c0-0.171,0.137-0.309,0.307-0.309h2.781c0.17,0.001,0.308,0.138,0.308,0.31v6.254h5.315 c0.17,0,0.31,0.137,0.31,0.308v3.136c0,0.171-0.139,0.307-0.31,0.307h-5.316v7.229c0,0.094,0.296,2.362,2.587,2.362 c1.897,0,3.488-0.979,3.506-0.989c0.094-0.06,0.213-0.062,0.312-0.009c0.096,0.053,0.157,0.157,0.157,0.271L31.5,34.21L31.5,34.21z"/></svg>