<svg xmlns="http://www.w3.org/2000/svg"  viewBox="0 0 48 48" width="48px" height="48px"><path fill="#ffe082" d="M37.5,9C36.7,9,36,9.7,36,10.5V27c0,2.2-1.8,4-4,4s-4-1.8-4-4V10.5C28,9.7,27.3,9,26.5,9S25,9.7,25,10.5V27	c0,3.3,2.4,6.1,5.5,6.8v8.6C29.6,42.9,29,43.9,29,45c0,1.7,1.3,3,3,3s3-1.3,3-3c0-1.1-0.6-2.1-1.5-2.6v-8.6c3.1-0.7,5.5-3.5,5.5-6.8	V10.5C39,9.7,38.3,9,37.5,9z"/><path fill="none" stroke="#18193f" stroke-linecap="round" stroke-linejoin="round" stroke-width="3" d="M36.5,12.5c2,3.3,2,6.7,0,10"/><path fill="none" stroke="#18193f" stroke-linecap="round" stroke-linejoin="round" stroke-width="3" d="M43.3,15.1c0.6,4.1-0.3,8.3-2.8,12.4"/><path fill="none" stroke="#18193f" stroke-linecap="round" stroke-linejoin="round" stroke-width="3" d="M40.5,7.5c0.6,1,1.1,2,1.5,3"/><path fill="none" stroke="#18193f" stroke-linecap="round" stroke-linejoin="round" stroke-width="3" d="M11.5,12.5c-2,3.3-2,6.7,0,10"/><path fill="none" stroke="#18193f" stroke-linecap="round" stroke-linejoin="round" stroke-width="3" d="M4.5,18.5c0.2,3,1.2,6,3,9"/><path fill="none" stroke="#18193f" stroke-linecap="round" stroke-linejoin="round" stroke-width="3" d="M7.5,7.5c-1,1.7-1.7,3.3-2.2,5"/><path fill="none" stroke="#18193f" stroke-linecap="round" stroke-linejoin="round" stroke-width="3" d="M18.5,6.5V23c0,3,2.5,5.5,5.5,5.5l0,0c3,0,5.5-2.5,5.5-5.5V6.5"/><circle cx="24" cy="41" r="3" fill="#18193f"/><line x1="24" x2="24" y1="41" y2="28.5" fill="none" stroke="#18193f" stroke-linecap="round" stroke-linejoin="round" stroke-width="3"/></svg>