<svg xmlns="http://www.w3.org/2000/svg"  viewBox="0 0 48 48" width="48px" height="48px"><path fill="#f48fb1" d="M45.4,29c0.6,0,1-0.5,1-1.1C45.6,18.5,37.7,11,28,11c-9.7,0-17.6,7.5-18.4,16.9c0,0.6,0.4,1.1,1,1.1H45.4z"/><line x1="39.2" x2="42.5" y1="29.5" y2="29.5" fill="none" stroke="#18193f" stroke-linecap="round" stroke-linejoin="round" stroke-width="3"/><line x1="5.5" x2="34.2" y1="29.5" y2="29.5" fill="none" stroke="#18193f" stroke-linecap="round" stroke-linejoin="round" stroke-width="3"/><line x1="19.2" x2="39.5" y1="34.5" y2="34.5" fill="none" stroke="#18193f" stroke-linecap="round" stroke-linejoin="round" stroke-width="3"/><line x1="8.5" x2="13.9" y1="34.5" y2="34.5" fill="none" stroke="#18193f" stroke-linecap="round" stroke-linejoin="round" stroke-width="3"/><line x1="14.5" x2="33.5" y1="39.5" y2="39.5" fill="none" stroke="#18193f" stroke-linecap="round" stroke-linejoin="round" stroke-width="3"/><path fill="none" stroke="#18193f" stroke-linecap="round" stroke-linejoin="round" stroke-width="3" d="M10.9,24.5h31.6c-0.1-3.3-1-6.4-2.6-9"/><path fill="none" stroke="#18193f" stroke-linecap="round" stroke-linejoin="round" stroke-width="3" d="M35.2,10.3c-3.1-2.4-7-3.8-11.2-3.8c-10,0-18.2,8-18.5,18"/></svg>