<svg xmlns="http://www.w3.org/2000/svg"  viewBox="0 0 48 48" width="48px" height="48px"><path fill="#ffe082" d="M44.9,20H11.1C9.4,20,8,21.4,8,23.1v15.9c0,1.7,1.4,3.1,3.1,3.1h9.8c0.8,0,1.5-0.3,2.1-0.8l3.7-3.4	c0.8-0.7,2-0.7,2.8,0l3.7,3.4c0.6,0.5,1.3,0.8,2.1,0.8h9.8c1.7,0,3.1-1.4,3.1-3.1V23.1C48,21.4,46.6,20,44.9,20z"/><path fill="none" stroke="#18193f" stroke-linecap="round" stroke-linejoin="round" stroke-miterlimit="10" stroke-width="3" d="M43.5,24.8v-5.3c0-1.7-1.3-3-3-3h-33c-1.7,0-3,1.3-3,3v3"/><path fill="none" stroke="#18193f" stroke-linecap="round" stroke-linejoin="round" stroke-miterlimit="10" stroke-width="3" d="M4.5,27.7v7.8c0,1.7,1.3,3,3,3H17c0.8,0,1.5-0.3,2.1-0.8l3.5-3.4c0.8-0.7,2-0.7,2.8,0l3.5,3.4	c0.6,0.5,1.3,0.8,2.1,0.8h9.5c1.7,0,3-1.3,3-3v-5.2"/><path fill="none" stroke="#18193f" stroke-linecap="round" stroke-linejoin="round" stroke-miterlimit="10" stroke-width="3" d="M38.6,12.5L37,11.2c-0.5-0.4-1.2-0.7-1.9-0.7H12.9c-0.7,0-1.4,0.2-1.9,0.7l-1.9,1.5"/><circle cx="14.5" cy="27.5" r="4" fill="none" stroke="#18193f" stroke-linecap="round" stroke-linejoin="round" stroke-miterlimit="10" stroke-width="3"/><circle cx="33.5" cy="27.5" r="4" fill="none" stroke="#18193f" stroke-linecap="round" stroke-linejoin="round" stroke-miterlimit="10" stroke-width="3"/></svg>