<?xml version="1.0" encoding="iso-8859-1"?>
<!-- Generator: Adobe Illustrator 23.0.3, SVG Export Plug-In . SVG Version: 6.00 Build 0)  -->
<svg version="1.1" id="Layer_1" xmlns="http://www.w3.org/2000/svg" xmlns:xlink="http://www.w3.org/1999/xlink" x="0px" y="0px"
	 viewBox="0 0 48 48" style="enable-background:new 0 0 48 48;" xml:space="preserve">
<path style="fill:#FFAB91;" d="M27.796,35.917l14.495,0c2.812,0,5.328-2.02,5.667-4.811c0.406-3.345-2.194-6.189-5.458-6.189
	c-0.655,0-1.28,0.12-1.863,0.33c-0.302-4.282-3.862-7.664-8.22-7.664c-2.039,0-4.25,0.914-5.779,2.186
	C26.229,20.108,26,20.616,26,21.148v12.973C26,35.113,26.804,35.917,27.796,35.917z"/>
<g>
	<path style="fill:#18193F;" d="M2.884,34.717c0.577,0.385,1.25,0.769,1.923,0.961V22.796c-0.673,0.192-1.346,0.481-1.923,0.961
		V34.717z"/>
	<path style="fill:#18193F;" d="M13.459,17.22c-0.673,0.288-1.346,0.577-1.923,0.961v17.785h1.923V17.22z"/>
	<path style="fill:#18193F;" d="M7.691,35.966V22.604c-0.288-0.096-0.673-0.096-0.961-0.096c-0.288,0-0.673,0-0.961,0.096V35.87
		c0.288,0.096,0.673,0.096,0.961,0.096H7.691z"/>
	<path style="fill:#18193F;" d="M1.923,24.526C0.769,25.776,0,27.41,0,29.237c0,1.827,0.769,3.461,1.923,4.711V24.526z"/>
	<path style="fill:#18193F;" d="M19.227,17.22c-0.577-0.192-1.25-0.385-1.923-0.481v19.227h1.923V17.22z"/>
	<path style="fill:#18193F;" d="M8.652,21.45v14.516h1.923V18.95C9.806,19.623,9.133,20.489,8.652,21.45z"/>
	<path style="fill:#18193F;" d="M16.343,16.739c-0.673,0-1.346,0.096-1.923,0.192v19.035h1.923V16.739z"/>
</g>
<path style="fill:none;stroke:#18193F;stroke-width:3;stroke-linecap:round;stroke-linejoin:round;stroke-miterlimit:10;" d="
	M21.421,34.399H40.23c3.463,0,6.27-2.807,6.27-6.27s-2.807-6.27-6.27-6.27c-0.747,0-1.46,0.137-2.124,0.377
	c-0.344-4.881-4.402-8.736-9.371-8.736c-2.672,0-5.084,1.114-6.796,2.904"/>
</svg>