<?xml version="1.0" encoding="UTF-8"?>
<svg xmlns="http://www.w3.org/2000/svg" xmlns:xlink="http://www.w3.org/1999/xlink" width="37.5pt" height="37.5pt" viewBox="0 0 37.5 37.5" version="1.1">
<g id="surface4422">
<path style=" stroke:none;fill-rule:nonzero;fill:rgb(54.901963%,90.588236%,94.901961%);fill-opacity:1;" d="M 21.582031 7.324219 C 13.722656 7.324219 7.324219 13.722656 7.324219 21.582031 C 7.324219 24.128906 8.015625 26.441406 9.097656 28.519531 L 7.324219 34.839844 C 7.167969 35.457031 7.707031 35.921875 8.246094 35.765625 L 14.570312 33.992188 C 16.648438 35.148438 18.960938 35.765625 21.507812 35.765625 C 29.367188 35.765625 35.765625 29.367188 35.765625 21.507812 C 35.765625 13.644531 29.445312 7.324219 21.582031 7.324219 Z M 21.582031 7.324219 "/>
<path style="fill:none;stroke-width:3;stroke-linecap:round;stroke-linejoin:miter;stroke:rgb(9.411765%,9.803922%,24.705882%);stroke-opacity:1;stroke-miterlimit:4;" d="M 24 14.498311 L 24 26.498311 " transform="matrix(0.770833,0,0,0.770833,0,0)"/>
<path style="fill:none;stroke-width:3;stroke-linecap:round;stroke-linejoin:round;stroke:rgb(9.411765%,9.803922%,24.705882%);stroke-opacity:1;stroke-miterlimit:4;" d="M 41.097973 30.998311 C 42 28.798986 42.501689 26.498311 42.501689 24 C 42.501689 13.798986 34.201014 5.498311 24 5.498311 C 21.101351 5.498311 18.400338 6.101351 15.998311 7.302365 " transform="matrix(0.770833,0,0,0.770833,0,0)"/>
<path style="fill:none;stroke-width:3;stroke-linecap:round;stroke-linejoin:round;stroke:rgb(9.411765%,9.803922%,24.705882%);stroke-opacity:1;stroke-miterlimit:4;" d="M 9.800676 12.197635 C 7.099662 15.400338 5.498311 19.5 5.498311 24 C 5.498311 27.298986 6.400338 30.298986 7.798986 33 L 5.498311 41.199324 C 5.300676 42 6 42.699324 6.800676 42.501689 L 15 40.201014 C 17.701014 41.701014 20.701014 42.501689 24 42.501689 C 28.697635 42.501689 33.101351 40.697635 36.298986 37.798986 " transform="matrix(0.770833,0,0,0.770833,0,0)"/>
<path style=" stroke:none;fill-rule:nonzero;fill:rgb(9.411765%,9.803922%,24.705882%);fill-opacity:1;" d="M 20.042969 25.4375 C 20.042969 26.289062 19.351562 26.980469 18.5 26.980469 C 17.648438 26.980469 16.957031 26.289062 16.957031 25.4375 C 16.957031 24.585938 17.648438 23.894531 18.5 23.894531 C 19.351562 23.894531 20.042969 24.585938 20.042969 25.4375 Z M 20.042969 25.4375 "/>
</g>
</svg>
