<?xml version="1.0" encoding="UTF-8"?>
<svg xmlns="http://www.w3.org/2000/svg" xmlns:xlink="http://www.w3.org/1999/xlink" width="37.5pt" height="37.5pt" viewBox="0 0 37.5 37.5" version="1.1">
<g id="surface4353">
<path style=" stroke:none;fill-rule:nonzero;fill:rgb(100%,67.058825%,56.862748%);fill-opacity:1;" d="M 35.84375 21.582031 C 35.84375 29.460938 29.460938 35.84375 21.582031 35.84375 C 13.707031 35.84375 7.324219 29.460938 7.324219 21.582031 C 7.324219 13.707031 13.707031 7.324219 21.582031 7.324219 C 29.460938 7.324219 35.84375 13.707031 35.84375 21.582031 Z M 35.84375 21.582031 "/>
<path style="fill:none;stroke-width:3;stroke-linecap:round;stroke-linejoin:round;stroke:rgb(9.411765%,9.803922%,24.705882%);stroke-opacity:1;stroke-miterlimit:10;" d="M 35.402027 38.802365 C 32.199324 41.199324 28.302365 42.699324 24 42.699324 C 13.697635 42.699324 5.300676 34.302365 5.300676 24 C 5.300676 21.400338 5.898649 18.800676 6.800676 16.601351 " transform="matrix(0.770833,0,0,0.770833,0,0)"/>
<path style="fill:none;stroke-width:3;stroke-linecap:round;stroke-linejoin:round;stroke:rgb(9.411765%,9.803922%,24.705882%);stroke-opacity:1;stroke-miterlimit:10;" d="M 12.101351 9.597973 C 15.298986 6.998311 19.5 5.300676 24 5.300676 C 34.302365 5.300676 42.699324 13.697635 42.699324 24 C 42.699324 26.300676 42.298986 28.5 41.498311 30.597973 " transform="matrix(0.770833,0,0,0.770833,0,0)"/>
<path style="fill:none;stroke-width:3;stroke-linecap:round;stroke-linejoin:round;stroke:rgb(9.411765%,9.803922%,24.705882%);stroke-opacity:1;stroke-miterlimit:10;" d="M 31.099662 16.900338 L 16.900338 31.099662 " transform="matrix(0.770833,0,0,0.770833,0,0)"/>
<path style="fill:none;stroke-width:3;stroke-linecap:round;stroke-linejoin:round;stroke:rgb(9.411765%,9.803922%,24.705882%);stroke-opacity:1;stroke-miterlimit:10;" d="M 31.099662 31.099662 L 16.900338 16.900338 " transform="matrix(0.770833,0,0,0.770833,0,0)"/>
</g>
</svg>
