<?xml version="1.0" encoding="UTF-8"?>
<svg xmlns="http://www.w3.org/2000/svg" xmlns:xlink="http://www.w3.org/1999/xlink" width="37.5pt" height="37.5pt" viewBox="0 0 37.5 37.5" version="1.1">
<g id="surface4363">
<path style=" stroke:none;fill-rule:nonzero;fill:rgb(64.705884%,83.92157%,65.490198%);fill-opacity:1;" d="M 33.222656 11.5625 L 31.605469 11.5625 L 31.605469 9.945312 C 31.605469 8.710938 30.601562 7.707031 29.367188 7.707031 L 9.945312 7.707031 C 8.710938 7.707031 7.707031 8.710938 7.707031 9.945312 L 7.707031 29.367188 C 7.707031 30.601562 8.710938 31.605469 9.945312 31.605469 L 11.5625 31.605469 L 11.5625 33.222656 C 11.5625 34.457031 12.566406 35.457031 13.796875 35.457031 L 33.222656 35.457031 C 34.457031 35.457031 35.457031 34.457031 35.457031 33.222656 L 35.457031 13.796875 C 35.457031 12.566406 34.457031 11.5625 33.222656 11.5625 Z M 33.222656 11.5625 "/>
<path style="fill:none;stroke-width:3;stroke-linecap:round;stroke-linejoin:round;stroke:rgb(9.411765%,9.803922%,24.705882%);stroke-opacity:1;stroke-miterlimit:10;" d="M 41.498311 10.5 L 41.498311 34.5 C 41.498311 38.402027 38.402027 41.498311 34.5 41.498311 L 13.5 41.498311 C 11.802365 41.498311 10.5 40.201014 10.5 38.498311 L 10.5 36.501689 " transform="matrix(0.770833,0,0,0.770833,0,0)"/>
<path style="fill:none;stroke-width:3;stroke-linecap:round;stroke-linejoin:round;stroke:rgb(9.411765%,9.803922%,24.705882%);stroke-opacity:1;stroke-miterlimit:10;" d="M 36.501689 17.599662 L 36.501689 33.501689 C 36.501689 35.199324 35.199324 36.501689 33.501689 36.501689 L 8.498311 36.501689 C 6.800676 36.501689 5.498311 35.199324 5.498311 33.501689 L 5.498311 28.398649 " transform="matrix(0.770833,0,0,0.770833,0,0)"/>
<path style="fill:none;stroke-width:3;stroke-linecap:round;stroke-linejoin:round;stroke:rgb(9.411765%,9.803922%,24.705882%);stroke-opacity:1;stroke-miterlimit:10;" d="M 5.498311 21.699324 L 5.498311 8.498311 C 5.498311 6.800676 6.800676 5.498311 8.498311 5.498311 L 33.501689 5.498311 C 35.199324 5.498311 36.501689 6.800676 36.501689 8.498311 L 36.501689 10.697635 " transform="matrix(0.770833,0,0,0.770833,0,0)"/>
<path style="fill:none;stroke-width:3;stroke-linecap:round;stroke-linejoin:round;stroke:rgb(9.411765%,9.803922%,24.705882%);stroke-opacity:1;stroke-miterlimit:10;" d="M 15.501689 21.501689 L 19.5 25.5 L 28.5 16.5 " transform="matrix(0.770833,0,0,0.770833,0,0)"/>
</g>
</svg>
