<?xml version="1.0" encoding="UTF-8"?>
<svg xmlns="http://www.w3.org/2000/svg" xmlns:xlink="http://www.w3.org/1999/xlink" width="37.5pt" height="37.5pt" viewBox="0 0 37.5 37.5" version="1.1">
<g id="surface4398">
<path style=" stroke:none;fill-rule:nonzero;fill:rgb(56.470591%,79.215688%,97.647059%);fill-opacity:1;" d="M 31.605469 35.457031 L 13.027344 35.457031 C 11.792969 35.457031 10.792969 34.457031 10.792969 33.222656 L 10.792969 10.019531 C 10.792969 8.789062 11.792969 7.785156 13.027344 7.785156 L 31.605469 7.785156 C 31.988281 7.785156 32.375 8.09375 32.375 8.554688 L 32.375 34.6875 C 32.375 35.148438 32.066406 35.457031 31.605469 35.457031 Z M 31.605469 35.457031 "/>
<path style="fill:none;stroke-width:3;stroke-linecap:round;stroke-linejoin:round;stroke:rgb(9.411765%,9.803922%,24.705882%);stroke-opacity:1;stroke-miterlimit:10;" d="M 9.501689 18.998311 L 9.501689 8.498311 C 9.501689 6.800676 10.798986 5.498311 12.501689 5.498311 L 37.5 5.498311 C 38.097973 5.498311 38.498311 5.898649 38.498311 6.501689 L 38.498311 30.902027 " transform="matrix(0.770833,0,0,0.770833,0,0)"/>
<path style="fill:none;stroke-width:3;stroke-linecap:round;stroke-linejoin:round;stroke:rgb(9.411765%,9.803922%,24.705882%);stroke-opacity:1;stroke-miterlimit:10;" d="M 38.498311 42.501689 L 12.501689 42.501689 C 10.798986 42.501689 9.501689 41.199324 9.501689 39.501689 L 9.501689 24.800676 " transform="matrix(0.770833,0,0,0.770833,0,0)"/>
<path style="fill:none;stroke-width:3;stroke-linecap:round;stroke-linejoin:round;stroke:rgb(9.411765%,9.803922%,24.705882%);stroke-opacity:1;stroke-miterlimit:10;" d="M 27.501689 42.501689 L 12.501689 42.501689 C 10.798986 42.501689 9.501689 41.199324 9.501689 39.501689 C 9.501689 37.798986 10.798986 36.501689 12.501689 36.501689 L 38.498311 36.501689 " transform="matrix(0.770833,0,0,0.770833,0,0)"/>
<path style="fill:none;stroke-width:3;stroke-linecap:butt;stroke-linejoin:miter;stroke:rgb(9.411765%,9.803922%,24.705882%);stroke-opacity:1;stroke-miterlimit:10;" d="M 24 12.501689 C 22.099662 12.501689 20.498311 14.097973 20.498311 15.998311 C 20.498311 17.898649 22.099662 19.5 24 19.5 C 25.900338 19.5 27.501689 17.898649 27.501689 15.998311 C 27.501689 14.097973 25.900338 12.501689 24 12.501689 Z M 24 12.501689 " transform="matrix(0.770833,0,0,0.770833,0,0)"/>
<path style="fill:none;stroke-width:3;stroke-linecap:round;stroke-linejoin:round;stroke:rgb(9.411765%,9.803922%,24.705882%);stroke-opacity:1;stroke-miterlimit:10;" d="M 18.597973 26.001689 L 18.597973 25.398649 C 18.597973 22.398649 21 20.001689 24 20.001689 C 27 20.001689 29.402027 22.398649 29.402027 25.398649 L 29.402027 26.001689 " transform="matrix(0.770833,0,0,0.770833,0,0)"/>
</g>
</svg>
