<?xml version="1.0" encoding="UTF-8"?>
<svg xmlns="http://www.w3.org/2000/svg" xmlns:xlink="http://www.w3.org/1999/xlink" width="36pt" height="36pt" viewBox="0 0 36 36" version="1.1">
<g id="surface1239">
<path style=" stroke:none;fill-rule:nonzero;fill:rgb(54.901963%,90.588236%,94.901961%);fill-opacity:1;" d="M 29.476562 10.875 C 28.050781 10.273438 26.476562 10.050781 24.976562 9.898438 C 23.023438 9.675781 21.074219 9.675781 19.199219 9.75 C 17.476562 9.824219 15.675781 9.976562 14.023438 10.425781 C 13.574219 10.574219 13.050781 10.648438 12.601562 10.875 C 7.425781 12.976562 4.351562 28.125 7.726562 31.875 C 11.101562 35.625 16.726562 25.125 17.851562 25.125 L 24.300781 25.125 C 25.425781 25.125 31.050781 35.625 34.425781 31.875 C 37.800781 28.125 34.648438 12.976562 29.476562 10.875 Z M 29.476562 10.875 "/>
<path style="fill:none;stroke-width:3;stroke-linecap:round;stroke-linejoin:round;stroke:rgb(9.411765%,9.803922%,24.705882%);stroke-opacity:1;stroke-miterlimit:4;" d="M 15.5 18.5 L 15.5 24.5 " transform="matrix(0.75,0,0,0.75,0,0)"/>
<path style="fill:none;stroke-width:3;stroke-linecap:round;stroke-linejoin:round;stroke:rgb(9.411765%,9.803922%,24.705882%);stroke-opacity:1;stroke-miterlimit:4;" d="M 18.5 21.5 L 12.5 21.5 " transform="matrix(0.75,0,0,0.75,0,0)"/>
<path style=" stroke:none;fill-rule:nonzero;fill:rgb(9.411765%,9.803922%,24.705882%);fill-opacity:1;" d="M 25.5 13.125 C 25.5 13.746094 24.996094 14.25 24.375 14.25 C 23.753906 14.25 23.25 13.746094 23.25 13.125 C 23.25 12.503906 23.753906 12 24.375 12 C 24.996094 12 25.5 12.503906 25.5 13.125 Z M 25.5 13.125 "/>
<path style=" stroke:none;fill-rule:nonzero;fill:rgb(9.411765%,9.803922%,24.705882%);fill-opacity:1;" d="M 22.5 16.125 C 22.5 16.746094 21.996094 17.25 21.375 17.25 C 20.753906 17.25 20.25 16.746094 20.25 16.125 C 20.25 15.503906 20.753906 15 21.375 15 C 21.996094 15 22.5 15.503906 22.5 16.125 Z M 22.5 16.125 "/>
<path style=" stroke:none;fill-rule:nonzero;fill:rgb(9.411765%,9.803922%,24.705882%);fill-opacity:1;" d="M 28.5 16.125 C 28.5 16.746094 27.996094 17.25 27.375 17.25 C 26.753906 17.25 26.25 16.746094 26.25 16.125 C 26.25 15.503906 26.753906 15 27.375 15 C 27.996094 15 28.5 15.503906 28.5 16.125 Z M 28.5 16.125 "/>
<path style=" stroke:none;fill-rule:nonzero;fill:rgb(9.411765%,9.803922%,24.705882%);fill-opacity:1;" d="M 25.5 19.125 C 25.5 19.746094 24.996094 20.25 24.375 20.25 C 23.753906 20.25 23.25 19.746094 23.25 19.125 C 23.25 18.503906 23.753906 18 24.375 18 C 24.996094 18 25.5 18.503906 25.5 19.125 Z M 25.5 19.125 "/>
<path style="fill:none;stroke-width:3;stroke-linecap:round;stroke-linejoin:round;stroke:rgb(9.411765%,9.803922%,24.705882%);stroke-opacity:1;stroke-miterlimit:4;" d="M 43 24.802083 C 41.802083 18.401042 39 12 35.302083 10.5 C 33.401042 9.697917 31.302083 9.401042 29.302083 9.197917 C 26.697917 8.901042 24.098958 8.901042 21.598958 9 C 19.302083 9.098958 16.901042 9.302083 14.697917 9.901042 C 14.098958 10.098958 13.401042 10.197917 12.802083 10.5 C 11 11.197917 9.401042 13 8.098958 15.401042 " transform="matrix(0.75,0,0,0.75,0,0)"/>
<path style="fill:none;stroke-width:3;stroke-linecap:round;stroke-linejoin:round;stroke:rgb(9.411765%,9.803922%,24.705882%);stroke-opacity:1;stroke-miterlimit:4;" d="M 5.5 22.197917 C 3.802083 28.598958 3.697917 35.802083 6.197917 38.5 C 10.697917 43.5 18.197917 29.5 19.697917 29.5 L 28.302083 29.5 C 29.802083 29.5 37.302083 43.5 41.802083 38.5 C 43 37.098958 43.598958 34.697917 43.697917 31.802083 " transform="matrix(0.75,0,0,0.75,0,0)"/>
</g>
</svg>
