<?xml version="1.0" encoding="UTF-8"?>
<svg xmlns="http://www.w3.org/2000/svg" xmlns:xlink="http://www.w3.org/1999/xlink" width="37.5pt" height="37.5pt" viewBox="0 0 37.5 37.5" version="1.1">
<g id="surface4320">
<path style=" stroke:none;fill-rule:nonzero;fill:rgb(54.901963%,90.588236%,94.901961%);fill-opacity:1;" d="M 25.589844 7.707031 L 13.105469 7.707031 C 11.792969 7.707031 10.792969 8.710938 10.792969 10.019531 L 10.792969 33.917969 C 10.792969 35.226562 11.792969 36.230469 13.105469 36.230469 L 30.832031 36.230469 C 32.144531 36.230469 33.144531 35.226562 33.144531 33.917969 L 33.144531 15.261719 C 33.144531 14.878906 32.992188 14.492188 32.683594 14.183594 L 26.671875 8.171875 C 26.363281 7.863281 25.976562 7.707031 25.589844 7.707031 Z M 25.589844 7.707031 "/>
<path style="fill:none;stroke-width:3;stroke-linecap:round;stroke-linejoin:miter;stroke:rgb(9.411765%,9.803922%,24.705882%);stroke-opacity:1;stroke-miterlimit:10;" d="M 17.498311 22.5 L 30.501689 22.5 " transform="matrix(0.770833,0,0,0.770833,0,0)"/>
<path style="fill:none;stroke-width:3;stroke-linecap:round;stroke-linejoin:miter;stroke:rgb(9.411765%,9.803922%,24.705882%);stroke-opacity:1;stroke-miterlimit:10;" d="M 17.498311 29.498311 L 26.498311 29.498311 " transform="matrix(0.770833,0,0,0.770833,0,0)"/>
<path style="fill:none;stroke-width:3;stroke-linecap:round;stroke-linejoin:round;stroke:rgb(9.411765%,9.803922%,24.705882%);stroke-opacity:1;stroke-miterlimit:10;" d="M 22.099662 42.501689 L 35.498311 42.501689 C 37.201014 42.501689 38.498311 41.199324 38.498311 39.501689 L 38.498311 14.498311 L 31.5 14.498311 C 30.400338 14.498311 29.498311 13.601351 29.498311 12.501689 L 29.498311 5.498311 " transform="matrix(0.770833,0,0,0.770833,0,0)"/>
<path style="fill:none;stroke-width:3;stroke-linecap:round;stroke-linejoin:round;stroke:rgb(9.411765%,9.803922%,24.705882%);stroke-opacity:1;stroke-miterlimit:10;" d="M 24 5.498311 L 12.501689 5.498311 C 10.798986 5.498311 9.501689 6.800676 9.501689 8.498311 L 9.501689 39.501689 C 9.501689 41.199324 10.798986 42.501689 12.501689 42.501689 L 16.398649 42.501689 " transform="matrix(0.770833,0,0,0.770833,0,0)"/>
<path style="fill:none;stroke-width:3;stroke-linecap:round;stroke-linejoin:round;stroke:rgb(9.411765%,9.803922%,24.705882%);stroke-opacity:1;stroke-miterlimit:10;" d="M 38.498311 14.498311 L 29.498311 5.498311 " transform="matrix(0.770833,0,0,0.770833,0,0)"/>
</g>
</svg>
