<?xml version="1.0" encoding="UTF-8"?>
<svg xmlns="http://www.w3.org/2000/svg" xmlns:xlink="http://www.w3.org/1999/xlink" width="37.5pt" height="37.5pt" viewBox="0 0 37.5 37.5" version="1.1">
<g id="surface1374">
<path style=" stroke:none;fill-rule:nonzero;fill:rgb(56.470591%,79.215688%,97.647059%);fill-opacity:1;" d="M 35.84375 21.582031 C 35.84375 29.460938 29.460938 35.84375 21.582031 35.84375 C 13.707031 35.84375 7.324219 29.460938 7.324219 21.582031 C 7.324219 13.707031 13.707031 7.324219 21.582031 7.324219 C 29.460938 7.324219 35.84375 13.707031 35.84375 21.582031 Z M 35.84375 21.582031 "/>
<path style="fill:none;stroke-width:3;stroke-linecap:round;stroke-linejoin:round;stroke:rgb(9.411765%,9.803922%,24.705882%);stroke-opacity:1;stroke-miterlimit:10;" d="M 34.697635 39.101351 C 31.697635 41.199324 27.998311 42.501689 24 42.501689 C 13.798986 42.501689 5.498311 34.201014 5.498311 24 C 5.498311 21 6.197635 18.197635 7.5 15.597973 " transform="matrix(0.770833,0,0,0.770833,0,0)"/>
<path style="fill:none;stroke-width:3;stroke-linecap:round;stroke-linejoin:round;stroke:rgb(9.411765%,9.803922%,24.705882%);stroke-opacity:1;stroke-miterlimit:10;" d="M 13.900338 8.498311 C 16.798986 6.597973 20.199324 5.498311 24 5.498311 C 34.201014 5.498311 42.501689 13.798986 42.501689 24 C 42.501689 27.400338 41.599662 30.597973 39.998311 33.298986 " transform="matrix(0.770833,0,0,0.770833,0,0)"/>
<path style=" stroke:none;fill-rule:nonzero;fill:rgb(9.411765%,9.803922%,24.705882%);fill-opacity:1;" d="M 13.105469 22.355469 L 16.1875 22.355469 L 16.1875 32.527344 C 16.957031 32.683594 17.730469 32.761719 18.5 32.761719 C 19.269531 32.761719 20.042969 32.683594 20.8125 32.527344 L 20.8125 22.355469 L 23.585938 22.355469 C 23.972656 22.355469 24.28125 22.046875 24.359375 21.660156 L 24.667969 19.347656 C 24.667969 19.117188 24.589844 18.886719 24.511719 18.730469 C 24.359375 18.578125 24.128906 18.5 23.894531 18.5 L 20.8125 18.5 L 20.8125 15.800781 C 20.8125 14.953125 21.507812 14.261719 22.355469 14.261719 L 23.894531 14.261719 C 24.359375 14.261719 24.667969 13.953125 24.667969 13.488281 L 24.667969 10.867188 C 24.667969 10.484375 24.359375 10.097656 23.972656 10.097656 C 23.894531 10.097656 22.816406 10.019531 21.429688 10.019531 C 18.039062 10.019531 16.1875 12.023438 16.1875 15.726562 L 16.1875 18.5 L 13.105469 18.5 C 12.640625 18.5 12.332031 18.808594 12.332031 19.269531 L 12.332031 21.582031 C 12.332031 22.046875 12.640625 22.355469 13.105469 22.355469 Z M 13.105469 22.355469 "/>
</g>
</svg>
