<?xml version="1.0" encoding="UTF-8"?>
<svg xmlns="http://www.w3.org/2000/svg" xmlns:xlink="http://www.w3.org/1999/xlink" width="37.5pt" height="37.5pt" viewBox="0 0 37.5 37.5" version="1.1">
<g id="surface1432">
<path style=" stroke:none;fill-rule:nonzero;fill:rgb(56.470591%,79.215688%,97.647059%);fill-opacity:1;" d="M 30.925781 33.917969 L 12.238281 33.917969 C 10.589844 33.917969 9.25 32.578125 9.25 30.925781 L 9.25 12.238281 C 9.25 10.589844 10.589844 9.25 12.238281 9.25 L 30.925781 9.25 C 32.578125 9.25 33.917969 10.589844 33.917969 12.238281 L 33.917969 30.925781 C 33.917969 32.578125 32.578125 33.917969 30.925781 33.917969 Z M 30.925781 33.917969 "/>
<path style=" stroke:none;fill-rule:nonzero;fill:rgb(9.411765%,9.803922%,24.705882%);fill-opacity:1;" d="M 15.417969 22.355469 L 18.5 22.355469 L 18.5 31.785156 C 19.253906 31.910156 20.023438 31.988281 20.8125 31.988281 C 21.601562 31.988281 22.371094 31.910156 23.125 31.785156 L 23.125 22.355469 L 25.917969 22.355469 C 26.308594 22.355469 26.636719 22.0625 26.683594 21.679688 L 26.972656 19.367188 C 27 19.148438 26.933594 18.925781 26.785156 18.761719 C 26.640625 18.59375 26.429688 18.5 26.207031 18.5 L 23.125 18.5 L 23.125 15.800781 C 23.125 14.953125 23.816406 14.261719 24.667969 14.261719 L 26.207031 14.261719 C 26.632812 14.261719 26.980469 13.914062 26.980469 13.488281 L 26.980469 10.886719 C 26.980469 10.488281 26.675781 10.15625 26.277344 10.121094 C 26.230469 10.117188 25.144531 10.019531 23.769531 10.019531 C 20.371094 10.019531 18.5 12.039062 18.5 15.699219 L 18.5 18.5 L 15.417969 18.5 C 14.992188 18.5 14.644531 18.84375 14.644531 19.269531 L 14.644531 21.582031 C 14.644531 22.007812 14.992188 22.355469 15.417969 22.355469 Z M 15.417969 22.355469 "/>
<path style="fill:none;stroke-width:3;stroke-linecap:round;stroke-linejoin:round;stroke:rgb(9.411765%,9.803922%,24.705882%);stroke-opacity:1;stroke-miterlimit:4;" d="M 40.5 31.596284 L 40.5 36.501689 C 40.5 38.711149 38.711149 40.5 36.501689 40.5 L 11.498311 40.5 C 9.288851 40.5 7.5 38.711149 7.5 36.501689 L 7.5 20.827703 " transform="matrix(0.770833,0,0,0.770833,0,0)"/>
<path style="fill:none;stroke-width:3;stroke-linecap:round;stroke-linejoin:round;stroke:rgb(9.411765%,9.803922%,24.705882%);stroke-opacity:1;stroke-miterlimit:4;" d="M 7.5 14.0625 L 7.5 11.498311 C 7.5 9.288851 9.288851 7.5 11.498311 7.5 L 36.501689 7.5 C 38.711149 7.5 40.5 9.288851 40.5 11.498311 L 40.5 25.981419 " transform="matrix(0.770833,0,0,0.770833,0,0)"/>
</g>
</svg>
