<?xml version="1.0" encoding="UTF-8"?>
<svg xmlns="http://www.w3.org/2000/svg" xmlns:xlink="http://www.w3.org/1999/xlink" width="37.5pt" height="37.5pt" viewBox="0 0 37.5 37.5" version="1.1">
<g id="surface1356">
<path style=" stroke:none;fill-rule:nonzero;fill:rgb(56.470591%,79.215688%,97.647059%);fill-opacity:1;" d="M 35.457031 21.582031 C 35.457031 29.246094 29.246094 35.457031 21.582031 35.457031 C 13.921875 35.457031 7.707031 29.246094 7.707031 21.582031 C 7.707031 13.921875 13.921875 7.707031 21.582031 7.707031 C 29.246094 7.707031 35.457031 13.921875 35.457031 21.582031 Z M 35.457031 21.582031 "/>
<path style=" stroke:none;fill-rule:nonzero;fill:rgb(9.411765%,9.803922%,24.705882%);fill-opacity:1;" d="M 21.976562 17.109375 L 23.125 17.109375 C 24.402344 17.109375 25.4375 16.074219 25.4375 14.796875 L 25.4375 12.054688 C 25.4375 10.894531 24.582031 9.917969 23.433594 9.761719 C 23.019531 9.707031 22.183594 9.59375 20.671875 9.59375 C 16.367188 9.59375 13.796875 12.320312 13.796875 16.886719 L 13.796875 18.207031 L 13.152344 18.207031 C 11.875 18.207031 10.839844 19.242188 10.839844 20.519531 L 10.839844 23.664062 C 10.839844 24.941406 11.875 25.976562 13.152344 25.976562 L 13.796875 25.976562 L 13.796875 32.375 L 16.109375 32.375 L 16.109375 24.433594 C 16.109375 24.007812 15.761719 23.664062 15.335938 23.664062 L 13.152344 23.664062 L 13.152344 20.519531 L 15.339844 20.519531 C 15.761719 20.519531 16.109375 20.175781 16.109375 19.75 L 16.109375 16.886719 C 16.109375 13.425781 17.796875 11.90625 20.671875 11.90625 C 22.050781 11.90625 22.78125 12.007812 23.125 12.054688 L 23.125 14.796875 L 21.164062 14.796875 C 19.941406 14.796875 19.515625 15.953125 19.515625 17.257812 L 19.515625 19.746094 C 19.515625 20.171875 19.859375 20.519531 20.285156 20.519531 L 23.09375 20.519531 L 22.609375 23.660156 L 20.285156 23.660156 C 19.859375 23.660156 19.515625 24.007812 19.515625 24.433594 L 19.515625 27.632812 C 19.515625 28.273438 20.042969 28.800781 20.683594 28.777344 C 20.691406 28.777344 20.699219 28.773438 20.707031 28.773438 C 21.328125 28.753906 21.824219 28.253906 21.824219 27.632812 L 21.824219 25.972656 L 22.609375 25.972656 C 23.75 25.972656 24.71875 25.140625 24.894531 24.015625 L 25.363281 20.972656 C 25.402344 20.777344 25.417969 20.574219 25.402344 20.367188 C 25.324219 19.125 24.207031 18.207031 22.96875 18.207031 L 21.828125 18.207031 L 21.828125 17.257812 C 21.886719 17.199219 21.917969 17.167969 21.976562 17.109375 Z M 21.976562 17.109375 "/>
<path style="fill:none;stroke-width:3;stroke-linecap:round;stroke-linejoin:round;stroke:rgb(9.411765%,9.803922%,24.705882%);stroke-opacity:1;stroke-miterlimit:10;" d="M 35.766892 38.275338 C 32.569257 40.915541 28.469595 42.501689 24 42.501689 C 13.783784 42.501689 5.498311 34.216216 5.498311 24 C 5.498311 20.807432 6.309122 17.802365 7.733108 15.182432 " transform="matrix(0.770833,0,0,0.770833,0,0)"/>
<path style="fill:none;stroke-width:3;stroke-linecap:round;stroke-linejoin:round;stroke:rgb(9.411765%,9.803922%,24.705882%);stroke-opacity:1;stroke-miterlimit:10;" d="M 14.057432 8.396959 C 16.930743 6.5625 20.341216 5.498311 24 5.498311 C 34.216216 5.498311 42.501689 13.783784 42.501689 24 C 42.501689 26.498311 42.005068 28.885135 41.103041 31.059122 " transform="matrix(0.770833,0,0,0.770833,0,0)"/>
</g>
</svg>
