<?xml version="1.0" encoding="UTF-8"?>
<svg xmlns="http://www.w3.org/2000/svg" xmlns:xlink="http://www.w3.org/1999/xlink" width="37.5pt" height="37.5pt" viewBox="0 0 37.5 37.5" version="1.1">
<g id="surface4271">
<path style=" stroke:none;fill-rule:nonzero;fill:rgb(100%,87.843138%,50.980395%);fill-opacity:1;" d="M 28.519531 13.105469 L 20.8125 13.105469 L 17.035156 9.945312 C 16.496094 9.480469 15.726562 9.25 15.03125 9.25 L 9.25 9.25 C 8.015625 9.25 6.9375 10.328125 6.9375 11.640625 L 6.9375 31.605469 C 6.9375 32.914062 8.015625 33.992188 9.328125 33.992188 L 33.917969 33.992188 C 35.226562 33.992188 36.304688 32.914062 36.304688 31.605469 L 36.304688 15.492188 C 36.304688 14.183594 35.226562 13.105469 33.917969 13.105469 Z M 28.519531 13.105469 "/>
<path style="fill:none;stroke-width:3;stroke-linecap:round;stroke-linejoin:round;stroke:rgb(9.411765%,9.803922%,24.705882%);stroke-opacity:1;stroke-miterlimit:10;" d="M 5.498311 29.802365 L 5.498311 36.501689 C 5.498311 38.199324 6.800676 39.501689 8.498311 39.501689 L 39.501689 39.501689 C 41.199324 39.501689 42.501689 38.199324 42.501689 36.501689 L 42.501689 16.5 C 42.501689 14.802365 41.199324 13.5 39.501689 13.5 L 38.402027 13.5 " transform="matrix(0.770833,0,0,0.770833,0,0)"/>
<path style="fill:none;stroke-width:3;stroke-linecap:round;stroke-linejoin:round;stroke:rgb(9.411765%,9.803922%,24.705882%);stroke-opacity:1;stroke-miterlimit:10;" d="M 32.701014 13.5 L 23.498311 13.5 L 18.597973 9.400338 C 17.898649 8.802365 17.001689 8.498311 15.998311 8.498311 L 8.498311 8.498311 C 6.800676 8.498311 5.498311 9.800676 5.498311 11.498311 L 5.498311 23.199324 " transform="matrix(0.770833,0,0,0.770833,0,0)"/>
<path style="fill:none;stroke-width:3;stroke-linecap:round;stroke-linejoin:round;stroke:rgb(9.411765%,9.803922%,24.705882%);stroke-opacity:1;stroke-miterlimit:10;" d="M 6 16.5 L 18.101351 16.5 C 18.998311 16.5 19.900338 16.201014 20.701014 15.597973 L 23.001689 13.697635 " transform="matrix(0.770833,0,0,0.770833,0,0)"/>
</g>
</svg>
