<?xml version="1.0" encoding="UTF-8"?>
<svg xmlns="http://www.w3.org/2000/svg" xmlns:xlink="http://www.w3.org/1999/xlink" width="37.5pt" height="37.5pt" viewBox="0 0 37.5 37.5" version="1.1">
<g id="surface4345">
<path style=" stroke:none;fill-rule:nonzero;fill:rgb(100%,87.843138%,50.980395%);fill-opacity:1;" d="M 21.199219 13.488281 L 17.421875 10.328125 C 16.882812 9.867188 16.1875 9.636719 15.417969 9.636719 L 9.558594 9.636719 C 8.246094 9.636719 7.246094 10.636719 7.246094 11.949219 L 7.246094 31.21875 C 7.246094 32.527344 8.246094 33.53125 9.558594 33.53125 L 33.453125 33.53125 C 34.765625 33.53125 35.765625 32.527344 35.765625 31.21875 L 35.765625 15.800781 C 35.765625 14.492188 34.765625 13.488281 33.453125 13.488281 Z M 21.199219 13.488281 "/>
<path style="fill:none;stroke-width:3;stroke-linecap:round;stroke-linejoin:round;stroke:rgb(9.411765%,9.803922%,24.705882%);stroke-opacity:1;stroke-miterlimit:4;" d="M 42.501689 27.400338 L 42.501689 16.5 C 42.501689 14.802365 41.199324 13.5 39.501689 13.5 L 23.498311 13.5 L 18.597973 9.400338 C 17.898649 8.802365 17.001689 8.498311 15.998311 8.498311 L 8.498311 8.498311 C 6.800676 8.498311 5.498311 9.800676 5.498311 11.498311 L 5.498311 17.498311 " transform="matrix(0.770833,0,0,0.770833,0,0)"/>
<path style="fill:none;stroke-width:3;stroke-linecap:round;stroke-linejoin:round;stroke:rgb(9.411765%,9.803922%,24.705882%);stroke-opacity:1;stroke-miterlimit:4;" d="M 5.498311 24.298986 L 5.498311 36.501689 C 5.498311 38.199324 6.800676 39.501689 8.498311 39.501689 L 39.501689 39.501689 C 41.199324 39.501689 42.501689 38.199324 42.501689 36.501689 L 42.501689 33.501689 " transform="matrix(0.770833,0,0,0.770833,0,0)"/>
</g>
</svg>
