<?xml version="1.0" encoding="UTF-8"?>
<svg xmlns="http://www.w3.org/2000/svg" xmlns:xlink="http://www.w3.org/1999/xlink" width="37.5pt" height="37.5pt" viewBox="0 0 37.5 37.5" version="1.1">
<g id="surface4432">
<path style=" stroke:none;fill-rule:nonzero;fill:rgb(100%,87.843138%,50.980395%);fill-opacity:1;" d="M 34.765625 18.886719 L 32.375 18.886719 L 32.375 15.878906 C 32.375 14.644531 31.371094 13.644531 30.140625 13.644531 L 18.808594 13.644531 L 15.109375 10.558594 C 14.570312 10.097656 13.875 9.867188 13.179688 9.867188 L 8.246094 9.867188 C 7.015625 9.867188 6.011719 10.867188 6.011719 12.101562 L 6.011719 30.910156 C 6.011719 31.066406 6.011719 31.140625 6.011719 31.296875 C 5.859375 32.222656 6.550781 33.144531 7.554688 33.144531 L 30.0625 33.144531 C 30.140625 33.144531 30.214844 33.144531 30.292969 33.144531 C 30.910156 33.070312 31.371094 32.761719 31.757812 32.296875 C 31.757812 32.296875 31.835938 32.222656 31.835938 32.222656 C 31.835938 32.222656 31.914062 32.144531 31.914062 32.144531 C 31.988281 31.988281 32.144531 31.835938 32.222656 31.605469 L 36.230469 21.042969 C 36.691406 19.964844 35.921875 18.886719 34.765625 18.886719 Z M 34.765625 18.886719 "/>
<path style="fill:none;stroke-width:3;stroke-linecap:round;stroke-linejoin:round;stroke:rgb(9.411765%,9.803922%,24.705882%);stroke-opacity:1;stroke-miterlimit:4;" d="M 3.501689 18.699324 L 3.501689 36.501689 C 3.501689 38.199324 4.798986 39.501689 6.501689 39.501689 L 35.498311 39.501689 " transform="matrix(0.770833,0,0,0.770833,0,0)"/>
<path style="fill:none;stroke-width:3;stroke-linecap:round;stroke-linejoin:round;stroke:rgb(9.411765%,9.803922%,24.705882%);stroke-opacity:1;stroke-miterlimit:4;" d="M 38.498311 16.5 C 38.498311 14.802365 37.201014 13.5 35.498311 13.5 L 20.498311 13.5 L 15.597973 9.400338 C 14.898649 8.802365 14.001689 8.498311 12.998311 8.498311 L 6.501689 8.498311 C 4.798986 8.498311 3.501689 9.800676 3.501689 11.498311 L 3.501689 12.998311 " transform="matrix(0.770833,0,0,0.770833,0,0)"/>
<path style="fill:none;stroke-width:3;stroke-linecap:round;stroke-linejoin:round;stroke:rgb(9.411765%,9.803922%,24.705882%);stroke-opacity:1;stroke-miterlimit:10;" d="M 14.402027 39.501689 L 35.300676 39.501689 C 36.597973 39.501689 37.798986 38.701014 38.300676 37.398649 L 43.601351 24.298986 C 44.097973 22.900338 43.099662 21.400338 41.599662 21.400338 L 14.898649 21.400338 C 13.601351 21.400338 12.400338 22.201014 11.898649 23.498311 L 11.199324 25.5 " transform="matrix(0.770833,0,0,0.770833,0,0)"/>
</g>
</svg>
