<?xml version="1.0" encoding="UTF-8"?>
<svg xmlns="http://www.w3.org/2000/svg" xmlns:xlink="http://www.w3.org/1999/xlink" width="37.5pt" height="37.5pt" viewBox="0 0 37.5 37.5" version="1.1">
<g id="surface1464">
<path style=" stroke:none;fill-rule:nonzero;fill:rgb(62.352943%,65.882355%,85.490197%);fill-opacity:1;" d="M 35.457031 21.582031 C 35.457031 29.246094 29.246094 35.457031 21.582031 35.457031 C 13.921875 35.457031 7.707031 29.246094 7.707031 21.582031 C 7.707031 13.921875 13.921875 7.707031 21.582031 7.707031 C 29.246094 7.707031 35.457031 13.921875 35.457031 21.582031 Z M 35.457031 21.582031 "/>
<path style="fill:none;stroke-width:3;stroke-linecap:round;stroke-linejoin:round;stroke:rgb(9.411765%,9.803922%,24.705882%);stroke-opacity:1;stroke-miterlimit:4;" d="M 35.052365 38.837838 C 31.971284 41.138514 28.14527 42.501689 24 42.501689 C 13.783784 42.501689 5.498311 34.216216 5.498311 24 C 5.498311 21.081081 6.177365 18.324324 7.378378 15.871622 " transform="matrix(0.770833,0,0,0.770833,0,0)"/>
<path style="fill:none;stroke-width:3;stroke-linecap:round;stroke-linejoin:round;stroke:rgb(9.411765%,9.803922%,24.705882%);stroke-opacity:1;stroke-miterlimit:4;" d="M 13.869932 8.518581 C 16.778716 6.608108 20.260135 5.498311 24 5.498311 C 34.216216 5.498311 42.501689 13.783784 42.501689 24 C 42.501689 26.939189 41.8125 29.721284 40.591216 32.189189 " transform="matrix(0.770833,0,0,0.770833,0,0)"/>
<path style=" stroke:none;fill-rule:nonzero;fill:rgb(9.411765%,9.803922%,24.705882%);fill-opacity:1;" d="M 26.207031 17.730469 C 26.207031 16.515625 25.765625 15.386719 25.007812 14.433594 C 25.347656 13.378906 25.722656 11.527344 24.820312 10.082031 C 23.085938 10.082031 21.945312 11.269531 21.402344 12.019531 C 20.503906 11.726562 19.527344 11.5625 18.5 11.5625 C 17.472656 11.5625 16.496094 11.726562 15.597656 12.019531 C 15.054688 11.269531 13.914062 10.082031 12.179688 10.082031 C 11.15625 11.71875 11.773438 13.511719 12.121094 14.265625 C 11.285156 15.253906 10.792969 16.445312 10.792969 17.730469 C 10.792969 20.644531 13.320312 23.078125 16.714844 23.722656 C 15.707031 24.242188 14.953125 25.183594 14.722656 26.328125 L 13.707031 26.328125 C 12.707031 26.328125 12.320312 25.921875 11.78125 25.238281 C 11.246094 24.550781 10.671875 24.089844 9.984375 23.898438 C 9.613281 23.859375 9.363281 24.144531 9.683594 24.394531 C 10.78125 25.136719 10.855469 26.359375 11.292969 27.15625 C 11.691406 27.875 12.511719 28.519531 13.433594 28.519531 L 14.644531 28.519531 L 14.644531 33.101562 L 22.355469 33.101562 L 22.355469 27.085938 C 22.355469 25.613281 21.507812 24.351562 20.285156 23.722656 C 23.679688 23.078125 26.207031 20.644531 26.207031 17.730469 Z M 26.207031 17.730469 "/>
</g>
</svg>
