<?xml version="1.0" encoding="UTF-8"?>
<svg xmlns="http://www.w3.org/2000/svg" xmlns:xlink="http://www.w3.org/1999/xlink" width="37.5pt" height="37.5pt" viewBox="0 0 37.5 37.5" version="1.1">
<g id="surface4289">
<path style=" stroke:none;fill-rule:nonzero;fill:rgb(62.352943%,65.882355%,85.490197%);fill-opacity:1;" d="M 34.6875 34.6875 L 34.6875 19.964844 C 34.6875 18.578125 34.070312 17.191406 32.914062 16.339844 L 22.429688 8.09375 C 22.121094 7.863281 21.738281 7.863281 21.507812 8.09375 L 11.023438 16.339844 C 9.945312 17.191406 9.25 18.578125 9.25 19.964844 L 9.25 34.6875 C 9.25 35.148438 9.558594 35.457031 10.019531 35.457031 L 33.917969 35.457031 C 34.378906 35.457031 34.6875 35.148438 34.6875 34.6875 Z M 34.6875 34.6875 "/>
<path style="fill:none;stroke-width:3;stroke-linecap:round;stroke-linejoin:round;stroke:rgb(9.411765%,9.803922%,24.705882%);stroke-opacity:1;stroke-miterlimit:10;" d="M 13.398649 13.798986 L 9.800676 16.697635 C 8.402027 17.802365 7.5 19.601351 7.5 21.400338 L 7.5 39.501689 C 7.5 40.601351 8.402027 41.498311 9.501689 41.498311 L 29.498311 41.498311 " transform="matrix(0.770833,0,0,0.770833,0,0)"/>
<path style="fill:none;stroke-width:3;stroke-linecap:round;stroke-linejoin:round;stroke:rgb(9.411765%,9.803922%,24.705882%);stroke-opacity:1;stroke-miterlimit:10;" d="M 35.001689 41.498311 L 38.498311 41.498311 C 39.597973 41.498311 40.5 40.601351 40.5 39.501689 L 40.5 21.400338 C 40.5 19.601351 39.699324 17.802365 38.199324 16.697635 L 24.597973 6 C 24.197635 5.701014 23.701014 5.701014 23.402027 6 L 18.800676 9.597973 " transform="matrix(0.770833,0,0,0.770833,0,0)"/>
<path style="fill:none;stroke-width:3;stroke-linecap:round;stroke-linejoin:round;stroke:rgb(9.411765%,9.803922%,24.705882%);stroke-opacity:1;stroke-miterlimit:10;" d="M 18.501689 35.701014 L 18.501689 27.501689 C 18.501689 26.898649 18.902027 26.498311 19.5 26.498311 L 28.398649 26.498311 C 29.001689 26.498311 29.402027 26.898649 29.402027 27.501689 L 29.402027 41.498311 " transform="matrix(0.770833,0,0,0.770833,0,0)"/>
</g>
</svg>
