<?xml version="1.0" encoding="UTF-8"?>
<svg xmlns="http://www.w3.org/2000/svg" xmlns:xlink="http://www.w3.org/1999/xlink" width="37.5pt" height="37.5pt" viewBox="0 0 37.5 37.5" version="1.1">
<g id="surface4450">
<path style=" stroke:none;fill-rule:nonzero;fill:rgb(56.470591%,79.215688%,97.647059%);fill-opacity:1;" d="M 35.84375 21.582031 C 35.84375 29.460938 29.460938 35.84375 21.582031 35.84375 C 13.707031 35.84375 7.324219 29.460938 7.324219 21.582031 C 7.324219 13.707031 13.707031 7.324219 21.582031 7.324219 C 29.460938 7.324219 35.84375 13.707031 35.84375 21.582031 Z M 35.84375 21.582031 "/>
<path style="fill:none;stroke-width:3;stroke-linecap:round;stroke-linejoin:round;stroke:rgb(9.411765%,9.803922%,24.705882%);stroke-opacity:1;stroke-miterlimit:10;" d="M 31.398649 41.001689 C 29.097973 42 26.599662 42.501689 24 42.501689 C 13.798986 42.501689 5.498311 34.201014 5.498311 24 C 5.498311 19.5 7.099662 15.400338 9.699324 12.197635 " transform="matrix(0.770833,0,0,0.770833,0,0)"/>
<path style="fill:none;stroke-width:3;stroke-linecap:round;stroke-linejoin:round;stroke:rgb(9.411765%,9.803922%,24.705882%);stroke-opacity:1;stroke-miterlimit:10;" d="M 16.302365 7.201014 C 18.597973 6.101351 21.298986 5.498311 24 5.498311 C 34.201014 5.498311 42.501689 13.798986 42.501689 24 C 42.501689 27.998311 41.199324 31.697635 39.101351 34.697635 " transform="matrix(0.770833,0,0,0.770833,0,0)"/>
<path style=" stroke:none;fill-rule:nonzero;fill:rgb(9.411765%,9.803922%,24.705882%);fill-opacity:1;" d="M 20.042969 12.332031 C 20.042969 13.183594 19.351562 13.875 18.5 13.875 C 17.648438 13.875 16.957031 13.183594 16.957031 12.332031 C 16.957031 11.480469 17.648438 10.792969 18.5 10.792969 C 19.351562 10.792969 20.042969 11.480469 20.042969 12.332031 Z M 20.042969 12.332031 "/>
<path style="fill:none;stroke-width:3;stroke-linecap:round;stroke-linejoin:miter;stroke:rgb(9.411765%,9.803922%,24.705882%);stroke-opacity:1;stroke-miterlimit:10;" d="M 24 22.5 L 24 33.501689 " transform="matrix(0.770833,0,0,0.770833,0,0)"/>
</g>
</svg>
