<?xml version="1.0" encoding="UTF-8"?>
<svg xmlns="http://www.w3.org/2000/svg" xmlns:xlink="http://www.w3.org/1999/xlink" width="37.5pt" height="37.5pt" viewBox="0 0 37.5 37.5" version="1.1">
<g id="surface1412">
<path style=" stroke:none;fill-rule:nonzero;fill:rgb(95.686275%,56.078434%,69.411767%);fill-opacity:1;" d="M 16.1875 35.457031 L 27.75 35.457031 C 31.988281 35.457031 35.457031 31.988281 35.457031 27.75 L 35.457031 16.1875 C 35.457031 11.949219 31.988281 8.480469 27.75 8.480469 L 16.1875 8.480469 C 11.949219 8.480469 8.480469 11.949219 8.480469 16.1875 L 8.480469 27.75 C 8.480469 31.988281 11.949219 35.457031 16.1875 35.457031 Z M 16.1875 35.457031 "/>
<path style="fill:none;stroke-width:3;stroke-linecap:round;stroke-linejoin:round;stroke:rgb(9.411765%,9.803922%,24.705882%);stroke-opacity:1;stroke-miterlimit:10;" d="M 41.498311 21.101351 L 41.498311 16.5 C 41.498311 11.001689 36.998311 6.501689 31.5 6.501689 L 16.5 6.501689 C 11.001689 6.501689 6.501689 11.001689 6.501689 16.5 L 6.501689 19.5 " transform="matrix(0.770833,0,0,0.770833,0,0)"/>
<path style="fill:none;stroke-width:3;stroke-linecap:round;stroke-linejoin:round;stroke:rgb(9.411765%,9.803922%,24.705882%);stroke-opacity:1;stroke-miterlimit:10;" d="M 6.501689 25.601351 L 6.501689 31.5 C 6.501689 36.998311 11.001689 41.498311 16.5 41.498311 L 31.5 41.498311 C 36.998311 41.498311 41.498311 36.998311 41.498311 31.5 L 41.498311 26.898649 " transform="matrix(0.770833,0,0,0.770833,0,0)"/>
<path style="fill:none;stroke-width:3;stroke-linecap:butt;stroke-linejoin:miter;stroke:rgb(9.411765%,9.803922%,24.705882%);stroke-opacity:1;stroke-miterlimit:10;" d="M 24 15.501689 C 19.302365 15.501689 15.501689 19.302365 15.501689 24 C 15.501689 28.697635 19.302365 32.498311 24 32.498311 C 28.697635 32.498311 32.498311 28.697635 32.498311 24 C 32.498311 19.302365 28.697635 15.501689 24 15.501689 Z M 24 15.501689 " transform="matrix(0.770833,0,0,0.770833,0,0)"/>
<path style=" stroke:none;fill-rule:nonzero;fill:rgb(9.411765%,9.803922%,24.705882%);fill-opacity:1;" d="M 26.207031 9.25 C 25.359375 9.25 24.667969 9.945312 24.667969 10.792969 C 24.667969 11.640625 25.359375 12.332031 26.207031 12.332031 C 27.054688 12.332031 27.75 11.640625 27.75 10.792969 C 27.75 9.945312 27.054688 9.25 26.207031 9.25 Z M 26.207031 9.25 "/>
</g>
</svg>
