<svg xmlns="http://www.w3.org/2000/svg"  viewBox="0 0 48 48" width="48px" height="48px" fill="#ffab91"><path fill="#ffab91" d="M42.028,12.335c-5.151-0.181-8.724-0.212-14.047-0.211c-5.321,0-12.579,0.083-14.044,0.211	C12.279,13.319,9.031,17.234,9,18.218v1.629c0,1.586,1.14,3.016,2.462,3.597c-0.07,1.102-0.111,2.123-0.127,2.939v0.007	c-0.004,0.645-0.006,1.174-0.01,1.91c0.034,3.822-0.379,12.384,1.684,14.488c3.196,0.746,9.078,1.085,14.98,1.087h0	c5.901-0.002,11.783-0.341,14.98-1.085c2.063-2.104,1.651-10.666,1.684-14.487c-0.003-0.736-0.006-1.265-0.009-1.91v-0.007	c-0.017-0.815-0.057-1.835-0.128-2.935c1.33-0.576,2.482-2.01,2.482-3.605v-1.629C46.967,17.234,43.684,13.319,42.028,12.335z"/><path fill="none" stroke="#18193f" stroke-linecap="round" stroke-linejoin="round" stroke-miterlimit="10" stroke-width="3" d="M13.084,7.223c-1.507,0.031-2.654,0.069-3.147,0.112l0,0C8.279,8.319,5.031,12.234,5,13.218v1.629c0,2.065,1.93,3.879,3.682,3.879	c2.104,0,3.857-1.585,3.857-3.655c0,2.069,1.693,3.655,3.797,3.655c2.104,0,3.742-1.585,3.742-3.655	c0,2.069,1.799,3.655,3.903,3.655h0.038c2.104,0,3.905-1.585,3.905-3.655c0,2.069,1.638,3.655,3.741,3.655s3.797-1.585,3.797-3.655	c0,2.069,1.753,3.655,3.857,3.655c1.751,0,3.681-1.814,3.681-3.879v-1.629c-0.033-0.984-3.316-4.899-4.972-5.883	c-5.151-0.181-8.724-0.212-14.047-0.211c-1.65,0-3.487,0.008-5.279,0.023"/><path fill="none" stroke="#18193f" stroke-linecap="round" stroke-linejoin="round" stroke-miterlimit="10" stroke-width="3" d="M18.706,40.78c1.71,0.064,3.496,0.096,5.284,0.097h0.001c5.901-0.002,11.783-0.341,14.98-1.085	c2.063-2.104,1.651-10.666,1.684-14.487c-0.001-0.208-0.002-0.399-0.003-0.581"/><path fill="none" stroke="#18193f" stroke-linecap="round" stroke-linejoin="round" stroke-miterlimit="10" stroke-width="3" d="M7.609,18.553c-0.174,1.821-0.249,3.561-0.274,4.831v0.007c-0.004,0.645-0.006,1.174-0.009,1.91	C7.36,29.123,6.947,37.685,9.01,39.789c0.703,0.164,1.537,0.309,2.472,0.434"/><path fill="#18193f" d="M35.163,32.232l-1.47-5.268c-1.367-3.839-3.328-3.839-3.819-3.839v0.001h-0.003	c-1.038,0.003-1.959,0-3.102,1.246c-0.9-0.094-1.839-0.142-2.78-0.141h-0.001c-0.941-0.001-1.88,0.046-2.78,0.14	c-1.141-1.247-2.066-1.245-3.104-1.247c-0.49,0-2.45,0.001-3.818,3.84l-1.468,5.268c-1.088,3.917,0.348,4.014,2.14,4.017	c2.658-0.099,4.129-2.029,4.129-3.959c1.47,0.241,3.187,0.362,4.903,0.362h0.001c1.716,0,3.433-0.12,4.904-0.362	c0,1.929,1.471,3.861,4.129,3.959C34.815,36.247,36.252,36.151,35.163,32.232z M25.624,29.363v1.888c0,0.08-3.281,0.08-3.281,0	v-1.888l-1.872,0.078c0.535-0.973,3.513-3.707,3.515-3.71v-0.001h0l0,0v0.001c0,0,2.98,2.737,3.515,3.71L25.624,29.363z"/></svg>