<?xml version="1.0" encoding="UTF-8"?>
<svg xmlns="http://www.w3.org/2000/svg" xmlns:xlink="http://www.w3.org/1999/xlink" width="37.5pt" height="37.5pt" viewBox="0 0 37.5 37.5" version="1.1">
<g id="surface1482">
<path style=" stroke:none;fill-rule:nonzero;fill:rgb(56.470591%,79.215688%,97.647059%);fill-opacity:1;" d="M 35.457031 21.582031 C 35.457031 29.246094 29.246094 35.457031 21.582031 35.457031 C 13.921875 35.457031 7.707031 29.246094 7.707031 21.582031 C 7.707031 13.921875 13.921875 7.707031 21.582031 7.707031 C 29.246094 7.707031 35.457031 13.921875 35.457031 21.582031 Z M 35.457031 21.582031 "/>
<path style=" stroke:none;fill-rule:nonzero;fill:rgb(9.411765%,9.803922%,24.705882%);fill-opacity:1;" d="M 13.875 11.949219 C 13.875 13.011719 13.011719 13.875 11.949219 13.875 C 10.882812 13.875 10.019531 13.011719 10.019531 11.949219 C 10.019531 10.882812 10.882812 10.019531 11.949219 10.019531 C 13.011719 10.019531 13.875 10.882812 13.875 11.949219 Z M 13.875 11.949219 "/>
<path style=" stroke:none;fill-rule:nonzero;fill:rgb(9.411765%,9.803922%,24.705882%);fill-opacity:1;" d="M 13.105469 26.980469 L 10.792969 26.980469 C 10.367188 26.980469 10.019531 26.632812 10.019531 26.207031 L 10.019531 16.1875 C 10.019531 15.761719 10.367188 15.417969 10.792969 15.417969 L 13.105469 15.417969 C 13.53125 15.417969 13.875 15.761719 13.875 16.1875 L 13.875 26.207031 C 13.875 26.632812 13.53125 26.980469 13.105469 26.980469 Z M 13.105469 26.980469 "/>
<path style=" stroke:none;fill-rule:nonzero;fill:rgb(9.411765%,9.803922%,24.705882%);fill-opacity:1;" d="M 22.355469 15.417969 C 21.167969 15.417969 20.089844 15.867188 19.269531 16.605469 L 19.269531 16.1875 C 19.269531 15.761719 18.925781 15.417969 18.5 15.417969 L 16.1875 15.417969 C 15.761719 15.417969 15.417969 15.761719 15.417969 16.1875 L 15.417969 26.207031 C 15.417969 26.632812 15.761719 26.980469 16.1875 26.980469 L 18.5 26.980469 C 18.925781 26.980469 19.269531 26.632812 19.269531 26.207031 L 19.269531 20.425781 C 19.269531 19.363281 20.136719 18.5 21.199219 18.5 C 22.261719 18.5 23.125 19.363281 23.125 20.425781 L 23.125 26.207031 C 23.125 26.632812 23.46875 26.980469 23.894531 26.980469 L 26.207031 26.980469 C 26.632812 26.980469 26.980469 26.632812 26.980469 26.207031 L 26.980469 20.042969 C 26.980469 17.492188 24.90625 15.417969 22.355469 15.417969 Z M 22.355469 15.417969 "/>
<path style="fill:none;stroke-width:3;stroke-linecap:round;stroke-linejoin:round;stroke:rgb(9.411765%,9.803922%,24.705882%);stroke-opacity:1;stroke-miterlimit:10;" d="M 30.1875 41.4375 C 28.251689 42.126689 26.168919 42.501689 24 42.501689 C 13.783784 42.501689 5.498311 34.216216 5.498311 24 C 5.498311 19.3125 7.246622 15.030405 10.119932 11.766892 " transform="matrix(0.770833,0,0,0.770833,0,0)"/>
<path style="fill:none;stroke-width:3;stroke-linecap:round;stroke-linejoin:round;stroke:rgb(9.411765%,9.803922%,24.705882%);stroke-opacity:1;stroke-miterlimit:10;" d="M 16.981419 6.876689 C 19.14527 5.989865 21.516892 5.498311 24 5.498311 C 34.216216 5.498311 42.501689 13.783784 42.501689 24 C 42.501689 29.265203 40.297297 34.018581 36.765203 37.388514 " transform="matrix(0.770833,0,0,0.770833,0,0)"/>
</g>
</svg>
