<?xml version="1.0" encoding="UTF-8"?>
<svg xmlns="http://www.w3.org/2000/svg" xmlns:xlink="http://www.w3.org/1999/xlink" width="37.5pt" height="37.5pt" viewBox="0 0 37.5 37.5" version="1.1">
<g id="surface1441">
<path style=" stroke:none;fill-rule:nonzero;fill:rgb(54.901963%,90.588236%,94.901961%);fill-opacity:1;" d="M 30.832031 33.917969 L 11.5625 33.917969 C 9.867188 33.917969 8.480469 32.527344 8.480469 30.832031 L 8.480469 11.5625 C 8.480469 9.867188 9.867188 8.480469 11.5625 8.480469 L 30.832031 8.480469 C 32.527344 8.480469 33.917969 9.867188 33.917969 11.5625 L 33.917969 30.832031 C 33.917969 32.527344 32.527344 33.917969 30.832031 33.917969 Z M 30.832031 33.917969 "/>
<path style="fill:none;stroke-width:3;stroke-linecap:round;stroke-linejoin:round;stroke:rgb(9.411765%,9.803922%,24.705882%);stroke-opacity:1;stroke-miterlimit:10;" d="M 40.5 31.697635 L 40.5 36.501689 C 40.5 38.701014 38.701014 40.5 36.501689 40.5 L 11.498311 40.5 C 9.298986 40.5 7.5 38.701014 7.5 36.501689 L 7.5 24.902027 " transform="matrix(0.770833,0,0,0.770833,0,0)"/>
<path style="fill:none;stroke-width:3;stroke-linecap:round;stroke-linejoin:round;stroke:rgb(9.411765%,9.803922%,24.705882%);stroke-opacity:1;stroke-miterlimit:10;" d="M 7.5 19.201014 L 7.5 11.498311 C 7.5 9.298986 9.298986 7.5 11.498311 7.5 L 36.501689 7.5 C 38.701014 7.5 40.5 9.298986 40.5 11.498311 L 40.5 25.5 " transform="matrix(0.770833,0,0,0.770833,0,0)"/>
<path style=" stroke:none;fill-rule:nonzero;fill:rgb(9.411765%,9.803922%,24.705882%);fill-opacity:1;" d="M 13.875 11.949219 C 13.875 13.011719 13.011719 13.875 11.949219 13.875 C 10.882812 13.875 10.019531 13.011719 10.019531 11.949219 C 10.019531 10.882812 10.882812 10.019531 11.949219 10.019531 C 13.011719 10.019531 13.875 10.882812 13.875 11.949219 Z M 13.875 11.949219 "/>
<path style=" stroke:none;fill-rule:nonzero;fill:rgb(9.411765%,9.803922%,24.705882%);fill-opacity:1;" d="M 13.105469 26.980469 L 10.792969 26.980469 C 10.328125 26.980469 10.019531 26.671875 10.019531 26.207031 L 10.019531 16.1875 C 10.019531 15.726562 10.328125 15.417969 10.792969 15.417969 L 13.105469 15.417969 C 13.566406 15.417969 13.875 15.726562 13.875 16.1875 L 13.875 26.207031 C 13.875 26.671875 13.566406 26.980469 13.105469 26.980469 Z M 13.105469 26.980469 "/>
<path style=" stroke:none;fill-rule:nonzero;fill:rgb(9.411765%,9.803922%,24.705882%);fill-opacity:1;" d="M 22.355469 15.417969 C 21.199219 15.417969 20.117188 15.878906 19.269531 16.574219 L 19.269531 16.1875 C 19.269531 15.726562 18.960938 15.417969 18.5 15.417969 L 16.1875 15.417969 C 15.726562 15.417969 15.417969 15.726562 15.417969 16.1875 L 15.417969 26.207031 C 15.417969 26.671875 15.726562 26.980469 16.1875 26.980469 L 18.5 26.980469 C 18.960938 26.980469 19.269531 26.671875 19.269531 26.207031 L 19.269531 20.425781 C 19.269531 19.347656 20.117188 18.5 21.199219 18.5 C 22.277344 18.5 23.125 19.347656 23.125 20.425781 L 23.125 26.207031 C 23.125 26.671875 23.433594 26.980469 23.894531 26.980469 L 26.207031 26.980469 C 26.671875 26.980469 26.980469 26.671875 26.980469 26.207031 L 26.980469 20.042969 C 26.980469 17.496094 24.898438 15.417969 22.355469 15.417969 Z M 22.355469 15.417969 "/>
</g>
</svg>
