<?xml version="1.0" encoding="UTF-8"?>
<svg xmlns="http://www.w3.org/2000/svg" xmlns:xlink="http://www.w3.org/1999/xlink" width="36pt" height="36pt" viewBox="0 0 36 36" version="1.1">
<g id="surface1263">
<path style=" stroke:none;fill-rule:nonzero;fill:rgb(100%,67.058825%,56.862748%);fill-opacity:1;" d="M 32.851562 25.351562 C 32.851562 23.550781 30.898438 22.800781 30.523438 22.875 C 30.523438 21.148438 30.523438 19.050781 30.523438 19.050781 C 30.523438 17.625 26.699219 15.976562 20.925781 15.976562 C 15.148438 15.976562 11.324219 17.625 11.324219 19.050781 C 11.324219 19.050781 11.324219 21.148438 11.324219 22.875 C 10.949219 22.800781 9 23.476562 9 25.351562 C 9 27.675781 10.199219 27.976562 11.398438 28.273438 C 11.398438 28.273438 11.398438 28.351562 11.398438 28.351562 C 11.398438 33.074219 14.851562 33.300781 16.199219 34.125 C 17.699219 34.949219 18.375 35.925781 20.851562 35.925781 C 23.324219 35.925781 24 34.949219 25.5 34.125 C 26.851562 33.375 30.300781 33.148438 30.300781 28.351562 C 30.300781 28.351562 30.300781 28.273438 30.300781 28.273438 C 31.648438 27.976562 32.851562 27.675781 32.851562 25.351562 Z M 32.851562 25.351562 "/>
<path style=" stroke:none;fill-rule:nonzero;fill:rgb(100%,67.058825%,56.862748%);fill-opacity:1;" d="M 32.101562 23.699219 C 32.101562 23.699219 35.175781 22.949219 35.175781 19.125 C 35.175781 15.601562 30.148438 6.148438 21 6.148438 C 11.773438 6.074219 6.824219 15.523438 6.824219 19.050781 C 6.824219 22.5 9.898438 23.625 9.898438 23.625 "/>
<path style="fill:none;stroke-width:3;stroke-linecap:round;stroke-linejoin:round;stroke:rgb(9.411765%,9.803922%,24.705882%);stroke-opacity:1;stroke-miterlimit:4;" d="M 36.197917 21.901042 C 34 22.5 29.401042 23.5 24 23.5 C 18.598958 23.5 13.901042 22.401042 11.802083 21.901042 " transform="matrix(0.75,0,0,0.75,0,0)"/>
<path style=" stroke:none;fill-rule:nonzero;fill:rgb(9.411765%,9.803922%,24.705882%);fill-opacity:1;" d="M 15.75 21.375 C 15.75 22.410156 15.246094 23.25 14.625 23.25 C 14.003906 23.25 13.5 22.410156 13.5 21.375 C 13.5 20.339844 14.003906 19.5 14.625 19.5 C 15.246094 19.5 15.75 20.339844 15.75 21.375 Z M 15.75 21.375 "/>
<path style=" stroke:none;fill-rule:nonzero;fill:rgb(9.411765%,9.803922%,24.705882%);fill-opacity:1;" d="M 22.5 21.375 C 22.5 22.410156 21.996094 23.25 21.375 23.25 C 20.753906 23.25 20.25 22.410156 20.25 21.375 C 20.25 20.339844 20.753906 19.5 21.375 19.5 C 21.996094 19.5 22.5 20.339844 22.5 21.375 Z M 22.5 21.375 "/>
<path style=" stroke:none;fill-rule:nonzero;fill:rgb(9.411765%,9.803922%,24.705882%);fill-opacity:1;" d="M 23.101562 23.625 C 22.726562 23.851562 22.273438 24.074219 21.824219 24.226562 C 21.523438 24.375 21.300781 24.601562 21.226562 24.898438 C 20.851562 26.101562 19.574219 27 18 27 C 16.425781 27 15.148438 26.101562 14.773438 24.898438 C 14.699219 24.601562 14.476562 24.300781 14.175781 24.226562 C 13.726562 24 13.273438 23.773438 12.976562 23.550781 C 12.226562 23.101562 11.25 23.550781 11.25 24.449219 C 11.25 24.449219 11.25 24.449219 11.25 24.523438 C 11.25 26.476562 12.523438 26.550781 12.523438 26.550781 C 12.523438 26.550781 12.675781 28.425781 14.023438 28.425781 C 14.625 28.425781 15 28.125 15 28.125 C 15.074219 28.199219 15.675781 29.324219 16.648438 29.324219 C 17.398438 29.324219 17.925781 28.800781 17.925781 28.800781 C 17.925781 28.800781 18.523438 29.324219 19.273438 29.324219 C 20.175781 29.324219 20.851562 28.199219 20.851562 28.199219 C 20.851562 28.199219 21.226562 28.5 21.898438 28.5 C 22.574219 28.5 23.25 27.976562 23.398438 26.625 C 23.925781 26.625 24.675781 25.800781 24.675781 24.675781 C 24.675781 24.675781 24.675781 24.675781 24.675781 24.601562 C 24.75 23.699219 23.851562 23.175781 23.101562 23.625 Z M 23.101562 23.625 "/>
<path style="fill:none;stroke-width:3;stroke-linecap:round;stroke-linejoin:round;stroke:rgb(9.411765%,9.803922%,24.705882%);stroke-opacity:1;stroke-miterlimit:4;" d="M 35.697917 20.197917 C 34 18.802083 29.697917 17.5 24 17.5 C 16.5 17.5 11.5 19.598958 11.5 21.5 C 11.5 21.5 11.5 24.197917 11.5 26.5 C 11 26.401042 8.5 27.302083 8.5 29.697917 C 8.5 32.697917 10.098958 33.197917 11.598958 33.5 C 11.598958 33.5 11.598958 33.598958 11.598958 33.598958 C 11.598958 39.802083 16.197917 40.098958 17.901042 41.098958 C 19.802083 42.197917 20.802083 43.5 24 43.5 C 27.197917 43.5 28.197917 42.302083 30.098958 41.098958 " transform="matrix(0.75,0,0,0.75,0,0)"/>
<path style="fill:none;stroke-width:3;stroke-linecap:round;stroke-linejoin:round;stroke:rgb(9.411765%,9.803922%,24.705882%);stroke-opacity:1;stroke-miterlimit:4;" d="M 34.901042 38.401042 C 35.802083 37.401042 36.401042 35.901042 36.401042 33.598958 C 36.401042 33.598958 36.401042 33.5 36.401042 33.5 C 37.901042 33.098958 39.5 32.697917 39.5 29.697917 C 39.5 27.302083 37 26.401042 36.5 26.5 C 36.5 24.197917 36.5 21.5 36.5 21.5 C 36.5 21.098958 36.197917 20.598958 35.697917 20.197917 " transform="matrix(0.75,0,0,0.75,0,0)"/>
<path style="fill:none;stroke-width:3;stroke-linecap:round;stroke-linejoin:round;stroke:rgb(9.411765%,9.803922%,24.705882%);stroke-opacity:1;stroke-miterlimit:4;" d="M 6.901042 16.5 C 6 18.5 5.5 20.302083 5.5 21.5 C 5.5 25.098958 8 26.697917 9 27.302083 " transform="matrix(0.75,0,0,0.75,0,0)"/>
<path style="fill:none;stroke-width:3;stroke-linecap:round;stroke-linejoin:round;stroke:rgb(9.411765%,9.803922%,24.705882%);stroke-opacity:1;stroke-miterlimit:4;" d="M 39 27.302083 C 40 26.901042 42.5 25.401042 42.5 21.5 C 42.5 16.901042 36 4.5 24 4.5 C 18.302083 4.5 13.802083 7.302083 10.697917 10.697917 " transform="matrix(0.75,0,0,0.75,0,0)"/>
<path style=" stroke:none;fill-rule:nonzero;fill:rgb(9.411765%,9.803922%,24.705882%);fill-opacity:1;" d="M 20.175781 11.023438 L 19.5 8.25 L 18.300781 9.601562 C 18.148438 9.75 17.925781 9.75 17.773438 9.601562 L 16.5 8.25 L 15.824219 11.023438 C 15.75 11.25 15.523438 11.398438 15.375 11.324219 L 13.949219 10.800781 C 13.726562 10.726562 13.648438 10.425781 13.726562 10.273438 L 15.601562 6.300781 C 15.675781 6.074219 15.976562 6 16.125 6.148438 L 17.851562 7.351562 C 18 7.425781 18.148438 7.425781 18.300781 7.351562 L 20.023438 6.148438 C 20.25 6 20.476562 6.074219 20.550781 6.300781 L 22.425781 10.273438 C 22.5 10.5 22.425781 10.726562 22.199219 10.800781 L 20.773438 11.324219 C 20.398438 11.398438 20.175781 11.25 20.175781 11.023438 Z M 20.175781 11.023438 "/>
</g>
</svg>
