<?xml version="1.0" encoding="UTF-8"?>
<svg xmlns="http://www.w3.org/2000/svg" xmlns:xlink="http://www.w3.org/1999/xlink" width="37.5pt" height="37.5pt" viewBox="0 0 37.5 37.5" version="1.1">
<g id="surface4331">
<path style=" stroke:none;fill-rule:nonzero;fill:rgb(62.352943%,65.882355%,85.490197%);fill-opacity:1;" d="M 33.144531 8.480469 L 10.792969 8.480469 C 9.945312 8.480469 9.25 9.171875 9.25 10.019531 L 9.25 12.332031 C 9.25 13.179688 9.945312 13.875 10.792969 13.875 L 33.144531 13.875 C 33.992188 13.875 34.6875 13.179688 34.6875 12.332031 L 34.6875 10.019531 C 34.6875 9.171875 33.992188 8.480469 33.144531 8.480469 Z M 33.144531 8.480469 "/>
<path style=" stroke:none;fill-rule:nonzero;fill:rgb(62.352943%,65.882355%,85.490197%);fill-opacity:1;" d="M 33.144531 18.5 L 10.792969 18.5 C 9.945312 18.5 9.25 19.195312 9.25 20.042969 L 9.25 22.355469 C 9.25 23.203125 9.945312 23.894531 10.792969 23.894531 L 33.144531 23.894531 C 33.992188 23.894531 34.6875 23.203125 34.6875 22.355469 L 34.6875 20.042969 C 34.6875 19.195312 33.992188 18.5 33.144531 18.5 Z M 33.144531 18.5 "/>
<path style=" stroke:none;fill-rule:nonzero;fill:rgb(62.352943%,65.882355%,85.490197%);fill-opacity:1;" d="M 33.144531 28.519531 L 10.792969 28.519531 C 9.945312 28.519531 9.25 29.214844 9.25 30.0625 L 9.25 32.375 C 9.25 33.222656 9.945312 33.917969 10.792969 33.917969 L 33.144531 33.917969 C 33.992188 33.917969 34.6875 33.222656 34.6875 32.375 L 34.6875 30.0625 C 34.6875 29.214844 33.992188 28.519531 33.144531 28.519531 Z M 33.144531 28.519531 "/>
<path style="fill:none;stroke-width:3;stroke-linecap:round;stroke-linejoin:round;stroke:rgb(9.411765%,9.803922%,24.705882%);stroke-opacity:1;stroke-miterlimit:10;" d="M 36.101351 7.5 L 38.498311 7.5 C 39.597973 7.5 40.5 8.402027 40.5 9.501689 L 40.5 12.501689 C 40.5 13.601351 39.597973 14.498311 38.498311 14.498311 L 18 14.498311 " transform="matrix(0.770833,0,0,0.770833,0,0)"/>
<path style="fill:none;stroke-width:3;stroke-linecap:round;stroke-linejoin:round;stroke:rgb(9.411765%,9.803922%,24.705882%);stroke-opacity:1;stroke-miterlimit:10;" d="M 12.998311 14.498311 L 9.501689 14.498311 C 8.402027 14.498311 7.5 13.601351 7.5 12.501689 L 7.5 9.501689 C 7.5 8.402027 8.402027 7.5 9.501689 7.5 L 30.800676 7.5 " transform="matrix(0.770833,0,0,0.770833,0,0)"/>
<path style="fill:none;stroke-width:3;stroke-linecap:round;stroke-linejoin:round;stroke:rgb(9.411765%,9.803922%,24.705882%);stroke-opacity:1;stroke-miterlimit:10;" d="M 13.302365 27.501689 L 9.501689 27.501689 C 8.402027 27.501689 7.5 26.599662 7.5 25.5 L 7.5 22.5 C 7.5 21.400338 8.402027 20.498311 9.501689 20.498311 L 29.498311 20.498311 " transform="matrix(0.770833,0,0,0.770833,0,0)"/>
<path style="fill:none;stroke-width:3;stroke-linecap:round;stroke-linejoin:round;stroke:rgb(9.411765%,9.803922%,24.705882%);stroke-opacity:1;stroke-miterlimit:10;" d="M 35.001689 20.498311 L 38.498311 20.498311 C 39.597973 20.498311 40.5 21.400338 40.5 22.5 L 40.5 25.5 C 40.5 26.599662 39.597973 27.501689 38.498311 27.501689 L 18.501689 27.501689 " transform="matrix(0.770833,0,0,0.770833,0,0)"/>
<path style="fill:none;stroke-width:3;stroke-linecap:round;stroke-linejoin:round;stroke:rgb(9.411765%,9.803922%,24.705882%);stroke-opacity:1;stroke-miterlimit:10;" d="M 13.5 40.5 L 9.501689 40.5 C 8.402027 40.5 7.5 39.597973 7.5 38.498311 L 7.5 35.498311 C 7.5 34.398649 8.402027 33.501689 9.501689 33.501689 L 29.097973 33.501689 " transform="matrix(0.770833,0,0,0.770833,0,0)"/>
<path style="fill:none;stroke-width:3;stroke-linecap:round;stroke-linejoin:round;stroke:rgb(9.411765%,9.803922%,24.705882%);stroke-opacity:1;stroke-miterlimit:10;" d="M 34.201014 33.501689 L 38.498311 33.501689 C 39.597973 33.501689 40.5 34.398649 40.5 35.498311 L 40.5 38.498311 C 40.5 39.597973 39.597973 40.5 38.498311 40.5 L 18.501689 40.5 " transform="matrix(0.770833,0,0,0.770833,0,0)"/>
</g>
</svg>
