<?xml version="1.0" encoding="UTF-8"?>
<svg xmlns="http://www.w3.org/2000/svg" xmlns:xlink="http://www.w3.org/1999/xlink" width="37.5pt" height="37.5pt" viewBox="0 0 37.5 37.5" version="1.1">
<g id="surface2898">
<path style=" stroke:none;fill-rule:nonzero;fill:rgb(95.686275%,56.078434%,69.411767%);fill-opacity:1;" d="M 33.378906 9.097656 L 19.117188 12.332031 C 18.039062 12.566406 17.34375 13.488281 17.34375 14.570312 L 17.34375 17.960938 C 17.34375 18.421875 17.804688 18.808594 18.269531 18.730469 L 33.683594 15.261719 C 34.070312 15.183594 34.300781 14.878906 34.300781 14.492188 L 34.300781 9.945312 C 34.300781 9.328125 33.839844 8.941406 33.378906 9.097656 Z M 33.378906 9.097656 "/>
<path style=" stroke:none;fill-rule:nonzero;fill:rgb(95.686275%,56.078434%,69.411767%);fill-opacity:1;" d="M 17.34375 31.21875 C 17.34375 33.347656 15.273438 35.074219 12.71875 35.074219 C 10.164062 35.074219 8.09375 33.347656 8.09375 31.21875 C 8.09375 29.089844 10.164062 27.363281 12.71875 27.363281 C 15.273438 27.363281 17.34375 29.089844 17.34375 31.21875 Z M 17.34375 31.21875 "/>
<path style=" stroke:none;fill-rule:nonzero;fill:rgb(95.686275%,56.078434%,69.411767%);fill-opacity:1;" d="M 34.300781 28.136719 C 34.300781 30.265625 32.230469 31.988281 29.675781 31.988281 C 27.121094 31.988281 25.050781 30.265625 25.050781 28.136719 C 25.050781 26.007812 27.121094 24.28125 29.675781 24.28125 C 32.230469 24.28125 34.300781 26.007812 34.300781 28.136719 Z M 34.300781 28.136719 "/>
<path style="fill:none;stroke-width:3;stroke-linecap:round;stroke-linejoin:round;stroke:rgb(9.411765%,9.803922%,24.705882%);stroke-opacity:1;stroke-miterlimit:10;" d="M 40.5 15.501689 L 40.5 7.5 L 20.802365 12 C 19.398649 12.298986 18.501689 13.5 18.501689 14.898649 L 18.501689 20.498311 L 33.501689 17.097973 " transform="matrix(0.770833,0,0,0.770833,0,0)"/>
<path style="fill:none;stroke-width:3;stroke-linecap:round;stroke-linejoin:round;stroke:rgb(9.411765%,9.803922%,24.705882%);stroke-opacity:1;stroke-miterlimit:10;" d="M 18.501689 15.501689 L 18.501689 36.501689 " transform="matrix(0.770833,0,0,0.770833,0,0)"/>
<path style="fill:none;stroke-width:3;stroke-linecap:round;stroke-linejoin:round;stroke:rgb(9.411765%,9.803922%,24.705882%);stroke-opacity:1;stroke-miterlimit:10;" d="M 40.5 12.501689 L 40.5 32.498311 " transform="matrix(0.770833,0,0,0.770833,0,0)"/>
<path style="fill:none;stroke-width:3;stroke-linecap:round;stroke-linejoin:round;stroke:rgb(9.411765%,9.803922%,24.705882%);stroke-opacity:1;stroke-miterlimit:10;" d="M 14.097973 31.601351 C 16.697635 32.199324 18.501689 34.099662 18.501689 36.501689 C 18.501689 39.298986 15.800676 41.498311 12.501689 41.498311 C 9.197635 41.498311 6.501689 39.298986 6.501689 36.501689 C 6.501689 35.599662 6.800676 34.798986 7.201014 34.099662 " transform="matrix(0.770833,0,0,0.770833,0,0)"/>
<path style="fill:none;stroke-width:3;stroke-linecap:round;stroke-linejoin:round;stroke:rgb(9.411765%,9.803922%,24.705882%);stroke-opacity:1;stroke-miterlimit:10;" d="M 40.5 32.498311 C 40.5 35.260135 37.814189 37.5 34.5 37.5 C 31.185811 37.5 28.5 35.260135 28.5 32.498311 C 28.5 29.736486 31.185811 27.501689 34.5 27.501689 C 37.814189 27.501689 40.5 29.736486 40.5 32.498311 Z M 40.5 32.498311 " transform="matrix(0.770833,0,0,0.770833,0,0)"/>
</g>
</svg>
