<?xml version="1.0" encoding="UTF-8"?>
<svg xmlns="http://www.w3.org/2000/svg" xmlns:xlink="http://www.w3.org/1999/xlink" width="37.5pt" height="37.5pt" viewBox="0 0 37.5 37.5" version="1.1">
<g id="surface2911">
<path style=" stroke:none;fill-rule:nonzero;fill:rgb(95.686275%,56.078434%,69.411767%);fill-opacity:1;" d="M 35.457031 21.582031 C 35.457031 29.246094 29.246094 35.457031 21.582031 35.457031 C 13.921875 35.457031 7.707031 29.246094 7.707031 21.582031 C 7.707031 13.921875 13.921875 7.707031 21.582031 7.707031 C 29.246094 7.707031 35.457031 13.921875 35.457031 21.582031 Z M 35.457031 21.582031 "/>
<path style="fill:none;stroke-width:3;stroke-linecap:round;stroke-linejoin:round;stroke:rgb(9.411765%,9.803922%,24.705882%);stroke-opacity:1;stroke-miterlimit:10;" d="M 24.501689 17.498311 L 24.501689 30.902027 " transform="matrix(0.770833,0,0,0.770833,0,0)"/>
<path style="fill:none;stroke-width:3;stroke-linecap:round;stroke-linejoin:round;stroke:rgb(9.411765%,9.803922%,24.705882%);stroke-opacity:1;stroke-miterlimit:10;" d="M 17.802365 28.5 C 18.501689 28.201014 19.302365 27.998311 20.199324 27.998311 C 22.601351 27.998311 24.597973 29.498311 24.597973 31.302365 C 24.597973 33.101351 22.601351 34.601351 20.199324 34.601351 C 18.597973 34.601351 17.199324 33.998311 16.5 33 " transform="matrix(0.770833,0,0,0.770833,0,0)"/>
<path style="fill:none;stroke-width:3;stroke-linecap:round;stroke-linejoin:round;stroke:rgb(9.411765%,9.803922%,24.705882%);stroke-opacity:1;stroke-miterlimit:10;" d="M 29.498311 20.599662 L 31.900338 21.197635 C 32.498311 21.400338 33.197635 20.898649 33.197635 20.199324 L 33.197635 17.402027 C 33.197635 16.398649 32.498311 15.501689 31.5 15.298986 L 25.697635 13.697635 C 25.099662 13.5 24.400338 14.001689 24.400338 14.701014 L 24.400338 19.201014 " transform="matrix(0.770833,0,0,0.770833,0,0)"/>
<path style="fill:none;stroke-width:3;stroke-linecap:round;stroke-linejoin:round;stroke:rgb(9.411765%,9.803922%,24.705882%);stroke-opacity:1;stroke-miterlimit:10;" d="M 30.998311 41.097973 C 28.798986 42 26.498311 42.501689 24 42.501689 C 13.798986 42.501689 5.498311 34.201014 5.498311 24 C 5.498311 20.097973 6.699324 16.398649 8.802365 13.398649 " transform="matrix(0.770833,0,0,0.770833,0,0)"/>
<path style="fill:none;stroke-width:3;stroke-linecap:round;stroke-linejoin:round;stroke:rgb(9.411765%,9.803922%,24.705882%);stroke-opacity:1;stroke-miterlimit:10;" d="M 15.800676 7.398649 C 18.298986 6.197635 21 5.498311 24 5.498311 C 34.201014 5.498311 42.501689 13.798986 42.501689 24 C 42.501689 28.798986 40.697635 33.197635 37.697635 36.501689 " transform="matrix(0.770833,0,0,0.770833,0,0)"/>
</g>
</svg>
