<?xml version="1.0" encoding="UTF-8"?>
<svg xmlns="http://www.w3.org/2000/svg" xmlns:xlink="http://www.w3.org/1999/xlink" width="37.5pt" height="37.5pt" viewBox="0 0 37.5 37.5" version="1.1">
<g id="surface2880">
<path style=" stroke:none;fill-rule:nonzero;fill:rgb(95.686275%,56.078434%,69.411767%);fill-opacity:1;" d="M 32.761719 10.175781 L 21.121094 5.472656 C 20.890625 5.320312 20.660156 5.164062 20.351562 5.164062 C 19.734375 5.164062 19.195312 5.703125 19.195312 6.320312 L 19.039062 25.898438 C 17.804688 24.976562 17.882812 24.976562 16.035156 24.976562 C 12.101562 24.976562 8.863281 27.441406 8.863281 30.449219 C 8.863281 33.453125 12.023438 35.921875 16.035156 35.921875 C 19.578125 35.921875 22.507812 33.992188 23.046875 31.371094 C 23.125 31.21875 23.125 14.492188 23.125 14.492188 L 34.378906 18.730469 C 34.917969 18.886719 35.457031 18.578125 35.457031 18.039062 L 35.457031 14.183594 C 35.457031 12.410156 34.378906 10.792969 32.761719 10.175781 Z M 32.761719 10.175781 "/>
<path style="fill:none;stroke-width:3;stroke-linecap:round;stroke-linejoin:miter;stroke:rgb(9.411765%,9.803922%,24.705882%);stroke-opacity:1;stroke-miterlimit:10;" d="M 24.501689 36 C 24.501689 39.597973 20.701014 42.501689 15.998311 42.501689 C 11.300676 42.501689 7.5 39.597973 7.5 36 C 7.5 32.402027 11.300676 29.498311 15.998311 29.498311 C 16.601351 29.498311 17.300676 29.599662 17.898649 29.701014 " transform="matrix(0.770833,0,0,0.770833,0,0)"/>
<path style="fill:none;stroke-width:3;stroke-linecap:round;stroke-linejoin:round;stroke:rgb(9.411765%,9.803922%,24.705882%);stroke-opacity:1;stroke-miterlimit:10;" d="M 24.501689 36 L 24.501689 5.498311 L 37.302365 10.302365 C 39.298986 11.001689 40.5 12.902027 40.5 15 L 40.5 21.501689 L 30.998311 17.898649 " transform="matrix(0.770833,0,0,0.770833,0,0)"/>
</g>
</svg>
