<?xml version="1.0" encoding="UTF-8"?>
<svg xmlns="http://www.w3.org/2000/svg" xmlns:xlink="http://www.w3.org/1999/xlink" width="36pt" height="36pt" viewBox="0 0 36 36" version="1.1">
<g id="surface2293">
<path style=" stroke:none;fill-rule:nonzero;fill:rgb(64.705884%,83.92157%,65.490198%);fill-opacity:1;" d="M 30.074219 33 L 11.925781 33 C 10.351562 33 9 31.726562 9 30.074219 L 9 11.925781 C 9 10.351562 10.273438 9 11.925781 9 L 30.074219 9 C 31.648438 9 33 10.273438 33 11.925781 L 33 30.074219 C 33 31.726562 31.726562 33 30.074219 33 Z M 30.074219 33 "/>
<path style="fill:none;stroke-width:3;stroke-linecap:round;stroke-linejoin:round;stroke:rgb(9.411765%,9.803922%,24.705882%);stroke-opacity:1;stroke-miterlimit:10;" d="M 40.5 33.401042 L 40.5 36.5 C 40.5 38.697917 38.697917 40.5 36.5 40.5 L 11.5 40.5 C 9.302083 40.5 7.5 38.697917 7.5 36.5 L 7.5 20.802083 " transform="matrix(0.75,0,0,0.75,0,0)"/>
<path style="fill:none;stroke-width:3;stroke-linecap:round;stroke-linejoin:round;stroke:rgb(9.411765%,9.803922%,24.705882%);stroke-opacity:1;stroke-miterlimit:10;" d="M 7.5 14.5 L 7.5 11.5 C 7.5 9.302083 9.302083 7.5 11.5 7.5 L 36.5 7.5 C 38.697917 7.5 40.5 9.302083 40.5 11.5 L 40.5 28 " transform="matrix(0.75,0,0,0.75,0,0)"/>
<path style="fill:none;stroke-width:3;stroke-linecap:round;stroke-linejoin:round;stroke:rgb(9.411765%,9.803922%,24.705882%);stroke-opacity:1;stroke-miterlimit:10;" d="M 32.5 27.901042 L 32.5 16.901042 C 32.5 15.697917 31.401042 14.697917 30.197917 14.901042 L 21.197917 16.302083 C 20.197917 16.5 19.5 17.302083 19.5 18.302083 L 19.5 30.901042 " transform="matrix(0.75,0,0,0.75,0,0)"/>
<path style="fill:none;stroke-width:3;stroke-linecap:round;stroke-linejoin:round;stroke:rgb(9.411765%,9.803922%,24.705882%);stroke-opacity:1;stroke-miterlimit:10;" d="M 19.598958 30.901042 C 19.598958 32.5 18.125 33.802083 16.302083 33.802083 C 14.479167 33.802083 13 32.5 13 30.901042 C 13 29.296875 14.479167 28 16.302083 28 C 18.125 28 19.598958 29.296875 19.598958 30.901042 Z M 19.598958 30.901042 " transform="matrix(0.75,0,0,0.75,0,0)"/>
<path style="fill:none;stroke-width:3;stroke-linecap:round;stroke-linejoin:round;stroke:rgb(9.411765%,9.803922%,24.705882%);stroke-opacity:1;stroke-miterlimit:10;" d="M 32.598958 27.901042 C 32.598958 29.5 31.125 30.802083 29.302083 30.802083 C 27.479167 30.802083 26 29.5 26 27.901042 C 26 26.296875 27.479167 25 29.302083 25 C 31.125 25 32.598958 26.296875 32.598958 27.901042 Z M 32.598958 27.901042 " transform="matrix(0.75,0,0,0.75,0,0)"/>
<path style="fill:none;stroke-width:3;stroke-linecap:round;stroke-linejoin:round;stroke:rgb(9.411765%,9.803922%,24.705882%);stroke-opacity:1;stroke-miterlimit:10;" d="M 32.5 19.5 L 23.802083 20.802083 " transform="matrix(0.75,0,0,0.75,0,0)"/>
</g>
</svg>
