<?xml version="1.0" encoding="UTF-8"?>
<svg xmlns="http://www.w3.org/2000/svg" xmlns:xlink="http://www.w3.org/1999/xlink" width="37.5pt" height="37.5pt" viewBox="0 0 37.5 37.5" version="1.1">
<g id="surface4409">
<path style=" stroke:none;fill-rule:nonzero;fill:rgb(56.470591%,79.215688%,97.647059%);fill-opacity:1;" d="M 34.300781 15.800781 L 31.605469 15.800781 L 31.605469 10.40625 C 31.605469 9.558594 30.910156 8.863281 30.0625 8.863281 L 8.863281 8.863281 C 8.015625 8.863281 7.324219 9.558594 7.324219 10.40625 L 7.324219 31.21875 C 7.324219 32.914062 8.710938 34.300781 10.40625 34.300781 L 33.53125 34.300781 C 34.839844 34.300781 35.84375 33.300781 35.84375 31.988281 L 35.84375 17.34375 C 35.84375 16.496094 35.148438 15.800781 34.300781 15.800781 Z M 34.300781 15.800781 "/>
<path style="fill:none;stroke-width:3;stroke-linecap:round;stroke-linejoin:round;stroke:rgb(9.411765%,9.803922%,24.705882%);stroke-opacity:1;stroke-miterlimit:10;" d="M 11.498311 16.5 L 30.501689 16.5 " transform="matrix(0.770833,0,0,0.770833,0,0)"/>
<path style="fill:none;stroke-width:3;stroke-linecap:round;stroke-linejoin:round;stroke:rgb(9.411765%,9.803922%,24.705882%);stroke-opacity:1;stroke-miterlimit:10;" d="M 24.998311 24.501689 L 30.501689 24.501689 " transform="matrix(0.770833,0,0,0.770833,0,0)"/>
<path style="fill:none;stroke-width:3;stroke-linecap:round;stroke-linejoin:round;stroke:rgb(9.411765%,9.803922%,24.705882%);stroke-opacity:1;stroke-miterlimit:10;" d="M 24.998311 31.5 L 30.501689 31.5 " transform="matrix(0.770833,0,0,0.770833,0,0)"/>
<path style="fill:none;stroke-width:3;stroke-linecap:round;stroke-linejoin:round;stroke:rgb(9.411765%,9.803922%,24.705882%);stroke-opacity:1;stroke-miterlimit:10;" d="M 11.498311 24.501689 L 18.501689 24.501689 L 18.501689 31.5 L 11.498311 31.5 Z M 11.498311 24.501689 " transform="matrix(0.770833,0,0,0.770833,0,0)"/>
<path style="fill:none;stroke-width:3;stroke-linecap:round;stroke-linejoin:round;stroke:rgb(9.411765%,9.803922%,24.705882%);stroke-opacity:1;stroke-miterlimit:10;" d="M 5.498311 26.001689 L 5.498311 10.5 C 5.498311 8.802365 6.800676 7.5 8.498311 7.5 L 33.501689 7.5 C 35.199324 7.5 36.501689 8.802365 36.501689 10.5 L 36.501689 14.802365 " transform="matrix(0.770833,0,0,0.770833,0,0)"/>
<path style="fill:none;stroke-width:3;stroke-linecap:round;stroke-linejoin:round;stroke:rgb(9.411765%,9.803922%,24.705882%);stroke-opacity:1;stroke-miterlimit:10;" d="M 39.501689 40.5 L 9.501689 40.5 C 7.302365 40.5 5.498311 38.701014 5.498311 36.501689 L 5.498311 32.599662 " transform="matrix(0.770833,0,0,0.770833,0,0)"/>
<path style="fill:none;stroke-width:3;stroke-linecap:round;stroke-linejoin:round;stroke:rgb(9.411765%,9.803922%,24.705882%);stroke-opacity:1;stroke-miterlimit:10;" d="M 36.501689 20.498311 L 36.501689 37.5 C 36.501689 39.197635 37.798986 40.5 39.501689 40.5 C 41.199324 40.5 42.501689 39.197635 42.501689 37.5 L 42.501689 13.302365 " transform="matrix(0.770833,0,0,0.770833,0,0)"/>
</g>
</svg>
