<?xml version="1.0" encoding="UTF-8"?>
<svg xmlns="http://www.w3.org/2000/svg" xmlns:xlink="http://www.w3.org/1999/xlink" width="36pt" height="36pt" viewBox="0 0 36 36" version="1.1">
<g id="surface2356">
<path style=" stroke:none;fill-rule:nonzero;fill:rgb(56.470591%,79.215688%,97.647059%);fill-opacity:1;" d="M 31.574219 9.75 L 10.425781 9.75 C 8.851562 9.75 7.5 11.023438 7.5 12.675781 L 7.5 30.074219 C 7.5 31.648438 8.773438 33 10.425781 33 L 31.574219 33 C 33.148438 33 34.5 31.726562 34.5 30.074219 L 34.5 12.675781 C 34.5 11.023438 33.226562 9.75 31.574219 9.75 Z M 31.574219 9.75 "/>
<path style="fill:none;stroke-width:3;stroke-linecap:round;stroke-linejoin:round;stroke:rgb(9.411765%,9.803922%,24.705882%);stroke-opacity:1;stroke-miterlimit:4;" d="M 42.5 20.901042 L 42.5 36 C 42.5 38.197917 40.697917 40 38.5 40 L 9.5 40 C 7.302083 40 5.5 38.197917 5.5 36 L 5.5 32.302083 " transform="matrix(0.75,0,0,0.75,0,0)"/>
<path style="fill:none;stroke-width:3;stroke-linecap:round;stroke-linejoin:round;stroke:rgb(9.411765%,9.803922%,24.705882%);stroke-opacity:1;stroke-miterlimit:4;" d="M 5.5 26.5 L 5.5 12.5 C 5.5 10.302083 7.302083 8.5 9.5 8.5 L 38.5 8.5 C 40.697917 8.5 42.5 10.302083 42.5 12.5 L 42.5 15.5 " transform="matrix(0.75,0,0,0.75,0,0)"/>
<path style="fill:none;stroke-width:3;stroke-linecap:round;stroke-linejoin:miter;stroke:rgb(9.411765%,9.803922%,24.705882%);stroke-opacity:1;stroke-miterlimit:4;" d="M 11.5 26.5 L 11.5 34.5 " transform="matrix(0.75,0,0,0.75,0,0)"/>
<path style="fill:none;stroke-width:3;stroke-linecap:round;stroke-linejoin:miter;stroke:rgb(9.411765%,9.803922%,24.705882%);stroke-opacity:1;stroke-miterlimit:4;" d="M 16.5 26.5 L 16.5 34.5 " transform="matrix(0.75,0,0,0.75,0,0)"/>
<path style="fill:none;stroke-width:3;stroke-linecap:round;stroke-linejoin:miter;stroke:rgb(9.411765%,9.803922%,24.705882%);stroke-opacity:1;stroke-miterlimit:4;" d="M 21.5 26.5 L 21.5 34.5 " transform="matrix(0.75,0,0,0.75,0,0)"/>
<path style="fill:none;stroke-width:3;stroke-linecap:round;stroke-linejoin:miter;stroke:rgb(9.411765%,9.803922%,24.705882%);stroke-opacity:1;stroke-miterlimit:4;" d="M 31.5 26.5 L 31.5 34.5 " transform="matrix(0.75,0,0,0.75,0,0)"/>
<path style="fill:none;stroke-width:3;stroke-linecap:round;stroke-linejoin:miter;stroke:rgb(9.411765%,9.803922%,24.705882%);stroke-opacity:1;stroke-miterlimit:4;" d="M 36.5 26.5 L 36.5 34.5 " transform="matrix(0.75,0,0,0.75,0,0)"/>
<path style="fill:none;stroke-width:3;stroke-linecap:round;stroke-linejoin:round;stroke:rgb(9.411765%,9.803922%,24.705882%);stroke-opacity:1;stroke-miterlimit:4;" d="M 5.5 33.302083 L 5.5 36 C 5.5 38.197917 7.302083 40 9.5 40 L 38.5 40 C 40.697917 40 42.5 38.197917 42.5 36 L 42.5 26.5 L 5.5 26.5 " transform="matrix(0.75,0,0,0.75,0,0)"/>
</g>
</svg>
