<?xml version="1.0" encoding="UTF-8"?>
<svg xmlns="http://www.w3.org/2000/svg" xmlns:xlink="http://www.w3.org/1999/xlink" width="36pt" height="36pt" viewBox="0 0 36 36" version="1.1">
<g id="surface2281">
<path style=" stroke:none;fill-rule:nonzero;fill:rgb(56.470591%,79.215688%,97.647059%);fill-opacity:1;" d="M 34.125 19.5 C 34.125 12.226562 28.273438 6.375 21 6.375 C 13.726562 6.375 7.875 12.226562 7.875 19.5 C 7.875 26.175781 12.824219 31.648438 19.273438 32.476562 L 19.949219 35.023438 C 20.023438 35.550781 20.476562 35.925781 21.074219 35.925781 C 21.675781 35.925781 22.050781 35.550781 22.199219 35.023438 L 22.875 32.476562 C 29.175781 31.648438 34.125 26.175781 34.125 19.5 Z M 34.125 19.5 "/>
<path style="fill:none;stroke-width:3;stroke-linecap:butt;stroke-linejoin:round;stroke:rgb(9.411765%,9.803922%,24.705882%);stroke-opacity:1;stroke-miterlimit:4;" d="M 27.5 34.098958 C 27.5 32.098958 25.901042 30.5 24 30.5 C 22.098958 30.5 20.5 32.098958 20.5 34.098958 C 20.5 34.401042 20.5 34.598958 20.598958 34.802083 L 22.598958 42.697917 C 22.697917 43.401042 23.302083 43.901042 24.098958 43.901042 C 24.901042 43.901042 25.401042 43.401042 25.598958 42.697917 L 27.598958 34.802083 C 27.5 34.598958 27.5 34.401042 27.5 34.098958 Z M 27.5 34.098958 " transform="matrix(0.75,0,0,0.75,0,0)"/>
<path style="fill:none;stroke-width:3;stroke-linecap:round;stroke-linejoin:miter;stroke:rgb(9.411765%,9.803922%,24.705882%);stroke-opacity:1;stroke-miterlimit:4;" d="M 27.5 22 C 27.5 23.932292 25.932292 25.5 24 25.5 C 22.067708 25.5 20.5 23.932292 20.5 22 C 20.5 20.067708 22.067708 18.5 24 18.5 C 25.932292 18.5 27.5 20.067708 27.5 22 Z M 27.5 22 " transform="matrix(0.75,0,0,0.75,0,0)"/>
<path style="fill:none;stroke-width:3;stroke-linecap:round;stroke-linejoin:miter;stroke:rgb(9.411765%,9.803922%,24.705882%);stroke-opacity:1;stroke-miterlimit:4;" d="M 7.098958 26.401042 C 6.697917 25 6.5 23.5 6.5 22 C 6.5 12.302083 14.302083 4.5 24 4.5 C 33.697917 4.5 41.5 12.302083 41.5 22 C 41.5 27.802083 38.697917 32.901042 34.401042 36 C 33.901042 36.401042 33.302083 36.802083 32.802083 37.098958 " transform="matrix(0.75,0,0,0.75,0,0)"/>
<path style="fill:none;stroke-width:3;stroke-linecap:round;stroke-linejoin:miter;stroke:rgb(9.411765%,9.803922%,24.705882%);stroke-opacity:1;stroke-miterlimit:4;" d="M 15.098958 37.098958 C 14.5 36.802083 14 36.401042 13.5 36 C 12.302083 35.098958 11.098958 34 10.197917 32.697917 " transform="matrix(0.75,0,0,0.75,0,0)"/>
<path style="fill:none;stroke-width:3;stroke-linecap:round;stroke-linejoin:miter;stroke:rgb(9.411765%,9.803922%,24.705882%);stroke-opacity:1;stroke-miterlimit:4;" d="M 34.598958 26.401042 C 34 27.802083 33.197917 29.098958 32.098958 30.197917 " transform="matrix(0.75,0,0,0.75,0,0)"/>
<path style="fill:none;stroke-width:3;stroke-linecap:round;stroke-linejoin:miter;stroke:rgb(9.411765%,9.803922%,24.705882%);stroke-opacity:1;stroke-miterlimit:4;" d="M 15.901042 30.098958 C 13.802083 28 12.5 25.098958 12.5 22 C 12.5 15.598958 17.598958 10.5 24 10.5 C 30 10.5 34.802083 15 35.401042 20.802083 " transform="matrix(0.75,0,0,0.75,0,0)"/>
</g>
</svg>
