<?xml version="1.0" encoding="UTF-8"?>
<svg xmlns="http://www.w3.org/2000/svg" xmlns:xlink="http://www.w3.org/1999/xlink" width="37.5pt" height="37.5pt" viewBox="0 0 37.5 37.5" version="1.1">
<g id="surface4308">
<path style=" stroke:none;fill-rule:nonzero;fill:rgb(62.352943%,65.882355%,85.490197%);fill-opacity:1;" d="M 26.824219 22.121094 C 26.363281 20.8125 25.667969 19.65625 24.820312 18.578125 C 24.589844 18.347656 24.28125 18.269531 23.972656 18.347656 L 23.433594 18.578125 C 22.972656 18.730469 22.507812 18.808594 21.96875 18.730469 C 20.734375 18.578125 19.886719 17.652344 19.734375 16.496094 L 19.65625 15.800781 C 19.578125 15.492188 19.347656 15.261719 19.039062 15.183594 C 18.347656 15.03125 17.730469 14.953125 17.035156 14.953125 C 16.339844 14.953125 15.648438 15.03125 15.03125 15.183594 C 14.722656 15.261719 14.492188 15.492188 14.414062 15.800781 L 14.335938 16.417969 C 14.183594 17.574219 13.257812 18.5 12.101562 18.652344 C 11.640625 18.730469 11.101562 18.652344 10.636719 18.5 L 10.019531 18.347656 C 9.710938 18.269531 9.402344 18.347656 9.171875 18.578125 C 8.246094 19.578125 7.554688 20.8125 7.167969 22.121094 C 7.089844 22.429688 7.167969 22.738281 7.398438 22.972656 L 7.941406 23.355469 C 8.480469 23.894531 8.863281 24.667969 8.863281 25.4375 C 8.863281 26.207031 8.480469 26.980469 7.863281 27.519531 L 7.324219 27.902344 C 7.089844 28.136719 6.9375 28.445312 7.089844 28.753906 C 7.554688 30.0625 8.246094 31.21875 9.097656 32.296875 C 9.328125 32.527344 9.636719 32.605469 9.945312 32.527344 L 10.484375 32.296875 C 10.945312 32.144531 11.410156 32.066406 11.949219 32.144531 C 13.179688 32.296875 14.027344 33.222656 14.183594 34.378906 L 14.261719 35.074219 C 14.335938 35.382812 14.570312 35.613281 14.878906 35.691406 C 15.570312 35.84375 16.1875 35.921875 16.882812 35.921875 C 17.574219 35.921875 18.269531 35.84375 18.886719 35.691406 C 19.195312 35.613281 19.425781 35.382812 19.503906 35.074219 L 19.578125 34.457031 C 19.734375 33.300781 20.660156 32.375 21.816406 32.222656 C 22.277344 32.144531 22.816406 32.222656 23.277344 32.375 L 23.820312 32.605469 C 24.128906 32.683594 24.433594 32.605469 24.667969 32.375 C 25.589844 31.371094 26.285156 30.140625 26.671875 28.828125 C 26.746094 28.519531 26.671875 28.210938 26.441406 27.980469 L 25.898438 27.597656 C 25.4375 26.980469 25.050781 26.207031 25.050781 25.4375 C 25.050781 24.667969 25.4375 23.894531 26.054688 23.355469 L 26.59375 22.972656 C 26.824219 22.738281 26.902344 22.429688 26.824219 22.121094 Z M 26.824219 22.121094 "/>
<path style=" stroke:none;fill-rule:nonzero;fill:rgb(62.352943%,65.882355%,85.490197%);fill-opacity:1;" d="M 36.921875 11.484375 C 36.613281 10.558594 36.152344 9.789062 35.535156 9.019531 C 35.382812 8.863281 35.148438 8.789062 34.917969 8.863281 L 34.535156 9.019531 C 34.226562 9.171875 33.839844 9.171875 33.53125 9.171875 C 32.683594 9.019531 32.066406 8.402344 31.988281 7.632812 L 31.914062 7.167969 C 31.914062 6.9375 31.679688 6.785156 31.527344 6.707031 C 31.066406 6.628906 30.601562 6.550781 30.140625 6.550781 C 29.675781 6.550781 29.214844 6.628906 28.753906 6.707031 C 28.519531 6.785156 28.367188 6.9375 28.367188 7.167969 L 28.289062 7.632812 C 28.136719 8.402344 27.519531 9.019531 26.746094 9.171875 C 26.441406 9.25 26.054688 9.171875 25.746094 9.019531 L 25.359375 8.863281 C 25.128906 8.789062 24.898438 8.863281 24.742188 9.019531 C 24.128906 9.710938 23.664062 10.558594 23.355469 11.484375 C 23.277344 11.714844 23.355469 11.949219 23.511719 12.101562 L 23.894531 12.410156 C 24.359375 12.796875 24.589844 13.335938 24.589844 13.875 C 24.589844 14.414062 24.359375 14.953125 23.894531 15.339844 L 23.511719 15.648438 C 23.355469 15.800781 23.277344 16.035156 23.355469 16.265625 C 23.664062 17.191406 24.128906 17.960938 24.742188 18.730469 C 24.898438 18.886719 25.128906 18.960938 25.359375 18.886719 L 25.746094 18.730469 C 26.054688 18.578125 26.441406 18.578125 26.746094 18.578125 C 27.597656 18.730469 28.210938 19.347656 28.289062 20.117188 L 28.367188 20.582031 C 28.367188 20.8125 28.597656 20.964844 28.753906 21.042969 C 29.214844 21.121094 29.675781 21.199219 30.140625 21.199219 C 30.601562 21.199219 31.066406 21.121094 31.527344 21.042969 C 31.757812 20.964844 31.914062 20.8125 31.914062 20.582031 L 31.988281 20.117188 C 32.144531 19.347656 32.761719 18.730469 33.53125 18.578125 C 33.839844 18.5 34.226562 18.578125 34.535156 18.730469 L 34.917969 18.886719 C 35.148438 18.960938 35.382812 18.886719 35.535156 18.730469 C 36.152344 18.039062 36.613281 17.191406 36.921875 16.265625 C 37 16.035156 36.921875 15.800781 36.769531 15.648438 L 36.382812 15.339844 C 35.921875 14.953125 35.691406 14.414062 35.691406 13.875 C 35.691406 13.335938 35.921875 12.796875 36.382812 12.410156 L 36.769531 12.101562 C 36.921875 11.871094 37 11.640625 36.921875 11.484375 Z M 36.921875 11.484375 "/>
<path style=" stroke:none;fill-rule:nonzero;fill:rgb(9.411765%,9.803922%,24.705882%);fill-opacity:1;" d="M 28.90625 10.792969 C 28.90625 11.855469 28.042969 12.71875 26.980469 12.71875 C 25.914062 12.71875 25.050781 11.855469 25.050781 10.792969 C 25.050781 9.726562 25.914062 8.863281 26.980469 8.863281 C 28.042969 8.863281 28.90625 9.726562 28.90625 10.792969 Z M 28.90625 10.792969 "/>
<path style="fill:none;stroke-width:3;stroke-linecap:round;stroke-linejoin:round;stroke:rgb(9.411765%,9.803922%,24.705882%);stroke-opacity:1;stroke-miterlimit:4;" d="M 27.699324 38.402027 C 29.199324 36.800676 30.400338 34.900338 30.998311 32.701014 L 29.802365 31.697635 C 29.001689 30.998311 28.5 30 28.5 29.001689 C 28.5 27.998311 29.001689 27 29.802365 26.300676 L 30.998311 25.302365 C 30.400338 23.097973 29.199324 21.197635 27.699324 19.601351 L 26.300676 20.097973 C 25.302365 20.498311 24.197635 20.402027 23.300676 19.900338 C 22.398649 19.398649 21.800676 18.501689 21.597973 17.402027 L 21.298986 15.902027 C 20.199324 15.597973 19.099662 15.501689 18 15.501689 C 16.900338 15.501689 15.800676 15.699324 14.701014 15.902027 " transform="matrix(0.770833,0,0,0.770833,0,0)"/>
<path style="fill:none;stroke-width:3;stroke-linecap:round;stroke-linejoin:round;stroke:rgb(9.411765%,9.803922%,24.705882%);stroke-opacity:1;stroke-miterlimit:4;" d="M 12.800676 19.900338 C 11.898649 20.402027 10.798986 20.498311 9.800676 20.097973 L 8.402027 19.601351 C 6.902027 21.197635 5.701014 23.097973 5.097973 25.302365 L 6.298986 26.300676 C 6.998311 27 7.5 27.998311 7.5 29.001689 C 7.5 30 6.998311 30.998311 6.197635 31.697635 L 5.001689 32.701014 C 5.599662 34.900338 6.800676 36.800676 8.300676 38.402027 L 9.699324 37.900338 C 10.697635 37.5 11.802365 37.601351 12.699324 38.097973 C 13.601351 38.599662 14.199324 39.501689 14.402027 40.601351 L 14.599662 42.101351 C 15.699324 42.400338 16.798986 42.501689 17.898649 42.501689 C 18.998311 42.501689 20.097973 42.298986 21.197635 42.101351 L 21.400338 40.601351 C 21.597973 39.597973 22.201014 38.701014 23.097973 38.097973 " transform="matrix(0.770833,0,0,0.770833,0,0)"/>
<path style="fill:none;stroke-width:3;stroke-linecap:butt;stroke-linejoin:miter;stroke:rgb(9.411765%,9.803922%,24.705882%);stroke-opacity:1;stroke-miterlimit:4;" d="M 22.5 29.001689 C 22.5 31.484797 20.483108 33.501689 18 33.501689 C 15.516892 33.501689 13.5 31.484797 13.5 29.001689 C 13.5 26.513514 15.516892 24.501689 18 24.501689 C 20.483108 24.501689 22.5 26.513514 22.5 29.001689 Z M 22.5 29.001689 " transform="matrix(0.770833,0,0,0.770833,0,0)"/>
<path style="fill:none;stroke-width:3;stroke-linecap:round;stroke-linejoin:round;stroke:rgb(9.411765%,9.803922%,24.705882%);stroke-opacity:1;stroke-miterlimit:4;" d="M 35.001689 23.199324 C 35.802365 23.199324 36.597973 23.097973 37.302365 22.900338 L 37.5 21.800676 C 37.601351 21.101351 38.097973 20.498311 38.701014 20.097973 C 39.298986 19.697635 40.099662 19.697635 40.798986 19.900338 L 41.802365 20.300676 C 42.902027 19.201014 43.697635 17.898649 44.097973 16.302365 L 43.302365 15.597973 C 42.699324 15.101351 42.400338 14.402027 42.400338 13.697635 C 42.400338 12.998311 42.699324 12.298986 43.302365 11.802365 L 44.097973 11.097973 C 43.697635 9.597973 42.902027 8.199324 41.802365 7.099662 L 40.798986 7.5 C 39.998311 8.001689 39.298986 7.900338 38.599662 7.601351 C 38.001689 7.201014 37.5 6.597973 37.398649 5.898649 L 37.201014 4.798986 C 36.501689 4.601351 35.701014 4.5 34.900338 4.5 C 34.099662 4.5 33.298986 4.601351 32.599662 4.798986 L 32.402027 5.898649 C 32.300676 6.597973 31.798986 7.201014 31.201014 7.601351 C 30.699324 7.900338 30 8.001689 29.300676 7.697635 L 28.302365 7.302365 C 27.197635 8.402027 26.402027 9.699324 26.001689 11.300676 L 26.802365 12 C 27.400338 12.501689 27.699324 13.201014 27.699324 13.900338 " transform="matrix(0.770833,0,0,0.770833,0,0)"/>
</g>
</svg>
