<?xml version="1.0" encoding="UTF-8"?>
<svg xmlns="http://www.w3.org/2000/svg" xmlns:xlink="http://www.w3.org/1999/xlink" width="37.5pt" height="37.5pt" viewBox="0 0 37.5 37.5" version="1.1">
<g id="surface4441">
<path style=" stroke:none;fill-rule:nonzero;fill:rgb(62.352943%,65.882355%,85.490197%);fill-opacity:1;" d="M 25.050781 33.222656 C 25.207031 31.757812 26.285156 30.523438 27.75 30.214844 C 28.519531 30.0625 29.292969 30.214844 29.984375 30.523438 L 31.449219 31.140625 C 31.757812 31.296875 32.144531 31.21875 32.375 30.988281 C 33.53125 29.601562 34.457031 28.058594 35.074219 26.363281 C 35.148438 26.054688 35.074219 25.667969 34.765625 25.515625 L 33.53125 24.589844 C 32.914062 24.128906 32.453125 23.511719 32.222656 22.816406 C 31.757812 21.351562 32.296875 19.808594 33.453125 18.960938 L 34.839844 17.960938 C 35.148438 17.730469 35.226562 17.421875 35.148438 17.113281 C 34.535156 15.417969 33.609375 13.796875 32.453125 12.488281 C 32.222656 12.257812 31.835938 12.179688 31.527344 12.332031 L 30.0625 12.71875 C 29.367188 13.027344 28.597656 13.179688 27.828125 13.027344 C 26.285156 12.71875 25.285156 11.484375 25.128906 10.019531 L 24.976562 8.324219 C 24.976562 8.015625 24.667969 7.707031 24.359375 7.632812 C 23.511719 7.476562 22.585938 7.398438 21.660156 7.398438 C 20.734375 7.398438 19.808594 7.476562 18.960938 7.632812 C 18.652344 7.707031 18.421875 7.941406 18.347656 8.324219 L 18.191406 9.867188 C 18.113281 10.636719 17.804688 11.332031 17.34375 11.949219 C 16.339844 13.105469 14.722656 13.414062 13.335938 12.796875 L 11.792969 12.101562 C 11.484375 11.949219 11.101562 12.023438 10.867188 12.257812 C 9.710938 13.644531 8.789062 15.183594 8.171875 16.882812 C 8.09375 17.191406 8.171875 17.574219 8.480469 17.730469 L 9.710938 18.652344 C 10.328125 19.117188 10.792969 19.734375 11.101562 20.425781 C 11.5625 21.890625 11.023438 23.433594 9.867188 24.28125 L 8.480469 25.285156 C 8.171875 25.515625 8.09375 25.824219 8.171875 26.132812 C 8.789062 27.828125 9.710938 29.445312 10.867188 30.757812 C 11.101562 30.988281 11.484375 31.066406 11.792969 30.910156 L 13.257812 30.292969 C 13.953125 29.984375 14.722656 29.832031 15.492188 29.984375 C 17.035156 30.292969 18.039062 31.527344 18.191406 32.992188 L 18.347656 34.6875 C 18.347656 34.996094 18.652344 35.304688 18.960938 35.382812 C 19.808594 35.535156 20.734375 35.613281 21.660156 35.613281 C 22.585938 35.613281 23.511719 35.535156 24.359375 35.382812 C 24.667969 35.304688 24.898438 35.074219 24.976562 34.6875 Z M 25.050781 33.222656 "/>
<path style="fill:none;stroke-width:3;stroke-linecap:butt;stroke-linejoin:miter;stroke:rgb(9.411765%,9.803922%,24.705882%);stroke-opacity:1;stroke-miterlimit:4;" d="M 30.501689 24 C 30.501689 27.587838 27.587838 30.501689 24 30.501689 C 20.412162 30.501689 17.498311 27.587838 17.498311 24 C 17.498311 20.412162 20.412162 17.498311 24 17.498311 C 27.587838 17.498311 30.501689 20.412162 30.501689 24 Z M 30.501689 24 " transform="matrix(0.770833,0,0,0.770833,0,0)"/>
<path style="fill:none;stroke-width:3;stroke-linecap:round;stroke-linejoin:round;stroke:rgb(9.411765%,9.803922%,24.705882%);stroke-opacity:1;stroke-miterlimit:4;" d="M 30.800676 35.701014 C 32.001689 35.001689 33.597973 34.900338 34.900338 35.498311 L 37.601351 36.699324 C 39.501689 34.697635 41.001689 32.199324 41.802365 29.402027 L 39.400338 27.699324 C 38.199324 26.898649 37.601351 25.5 37.601351 24.101351 C 37.601351 22.697635 38.300676 21.298986 39.400338 20.498311 L 41.802365 18.800676 C 41.001689 15.998311 39.501689 13.601351 37.601351 11.498311 L 34.900338 12.699324 C 33.597973 13.302365 32.097973 13.201014 30.800676 12.501689 C 29.498311 11.802365 28.697635 10.5 28.601351 9.101351 L 28.201014 6 C 26.802365 5.701014 25.398649 5.498311 24 5.498311 C 22.601351 5.498311 21.101351 5.701014 19.798986 6 " transform="matrix(0.770833,0,0,0.770833,0,0)"/>
<path style="fill:none;stroke-width:3;stroke-linecap:round;stroke-linejoin:round;stroke:rgb(9.411765%,9.803922%,24.705882%);stroke-opacity:1;stroke-miterlimit:4;" d="M 17.300676 12.298986 C 16.099662 12.998311 14.498311 13.099662 13.201014 12.501689 L 10.5 11.300676 C 8.599662 13.302365 7.099662 15.800676 6.298986 18.597973 L 8.701014 20.300676 C 9.902027 21.101351 10.5 22.5 10.5 23.898649 C 10.5 25.302365 9.800676 26.701014 8.701014 27.501689 L 6.298986 29.199324 C 7.099662 32.001689 8.599662 34.398649 10.5 36.501689 L 13.201014 35.300676 C 14.498311 34.697635 15.998311 34.798986 17.300676 35.498311 C 18.597973 36.197635 19.398649 37.5 19.5 38.898649 L 19.798986 41.802365 C 21.197635 42.101351 22.601351 42.298986 24 42.298986 C 25.398649 42.298986 26.898649 42.101351 28.201014 41.802365 " transform="matrix(0.770833,0,0,0.770833,0,0)"/>
</g>
</svg>
