<?xml version="1.0" encoding="UTF-8"?>
<svg xmlns="http://www.w3.org/2000/svg" xmlns:xlink="http://www.w3.org/1999/xlink" width="37.5pt" height="37.5pt" viewBox="0 0 37.5 37.5" version="1.1">
<g id="surface4373">
<path style=" stroke:none;fill-rule:nonzero;fill:rgb(62.352943%,65.882355%,85.490197%);fill-opacity:1;" d="M 32.296875 23.972656 C 35.074219 21.199219 35.691406 17.191406 34.300781 13.796875 L 29.292969 18.808594 L 25.128906 17.882812 L 24.359375 13.875 L 29.292969 8.941406 C 25.898438 7.554688 21.890625 8.171875 19.117188 10.945312 C 16.574219 13.488281 15.800781 17.113281 16.882812 20.273438 L 9.402344 27.75 C 7.785156 29.367188 7.785156 32.066406 9.402344 33.761719 C 11.023438 35.382812 13.722656 35.382812 15.417969 33.761719 L 22.972656 26.207031 C 26.132812 27.210938 29.753906 26.515625 32.296875 23.972656 Z M 32.296875 23.972656 "/>
<path style="fill:none;stroke-width:3;stroke-linecap:round;stroke-linejoin:round;stroke:rgb(9.411765%,9.803922%,24.705882%);stroke-opacity:1;stroke-miterlimit:10;" d="M 21.699324 34.099662 L 25.697635 30.101351 C 29.802365 31.398649 34.5 30.400338 37.798986 27.197635 C 41.402027 23.599662 42.197635 18.400338 40.398649 14.001689 L 33.998311 20.402027 L 28.601351 19.201014 L 27.597973 14.001689 L 33.998311 7.601351 C 30.197635 5.898649 25.697635 6.400338 22.201014 9 " transform="matrix(0.770833,0,0,0.770833,0,0)"/>
<path style="fill:none;stroke-width:3;stroke-linecap:round;stroke-linejoin:round;stroke:rgb(9.411765%,9.803922%,24.705882%);stroke-opacity:1;stroke-miterlimit:10;" d="M 18.101351 14.599662 C 17.199324 17.097973 17.199324 19.697635 18 22.201014 L 8.199324 32.001689 C 6.101351 34.099662 6.101351 37.601351 8.199324 39.800676 C 10.302365 41.898649 13.798986 41.898649 15.998311 39.800676 L 17.802365 38.001689 " transform="matrix(0.770833,0,0,0.770833,0,0)"/>
</g>
</svg>
