<?xml version="1.0" encoding="UTF-8"?>
<svg xmlns="http://www.w3.org/2000/svg" xmlns:xlink="http://www.w3.org/1999/xlink" width="37.5pt" height="37.5pt" viewBox="0 0 37.5 37.5" version="1.1">
<g id="surface2888">
<path style=" stroke:none;fill-rule:nonzero;fill:rgb(100%,67.058825%,56.862748%);fill-opacity:1;" d="M 25.207031 18.421875 C 24.511719 18.269531 23.820312 18.191406 23.046875 18.269531 L 23.046875 15.03125 C 25.515625 13.875 27.597656 12.410156 27.597656 9.558594 C 27.597656 6.9375 25.898438 5.628906 24.203125 5.628906 C 22.507812 5.628906 20.8125 6.9375 20.8125 9.558594 L 20.8125 13.566406 C 20.660156 13.644531 20.503906 13.722656 20.351562 13.796875 C 16.882812 15.339844 12.488281 17.191406 12.488281 22.429688 C 12.488281 27.054688 16.496094 29.984375 20.8125 30.523438 L 20.8125 32.222656 C 20.8125 34.226562 19.347656 34.535156 18.960938 34.535156 C 17.882812 34.6875 16.574219 34.070312 16.265625 32.683594 C 16.109375 32.066406 15.492188 31.679688 14.878906 31.835938 C 14.261719 31.988281 13.875 32.605469 14.027344 33.222656 C 14.570312 35.613281 16.726562 36.847656 18.652344 36.847656 C 18.808594 36.847656 18.960938 36.847656 19.195312 36.847656 C 21.121094 36.613281 23.125 35.148438 23.125 32.222656 L 23.125 30.523438 C 27.210938 30.214844 29.910156 27.597656 29.910156 23.894531 C 29.910156 21.199219 28.058594 19.039062 25.207031 18.421875 Z M 25.207031 18.421875 "/>
<path style="fill:none;stroke-width:3;stroke-linecap:round;stroke-linejoin:round;stroke:rgb(9.411765%,9.803922%,24.705882%);stroke-opacity:1;stroke-miterlimit:4;" d="M 30.197635 33.998311 C 32.701014 32.898649 34.5 30.800676 34.5 27.501689 C 34.5 20.498311 23.599662 19.201014 20.498311 25.5 " transform="matrix(0.770833,0,0,0.770833,0,0)"/>
<path style="fill:none;stroke-width:3;stroke-linecap:round;stroke-linejoin:round;stroke:rgb(9.411765%,9.803922%,24.705882%);stroke-opacity:1;stroke-miterlimit:4;" d="M 16.5 20.001689 C 15.298986 21.400338 14.498311 23.097973 14.498311 25.5 C 14.498311 31.398649 20.199324 34.697635 25.5 34.798986 " transform="matrix(0.770833,0,0,0.770833,0,0)"/>
<path style="fill:none;stroke-width:3;stroke-linecap:round;stroke-linejoin:round;stroke:rgb(9.411765%,9.803922%,24.705882%);stroke-opacity:1;stroke-miterlimit:4;" d="M 16.5 39.501689 C 17.599662 44.498311 25.5 44.498311 25.5 38.498311 L 25.5 8.498311 C 25.5 3.501689 31.5 3.501689 31.5 8.498311 C 31.5 13.5 24.902027 14.599662 20.001689 17.402027 " transform="matrix(0.770833,0,0,0.770833,0,0)"/>
<path style=" stroke:none;fill-rule:nonzero;fill:rgb(9.411765%,9.803922%,24.705882%);fill-opacity:1;" d="M 15.417969 30.449219 C 15.417969 31.511719 14.554688 32.375 13.488281 32.375 C 12.425781 32.375 11.5625 31.511719 11.5625 30.449219 C 11.5625 29.382812 12.425781 28.519531 13.488281 28.519531 C 14.554688 28.519531 15.417969 29.382812 15.417969 30.449219 Z M 15.417969 30.449219 "/>
</g>
</svg>
