<?xml version="1.0" encoding="UTF-8"?>
<svg xmlns="http://www.w3.org/2000/svg" xmlns:xlink="http://www.w3.org/1999/xlink" width="37.5pt" height="37.5pt" viewBox="0 0 37.5 37.5" version="1.1">
<g id="surface1403">
<path style=" stroke:none;fill-rule:nonzero;fill:rgb(56.470591%,79.215688%,97.647059%);fill-opacity:1;" d="M 30.925781 33.917969 L 12.238281 33.917969 C 10.589844 33.917969 9.25 32.578125 9.25 30.925781 L 9.25 12.238281 C 9.25 10.589844 10.589844 9.25 12.238281 9.25 L 30.925781 9.25 C 32.578125 9.25 33.917969 10.589844 33.917969 12.238281 L 33.917969 30.925781 C 33.917969 32.578125 32.578125 33.917969 30.925781 33.917969 Z M 30.925781 33.917969 "/>
<path style="fill:none;stroke-width:3;stroke-linecap:round;stroke-linejoin:round;stroke:rgb(9.411765%,9.803922%,24.705882%);stroke-opacity:1;stroke-miterlimit:4;" d="M 40.5 32.787162 L 40.5 36.501689 C 40.5 38.711149 38.711149 40.5 36.501689 40.5 L 11.498311 40.5 C 9.288851 40.5 7.5 38.711149 7.5 36.501689 L 7.5 20.402027 " transform="matrix(0.770833,0,0,0.770833,0,0)"/>
<path style="fill:none;stroke-width:3;stroke-linecap:round;stroke-linejoin:round;stroke:rgb(9.411765%,9.803922%,24.705882%);stroke-opacity:1;stroke-miterlimit:4;" d="M 7.5 14.660473 L 7.5 11.498311 C 7.5 9.288851 9.288851 7.5 11.498311 7.5 L 36.501689 7.5 C 38.711149 7.5 40.5 9.288851 40.5 11.498311 L 40.5 24.998311 " transform="matrix(0.770833,0,0,0.770833,0,0)"/>
<path style=" stroke:none;fill-rule:nonzero;fill:rgb(9.411765%,9.803922%,24.705882%);fill-opacity:1;" d="M 24.28125 26.371094 C 24.28125 26.4375 24.253906 26.503906 24.203125 26.550781 C 24.140625 26.605469 22.636719 27.894531 19.183594 27.894531 C 15.046875 27.894531 14.925781 23.261719 14.925781 22.734375 L 14.886719 17.054688 L 12.957031 17.054688 C 12.824219 17.054688 12.71875 16.949219 12.71875 16.816406 L 12.71875 14.578125 C 12.71875 14.480469 12.777344 14.390625 12.867188 14.355469 C 12.90625 14.339844 16.605469 12.847656 16.605469 9.34375 C 16.605469 9.210938 16.710938 9.105469 16.84375 9.105469 L 18.988281 9.105469 C 19.117188 9.105469 19.222656 9.210938 19.222656 9.34375 L 19.222656 14.164062 L 23.320312 14.164062 C 23.453125 14.164062 23.558594 14.269531 23.558594 14.402344 L 23.558594 16.820312 C 23.558594 16.953125 23.453125 17.058594 23.320312 17.058594 L 19.222656 17.058594 L 19.222656 22.628906 C 19.222656 22.703125 19.453125 24.449219 21.21875 24.449219 C 22.679688 24.449219 23.90625 23.695312 23.917969 23.6875 C 23.992188 23.640625 24.082031 23.640625 24.160156 23.679688 C 24.234375 23.722656 24.28125 23.800781 24.28125 23.890625 Z M 24.28125 26.371094 "/>
</g>
</svg>
