<?xml version="1.0" encoding="UTF-8"?>
<svg xmlns="http://www.w3.org/2000/svg" xmlns:xlink="http://www.w3.org/1999/xlink" width="37.5pt" height="37.5pt" viewBox="0 0 37.5 37.5" version="1.1">
<g id="surface1422">
<path style=" stroke:none;fill-rule:nonzero;fill:rgb(54.901963%,90.588236%,94.901961%);fill-opacity:1;" d="M 36.769531 11.023438 C 36.539062 10.792969 36.230469 10.714844 35.921875 10.867188 L 35.765625 10.945312 C 35.691406 11.023438 35.535156 11.023438 35.457031 11.101562 C 35.765625 10.636719 35.996094 10.097656 36.230469 9.480469 C 36.304688 9.171875 36.230469 8.863281 35.996094 8.632812 C 35.765625 8.402344 35.382812 8.402344 35.148438 8.554688 C 33.917969 9.328125 32.761719 9.789062 31.527344 10.019531 L 30.832031 10.175781 C 29.753906 9.402344 28.445312 8.863281 26.980469 8.863281 C 23.355469 8.863281 20.425781 11.792969 20.425781 15.417969 L 20.425781 16.574219 C 11.023438 16.035156 8.480469 9.636719 8.480469 9.636719 C 8.480469 9.636719 7.324219 11.175781 7.324219 13.488281 C 7.324219 17.34375 10.40625 18.886719 10.40625 18.886719 C 8.09375 18.886719 6.550781 18.113281 6.550781 18.113281 C 6.550781 18.113281 6.9375 22.355469 11.949219 24.28125 L 8.863281 25.050781 C 8.863281 25.050781 10.40625 27.75 15.03125 28.90625 C 15.03125 28.90625 12.332031 31.21875 5.78125 31.21875 C 5.78125 31.21875 8.480469 34.300781 15.800781 34.300781 C 28.367188 34.300781 33.378906 22.664062 33.53125 15.726562 L 33.609375 15.648438 C 35.996094 13.644531 36.847656 12.023438 36.921875 11.949219 C 37.078125 11.640625 37 11.253906 36.769531 11.023438 Z M 36.769531 11.023438 "/>
<path style=" stroke:none;fill-rule:nonzero;fill:rgb(9.411765%,9.803922%,24.705882%);fill-opacity:1;" d="M 33.683594 7.941406 C 33.453125 7.707031 33.144531 7.632812 32.835938 7.785156 L 32.683594 7.863281 C 32.605469 7.941406 32.453125 7.941406 32.375 8.015625 C 32.683594 7.554688 32.914062 7.015625 33.144531 6.398438 C 33.222656 6.089844 33.144531 5.78125 32.914062 5.550781 C 32.683594 5.320312 32.296875 5.320312 32.066406 5.472656 C 30.832031 6.242188 29.675781 6.707031 28.445312 6.9375 L 27.75 7.089844 C 29.367188 8.246094 30.449219 10.175781 30.449219 12.332031 C 30.449219 12.410156 30.449219 12.566406 30.449219 12.640625 L 30.523438 12.566406 C 32.914062 10.558594 33.761719 8.941406 33.839844 8.863281 C 33.992188 8.554688 33.917969 8.171875 33.683594 7.941406 Z M 33.683594 7.941406 "/>
<path style="fill:none;stroke-width:3;stroke-linecap:round;stroke-linejoin:round;stroke:rgb(9.411765%,9.803922%,24.705882%);stroke-opacity:1;stroke-miterlimit:4;" d="M 15.501689 33.501689 C 15.501689 33.501689 12 36.501689 3.501689 36.501689 C 3.501689 36.501689 6.998311 40.5 16.5 40.5 C 23.097973 40.5 28.099662 38.001689 31.697635 34.5 " transform="matrix(0.770833,0,0,0.770833,0,0)"/>
<path style="fill:none;stroke-width:3;stroke-linecap:round;stroke-linejoin:round;stroke:rgb(9.411765%,9.803922%,24.705882%);stroke-opacity:1;stroke-miterlimit:4;" d="M 11.898649 14.097973 C 8.199324 11.599662 6.998311 8.498311 6.998311 8.498311 C 6.998311 8.498311 5.498311 10.5 5.498311 13.5 C 5.498311 18.501689 9.501689 20.498311 9.501689 20.498311 C 6.501689 20.498311 4.5 19.5 4.5 19.5 C 4.5 19.5 5.001689 24.998311 11.498311 27.501689 L 7.5 28.5 C 7.5 28.5 9.501689 32.001689 15.501689 33.501689 " transform="matrix(0.770833,0,0,0.770833,0,0)"/>
<path style="fill:none;stroke-width:3;stroke-linecap:round;stroke-linejoin:round;stroke:rgb(9.411765%,9.803922%,24.705882%);stroke-opacity:1;stroke-miterlimit:4;" d="M 36 28.798986 C 38.402027 24.501689 39.501689 19.697635 39.501689 15.998311 C 39.501689 11.300676 35.701014 7.5 30.998311 7.5 C 26.300676 7.5 22.5 11.300676 22.5 15.998311 L 22.5 17.498311 C 20.498311 17.402027 18.800676 17.097973 17.300676 16.697635 " transform="matrix(0.770833,0,0,0.770833,0,0)"/>
</g>
</svg>
