<?xml version="1.0" encoding="UTF-8"?>
<svg xmlns="http://www.w3.org/2000/svg" xmlns:xlink="http://www.w3.org/1999/xlink" width="37.5pt" height="37.5pt" viewBox="0 0 37.5 37.5" version="1.1">
<g id="surface1365">
<path style=" stroke:none;fill-rule:nonzero;fill:rgb(54.901963%,90.588236%,94.901961%);fill-opacity:1;" d="M 35.457031 21.582031 C 35.457031 29.246094 29.246094 35.457031 21.582031 35.457031 C 13.921875 35.457031 7.707031 29.246094 7.707031 21.582031 C 7.707031 13.921875 13.921875 7.707031 21.582031 7.707031 C 29.246094 7.707031 35.457031 13.921875 35.457031 21.582031 Z M 35.457031 21.582031 "/>
<path style="fill:none;stroke-width:3;stroke-linecap:round;stroke-linejoin:round;stroke:rgb(9.411765%,9.803922%,24.705882%);stroke-opacity:1;stroke-miterlimit:10;" d="M 11.153716 37.3125 C 7.66723 33.947635 5.498311 29.224662 5.498311 24 C 5.498311 13.783784 13.783784 5.498311 24 5.498311 " transform="matrix(0.770833,0,0,0.770833,0,0)"/>
<path style="fill:none;stroke-width:3;stroke-linecap:round;stroke-linejoin:round;stroke:rgb(9.411765%,9.803922%,24.705882%);stroke-opacity:1;stroke-miterlimit:10;" d="M 34.175676 8.548986 C 39.192568 11.858108 42.501689 17.543919 42.501689 24 C 42.501689 34.216216 34.216216 42.501689 24 42.501689 C 22.342905 42.501689 20.736486 42.283784 19.206081 41.873311 " transform="matrix(0.770833,0,0,0.770833,0,0)"/>
<path style=" stroke:none;fill-rule:nonzero;fill:rgb(9.411765%,9.803922%,24.705882%);fill-opacity:1;" d="M 27.671875 13.703125 C 27.550781 13.574219 27.363281 13.539062 27.203125 13.613281 L 27.136719 13.644531 C 27.078125 13.671875 27.019531 13.699219 26.960938 13.722656 C 27.132812 13.453125 27.265625 13.167969 27.355469 12.871094 C 27.410156 12.707031 27.351562 12.527344 27.214844 12.421875 C 27.082031 12.316406 26.894531 12.304688 26.746094 12.394531 C 26.144531 12.757812 25.574219 12.992188 24.960938 13.132812 C 24.273438 12.53125 23.386719 12.15625 22.40625 12.15625 C 20.253906 12.15625 18.5 13.90625 18.5 16.0625 L 18.5 16.269531 C 14.109375 15.867188 12.875 12.941406 12.824219 12.8125 C 12.769531 12.683594 12.652344 12.59375 12.515625 12.574219 C 12.375 12.554688 12.242188 12.613281 12.15625 12.722656 C 12.128906 12.761719 11.460938 13.671875 11.460938 15.027344 C 11.460938 16.101562 11.855469 16.871094 12.285156 17.394531 C 11.859375 17.289062 11.605469 17.167969 11.601562 17.164062 C 11.476562 17.105469 11.328125 17.113281 11.210938 17.191406 C 11.097656 17.273438 11.035156 17.40625 11.046875 17.546875 C 11.054688 17.636719 11.25 19.496094 13.214844 20.707031 L 12.578125 20.863281 C 12.460938 20.894531 12.367188 20.976562 12.320312 21.085938 C 12.269531 21.199219 12.277344 21.324219 12.339844 21.429688 C 12.371094 21.484375 13.078125 22.6875 15.035156 23.417969 C 14.316406 23.75 13.011719 24.164062 11.015625 24.164062 C 10.867188 24.164062 10.726562 24.253906 10.667969 24.390625 C 10.601562 24.53125 10.628906 24.691406 10.726562 24.804688 C 10.789062 24.878906 12.339844 26.59375 16.402344 26.59375 C 23.160156 26.59375 26.3125 20.308594 26.3125 16.058594 C 26.3125 16.003906 26.296875 15.953125 26.296875 15.898438 C 27.34375 14.949219 27.730469 14.207031 27.746094 14.175781 C 27.824219 14.019531 27.796875 13.828125 27.671875 13.703125 Z M 27.671875 13.703125 "/>
</g>
</svg>
