<?xml version="1.0" encoding="UTF-8"?>
<svg xmlns="http://www.w3.org/2000/svg" xmlns:xlink="http://www.w3.org/1999/xlink" width="37.5pt" height="37.5pt" viewBox="0 0 37.5 37.5" version="1.1">
<g id="surface4280">
<path style=" stroke:none;fill-rule:nonzero;fill:rgb(62.352943%,65.882355%,85.490197%);fill-opacity:1;" d="M 29.363281 31.605469 L 9.949219 31.605469 C 8.710938 31.605469 7.707031 30.601562 7.707031 29.363281 L 7.707031 9.949219 C 7.707031 8.710938 8.710938 7.707031 9.949219 7.707031 L 29.363281 7.707031 C 30.601562 7.707031 31.605469 8.710938 31.605469 9.949219 L 31.605469 29.363281 C 31.605469 30.601562 30.601562 31.605469 29.363281 31.605469 Z M 29.363281 31.605469 "/>
<path style="fill:none;stroke-width:3;stroke-linecap:round;stroke-linejoin:round;stroke:rgb(9.411765%,9.803922%,24.705882%);stroke-opacity:1;stroke-miterlimit:10;" d="M 42.501689 13.5 L 42.501689 39.501689 C 42.501689 41.158784 41.158784 42.501689 39.501689 42.501689 L 13.5 42.501689 C 11.842905 42.501689 10.5 41.158784 10.5 39.501689 L 10.5 37.5 " transform="matrix(0.770833,0,0,0.770833,0,0)"/>
<path style="fill:none;stroke-width:3;stroke-linecap:round;stroke-linejoin:round;stroke:rgb(9.411765%,9.803922%,24.705882%);stroke-opacity:1;stroke-miterlimit:10;" d="M 5.498311 11.108108 L 5.498311 8.498311 C 5.498311 6.841216 6.841216 5.498311 8.498311 5.498311 L 34.5 5.498311 C 36.157095 5.498311 37.5 6.841216 37.5 8.498311 L 37.5 27.572635 " transform="matrix(0.770833,0,0,0.770833,0,0)"/>
<path style="fill:none;stroke-width:3;stroke-linecap:round;stroke-linejoin:round;stroke:rgb(9.411765%,9.803922%,24.705882%);stroke-opacity:1;stroke-miterlimit:10;" d="M 37.5 32.934122 L 37.5 34.5 C 37.5 36.157095 36.157095 37.5 34.5 37.5 L 8.498311 37.5 C 6.841216 37.5 5.498311 36.157095 5.498311 34.5 L 5.498311 16.211149 " transform="matrix(0.770833,0,0,0.770833,0,0)"/>
</g>
</svg>
