<?xml version="1.0" encoding="UTF-8"?>
<svg xmlns="http://www.w3.org/2000/svg" xmlns:xlink="http://www.w3.org/1999/xlink" width="37.5pt" height="37.5pt" viewBox="0 0 37.5 37.5" version="1.1">
<g id="surface1394">
<path style=" stroke:none;fill-rule:nonzero;fill:rgb(100%,67.058825%,56.862748%);fill-opacity:1;" d="M 21.476562 10.792969 C 16.738281 10.792969 12.289062 11.152344 9.921875 11.660156 C 8.34375 12.019531 6.980469 13.105469 6.691406 14.765625 C 6.40625 16.5 6.117188 18.714844 6.117188 21.96875 C 6.117188 25.222656 6.40625 27.363281 6.765625 29.171875 C 7.050781 30.761719 8.414062 31.917969 9.992188 32.277344 C 12.503906 32.785156 16.8125 33.144531 21.546875 33.144531 C 26.28125 33.144531 30.589844 32.785156 33.101562 32.277344 C 34.679688 31.917969 36.042969 30.832031 36.332031 29.171875 C 36.617188 27.363281 36.976562 25.148438 37.046875 21.894531 C 37.046875 18.644531 36.6875 16.429688 36.332031 14.621094 C 36.042969 13.03125 34.679688 11.875 33.101562 11.515625 C 30.589844 11.152344 26.210938 10.792969 21.476562 10.792969 Z M 21.476562 10.792969 "/>
<path style="fill:none;stroke-width:3;stroke-linecap:round;stroke-linejoin:round;stroke:rgb(9.411765%,9.803922%,24.705882%);stroke-opacity:1;stroke-miterlimit:4;" d="M 28.788851 10.094595 C 27.20777 10.033784 25.550676 9.998311 23.858108 9.998311 C 17.579392 9.998311 11.680743 10.469595 8.538851 11.123311 C 6.445946 11.594595 4.641892 12.998311 4.261824 15.157095 C 3.881757 17.407095 3.501689 20.280405 3.501689 24.501689 C 3.501689 28.717905 3.881757 31.5 4.358108 33.846284 C 4.738176 35.908784 6.54223 37.408784 8.635135 37.875 C 9.719595 38.087838 11.0625 38.285473 12.587838 38.447635 " transform="matrix(0.770833,0,0,0.770833,0,0)"/>
<path style="fill:none;stroke-width:3;stroke-linecap:round;stroke-linejoin:round;stroke:rgb(9.411765%,9.803922%,24.705882%);stroke-opacity:1;stroke-miterlimit:4;" d="M 18.501689 38.883446 C 20.234797 38.959459 22.069257 39 23.954392 39 C 30.228041 39 35.939189 38.528716 39.268581 37.875 C 41.361486 37.403716 43.165541 36 43.550676 33.846284 C 43.930743 31.5 44.407095 28.626689 44.498311 24.405405 C 44.498311 20.189189 44.021959 17.310811 43.550676 14.969595 C 43.165541 12.907095 41.361486 11.407095 39.268581 10.935811 C 38.381757 10.814189 37.317568 10.6875 36.111486 10.570946 " transform="matrix(0.770833,0,0,0.770833,0,0)"/>
<path style="fill:none;stroke-width:3;stroke-linecap:round;stroke-linejoin:round;stroke:rgb(9.411765%,9.803922%,24.705882%);stroke-opacity:1;stroke-miterlimit:4;" d="M 18.501689 24 L 18.501689 28.515203 C 18.501689 30.035473 20.163851 30.988176 21.501689 30.233108 L 29.488176 25.722973 C 30.836149 24.95777 30.836149 23.037162 29.488176 22.277027 L 21.501689 17.761824 C 20.163851 17.006757 18.501689 17.964527 18.501689 19.484797 " transform="matrix(0.770833,0,0,0.770833,0,0)"/>
</g>
</svg>
