<?xml version="1.0" encoding="UTF-8"?>
<svg xmlns="http://www.w3.org/2000/svg" xmlns:xlink="http://www.w3.org/1999/xlink" width="37.5pt" height="37.5pt" viewBox="0 0 37.5 37.5" version="1.1">
<g id="surface1493">
<path style=" stroke:none;fill-rule:nonzero;fill:rgb(100%,67.058825%,56.862748%);fill-opacity:1;" d="M 31.527344 20.042969 L 11.640625 20.042969 C 9.867188 20.042969 8.480469 21.507812 8.480469 23.203125 L 8.480469 32.992188 C 8.480469 34.765625 9.945312 36.152344 11.640625 36.152344 L 31.449219 36.152344 C 33.222656 36.152344 34.609375 34.6875 34.609375 32.992188 L 34.609375 23.203125 C 34.6875 21.507812 33.222656 20.042969 31.527344 20.042969 Z M 31.527344 20.042969 "/>
<path style="fill:none;stroke-width:3;stroke-linecap:round;stroke-linejoin:round;stroke:rgb(9.411765%,9.803922%,24.705882%);stroke-opacity:1;stroke-miterlimit:4;" d="M 33.699324 42.501689 L 36.501689 42.501689 C 38.701014 42.501689 40.5 40.697635 40.5 38.498311 L 40.5 26.498311 C 40.5 24.298986 38.701014 22.5 36.501689 22.5 L 19.398649 22.5 " transform="matrix(0.770833,0,0,0.770833,0,0)"/>
<path style="fill:none;stroke-width:3;stroke-linecap:round;stroke-linejoin:round;stroke:rgb(9.411765%,9.803922%,24.705882%);stroke-opacity:1;stroke-miterlimit:4;" d="M 13.601351 22.5 L 11.498311 22.5 C 9.298986 22.5 7.5 24.298986 7.5 26.498311 L 7.5 38.498311 C 7.5 40.697635 9.298986 42.501689 11.498311 42.501689 L 27.400338 42.501689 " transform="matrix(0.770833,0,0,0.770833,0,0)"/>
<path style=" stroke:none;fill-rule:nonzero;fill:rgb(9.411765%,9.803922%,24.705882%);fill-opacity:1;" d="M 19.886719 7.554688 C 19.734375 7.015625 19.425781 6.628906 19.039062 6.398438 C 18.652344 6.167969 18.191406 6.011719 17.574219 6.011719 C 16.957031 6.011719 16.417969 6.167969 16.035156 6.398438 C 15.648438 6.628906 15.339844 7.015625 15.183594 7.554688 C 15.03125 8.09375 14.878906 8.789062 14.878906 9.710938 L 14.878906 10.945312 C 14.878906 11.871094 14.953125 12.566406 15.109375 13.105469 C 15.261719 13.644531 15.570312 14.027344 15.878906 14.261719 C 16.265625 14.492188 16.804688 14.644531 17.421875 14.644531 C 18.039062 14.644531 18.578125 14.492188 18.960938 14.261719 C 19.347656 14.027344 19.578125 13.644531 19.808594 13.105469 C 19.964844 12.566406 20.042969 11.871094 20.042969 10.945312 L 20.042969 9.710938 C 20.117188 8.863281 20.042969 8.09375 19.886719 7.554688 Z M 18.269531 11.640625 C 18.269531 12.257812 18.191406 12.71875 18.113281 12.949219 C 18.039062 13.257812 17.804688 13.335938 17.574219 13.335938 C 17.34375 13.335938 17.113281 13.179688 17.035156 12.949219 C 16.957031 12.640625 16.882812 12.257812 16.882812 11.640625 L 16.882812 9.019531 C 16.882812 8.402344 16.957031 8.015625 17.035156 7.707031 C 17.113281 7.398438 17.34375 7.324219 17.574219 7.324219 C 17.804688 7.324219 18.039062 7.476562 18.113281 7.707031 C 18.191406 8.015625 18.269531 8.402344 18.269531 9.019531 Z M 18.269531 11.640625 "/>
<path style=" stroke:none;fill-rule:nonzero;fill:rgb(9.411765%,9.803922%,24.705882%);fill-opacity:1;" d="M 11.332031 10.792969 L 9.25 3.390625 C 9.25 3.238281 9.328125 3.082031 9.480469 3.082031 L 10.714844 3.082031 C 10.867188 3.082031 11.023438 3.238281 11.101562 3.390625 C 11.332031 4.472656 12.101562 8.246094 12.179688 8.789062 L 12.257812 8.789062 C 12.332031 8.402344 13.179688 4.472656 13.414062 3.390625 C 13.414062 3.238281 13.644531 3.082031 13.796875 3.082031 L 15.03125 3.082031 C 15.183594 3.082031 15.261719 3.238281 15.261719 3.390625 L 13.179688 10.792969 L 13.179688 14.105469 C 13.179688 14.335938 13.027344 14.492188 12.796875 14.492188 L 11.714844 14.492188 C 11.484375 14.492188 11.332031 14.335938 11.332031 14.105469 Z M 11.332031 10.792969 "/>
<path style=" stroke:none;fill-rule:nonzero;fill:rgb(9.411765%,9.803922%,24.705882%);fill-opacity:1;" d="M 26.207031 6.550781 L 26.207031 14.105469 C 26.207031 14.335938 26.054688 14.492188 25.824219 14.492188 L 25.050781 14.492188 C 24.898438 14.492188 24.667969 14.335938 24.667969 14.183594 L 24.589844 13.488281 L 24.511719 13.488281 C 24.128906 14.261719 23.511719 14.644531 22.738281 14.644531 C 22.199219 14.644531 21.738281 14.492188 21.507812 14.105469 C 21.273438 13.722656 21.121094 13.179688 21.121094 12.410156 L 21.121094 6.550781 C 21.121094 6.320312 21.273438 6.167969 21.507812 6.167969 L 22.585938 6.167969 C 22.816406 6.167969 22.972656 6.320312 22.972656 6.550781 L 22.972656 12.257812 C 22.972656 12.640625 23.046875 12.871094 23.125 13.027344 C 23.203125 13.179688 23.355469 13.257812 23.511719 13.257812 C 23.664062 13.257812 23.820312 13.179688 23.972656 13.105469 C 24.128906 13.027344 24.203125 12.871094 24.28125 12.71875 L 24.28125 6.550781 C 24.28125 6.320312 24.433594 6.167969 24.667969 6.167969 L 25.746094 6.167969 C 26.054688 6.167969 26.207031 6.320312 26.207031 6.550781 Z M 26.207031 6.550781 "/>
<path style=" stroke:none;fill-rule:nonzero;fill:rgb(9.411765%,9.803922%,24.705882%);fill-opacity:1;" d="M 11.949219 29.675781 L 11.175781 29.675781 C 10.945312 29.675781 10.792969 29.523438 10.792969 29.292969 L 10.792969 21.582031 L 9.636719 21.582031 C 9.402344 21.582031 9.25 21.429688 9.25 21.199219 L 9.25 20.425781 C 9.25 20.195312 9.402344 20.042969 9.636719 20.042969 L 13.488281 20.042969 C 13.722656 20.042969 13.875 20.195312 13.875 20.425781 L 13.875 21.199219 C 13.875 21.429688 13.722656 21.582031 13.488281 21.582031 L 12.332031 21.582031 L 12.332031 29.292969 C 12.332031 29.523438 12.179688 29.675781 11.949219 29.675781 Z M 11.949219 29.675781 "/>
<path style=" stroke:none;fill-rule:nonzero;fill:rgb(9.411765%,9.803922%,24.705882%);fill-opacity:1;" d="M 17.730469 29.292969 C 17.730469 29.523438 17.574219 29.675781 17.34375 29.675781 L 16.882812 29.675781 C 16.726562 29.675781 16.496094 29.523438 16.496094 29.367188 L 16.417969 28.828125 C 16.109375 29.445312 15.570312 29.753906 14.953125 29.753906 C 14.492188 29.753906 14.183594 29.601562 13.953125 29.292969 C 13.722656 28.984375 13.644531 28.519531 13.644531 27.902344 L 13.644531 23.203125 C 13.644531 22.972656 13.796875 22.816406 14.027344 22.816406 L 14.800781 22.816406 C 15.03125 22.816406 15.183594 22.972656 15.183594 23.203125 L 15.183594 27.828125 C 15.183594 28.136719 15.183594 28.367188 15.261719 28.445312 C 15.339844 28.597656 15.417969 28.675781 15.570312 28.675781 C 15.726562 28.675781 15.800781 28.597656 15.957031 28.519531 C 16.109375 28.445312 16.1875 28.367188 16.265625 28.210938 L 16.265625 23.203125 C 16.265625 22.972656 16.417969 22.816406 16.648438 22.816406 L 17.421875 22.816406 C 17.652344 22.816406 17.804688 22.972656 17.804688 23.203125 L 17.804688 29.292969 Z M 17.730469 29.292969 "/>
<path style=" stroke:none;fill-rule:nonzero;fill:rgb(9.411765%,9.803922%,24.705882%);fill-opacity:1;" d="M 22.816406 25.746094 C 22.816406 24.976562 22.738281 24.359375 22.664062 23.972656 C 22.585938 23.511719 22.429688 23.203125 22.199219 23.046875 C 21.96875 22.894531 21.738281 22.738281 21.351562 22.738281 C 21.042969 22.738281 20.8125 22.816406 20.582031 22.972656 C 20.351562 23.125 20.117188 23.355469 20.042969 23.585938 L 20.042969 20.425781 C 20.042969 20.195312 19.886719 20.042969 19.65625 20.042969 L 18.886719 20.042969 C 18.652344 20.042969 18.5 20.195312 18.5 20.425781 L 18.5 29.292969 C 18.5 29.523438 18.652344 29.675781 18.886719 29.675781 L 19.503906 29.675781 C 19.65625 29.675781 19.808594 29.523438 19.886719 29.367188 L 19.964844 28.984375 C 20.117188 29.214844 20.273438 29.367188 20.503906 29.523438 C 20.734375 29.675781 20.964844 29.753906 21.273438 29.753906 C 21.816406 29.753906 22.199219 29.523438 22.429688 29.058594 C 22.664062 28.597656 22.816406 27.828125 22.816406 26.824219 Z M 21.273438 26.746094 C 21.273438 27.210938 21.273438 27.597656 21.199219 27.902344 C 21.121094 28.210938 21.121094 28.367188 20.964844 28.519531 C 20.8125 28.675781 20.734375 28.675781 20.582031 28.675781 C 20.425781 28.675781 20.351562 28.675781 20.195312 28.597656 C 20.117188 28.519531 19.964844 28.445312 19.964844 28.367188 L 19.964844 24.511719 C 20.042969 24.359375 20.117188 24.203125 20.195312 24.050781 C 20.351562 23.894531 20.425781 23.894531 20.582031 23.894531 C 20.734375 23.894531 20.890625 23.972656 20.964844 24.050781 C 21.042969 24.203125 21.121094 24.359375 21.121094 24.667969 C 21.121094 24.976562 21.199219 25.359375 21.199219 25.898438 Z M 21.273438 26.746094 "/>
<path style=" stroke:none;fill-rule:nonzero;fill:rgb(9.411765%,9.803922%,24.705882%);fill-opacity:1;" d="M 27.210938 26.746094 C 27.441406 26.746094 27.597656 26.59375 27.597656 26.363281 L 27.597656 25.589844 C 27.597656 24.898438 27.519531 24.28125 27.441406 23.894531 C 27.363281 23.511719 27.132812 23.203125 26.824219 22.972656 C 26.515625 22.816406 26.132812 22.664062 25.589844 22.664062 C 24.820312 22.664062 24.28125 22.894531 23.972656 23.355469 C 23.664062 23.820312 23.511719 24.589844 23.511719 25.589844 L 23.511719 26.746094 C 23.511719 27.75 23.664062 28.445312 23.972656 28.90625 C 24.28125 29.367188 24.820312 29.601562 25.589844 29.601562 C 26.207031 29.601562 26.671875 29.445312 27.054688 29.136719 C 27.363281 28.828125 27.519531 28.445312 27.597656 27.902344 C 27.597656 27.671875 27.441406 27.519531 27.210938 27.519531 C 27.054688 27.519531 26.746094 27.519531 26.59375 27.519531 C 26.363281 27.519531 26.207031 27.671875 26.207031 27.902344 C 26.207031 28.058594 26.207031 28.210938 26.132812 28.289062 C 26.054688 28.445312 25.824219 28.519531 25.667969 28.519531 C 25.515625 28.519531 25.359375 28.445312 25.285156 28.367188 C 25.207031 28.289062 25.128906 28.136719 25.128906 27.902344 C 25.128906 27.671875 25.050781 27.363281 25.050781 26.902344 L 25.050781 26.59375 Z M 25.050781 25.898438 L 25.050781 25.4375 C 25.050781 24.976562 25.050781 24.667969 25.128906 24.433594 C 25.128906 24.203125 25.207031 24.050781 25.285156 23.972656 C 25.359375 23.894531 25.515625 23.820312 25.667969 23.820312 C 25.824219 23.820312 25.976562 23.894531 26.054688 23.972656 C 26.132812 24.050781 26.207031 24.203125 26.207031 24.433594 C 26.207031 24.667969 26.285156 24.976562 26.285156 25.4375 L 26.285156 25.898438 Z M 25.050781 25.898438 "/>
</g>
</svg>
