<?xml version="1.0" encoding="UTF-8"?>
<svg xmlns="http://www.w3.org/2000/svg" xmlns:xlink="http://www.w3.org/1999/xlink" width="37.5pt" height="37.5pt" viewBox="0 0 37.5 37.5" version="1.1">
<g id="surface1452">
<path style=" stroke:none;fill-rule:nonzero;fill:rgb(100%,67.058825%,56.862748%);fill-opacity:1;" d="M 30.957031 33.917969 L 12.207031 33.917969 C 10.574219 33.917969 9.25 32.589844 9.25 30.957031 L 9.25 12.207031 C 9.25 10.574219 10.574219 9.25 12.207031 9.25 L 30.957031 9.25 C 32.589844 9.25 33.917969 10.574219 33.917969 12.207031 L 33.917969 30.957031 C 33.917969 32.589844 32.589844 33.917969 30.957031 33.917969 Z M 30.957031 33.917969 "/>
<path style=" stroke:none;fill-rule:nonzero;fill:rgb(9.411765%,9.803922%,24.705882%);fill-opacity:1;" d="M 20.238281 11.222656 L 21.441406 11.222656 L 21.441406 15.144531 C 21.441406 15.382812 21.464844 15.550781 21.519531 15.652344 C 21.574219 15.753906 21.660156 15.804688 21.78125 15.804688 C 21.886719 15.804688 21.984375 15.773438 22.082031 15.710938 C 22.175781 15.644531 22.25 15.5625 22.296875 15.464844 L 22.296875 11.21875 L 23.496094 11.21875 L 23.496094 16.5625 L 22.554688 16.5625 L 22.453125 15.910156 L 22.425781 15.910156 C 22.171875 16.402344 21.785156 16.648438 21.273438 16.648438 C 20.921875 16.648438 20.660156 16.535156 20.492188 16.300781 C 20.320312 16.070312 20.238281 15.707031 20.238281 15.210938 L 20.238281 11.21875 Z M 20.238281 11.222656 "/>
<path style=" stroke:none;fill-rule:nonzero;fill:rgb(9.411765%,9.803922%,24.705882%);fill-opacity:1;" d="M 17.949219 15.832031 C 18.117188 15.832031 18.234375 15.746094 18.300781 15.570312 C 18.367188 15.398438 18.402344 15.113281 18.402344 14.714844 L 18.402344 13.050781 C 18.402344 12.667969 18.367188 12.386719 18.300781 12.210938 C 18.234375 12.03125 18.117188 11.945312 17.949219 11.945312 C 17.785156 11.945312 17.671875 12.035156 17.605469 12.210938 C 17.539062 12.390625 17.503906 12.667969 17.503906 13.050781 L 17.503906 14.714844 C 17.503906 15.113281 17.535156 15.398438 17.597656 15.570312 C 17.664062 15.742188 17.78125 15.832031 17.949219 15.832031 Z M 17 11.355469 C 17.25 11.195312 17.570312 11.117188 17.972656 11.117188 C 18.367188 11.117188 18.683594 11.195312 18.925781 11.359375 C 19.164062 11.523438 19.335938 11.777344 19.445312 12.121094 C 19.558594 12.46875 19.613281 12.929688 19.613281 13.503906 L 19.613281 14.277344 C 19.613281 14.847656 19.558594 15.304688 19.453125 15.652344 C 19.34375 15.996094 19.167969 16.25 18.929688 16.410156 C 18.6875 16.570312 18.359375 16.648438 17.949219 16.648438 C 17.523438 16.648438 17.191406 16.566406 16.949219 16.40625 C 16.707031 16.242188 16.539062 15.988281 16.4375 15.644531 C 16.332031 15.304688 16.28125 14.847656 16.28125 14.277344 L 16.28125 13.5 C 16.28125 12.925781 16.339844 12.464844 16.457031 12.117188 C 16.574219 11.769531 16.753906 11.515625 17 11.355469 Z M 17 11.355469 "/>
<path style=" stroke:none;fill-rule:nonzero;fill:rgb(9.411765%,9.803922%,24.705882%);fill-opacity:1;" d="M 13.847656 9.25 L 14.324219 11.492188 C 14.449219 12.042969 14.539062 12.511719 14.597656 12.902344 L 14.632812 12.902344 C 14.671875 12.625 14.761719 12.15625 14.902344 11.5 L 15.398438 9.25 L 16.59375 9.25 L 15.207031 14.191406 L 15.207031 16.5625 L 14.019531 16.5625 L 14.019531 14.191406 L 12.652344 9.25 Z M 13.847656 9.25 "/>
<path style=" stroke:none;fill-rule:nonzero;fill:rgb(9.411765%,9.803922%,24.705882%);fill-opacity:1;" d="M 21.382812 23.222656 C 21.382812 22.71875 21.355469 22.320312 21.292969 22.035156 C 21.230469 21.753906 21.132812 21.546875 20.996094 21.417969 C 20.859375 21.289062 20.667969 21.226562 20.429688 21.226562 C 20.242188 21.226562 20.070312 21.28125 19.90625 21.386719 C 19.742188 21.488281 19.621094 21.628906 19.53125 21.800781 L 19.523438 21.800781 L 19.523438 19.425781 L 18.546875 19.425781 L 18.546875 25.824219 L 19.386719 25.824219 L 19.488281 25.398438 L 19.511719 25.398438 C 19.589844 25.550781 19.707031 25.671875 19.863281 25.761719 C 20.019531 25.847656 20.195312 25.890625 20.386719 25.890625 C 20.730469 25.890625 20.980469 25.734375 21.144531 25.417969 C 21.304688 25.101562 21.386719 24.605469 21.386719 23.933594 L 21.386719 23.222656 Z M 20.363281 23.875 C 20.363281 24.207031 20.347656 24.464844 20.320312 24.648438 C 20.292969 24.835938 20.25 24.96875 20.183594 25.046875 C 20.121094 25.125 20.035156 25.164062 19.929688 25.164062 C 19.84375 25.164062 19.765625 25.144531 19.695312 25.105469 C 19.625 25.066406 19.566406 25.007812 19.523438 24.929688 L 19.523438 22.367188 C 19.558594 22.246094 19.617188 22.144531 19.699219 22.066406 C 19.785156 21.988281 19.875 21.949219 19.972656 21.949219 C 20.074219 21.949219 20.15625 21.992188 20.210938 22.070312 C 20.265625 22.152344 20.304688 22.289062 20.328125 22.480469 C 20.351562 22.671875 20.363281 22.941406 20.363281 23.296875 Z M 16.917969 24.898438 C 16.878906 24.980469 16.820312 25.050781 16.738281 25.105469 C 16.65625 25.160156 16.570312 25.183594 16.484375 25.183594 C 16.378906 25.183594 16.308594 25.144531 16.265625 25.058594 C 16.21875 24.972656 16.199219 24.828125 16.199219 24.625 L 16.199219 21.316406 L 15.179688 21.316406 L 15.179688 24.683594 C 15.179688 25.101562 15.25 25.40625 15.394531 25.605469 C 15.535156 25.800781 15.757812 25.898438 16.054688 25.898438 C 16.488281 25.898438 16.8125 25.691406 17.027344 25.273438 L 17.050781 25.273438 L 17.136719 25.824219 L 17.933594 25.824219 L 17.933594 21.3125 L 16.917969 21.3125 Z M 15.484375 19.652344 L 12.472656 19.652344 L 12.472656 20.46875 L 13.484375 20.46875 L 13.484375 25.824219 L 14.476562 25.824219 L 14.476562 20.46875 L 15.484375 20.46875 Z M 26.980469 25.898438 C 26.980469 26.917969 26.148438 27.75 25.128906 27.75 L 11.871094 27.75 C 10.851562 27.75 10.019531 26.917969 10.019531 25.898438 L 10.019531 19.578125 C 10.019531 18.5625 10.851562 17.730469 11.871094 17.730469 L 25.128906 17.730469 C 26.148438 17.730469 26.980469 18.5625 26.980469 19.578125 Z M 24.523438 23.910156 L 24.523438 23.136719 C 24.523438 22.660156 24.484375 22.289062 24.410156 22.015625 C 24.332031 21.746094 24.203125 21.550781 24.015625 21.421875 C 23.828125 21.292969 23.5625 21.230469 23.214844 21.230469 C 22.707031 21.230469 22.351562 21.386719 22.144531 21.699219 C 21.9375 22.011719 21.832031 22.503906 21.832031 23.179688 L 21.832031 23.96875 C 21.832031 24.625 21.933594 25.113281 22.132812 25.425781 C 22.335938 25.738281 22.6875 25.894531 23.1875 25.894531 C 23.601562 25.894531 23.925781 25.792969 24.152344 25.585938 C 24.382812 25.382812 24.496094 25.070312 24.496094 24.652344 C 24.496094 24.585938 24.492188 24.53125 24.488281 24.488281 L 23.613281 24.4375 C 23.609375 24.714844 23.578125 24.910156 23.519531 25.027344 C 23.464844 25.144531 23.359375 25.203125 23.207031 25.203125 C 23.097656 25.203125 23.011719 25.171875 22.957031 25.105469 C 22.90625 25.039062 22.871094 24.933594 22.851562 24.789062 C 22.835938 24.644531 22.824219 24.425781 22.824219 24.136719 L 22.824219 23.90625 L 24.523438 23.90625 Z M 22.824219 23.308594 L 22.824219 22.984375 C 22.824219 22.6875 22.832031 22.46875 22.851562 22.324219 C 22.867188 22.179688 22.902344 22.074219 22.953125 22.011719 C 23.007812 21.949219 23.085938 21.917969 23.195312 21.917969 C 23.300781 21.917969 23.382812 21.945312 23.433594 22.007812 C 23.484375 22.070312 23.519531 22.175781 23.539062 22.324219 C 23.558594 22.472656 23.566406 22.691406 23.566406 22.984375 L 23.566406 23.308594 Z M 22.824219 23.308594 "/>
<path style="fill:none;stroke-width:3;stroke-linecap:round;stroke-linejoin:round;stroke:rgb(9.411765%,9.803922%,24.705882%);stroke-opacity:1;stroke-miterlimit:4;" d="M 40.5 30.278716 L 40.5 36.501689 C 40.5 38.711149 38.711149 40.5 36.501689 40.5 L 11.498311 40.5 C 9.288851 40.5 7.5 38.711149 7.5 36.501689 L 7.5 21.106419 " transform="matrix(0.770833,0,0,0.770833,0,0)"/>
<path style="fill:none;stroke-width:3;stroke-linecap:round;stroke-linejoin:round;stroke:rgb(9.411765%,9.803922%,24.705882%);stroke-opacity:1;stroke-miterlimit:4;" d="M 7.5 14.913851 L 7.5 11.498311 C 7.5 9.288851 9.288851 7.5 11.498311 7.5 L 36.501689 7.5 C 38.711149 7.5 40.5 9.288851 40.5 11.498311 L 40.5 23.594595 " transform="matrix(0.770833,0,0,0.770833,0,0)"/>
</g>
</svg>
